<svg xmlns="http://www.w3.org/2000/svg" viewBox="0 0 165.74 180.89"><defs><style>.cls-1{fill:#c20506;}</style></defs><title>factura_electronica</title><g id="Capa_2" data-name="Capa 2"><g id="Capa_1-2" data-name="Capa 1"><path class="cls-1" d="M128.13,43H91.51A12,12,0,0,1,79.57,31V2.62a2.62,2.62,0,0,1,4.27-2l45.95,37.73A2.61,2.61,0,0,1,128.13,43ZM84.8,8.15V31a6.72,6.72,0,0,0,6.71,6.71h29.32Z"/><path class="cls-1" d="M126.89,180.89A38.85,38.85,0,1,1,165.74,142,38.9,38.9,0,0,1,126.89,180.89Zm0-72.47A33.62,33.62,0,1,0,160.51,142,33.66,33.66,0,0,0,126.89,108.42Z"/><path class="cls-1" d="M119.9,150.49c.73,3.51,3.37,5.7,7.3,5.7,4.71,0,6.63-2.27,6.63-5.21,0-3.22-1.64-4.93-7.64-6.65-9.68-2.8-12.86-6.21-12.86-12,0-6.91,6-11,13.19-11,10.13,0,13.39,5.41,13.86,10.41H133c-.54-2.11-1.68-4.8-6.49-4.8-4.24,0-5.63,2.44-5.63,4.64,0,3,1.57,4.28,8.08,6.1,9.19,2.56,12.39,6.21,12.39,12.48,0,7.7-5.79,11.63-14.37,11.61-8.89,0-13.91-4.65-14.45-11.27Zm3.61-26.72v-6.2h6.32v6.2Zm.33,42.74v-8.24h6.37v8.24Z"/><line class="cls-1" x1="18.61" y1="57.79" x2="115.78" y2="57.79"/><path class="cls-1" d="M115.78,60.4H18.61a2.62,2.62,0,0,1,0-5.23h97.17a2.62,2.62,0,0,1,0,5.23Z"/><line class="cls-1" x1="18.61" y1="74.78" x2="115.78" y2="74.78"/><path class="cls-1" d="M115.78,77.4H18.61a2.62,2.62,0,0,1,0-5.23h97.17a2.62,2.62,0,0,1,0,5.23Z"/><line class="cls-1" x1="18.61" y1="91.78" x2="115.78" y2="91.78"/><path class="cls-1" d="M115.78,94.4H18.61a2.62,2.62,0,0,1,0-5.23h97.17a2.62,2.62,0,0,1,0,5.23Z"/><line class="cls-1" x1="18.61" y1="140.63" x2="65.37" y2="140.63"/><path class="cls-1" d="M65.37,143.24H18.61a2.62,2.62,0,0,1,0-5.23H65.37a2.62,2.62,0,1,1,0,5.23Z"/><line class="cls-1" x1="18.61" y1="126.24" x2="65.37" y2="126.24"/><path class="cls-1" d="M65.37,128.86H18.61a2.62,2.62,0,0,1,0-5.23H65.37a2.62,2.62,0,1,1,0,5.23Z"/><line class="cls-1" x1="18.61" y1="110.55" x2="65.37" y2="110.55"/><path class="cls-1" d="M65.37,113.17H18.61a2.62,2.62,0,0,1,0-5.23H65.37a2.62,2.62,0,1,1,0,5.23Z"/><path class="cls-1" d="M103.89,172.2H11.94A12,12,0,0,1,0,160.26V11.94A12,12,0,0,1,11.94,0H82.18a2.62,2.62,0,1,1,0,5.23H11.94a6.72,6.72,0,0,0-6.71,6.71V160.26A6.72,6.72,0,0,0,11.94,167h92a2.62,2.62,0,1,1,0,5.23Z"/><path class="cls-1" d="M128.13,108.27a2.61,2.61,0,0,1-2.61-2.61V40.34a2.62,2.62,0,0,1,5.23,0v65.32A2.61,2.61,0,0,1,128.13,108.27Z"/></g></g></svg>