<svg xmlns="http://www.w3.org/2000/svg" viewBox="0 0 184 166"><defs><style>.cls-1{fill:#c20506;}.cls-2,.cls-3{fill:none;stroke:#c20506;stroke-width:5px;}.cls-2{stroke-miterlimit:10;}.cls-3{stroke-linecap:round;stroke-linejoin:round;}</style></defs><title>multiples_conceptos</title><g id="Capa_2" data-name="Capa 2"><g id="Capa_1-2" data-name="Capa 1"><path class="cls-1" d="M87.06,32.3a4.76,4.76,0,0,0,5,3.92c3.24,0,4.56-1.56,4.56-3.58,0-2.21-1.13-3.39-5.25-4.57-6.66-1.92-8.83-4.27-8.83-8.28,0-4.75,4.1-7.54,9.06-7.54,7,0,9.2,3.72,9.53,7.16H96c-.38-1.45-1.16-3.3-4.46-3.3-2.92,0-3.87,1.68-3.87,3.19,0,2,1.08,2.94,5.55,4.19,6.32,1.76,8.52,4.27,8.52,8.58,0,5.29-4,8-9.88,8-6.11,0-9.56-3.2-9.93-7.75Zm2.49-18.36V9.68h4.34v4.26Zm.23,29.37V37.65h4.37v5.66Z"/><circle class="cls-2" cx="92" cy="26.5" r="24"/><path class="cls-1" d="M168.07,152.44a3,3,0,0,1-3-3.08,3.11,3.11,0,0,1,3.11-3,3,3,0,0,1,3,3.11A2.94,2.94,0,0,1,168.07,152.44Z"/><rect class="cls-2" x="142" y="123.5" width="27" height="52" rx="4.71" transform="translate(305 -6) rotate(90)"/><path class="cls-3" d="M174.46,135.82s2-42.82-4-53.82L151,32.5s-3-13-12-9c0,0-6,2-2,13l6.85,28.38"/><path class="cls-3" d="M160,96.5l-10-25s-2-8-8-6c0,0-8,1-5,13l2,11s2,11-3,20c0,0-8.39,15,.81,26.5"/><path class="cls-1" d="M15.93,152.94a3,3,0,0,0,3-3.08,3.11,3.11,0,0,0-3.11-3,3,3,0,0,0-3,3.11A2.94,2.94,0,0,0,15.93,152.94Z"/><rect class="cls-2" x="15" y="124" width="27" height="52" rx="4.71" transform="translate(178.5 121.5) rotate(90)"/><path class="cls-3" d="M9.54,136.32s-2-42.82,4-53.82L33,33s3-13,12-9c0,0,6,2,2,13L40.15,65.38"/><path class="cls-3" d="M24,97,34,72s2-8,8-6c0,0,8,1,5,13L45,90s-2,11,3,20c0,0,8.39,15-.81,26.5"/></g></g></svg>