<svg xmlns="http://www.w3.org/2000/svg" viewBox="0 0 125.75 185.65"><defs><style>.cls-1{fill:none;stroke:#023165;stroke-linecap:round;stroke-linejoin:round;stroke-width:5px;}.cls-2{fill:#023165;}</style></defs><title>pago_en_linea</title><g id="Capa_2" data-name="Capa 2"><g id="Capa_1-2" data-name="Capa 1"><line class="cls-1" x1="28.08" y1="24.23" x2="122.87" y2="24.23"/><path class="cls-1" d="M24.75,120,42.24,91.11s4.57-8.36,12.93-3c0,0,9.13,3.8,4.57,11.41L46.81,121.54s17.49,22.82-1.52,48.68v12.93"/><path class="cls-1" d="M53.88,149.3h60.24a9.16,9.16,0,0,0,9.13-9.13V11.63a9.16,9.16,0,0,0-9.13-9.13H37.3a9.16,9.16,0,0,0-9.13,9.13V65l-.09,0S5,104.8,3.45,111.65c0,0-3.8,19.78,3.8,51.72l-3.8,18.26"/><line class="cls-1" x1="123.08" y1="123.15" x2="49.03" y2="123.15"/><line class="cls-1" x1="66.58" y1="136.75" x2="84.08" y2="136.75"/><path class="cls-1" d="M49.13,86.22a29.29,29.29,0,1,1,10.93,13"/><path class="cls-2" d="M70.16,81a5.84,5.84,0,0,0,6.16,4.81c4,0,5.61-1.91,5.61-4.4,0-2.71-1.4-4.16-6.46-5.61-8.17-2.36-10.85-5.25-10.85-10.16,0-5.84,5-9.27,11.13-9.27,8.55,0,11.31,4.57,11.71,8.79H81.18c-.46-1.78-1.42-4.05-5.48-4.05C72.12,61.12,71,63.18,71,65c0,2.5,1.33,3.61,6.82,5.15,7.76,2.16,10.46,5.24,10.46,10.53,0,6.5-4.89,9.83-12.13,9.81-7.51,0-11.75-3.93-12.2-9.52Zm3-22.56V53.22h5.33v5.23Zm.28,36.09v-7h5.37v7Z"/><line class="cls-1" x1="28.17" y1="64.87" x2="28.17" y2="112.79"/></g></g></svg>