<svg xmlns="http://www.w3.org/2000/svg" viewBox="0 0 132.58 183"><defs><style>.cls-1{fill:none;stroke:#023165;stroke-linecap:round;stroke-linejoin:round;stroke-width:4px;}</style></defs><title>reportes</title><g id="Capa_2" data-name="Capa 2"><g id="Capa_1-2" data-name="Capa 1"><polygon class="cls-1" points="123.01 2 84.36 2 89.4 22.17 118.81 22.17 123.01 2"/><path class="cls-1" d="M121.61,8.72h1a8,8,0,0,1,8,8V162.1a8,8,0,0,1-8,8H20.9a8,8,0,0,1-8-8V16.7a8,8,0,0,1,8-8H86"/><path class="cls-1" d="M119.65,170.37V173a8,8,0,0,1-8,8H10a8,8,0,0,1-8-8V27.62a8,8,0,0,1,8-8h2.82"/><line class="cls-1" x1="21.33" y1="157.47" x2="120.49" y2="157.47"/><polyline class="cls-1" points="99.48 157.47 99.48 101.16 113.77 101.16 113.77 157.47"/><polyline class="cls-1" points="75.95 157.47 75.95 115.45 90.24 115.45 90.24 157.47"/><polyline class="cls-1" points="52.42 157.47 52.42 127.22 66.71 127.22 66.71 157.47"/><polyline class="cls-1" points="28.89 157.47 28.89 138.98 43.18 138.98 43.18 157.47"/><rect class="cls-1" x="24.69" y="22.17" width="40.34" height="52.1"/><path class="cls-1" d="M97.38,23v12.3a10.08,10.08,0,1,0,12.45-.13V23"/><line class="cls-1" x1="33.09" y1="33.09" x2="55.78" y2="33.09"/><line class="cls-1" x1="33.09" y1="43.18" x2="55.78" y2="43.18"/><line class="cls-1" x1="33.09" y1="53.26" x2="55.78" y2="53.26"/><line class="cls-1" x1="33.09" y1="63.35" x2="55.78" y2="63.35"/><line class="cls-1" x1="23.85" y1="84.36" x2="91.08" y2="84.36"/><line class="cls-1" x1="23.85" y1="94.44" x2="91.08" y2="94.44"/><line class="cls-1" x1="23.85" y1="104.53" x2="91.08" y2="104.53"/></g></g></svg>