<?xml version="1.0" encoding="utf-8"?>
<!-- Generator: Adobe Illustrator 23.0.0, SVG Export Plug-In . SVG Version: 6.00 Build 0)  -->
<svg version="1.1" id="Capa_1" xmlns="http://www.w3.org/2000/svg" xmlns:xlink="http://www.w3.org/1999/xlink" x="0px" y="0px"
	 viewBox="0 0 252.4 363.8" style="enable-background:new 0 0 252.4 363.8;" xml:space="preserve">
<style type="text/css">
	.st0{fill:#D8A023;}
	.st1{fill:#FFFFFF;}
	.st2{fill:none;stroke:#023165;stroke-width:3;stroke-miterlimit:10;stroke-dasharray:9.97,9.97;}
	.st3{fill:url(#SVGID_1_);}
	.st4{fill:none;stroke:#A6A6A6;stroke-width:3;stroke-miterlimit:10;stroke-dasharray:9.97,9.97;}
	.st5{fill:#D8A023;stroke:#A1A1A1;stroke-miterlimit:10;}
</style>
<title>academia</title>
<g>
	<g id="Capa_1-2">
		<path class="st0" d="M78.7,130.1l-0.2-0.7c-0.1-0.5-0.3-1.1-0.4-1.6c-0.4-1.8-0.6-3.7-0.5-5.6c0-0.4,0.1-0.8,0.3-1.2l0.1-0.3
			l-0.6-1.9l-0.2-0.7c-0.4-0.9-0.3-1.9,0.3-2.6l-0.8-2.3l-2.9-8.6l-5.6-0.4l-1.4-0.1h-0.3l-3-0.4l3.5-3.1l3.1-2.7l5.8-5.2l5.7-5
			l4.2-3.7l2.8-2.5l2.5-2.2l8.5-7.5c0.4-0.3,0.8-0.5,1.3-0.5h0.2l12.7,1l6.1,0.5l5.2,0.4l4.5,0.3l16.4,1.2h0.3l2.9,0.4l-17.1,15.1
			l-0.8-1l-0.4-0.4c-0.2-0.3-0.4-0.6-0.7-0.8c-1.1-1.1-2.5-2-4-2.4c-2.4-0.8-5-1.2-7.5-1.2h-0.7c-3.2,0.1-6.4,0.5-9.4,1.4
			c-3.9,1-7.7,2.6-11.2,4.6c-3,1.7-5.7,3.9-7.9,6.5c-1.2,1.4-2,3-2.4,4.7c-0.1,0.6-0.2,1.2-0.2,1.8c0,0.3-0.1,0.6-0.1,0.9l-0.1,1.2
			l-9.3-0.7l1.9,5.6c0.4,1.3,0.9,2.6,1.3,3.9c0.9,0.2,1.5,0.9,1.8,1.8c0.3,0.9,0.6,1.8,0.9,2.7l0,0l0.4,0.3c0.4,0.3,0.7,0.6,1,0.9
			c1.6,2,2.9,4.2,3.7,6.6c0,0.1,0.1,0.2,0.1,0.4l0.2,1.1l-9.6,3.2L78.7,130.1z"/>
		<path class="st1" d="M101.1,72.6L101.1,72.6l18.8,1.4l9.7,0.7L146,76c0.1,0,0.3,0,0.4,0c-4.7,4.2-9.4,8.3-14.1,12.4
			c-0.4-0.4-0.7-0.9-1.1-1.3c-1.3-1.3-2.8-2.2-4.5-2.8c-2.6-0.9-5.3-1.3-8-1.2H118c-3.3,0.1-6.6,0.6-9.8,1.4
			c-4.1,1.1-7.9,2.7-11.6,4.8c-3.1,1.8-5.9,4.1-8.2,6.8c-1.3,1.5-2.2,3.3-2.7,5.3c-0.2,0.9-0.2,1.8-0.3,2.8l-10-0.8
			c0,0.2,0.1,0.3,0.1,0.4c0.7,2,1.3,3.9,2,5.9l1.9,5.5c0,0.2,0.2,0.4,0.4,0.3c0.6,0,1.1,0.4,1.2,1c0.3,1,0.6,1.9,1,2.9
			c0.1,0.1,0.2,0.3,0.3,0.4c0.4,0.3,0.8,0.6,1.2,1c1.5,1.9,2.7,4,3.5,6.2c0,0.1,0,0.2,0,0.2l-7.2,2.4c-0.2-0.8-0.4-1.5-0.6-2.3
			c-0.4-1.7-0.5-3.5-0.4-5.2c0.1-0.5,0.2-1,0.4-1.5c0-0.1,0-0.3,0-0.4c-0.3-0.9-0.6-1.8-0.9-2.7c-0.4-0.7-0.1-1.5,0.5-1.8
			c0-0.1-0.1-0.2-0.1-0.3c-1.3-3.9-2.6-7.8-3.9-11.8c0-0.2-0.2-0.4-0.5-0.4c-2.5-0.2-5-0.4-7.5-0.6h-0.4c0.5-0.4,0.9-0.8,1.4-1.2
			l8.9-7.9l9.9-8.8l4.6-4l9.3-8.2C100.7,72.7,100.9,72.6,101.1,72.6 M101.1,70.1c-0.8,0-1.6,0.3-2.2,0.8l-8,7.1l-1.3,1.1L88,80.5
			l-3,2.6l-4.1,3.7l-5.7,5.1l-6,5.3l-2.9,2.6l-0.9,0.8l-0.4,0.4l-4.2,3.8l5.6,0.7h0.1h0.3l1.5,0.1l4.7,0.3l2.5,7.6l0.6,1.9
			c-0.5,1-0.5,2.2-0.1,3.2l0.2,0.7c0.2,0.5,0.3,1,0.5,1.5c-0.2,0.5-0.3,0.9-0.3,1.4c-0.1,2,0,4,0.5,5.9c0.1,0.6,0.3,1.1,0.4,1.7
			l0.2,0.7l0.7,2.7l2.6-0.9l4.4-1.5l2.8-0.9l2.1-0.7l-0.4-2.2c0-0.2-0.1-0.4-0.2-0.6c-0.9-2.5-2.2-4.9-3.9-7
			c-0.4-0.4-0.7-0.8-1.2-1.1l-0.1-0.1c-0.3-0.8-0.5-1.5-0.8-2.3c-0.3-1-1-1.9-2-2.3l-1.1-3.3l-0.4-1.2l-0.5-1.6
			c-0.1-0.3-0.2-0.7-0.3-1l3,0.2l3.2,0.2l2.4,0.2l0.3-2.4l0.1-1c0-0.5,0.1-1.1,0.2-1.6c0.4-1.6,1.1-3,2.2-4.2
			c2.1-2.5,4.6-4.6,7.5-6.2c3.4-2,7.1-3.5,11-4.5c3-0.8,6.1-1.3,9.2-1.4h0.7c2.4-0.1,4.8,0.3,7.1,1.1c1.3,0.4,2.5,1.1,3.5,2.1
			c0.2,0.2,0.4,0.5,0.6,0.7c0.1,0.2,0.2,0.3,0.4,0.5l1.7,2l2-1.7l12.1-10.7l2-1.8l4.1-3.7l-5.5-0.8h-0.1l-0.4-0.1l-7.1-0.5l-9.3-0.7
			l-4.5-0.3l-5.3-0.4L114,71l-12.7-1L101.1,70.1z"/>
		<path class="st0" d="M90.4,119.4l-0.4-1.3c-0.4-1.1-0.7-2.2-1.1-3.3c-0.8-2.5-1.7-5.1-2.6-7.6c-1-2.6-0.7-5.5,0.7-7.9
			c1.4-2.4,3.2-4.5,5.4-6.2c2.6-2,5.4-3.8,8.4-5.1c2.8-1.3,5.8-2.3,8.8-3c3-0.7,6-1.1,9.1-1.1c1.4,0,2.7,0.1,4.1,0.3
			c2.4,0.3,4.8,1.1,6.9,2.4c1.6,1.1,2.9,2.6,3.5,4.5c1,2.9,2,5.9,2.9,8.8l1.3,3.8l1.2,2.9l-2.9-1.3c-15.9-7.1-34.6-0.8-42.8,14.6
			l-1.3,2.4L90.4,119.4z"/>
		<path class="st1" d="M118.7,85.1c1.3,0,2.6,0.1,3.9,0.3c2.3,0.2,4.4,1,6.4,2.2c1.4,0.9,2.5,2.2,3,3.8c1.4,4.1,2.8,8.2,4.1,12.3
			l0.1,0.4l0,0c-16.5-7.4-35.9-0.8-44.5,15.1l-0.1-0.3c-0.2-0.4-0.3-0.9-0.4-1.3c-1.2-3.6-2.4-7.3-3.7-10.9
			c-0.8-2.3-0.6-4.8,0.6-6.8c1.3-2.3,3-4.3,5.1-5.8c2.5-2,5.2-3.6,8.1-4.9c2.8-1.3,5.6-2.3,8.6-3C112.9,85.4,115.8,85.1,118.7,85.1
			 M118.8,82.5c-3.2,0-6.3,0.4-9.4,1.2c-3.1,0.7-6.2,1.8-9.1,3.1c-3.1,1.4-6,3.1-8.6,5.2c-2.3,1.8-4.3,4.1-5.8,6.6
			c-1.6,2.7-1.9,6-0.8,8.9c0.9,2.5,1.8,5.1,2.6,7.6l1.1,3.3l0.1,0.4l0.3,0.9v0.1v0.1l0.1,0.3l2,5.1l2.6-4.8
			c7.9-14.7,25.9-20.9,41.2-14l6,2.7l-2.6-5.9v-0.1l-0.1-0.2l-1.2-3.5c-1-2.9-2-5.9-3-8.8c-0.7-2.1-2.1-3.9-4-5.2
			c-2.2-1.4-4.8-2.3-7.4-2.6C121.6,82.7,120.2,82.6,118.8,82.5L118.8,82.5z"/>
		<path class="st0" d="M184.7,97.1c-0.7,0-1.3-0.6-1.3-1.3l0,0V87c0-0.5,0.3-1,0.8-1.2c0.2-0.1,0.3-0.1,0.5-0.1
			c0.3,0,0.6,0.1,0.9,0.3l10,8.9c0.5,0.5,0.6,1.3,0.1,1.8c-0.2,0.3-0.6,0.4-1,0.4L184.7,97.1z"/>
		<path class="st1" d="M184.7,87l10,8.9h-10V87 M184.7,84.5c-1.4,0-2.5,1.1-2.5,2.5c0,0,0,0,0,0v8.9c0,1.4,1.1,2.5,2.5,2.5h10
			c1.4,0,2.5-1.1,2.5-2.5c0-0.7-0.3-1.4-0.9-1.9l-10-8.9C185.9,84.7,185.3,84.4,184.7,84.5L184.7,84.5z"/>
		<path class="st0" d="M145.2,156.9c-0.7,0-1.3-0.6-1.3-1.3c0,0,0,0,0,0V85.4c0-0.7,0.6-1.3,1.3-1.3l0,0h37c0.7,0,1.3,0.6,1.3,1.3
			l0,0v11.7h13.3c0.7,0,1.3,0.6,1.3,1.3c0,0,0,0,0,0v57.2c0,0.7-0.6,1.3-1.2,1.3c0,0,0,0,0,0H145.2z"/>
		<path class="st1" d="M182.2,85.4v11.7c0,0.7,0.6,1.3,1.3,1.3l0,0h13.3v57.2h-51.6V85.4H182.2 M182.2,82.8h-37
			c-1.4,0-2.5,1.1-2.5,2.5v70.2c0,1.4,1.1,2.5,2.5,2.5h51.6c1.4,0,2.5-1.1,2.5-2.5c0,0,0,0,0,0V98.4c0-1.4-1.1-2.5-2.5-2.5h-12V85.4
			C184.8,84,183.7,82.8,182.2,82.8L182.2,82.8z"/>
		<path class="st1" d="M162.3,105.4c0.3-2.3,0.5-4.1,0.7-6c0-0.4-0.1-0.7-0.3-1c-0.1-0.2-0.3-0.4-0.3-0.6s0.3-0.6,0.5-0.6
			c0.8,0.1,1.1-1.3,2.1-0.5c0.1,0.2,0.3,0.3,0.5,0.3c3.2,0.8,4.3,3.2,4.6,6.1c0.4,2.5-0.4,5.1-2.1,7c-1.7,1.8-3.7,1.5-4.6-0.8
			C162.9,108,162.6,106.7,162.3,105.4z M164.8,98.4c-0.8,3-1.1,6.1-0.7,9.2c0.1,0.3,0.2,0.6,0.3,0.9c0.7,1.6,1.5,1.8,2.7,0.4
			c1.8-2.5,2.1-5.8,0.7-8.6C167.2,99.3,166.1,98.6,164.8,98.4L164.8,98.4z"/>
		<path class="st1" d="M161.1,105.3v6.5c0,0.5,0,1.1-0.7,1.1s-0.8-0.6-0.8-1.1c0-3.9,0-7.7-0.1-11.6c-0.1-0.6-0.1-1.1-0.1-1.7
			c0.1-0.4,0.3-0.9,0.6-1c0.6-0.2,0.8,0.4,0.8,0.9v6.8L161.1,105.3z"/>
		<path class="st1" d="M163.2,116c0.9,0,1.7-0.1,2.6-0.2c1.3-0.2,2.5-0.6,3.7-1.2c0.9-0.4,1.7-1,2.5-1.6c0.9-0.9,1.7-1.9,2.3-3
			c0.5-0.8,0.8-1.7,1.1-2.6c0.3-1.2,0.5-2.4,0.4-3.6c0-0.8-0.1-1.6-0.4-2.3c-0.3-0.9-0.7-1.8-1.2-2.7c-0.5-0.8-1.1-1.5-1.8-2.1
			c-0.8-0.7-1.7-1.3-2.6-1.7c-1.4-0.6-2.8-0.9-4.3-0.8l0,0c-0.1,0-0.2,0-0.2,0c0-0.1,0-0.1,0-0.2c0.1-0.2,0.3-0.4,0.5-0.5
			c0.4-0.2,0.8-0.4,1.3-0.4c1.3-0.1,2.7,0.2,3.9,0.7c0.9,0.4,1.7,0.9,2.5,1.5c1.2,1,2.2,2.2,2.9,3.5c0.3,0.6,0.5,1.2,0.7,1.8
			c0.3,1.2,0.4,2.5,0.3,3.7c-0.1,1.5-0.5,3-1.2,4.3c-0.8,1.6-1.8,3-3.1,4.1c-1.9,1.7-4.3,3-6.8,3.6c-1.2,0.3-2.4,0.5-3.6,0.5
			c-0.6,0-1.1,0-1.7,0c-1.1,0-2.2-0.2-3.3-0.5c-1.1-0.3-2.2-0.8-3.1-1.5c-0.9-0.7-1.7-1.6-2.3-2.6c-0.4-0.7-0.7-1.4-0.9-2.2
			c-0.1-0.4-0.2-0.9-0.3-1.4c-0.1-0.7-0.2-1.4-0.1-2.1c0-0.9,0.1-1.9,0.4-2.8c0.2-1,0.6-2,1-2.9c0.5-0.9,1-1.8,1.7-2.6
			c0.5-0.7,1.1-1.3,1.8-1.8c0.8-0.7,1.7-1.3,2.6-1.9c0.9-0.5,1.8-0.9,2.8-1.2c1-0.3,2-0.6,3-0.7c0.1,0,0.2,0,0.3,0.1s0,0.2-0.1,0.3
			c-0.3,0.4-0.7,0.6-1.2,0.7c-0.3,0.1-0.7,0.1-1,0.2c-0.9,0.2-1.9,0.5-2.7,0.8c-0.6,0.3-1.2,0.6-1.8,1c-0.5,0.4-1.1,0.8-1.5,1.3
			c-1.5,1.6-2.6,3.6-3.1,5.7c-0.4,1.6-0.5,3.2-0.3,4.8c0.2,1.4,0.7,2.8,1.4,4c0.8,1.3,1.9,2.3,3.2,2.9c0.9,0.4,1.8,0.8,2.8,1
			C161.1,115.9,162.1,116,163.2,116z"/>
		<path class="st0" d="M122.8,175.9c-4.8,0-8.8-3.9-8.8-8.7c0-12.5,0-25,0-37.5l-0.1-8.6h9.3v2.9c0,0.7,0,1.5,0,2.2
			c0,0.4,0.2,0.8,0.6,1c0.3,0.2,0.6,0.3,1,0.3c0.4,0,0.8-0.1,1.1-0.4c0.3-0.2,0.5-0.5,0.5-0.9c0-0.8,0-1.7,0-2.5v-0.8
			c0-0.1,0-0.3,0-0.4l0.1-1.6h4.7v4.9c0,1,0.4,1.4,1.4,1.6h0.3c0.4,0,0.7-0.1,1.1-0.3c0.3-0.2,0.5-0.5,0.5-0.9v-5.3h4.6l0.1,1.5
			c0,0.1,0,0.3,0,0.4c0,0.7,0,2.9,0,2.9c-0.1,0.8,0.5,1.5,1.3,1.6c0.1,0,0.2,0,0.3,0c0.1,0,0.3,0,0.4,0c1-0.2,1.4-0.6,1.4-1.6v-4.9
			h4.8v2.7c0,0.2,0,0.4,0,0.7c0,0.6,0,1.1,0,1.7c-0.1,0.4,0,0.7,0.3,1c0.3,0.3,0.8,0.5,1.3,0.5h0.2c0.4-0.1,0.8-0.2,1.2-0.5
			c0.1-0.1,0.3-0.2,0.3-0.7c0-0.8,0-1.6,0-2.3v-3h4.6l0.1,1.5c0,0.1,0,0.3,0,0.4v3c-0.1,0.8,0.5,1.5,1.3,1.6c0.1,0,0.2,0,0.3,0h0.3
			c0.4,0,0.8-0.2,1.1-0.4c0.2-0.2,0.4-0.5,0.4-0.8c0-0.9,0-1.8,0-2.7V121h4.7l0.1,1.5c0,0.1,0,0.3,0,0.4v3c-0.1,0.7,0.4,1.4,1.1,1.5
			c0.1,0,0.1,0,0.2,0h0.4c0.4,0,0.8-0.1,1.1-0.4c0.3-0.2,0.5-0.5,0.5-0.8c0-0.8,0-1.7,0-2.6v-2.7h9.2l-0.1,8.7c0,12.5,0,25,0,37.5
			c0,4.8-3.9,8.8-8.8,8.8L122.8,175.9L122.8,175.9z"/>
		<path class="st1" d="M129.7,122.4v3.4c-0.1,1.5,1,2.9,2.5,3c0,0,0.1,0,0.1,0c0.2,0,0.4,0,0.5,0c0.7,0,1.3-0.2,1.9-0.6
			c0.8-0.5,1.2-1.3,1.2-2.2v-3.7h1.8c0,0.1,0,0.3,0,0.5c0,1,0,1.9,0,2.9c-0.1,1.6,1.1,3,2.7,3.1c0.1,0,0.2,0,0.3,0
			c0.2,0,0.4,0,0.6,0c1.5-0.1,2.7-1.4,2.6-3c0,0,0,0,0,0v-3.4h1.8v1.2c0,0.8,0.1,1.5,0,2.2c-0.1,1.6,1.1,3,2.7,3.1
			c0.1,0,0.2,0,0.3,0c0.1,0,0.3,0,0.4,0c0.6-0.1,1.2-0.3,1.7-0.7c0.7-0.4,1.1-1.2,1-2c0-1.1,0-2.2,0-3.3v-0.5h1.8c0,0.1,0,0.3,0,0.5
			v3c-0.1,1.6,1.1,3,2.8,3.1c0.1,0,0.2,0,0.2,0h0.4c0.7-0.1,1.4-0.3,1.9-0.8c0.6-0.5,0.9-1.2,0.9-1.9c0-1.2,0-2.5,0-3.8h1.8
			c0,0.2,0,0.3,0,0.5c0,1,0,2,0,3c-0.1,1.5,1,2.9,2.5,3c0,0,0,0,0,0c0.2,0,0.4,0,0.6,0.1c0.7,0,1.4-0.2,2-0.6
			c0.7-0.5,1.1-1.2,1.1-2.1c0-1.2,0-2.4,0-3.8h6.3l-0.1,7.2c0,12.5,0,25,0,37.5c-0.1,3.9-3.2,7.1-7.1,7.1h-44.3
			c-4,0-7.3-3.2-7.3-7.3c0-12.5,0-25,0-37.5l-0.1-7.2h6.3v0.5c0,1,0,2.1,0,3.2c-0.1,1,0.5,1.9,1.4,2.4c0.5,0.3,1.1,0.5,1.8,0.5
			c0.7,0,1.4-0.2,1.9-0.6c0.8-0.4,1.2-1.3,1.2-2.2c0-1.1,0-2.2,0-3.3c0-0.2,0-0.3,0-0.5L129.7,122.4 M132.7,119.4h-7.6l-0.1,2.8v0.1
			c0,0.2,0,0.3,0,0.5v0.8c0,0.7,0,1.5,0,2.3c0,0-0.1,0-0.1,0c-0.1,0-0.1,0-0.2,0c0-0.7,0-1.4,0-2.1v-4.4h-12.3v3l0.1,7.1
			c0,13.5,0,25.8,0,37.5c0,5.7,4.6,10.2,10.3,10.2H167c5.7,0,10.3-4.6,10.3-10.2c0-13.6,0-27.1,0-37.5v-7.2v-3h-12.1v6.5h-0.3v-3.1
			c0-0.2,0-0.4,0-0.5v-0.1l-0.1-2.8h-7.6v6.5H157h-0.2c0,0,0-0.1,0-0.1v-3c0-0.2,0-0.4,0-0.5v-0.1l-0.1-2.8h-7.5v4.5
			c0,0.7,0,1.3,0,2l-0.3,0.1h-0.1c0-0.6,0-1.2,0-1.7c0-0.2,0-0.4,0-0.6v-4.1H141v6.5h-0.1h-0.2c0-0.1,0-0.1,0-0.2v-0.9
			c0-0.7,0-1.4,0-2c0-0.2,0-0.4,0-0.5v-0.1l-0.1-2.8H133v6.5h-0.1h-0.1h-0.1L132.7,119.4L132.7,119.4z"/>
		<path class="st1" d="M118.7,137.4v29.8c-0.1,1,0.5,1.9,1.3,2.3c0.5,0.3,1.1,0.4,1.7,0.4c15.2,0,30.4,0,45.6,0h0.7
			c1.6,0.1,2.9-1.2,3-2.8c0-0.1,0-0.1,0-0.2c0-9.6,0-19.3,0-28.9v-0.6L118.7,137.4z"/>
		<rect x="121.9" y="139.6" class="st0" width="7.4" height="7.1"/>
		<rect x="131.6" y="139.6" class="st0" width="7.4" height="7.1"/>
		<rect x="141.2" y="139.6" class="st0" width="7.4" height="7.1"/>
		<rect x="150.8" y="139.6" class="st0" width="7.4" height="7.1"/>
		<rect x="160.4" y="139.6" class="st0" width="7.4" height="7.1"/>
		<rect x="121.9" y="150.2" class="st0" width="7.4" height="7.1"/>
		<rect x="131.6" y="150.2" class="st0" width="7.4" height="7.1"/>
		<rect x="141.2" y="150.2" class="st0" width="7.4" height="7.1"/>
		<rect x="150.8" y="150.2" class="st0" width="7.4" height="7.1"/>
		<rect x="160.4" y="150.2" class="st0" width="7.4" height="7.1"/>
		<rect x="121.9" y="160.5" class="st0" width="7.4" height="7.1"/>
		<rect x="131.6" y="160.5" class="st0" width="7.4" height="7.1"/>
		<rect x="141.2" y="160.5" class="st0" width="7.4" height="7.1"/>
		<path class="st0" d="M132.8,129.3c-1.7,0.1-3.2-1.3-3.3-3c0-0.1,0-0.2,0-0.4v-7.2c0-1.8,1.5-3.3,3.3-3.3c1.8,0,3.3,1.5,3.3,3.3
			v7.3c0.1,1.8-1.2,3.3-3,3.3C133.1,129.4,132.9,129.4,132.8,129.3L132.8,129.3z"/>
		<path class="st1" d="M132.8,116.9L132.8,116.9c0.9-0.1,1.8,0.6,1.9,1.5c0,0.1,0,0.2,0,0.3v3.6c0,1.2,0,2.4,0,3.6
			c0.1,0.9-0.6,1.8-1.5,1.9c-0.1,0-0.2,0-0.3,0l0,0c-0.9,0.1-1.8-0.6-1.8-1.6c0-0.1,0-0.2,0-0.3v-7.2c-0.1-0.9,0.6-1.8,1.5-1.9
			C132.6,116.9,132.7,116.9,132.8,116.9 M132.8,113.9c-2.6-0.1-4.7,1.9-4.8,4.5c0,0.1,0,0.2,0,0.3v7.3c0,2.7,2.2,4.8,4.8,4.8
			c2.7,0,4.8-2.2,4.8-4.8l0,0c0-0.9,0-1.7,0-2.6v-4.7c0.1-2.6-1.9-4.7-4.5-4.8C133.1,113.9,133,113.9,132.8,113.9L132.8,113.9
			L132.8,113.9z"/>
		<path class="st0" d="M156.9,129.3c-1.7,0.1-3.2-1.3-3.3-3c0-0.1,0-0.2,0-0.4v-7.2c0-1.8,1.5-3.3,3.3-3.3c1.8,0,3.3,1.5,3.3,3.3
			v7.2c0.1,1.8-1.2,3.3-2.9,3.4C157.2,129.3,157.1,129.3,156.9,129.3L156.9,129.3z"/>
		<path class="st1" d="M157,116.9c0.9-0.1,1.8,0.6,1.8,1.6c0,0.1,0,0.2,0,0.3v3.6l0,0v3.6c0.1,0.9-0.5,1.8-1.5,1.9
			c-0.1,0-0.3,0-0.4,0l0,0c-0.9,0.1-1.8-0.6-1.8-1.6c0-0.1,0-0.2,0-0.3c0-2.4,0-4.8,0-7.2c-0.1-0.9,0.6-1.8,1.5-1.9
			C156.8,116.9,156.9,116.9,157,116.9L157,116.9 M157,113.9L157,113.9c-2.6-0.1-4.8,1.9-4.8,4.5c0,0.1,0,0.2,0,0.3v7.2
			c0,2.7,2.2,4.8,4.8,4.8s4.8-2.2,4.8-4.8c0,0,0,0,0,0c0-0.8,0-1.7,0-2.5v-4l0,0v-0.7c0.1-2.6-1.9-4.7-4.5-4.8
			C157.2,113.9,157.1,113.9,157,113.9L157,113.9z"/>
		<path class="st0" d="M124.7,129.3c-1.7,0-3.2-1.3-3.2-3.1c0,0,0-0.1,0-0.1v-7.4c-0.1-1.7,1.3-3.2,3-3.3c0.1,0,0.1,0,0.2,0h0.1
			c1.7-0.1,3.2,1.2,3.4,2.9c0,0.1,0,0.2,0,0.3c0,2.6,0,5.1,0,7.5c0,1.7-1.3,3.1-3.1,3.2C125,129.3,124.8,129.3,124.7,129.3
			L124.7,129.3z"/>
		<path class="st1" d="M124.8,116.9c0.9-0.1,1.8,0.5,1.9,1.5c0,0.1,0,0.2,0,0.3c0,2.5,0,5,0,7.5c0,0.9-0.7,1.7-1.6,1.7
			c-0.1,0-0.2,0-0.3,0l0,0c-0.9,0.1-1.7-0.7-1.8-1.6c0-0.1,0-0.1,0-0.2c0-1.2,0-2.5,0-3.7v-3.7c-0.1-0.9,0.7-1.7,1.6-1.8
			C124.6,116.9,124.7,116.9,124.8,116.9L124.8,116.9 M124.8,113.9h-0.1c-2.6,0-4.6,2-4.7,4.6c0,0.1,0,0.1,0,0.2v7.4
			c0,2.6,2,4.7,4.6,4.7c0,0,0.1,0,0.1,0h0.1c2.5,0.1,4.7-1.8,4.9-4.4c0-0.1,0-0.2,0-0.3c0-2.4,0-5,0-7.6c0-2.6-2-4.7-4.6-4.7
			C125,113.9,124.9,113.9,124.8,113.9z"/>
		<path class="st0" d="M148.9,129.3c-1.5,0.1-2.9-0.9-3.2-2.4c-0.1-0.3-0.1-0.7-0.1-1v-7.3c-0.1-1.7,1.3-3.2,3-3.3
			c0.1,0,0.1,0,0.2,0h0.1c1.7-0.1,3.2,1.2,3.4,2.9c0,0.1,0,0.2,0,0.4c0,0.9,0,1.7,0,2.6v1.1c0,0.4,0,0.8,0,1.2c0,0.9,0,1.8,0,2.7
			c0,1.6-1.2,2.9-2.8,3.1L148.9,129.3z"/>
		<path class="st1" d="M148.9,116.9c0.9-0.1,1.8,0.5,1.9,1.5c0,0.1,0,0.2,0,0.3c0,1.2,0,2.5,0,3.7s0,2.6,0,3.8
			c0,0.9-0.6,1.6-1.5,1.7h-0.3c-0.8,0.1-1.6-0.5-1.8-1.3c0-0.2-0.1-0.4-0.1-0.6c0-2.4,0-4.9,0-7.3c-0.1-0.9,0.6-1.8,1.6-1.8
			C148.7,116.8,148.8,116.8,148.9,116.9L148.9,116.9 M148.9,113.9h-0.1c-2.6,0-4.7,2-4.7,4.6c0,0.1,0,0.1,0,0.2v7.3
			c0,0.4,0,0.9,0.2,1.3c0.5,2.1,2.5,3.6,4.7,3.5c0.2,0,0.4,0,0.6,0c2.3-0.2,4.1-2.2,4.1-4.5c0-0.9,0-1.8,0-2.7c0-0.4,0-0.8,0-1.2
			s0-0.7,0-1.1c0-0.9,0-1.8,0-2.7c0.1-2.6-2-4.7-4.5-4.7C149.1,113.9,149,113.9,148.9,113.9L148.9,113.9z"/>
		<path class="st0" d="M140.9,129.3c-1.7,0.1-3.2-1.2-3.3-2.9c0-0.1,0-0.2,0-0.4c0-2.7,0-5.1,0-7.4c-0.1-1.7,1.3-3.2,3-3.3
			c0.1,0,0.2,0,0.3,0h0.1c1.8,0,3.2,1.4,3.2,3.1c0,0.1,0,0.1,0,0.2v7.3c0.1,1.7-1.2,3.2-3,3.3C141.1,129.3,141,129.3,140.9,129.3
			L140.9,129.3z"/>
		<path class="st1" d="M140.9,116.9L140.9,116.9c0.9,0,1.7,0.7,1.8,1.6c0,0.1,0,0.2,0,0.2v7.3c0.1,0.9-0.6,1.7-1.6,1.8
			c-0.1,0-0.2,0-0.3,0l0,0c-0.9,0.1-1.7-0.6-1.8-1.5c0-0.1,0-0.2,0-0.3c0-2.5,0-4.9,0-7.4c-0.1-0.9,0.6-1.7,1.5-1.8
			C140.6,116.8,140.8,116.8,140.9,116.9 M140.9,113.8L140.9,113.8c-2.5-0.1-4.7,1.8-4.8,4.4c0,0.1,0,0.2,0,0.4c0,2.3,0,4.7,0,7.4
			c-0.1,2.6,2,4.7,4.5,4.7c0.1,0,0.2,0,0.3,0l0,0c2.6,0.1,4.7-1.9,4.8-4.5c0-0.1,0-0.2,0-0.3v-7.3c0.1-2.6-1.9-4.7-4.5-4.8
			C141.1,113.8,141,113.8,140.9,113.8L140.9,113.8z"/>
		<path class="st0" d="M93.7,180.1c-16.1,0-29.2-13.1-29.2-29.2c0-16.1,13.1-29.2,29.2-29.2s29.2,13.1,29.2,29.2c0,0,0,0,0,0
			C122.9,167.1,109.9,180.1,93.7,180.1z"/>
		<path class="st1" d="M93.7,123c15.4,0,27.9,12.5,27.9,28c0,15.4-12.5,27.9-28,27.9c-15.4,0-27.9-12.5-27.9-27.9
			C65.8,135.6,78.3,123.1,93.7,123C93.7,123,93.8,123,93.7,123 M93.8,120.5c-16.8,0-30.5,13.6-30.5,30.5c0,16.8,13.6,30.5,30.5,30.5
			c16.8,0,30.5-13.6,30.5-30.5c0,0,0,0,0,0C124.2,134.2,110.6,120.5,93.8,120.5z"/>
		<circle class="st1" cx="93.7" cy="150.9" r="2.3"/>
		<path class="st1" d="M93.7,176.4c-14.1,0-25.5-11.4-25.5-25.4c0-14.1,11.4-25.5,25.4-25.5c14.1,0,25.5,11.4,25.5,25.4c0,0,0,0,0,0
			C119.2,165,107.8,176.4,93.7,176.4z M93.7,126.7c-13.4,0-24.2,10.8-24.2,24.2s10.8,24.2,24.2,24.2s24.2-10.8,24.2-24.2
			C117.9,137.6,107.1,126.8,93.7,126.7z"/>
		<rect x="92.9" y="171.1" class="st1" width="1.9" height="4.7"/>
		<rect x="114" y="150" class="st1" width="4.7" height="1.9"/>
		<rect x="69.1" y="150" class="st1" width="4.7" height="1.9"/>
		
			<rect x="111.8" y="159.6" transform="matrix(0.5026 -0.8645 0.8645 0.5026 -84.1983 177.6069)" class="st1" width="0.9" height="4.7"/>
		<rect x="74" y="137.3" transform="matrix(0.5042 -0.8636 0.8636 0.5042 -83.6391 133.52)" class="st1" width="0.9" height="4.7"/>
		
			<rect x="105.5" y="167.6" transform="matrix(0.8433 -0.5374 0.5374 0.8433 -74.7107 83.5712)" class="st1" width="0.9" height="4.7"/>
		
			<rect x="81.3" y="129.7" transform="matrix(0.8433 -0.5374 0.5374 0.8433 -58.1235 64.6421)" class="st1" width="0.9" height="4.7"/>
		
			<rect x="80.2" y="169.9" transform="matrix(0.5041 -0.8637 0.8637 0.5041 -106.1764 155.7699)" class="st1" width="4.7" height="0.9"/>
		
			<rect x="102.9" y="131" transform="matrix(0.5041 -0.8637 0.8637 0.5041 -61.4037 156.0974)" class="st1" width="4.7" height="0.9"/>
		
			<rect x="72.6" y="162.6" transform="matrix(0.8431 -0.5377 0.5377 0.8431 -75.9129 65.8627)" class="st1" width="4.7" height="0.9"/>
		
			<rect x="110.5" y="138.4" transform="matrix(0.8431 -0.5377 0.5377 0.8431 -56.9663 82.4639)" class="st1" width="4.7" height="0.9"/>
		<rect x="92.9" y="136.4" class="st1" width="1.9" height="19.1"/>
		<rect x="89.7" y="150" class="st1" width="13.6" height="1.7"/>
		<path class="st0" d="M165,129.3c-1.7,0.1-3.2-1.2-3.4-2.9c0-0.1,0-0.2,0-0.3c0-2.8,0-5.2,0-7.5c0-1.6,1.2-3,2.8-3.1h0.5
			c1.5-0.1,2.9,1,3.2,2.4c0.1,0.3,0.1,0.7,0.1,1v7.2c0.1,1.7-1.3,3.2-3,3.3C165.2,129.3,165.1,129.3,165,129.3L165,129.3z"/>
		<path class="st1" d="M165,116.9c0.8-0.1,1.6,0.5,1.8,1.3c0,0.2,0.1,0.4,0.1,0.7v3.6c0,1.2,0,2.4,0,3.7c0.1,0.9-0.6,1.7-1.5,1.8
			c-0.1,0-0.2,0-0.2,0l0,0c-0.9,0.1-1.8-0.5-1.9-1.5c0-0.1,0-0.2,0-0.3c0-2.5,0-5,0-7.5c0-0.9,0.6-1.6,1.5-1.7L165,116.9 M165,113.9
			L165,113.9c-0.2,0-0.5,0-0.7,0c-2.3,0.3-4.1,2.2-4.1,4.6c0,2.3,0,4.8,0,7.5c-0.1,2.5,1.9,4.7,4.4,4.8c0.1,0,0.3,0,0.4,0l0,0
			c2.6,0.1,4.7-2,4.7-4.5c0-0.1,0-0.2,0-0.3v-7.2c0-0.5,0-0.9-0.1-1.4C169.1,115.3,167.2,113.9,165,113.9L165,113.9z"/>
		<rect x="92.9" y="126.1" class="st1" width="1.9" height="4.7"/>
		<rect x="77.1" class="st1" width="4.7" height="1.9"/>
		<rect x="86.6" y="5.6" transform="matrix(0.8431 -0.5377 0.5377 0.8431 10.7138 48.7627)" class="st1" width="4.7" height="0.9"/>
		<circle class="st2" cx="137" cy="134.8" r="107.9"/>
		
			<linearGradient id="SVGID_1_" gradientUnits="userSpaceOnUse" x1="218" y1="131.61" x2="4" y2="131.61" gradientTransform="matrix(1 0 0 -1 0 266)">
			<stop  offset="7.000000e-02" style="stop-color:#FFFFFF"/>
			<stop  offset="0.51" style="stop-color:#C20506"/>
			<stop  offset="0.56" style="stop-color:#B9090D"/>
			<stop  offset="0.65" style="stop-color:#9F1420"/>
			<stop  offset="0.75" style="stop-color:#76273F"/>
			<stop  offset="0.88" style="stop-color:#3D406A"/>
			<stop  offset="1" style="stop-color:#005B97"/>
		</linearGradient>
		<path class="st3" d="M134.4,264.8C62.5,264.8,4,206.3,4,134.4S62.5,4,134.4,4c30.2,0,59.4,10.5,82.7,29.6L206,47.1
			C157.8,7.5,86.6,14.6,47.1,62.8S14.5,182.2,62.7,221.7c41.9,34.4,102.4,34.1,144-0.6l11.2,13.3C194.5,254,164.9,264.8,134.4,264.8
			z"/>
		<circle class="st4" cx="137" cy="134.8" r="107.9"/>
		<path class="st0" d="M134.4,264.8C62.5,264.8,4,206.3,4,134.4S62.5,4,134.4,4c30.2,0,59.4,10.5,82.7,29.6L206,47.1
			C157.8,7.5,86.6,14.6,47.1,62.8S14.5,182.2,62.7,221.7c41.9,34.4,102.4,34.1,144-0.6l11.2,13.3C194.5,254,164.9,264.8,134.4,264.8
			z"/>
	</g>
</g>
<path class="st5" d="M190.1,263.7c-19,8.7-40.2,13.6-62.5,13.5c-22.7-0.1-44.2-5.2-63.5-14.4l0.3,0.6l62.4,93.6L190.1,263.7
	L190.1,263.7z"/>
</svg>
