<svg xmlns="http://www.w3.org/2000/svg" xmlns:xlink="http://www.w3.org/1999/xlink" viewBox="0 0 242.43 264.78"><defs><style>.cls-1{fill:#d8a023;}.cls-2{fill:#fff;}.cls-3,.cls-5{fill:none;stroke-miterlimit:10;stroke-width:3px;stroke-dasharray:9.97 9.97;}.cls-3{stroke:#023165;}.cls-4{fill:url(#Degradado_sin_nombre_52);}.cls-5{stroke:#a6a6a6;}</style><linearGradient id="Degradado_sin_nombre_52" x1="213.99" y1="134.4" x2="0" y2="134.4" gradientUnits="userSpaceOnUse"><stop offset="0.07" stop-color="#fff"/><stop offset="0.51" stop-color="#c20506"/><stop offset="0.56" stop-color="#b9090d"/><stop offset="0.65" stop-color="#9f1420"/><stop offset="0.75" stop-color="#76273f"/><stop offset="0.88" stop-color="#3d406a"/><stop offset="1" stop-color="#005b97"/></linearGradient></defs><title>academia</title><g id="Capa_2" data-name="Capa 2"><g id="Capa_1-2" data-name="Capa 1"><path class="cls-1" d="M74.7,130.07l-.18-.71c-.13-.52-.27-1.06-.39-1.61a20.13,20.13,0,0,1-.46-5.56,5.73,5.73,0,0,1,.27-1.2l.1-.34-.63-1.88-.22-.67a2.51,2.51,0,0,1,.3-2.59l-.76-2.25-2.88-8.6-5.57-.41-1.4-.11-.27,0-3-.36,3.47-3.07,3.1-2.74L72,92.81l5.7-5,4.16-3.68,2.8-2.48,2.53-2.23,8.51-7.52a1.91,1.91,0,0,1,1.33-.53h.17l12.66,1,6.1.46,5.21.39,4.53.35,16.37,1.23.32,0,2.87.4L128.17,90.29l-.83-1-.36-.44c-.23-.29-.44-.56-.67-.8a9.79,9.79,0,0,0-4-2.44,22.09,22.09,0,0,0-7.52-1.16h-.72a39.29,39.29,0,0,0-9.45,1.39,45,45,0,0,0-11.24,4.63A28.1,28.1,0,0,0,85.53,97a11.5,11.5,0,0,0-2.44,4.72,14.92,14.92,0,0,0-.22,1.75c0,.31-.05.63-.08.94l-.14,1.22-9.32-.7,1.89,5.62c.44,1.3.87,2.6,1.31,3.91a2.48,2.48,0,0,1,1.77,1.75c.29.88.59,1.77.9,2.65l0,0,.37.3a5.3,5.3,0,0,1,1,.89,22.06,22.06,0,0,1,3.72,6.61,3.18,3.18,0,0,1,.09.37l.23,1.14L75,131.41Z"/><path class="cls-2" d="M97.07,72.59h.07L115.91,74l9.74.74L142,76a2.2,2.2,0,0,1,.38,0c-4.72,4.17-9.4,8.3-14.07,12.44-.37-.45-.7-.91-1.09-1.31a11.23,11.23,0,0,0-4.48-2.77,23.43,23.43,0,0,0-8-1.23h-.74a40.66,40.66,0,0,0-9.75,1.43,45.85,45.85,0,0,0-11.56,4.77,29.22,29.22,0,0,0-8.21,6.84,12.64,12.64,0,0,0-2.69,5.25c-.19.9-.22,1.84-.33,2.81l-10-.75c0,.15.06.26.1.37.65,2,1.31,3.91,2,5.86l1.86,5.54a.41.41,0,0,0,.43.35,1.25,1.25,0,0,1,1.2,1c.31,1,.63,1.92,1,2.87a1.08,1.08,0,0,0,.31.37,8.71,8.71,0,0,1,1.21,1,20.49,20.49,0,0,1,3.5,6.23,1.25,1.25,0,0,1,0,.24l-7.2,2.42c-.2-.78-.41-1.52-.56-2.27a18.19,18.19,0,0,1-.44-5.2,11.38,11.38,0,0,1,.36-1.48.85.85,0,0,0,0-.42c-.29-.9-.6-1.8-.9-2.7a1.36,1.36,0,0,1,.54-1.84c0-.1-.05-.21-.09-.31q-2-5.88-3.94-11.75a.45.45,0,0,0-.46-.37c-2.49-.17-5-.37-7.47-.55l-.36,0c.49-.42.92-.81,1.36-1.2l8.91-7.87L82.74,85l4.57-4,9.27-8.19a.67.67,0,0,1,.49-.21m0-2.54a3.19,3.19,0,0,0-2.17.85l-8,7.06-1.28,1.13L84,80.5l-3,2.63-4.14,3.66L71.2,91.86l-6,5.32-2.89,2.55-.91.8-.45.4-4.22,3.75,5.6.67.13,0,.34,0,1.48.11,4.65.35,2.54,7.56.64,1.9a3.87,3.87,0,0,0-.11,3.18l.23.67c.17.49.33,1,.5,1.49a6.62,6.62,0,0,0-.3,1.42,21,21,0,0,0,.48,5.92c.12.58.26,1.14.4,1.68l.18.69.67,2.67,2.6-.88,4.45-1.49,2.76-.93,2.13-.71-.45-2.2a3.85,3.85,0,0,0-.15-.59,23.12,23.12,0,0,0-3.93-7,7.12,7.12,0,0,0-1.18-1.09l-.09-.07c-.27-.75-.52-1.52-.77-2.28a3.83,3.83,0,0,0-2-2.34l-1.1-3.29L76,108.94l-.54-1.58c-.11-.34-.23-.68-.34-1l3,.23,3.16.23,2.45.19.27-2.44.09-1a13.35,13.35,0,0,1,.19-1.59,10.24,10.24,0,0,1,2.2-4.2A26.45,26.45,0,0,1,94,91.56,43.61,43.61,0,0,1,105,87.06a38.34,38.34,0,0,1,9.15-1.36h.69a20.85,20.85,0,0,1,7.09,1.08,8.59,8.59,0,0,1,3.5,2.13,7.9,7.9,0,0,1,.6.71c.12.15.24.31.37.46l1.67,2,2-1.74,12.08-10.68,2-1.76,4.14-3.66-5.48-.76h-.11l-.42-.06-7.11-.53-9.25-.7-4.47-.34-5.27-.4L110,71l-12.68-1Z"/><path class="cls-1" d="M86.43,119.36l-.43-1.3c-.37-1.09-.73-2.19-1.09-3.28-.83-2.5-1.69-5.08-2.59-7.59A9.25,9.25,0,0,1,83,99.31a20.69,20.69,0,0,1,5.43-6.23A38.35,38.35,0,0,1,96.81,88a47,47,0,0,1,8.83-3,39.27,39.27,0,0,1,9.07-1.14,30.39,30.39,0,0,1,4.08.27,16,16,0,0,1,6.88,2.37A8.52,8.52,0,0,1,129.15,91c1,2.93,2,5.91,2.94,8.79l1.3,3.85,1.24,2.93-2.94-1.29a33.23,33.23,0,0,0-42.84,14.56l-1.3,2.43Z"/><path class="cls-2" d="M114.71,85.1a28.66,28.66,0,0,1,3.91.27A15,15,0,0,1,125,87.54a7.16,7.16,0,0,1,3,3.83c1.36,4.11,2.75,8.21,4.13,12.32l.13.38v0a34.51,34.51,0,0,0-44.47,15.12l-.1-.26c-.16-.45-.3-.88-.44-1.3-1.22-3.63-2.39-7.28-3.68-10.89a8,8,0,0,1,.64-6.85,19.75,19.75,0,0,1,5.11-5.85,36.87,36.87,0,0,1,8.06-4.9,46,46,0,0,1,8.6-3,38.4,38.4,0,0,1,8.78-1.11m0-2.53a40.6,40.6,0,0,0-9.36,1.17,48.84,48.84,0,0,0-9.07,3.11,39.8,39.8,0,0,0-8.61,5.24,22.14,22.14,0,0,0-5.75,6.62,10.55,10.55,0,0,0-.79,8.91c.89,2.5,1.75,5.08,2.58,7.58l1.08,3.26.13.38.31.92,0,.06,0,.05.1.26,2,5.13L90,120.41a31.94,31.94,0,0,1,41.2-14l6,2.66-2.55-5.91,0-.06-.07-.22-1.18-3.51c-1-2.88-2-5.86-3-8.8a9.65,9.65,0,0,0-4-5.15A17.26,17.26,0,0,0,119,82.85a31.28,31.28,0,0,0-4.25-.28Z"/><path class="cls-1" d="M180.74,97.12a1.27,1.27,0,0,1-1.27-1.27V87a1.29,1.29,0,0,1,.75-1.16,1.39,1.39,0,0,1,.52-.11,1.28,1.28,0,0,1,.85.32l10,8.9a1.27,1.27,0,0,1-.85,2.22Z"/><path class="cls-2" d="M180.74,87l10,8.9h-10V87m0-2.54A2.53,2.53,0,0,0,178.2,87v8.9a2.54,2.54,0,0,0,2.54,2.54h10A2.53,2.53,0,0,0,192.41,94l-10-8.91a2.54,2.54,0,0,0-1.69-.64Z"/><path class="cls-1" d="M141.17,156.88a1.27,1.27,0,0,1-1.27-1.27V85.39a1.27,1.27,0,0,1,1.27-1.27h37a1.27,1.27,0,0,1,1.27,1.27V97.12h13.32a1.26,1.26,0,0,1,1.26,1.27v57.22a1.26,1.26,0,0,1-1.26,1.27Z"/><path class="cls-2" d="M178.2,85.39V97.12a1.27,1.27,0,0,0,1.27,1.27h13.32v57.22H141.17V85.39h37m0-2.54h-37a2.54,2.54,0,0,0-2.54,2.54v70.22a2.54,2.54,0,0,0,2.54,2.54h51.62a2.53,2.53,0,0,0,2.53-2.54V98.39a2.54,2.54,0,0,0-2.53-2.54h-12V85.39a2.54,2.54,0,0,0-2.54-2.54Z"/><path class="cls-2" d="M158.33,105.39c.29-2.31.54-4.14.73-6a2.45,2.45,0,0,0-.29-1c-.07-.2-.3-.43-.25-.59s.34-.64.48-.63c.77.11,1.13-1.35,2.05-.53a1.26,1.26,0,0,0,.46.35c3.16.8,4.26,3.21,4.58,6.09a8.38,8.38,0,0,1-2.15,7c-1.69,1.78-3.67,1.51-4.61-.77A24.29,24.29,0,0,1,158.33,105.39Zm2.49-7a22.91,22.91,0,0,0-.66,9.15,4.08,4.08,0,0,0,.29.94c.67,1.62,1.51,1.76,2.67.45a8.07,8.07,0,0,0,.66-8.55A3.84,3.84,0,0,0,160.82,98.42Z"/><path class="cls-2" d="M157.06,105.27v6.53c0,.52,0,1.06-.7,1.09s-.76-.58-.77-1.12c0-3.86,0-7.71-.08-11.57a11.79,11.79,0,0,1-.07-1.67c.05-.38.32-.94.6-1,.64-.16.82.39.83.93v6.82Z"/><path class="cls-2" d="M159.19,116a15.61,15.61,0,0,0,2.59-.21,14.4,14.4,0,0,0,3.73-1.15A10.76,10.76,0,0,0,168,113a11.13,11.13,0,0,0,2.33-3,11.89,11.89,0,0,0,1.06-2.62,11.34,11.34,0,0,0,.42-3.57,9.59,9.59,0,0,0-.36-2.32,9.71,9.71,0,0,0-1.19-2.65,10.87,10.87,0,0,0-1.8-2.09,10,10,0,0,0-2.61-1.7,8.45,8.45,0,0,0-4.33-.75h0c-.07,0-.18,0-.19,0a.32.32,0,0,1,0-.21,1.74,1.74,0,0,1,.51-.5,2.33,2.33,0,0,1,1.3-.36,9.2,9.2,0,0,1,3.91.7,10.21,10.21,0,0,1,2.5,1.49,10.43,10.43,0,0,1,2.85,3.54,10.84,10.84,0,0,1,.67,1.83,10.2,10.2,0,0,1,.31,3.69,12.16,12.16,0,0,1-1.2,4.3,13.4,13.4,0,0,1-3.14,4.14,16.69,16.69,0,0,1-6.78,3.61,15.93,15.93,0,0,1-3.63.54c-.56,0-1.13,0-1.69,0a12.85,12.85,0,0,1-3.26-.54,9.63,9.63,0,0,1-3.14-1.52,8.39,8.39,0,0,1-2.28-2.61,9.64,9.64,0,0,1-.9-2.18c-.12-.45-.2-.9-.28-1.36a9.49,9.49,0,0,1-.15-2.06,13,13,0,0,1,.35-2.78,14.3,14.3,0,0,1,1-2.92,13.87,13.87,0,0,1,1.67-2.6,14.15,14.15,0,0,1,1.78-1.85,16,16,0,0,1,2.62-1.86,16.65,16.65,0,0,1,2.77-1.22,14.59,14.59,0,0,1,3-.67c.1,0,.23,0,.26.06s0,.19-.08.26a2,2,0,0,1-1.2.73c-.33.07-.66.1-1,.15a11.46,11.46,0,0,0-2.74.85,11.17,11.17,0,0,0-1.78,1,9.93,9.93,0,0,0-1.52,1.31,12.93,12.93,0,0,0-3.13,5.7,12.5,12.5,0,0,0-.3,4.82,10,10,0,0,0,1.41,4,7.76,7.76,0,0,0,3.2,2.94,12.27,12.27,0,0,0,2.83,1A14.26,14.26,0,0,0,159.19,116Z"/><path class="cls-1" d="M118.75,175.89a8.77,8.77,0,0,1-8.77-8.74q0-18.77,0-37.52l-.12-8.64h9.3v2.88c0,.73,0,1.49,0,2.24a1,1,0,0,0,.62,1,2.18,2.18,0,0,0,1,.3,2.08,2.08,0,0,0,1.14-.37.93.93,0,0,0,.49-.88c0-.84,0-1.68,0-2.51v-.8c0-.13,0-.27,0-.41l.07-1.57h4.67v4.91c0,1,.36,1.43,1.38,1.58l.32,0a1.87,1.87,0,0,0,1.06-.33,1,1,0,0,0,.53-.92v-5.26h4.65l.09,1.52c0,.13,0,.27,0,.41,0,.68,0,2.93,0,2.93a1.46,1.46,0,0,0,1.53,1.65,2.43,2.43,0,0,0,.38,0c1-.15,1.36-.57,1.36-1.56v-4.93h4.76v2.66c0,.22,0,.44,0,.67a16.22,16.22,0,0,1,0,1.7,1.16,1.16,0,0,0,.28,1,1.82,1.82,0,0,0,1.28.52l.22,0a3.46,3.46,0,0,0,1.18-.47c.11-.06.33-.2.33-.71,0-.78,0-1.55,0-2.33v-3h4.64l.09,1.52c0,.14,0,.28,0,.42v3a1.45,1.45,0,0,0,1.56,1.61l.26,0a1.8,1.8,0,0,0,1.11-.44,1,1,0,0,0,.37-.81c0-.89,0-1.78,0-2.68v-2.57h4.66l.08,1.53c0,.14,0,.28,0,.42v3a1.32,1.32,0,0,0,1.28,1.51l.4,0a1.89,1.89,0,0,0,1.14-.37,1,1,0,0,0,.46-.85c0-.85,0-1.7,0-2.57v-2.7h9.24l-.06,8.72q0,18.72,0,37.47a8.78,8.78,0,0,1-8.79,8.76H118.75Z"/><path class="cls-2" d="M125.7,122.39v3.43a2.8,2.8,0,0,0,2.64,3.05,4.9,4.9,0,0,0,.54,0,3.44,3.44,0,0,0,1.87-.56,2.45,2.45,0,0,0,1.2-2.18V122.4h1.77c0,.14,0,.3,0,.46,0,1,0,1.94,0,2.92a2.94,2.94,0,0,0,3,3.13,4.26,4.26,0,0,0,.61,0,2.79,2.79,0,0,0,2.61-3v-3.45h1.8v1.18c0,.75.06,1.5,0,2.24a2.88,2.88,0,0,0,3,3.09,2.28,2.28,0,0,0,.45,0,4.76,4.76,0,0,0,1.73-.67,2.2,2.2,0,0,0,1-2c0-1.1,0-2.19,0-3.29v-.52h1.77c0,.14,0,.3,0,.46v3a2.92,2.92,0,0,0,3,3.08l.42,0a3.4,3.4,0,0,0,1.92-.8,2.44,2.44,0,0,0,.88-1.94c0-1.24,0-2.48,0-3.76h1.77c0,.16,0,.32,0,.48,0,1,0,2,0,3a2.77,2.77,0,0,0,2.52,3,4.72,4.72,0,0,0,.64.05,3.34,3.34,0,0,0,2-.65,2.42,2.42,0,0,0,1.08-2.07c0-1.22,0-2.45,0-3.77h6.27l-.05,7.23q0,18.74,0,37.48A7.27,7.27,0,0,1,163,174.4H118.75a7.28,7.28,0,0,1-7.29-7.26q0-18.77,0-37.52l-.1-7.16h6.32v.46c0,1,0,2.1,0,3.15a2.48,2.48,0,0,0,1.4,2.38,3.71,3.71,0,0,0,1.75.47,3.52,3.52,0,0,0,1.92-.6,2.4,2.4,0,0,0,1.18-2.15c0-1.09,0-2.19,0-3.28,0-.17,0-.33,0-.51h1.77m3-3H121.1l-.13,2.83v.14c0,.17,0,.33,0,.49v.78c0,.74,0,1.5,0,2.26a.43.43,0,0,1-.14,0,.74.74,0,0,1-.18,0c0-.7,0-1.39,0-2.06v-4.36H108.34l0,3,.1,7.15c0,13.5,0,25.77,0,37.49a10.24,10.24,0,0,0,10.25,10.22H163a10.27,10.27,0,0,0,10.27-10.24c0-13.55,0-27.14,0-37.47l0-7.22,0-3H161.13v6.48h-.31v-3.06c0-.21,0-.39,0-.52v-.11l-.15-2.8H153.1v6.49l-.14,0h-.18s0-.07,0-.13v-3c0-.21,0-.39,0-.52v-.1l-.15-2.8h-7.53v4.47q0,1,0,2l-.25.08h-.08a16.94,16.94,0,0,0,0-1.73c0-.21,0-.42,0-.63v-4.14H137v6.49l-.1,0h-.2a.81.81,0,0,1,0-.17v-.9c0-.68,0-1.36,0-2,0-.21,0-.39,0-.52v-.09l-.15-2.8H129v6.49l-.11,0h-.1l-.12,0v-6.49Z"/><path class="cls-2" d="M114.73,137.42V167.2a2.34,2.34,0,0,0,1.34,2.27,4.12,4.12,0,0,0,1.72.43q22.8,0,45.6,0h.72a2.89,2.89,0,0,0,3-3c0-9.64,0-19.28,0-28.92v-.6Z"/><rect class="cls-1" x="117.92" y="139.63" width="7.38" height="7.06"/><rect class="cls-1" x="127.55" y="139.63" width="7.38" height="7.06"/><rect class="cls-1" x="137.17" y="139.63" width="7.38" height="7.06"/><rect class="cls-1" x="146.79" y="139.63" width="7.38" height="7.06"/><rect class="cls-1" x="156.41" y="139.63" width="7.38" height="7.06"/><rect class="cls-1" x="117.92" y="150.22" width="7.38" height="7.06"/><rect class="cls-1" x="127.55" y="150.22" width="7.38" height="7.06"/><rect class="cls-1" x="137.17" y="150.22" width="7.38" height="7.06"/><rect class="cls-1" x="146.79" y="150.22" width="7.38" height="7.06"/><rect class="cls-1" x="156.41" y="150.22" width="7.38" height="7.06"/><rect class="cls-1" x="117.92" y="160.48" width="7.38" height="7.06"/><rect class="cls-1" x="127.55" y="160.48" width="7.38" height="7.06"/><rect class="cls-1" x="137.17" y="160.48" width="7.38" height="7.06"/><path class="cls-1" d="M128.82,129.32a3.17,3.17,0,0,1-3.33-3.36v-7.24a3.34,3.34,0,0,1,6.68,0V126a3.18,3.18,0,0,1-3.34,3.35Z"/><path class="cls-2" d="M128.8,116.87h0a1.72,1.72,0,0,1,1.88,1.87v3.59c0,1.21,0,2.43,0,3.64a1.7,1.7,0,0,1-1.86,1.87h0A1.7,1.7,0,0,1,127,126v-7.23a1.71,1.71,0,0,1,1.83-1.86m0-3a4.65,4.65,0,0,0-4.79,4.81V126a4.82,4.82,0,1,0,9.64,0c0-.87,0-1.74,0-2.6v-4.67a4.65,4.65,0,0,0-4.83-4.8h0Z"/><path class="cls-1" d="M152.9,129.32a3.17,3.17,0,0,1-3.3-3.39v-7.19a3.34,3.34,0,0,1,6.68,0v7.19a3.18,3.18,0,0,1-3.37,3.41Z"/><path class="cls-2" d="M153,116.87a1.71,1.71,0,0,1,1.84,1.85v3.64h0v3.55a1.71,1.71,0,0,1-1.89,1.93h0a1.71,1.71,0,0,1-1.83-1.91c0-2.4,0-4.79,0-7.19a1.71,1.71,0,0,1,1.87-1.87h0m0-3h0a4.69,4.69,0,0,0-4.84,4.83v7.19a4.82,4.82,0,1,0,9.64,0c0-.83,0-1.66,0-2.49v-4h0v-.69a4.66,4.66,0,0,0-4.8-4.8Z"/><path class="cls-1" d="M120.68,129.32a3.15,3.15,0,0,1-3.22-3.22v-7.44a3.15,3.15,0,0,1,3.22-3.27h.08a3.14,3.14,0,0,1,3.36,3.23c0,2.57,0,5.11,0,7.53a3.12,3.12,0,0,1-3.38,3.17Z"/><path class="cls-2" d="M120.76,116.87a1.68,1.68,0,0,1,1.88,1.76c0,2.5,0,5,0,7.51a1.67,1.67,0,0,1-1.9,1.7h0a1.67,1.67,0,0,1-1.76-1.75c0-1.24,0-2.49,0-3.73v-3.69a1.7,1.7,0,0,1,1.76-1.8h.06m0-3h-.11a4.63,4.63,0,0,0-4.67,4.75v7.45a4.65,4.65,0,0,0,4.69,4.69h.07a4.62,4.62,0,0,0,4.86-4.64c0-2.43,0-5,0-7.55a4.64,4.64,0,0,0-4.84-4.7Z"/><path class="cls-1" d="M144.92,129.33a3.16,3.16,0,0,1-3.24-2.37,4.55,4.55,0,0,1-.11-1v-7.29a3.17,3.17,0,0,1,3.22-3.32h.08a3.13,3.13,0,0,1,3.36,3.26c0,.87,0,1.74,0,2.61v1.1c0,.39,0,.77,0,1.16,0,.88,0,1.79,0,2.69a3.12,3.12,0,0,1-2.82,3.09Z"/><path class="cls-2" d="M144.87,116.87a1.68,1.68,0,0,1,1.88,1.8c0,1.23,0,2.46,0,3.69s0,2.55,0,3.82a1.65,1.65,0,0,1-1.49,1.65l-.34,0a1.69,1.69,0,0,1-1.81-1.27,2.84,2.84,0,0,1-.05-.58q0-3.65,0-7.29a1.7,1.7,0,0,1,1.77-1.84h.05m0-3h-.1a4.64,4.64,0,0,0-4.68,4.8V126a5.14,5.14,0,0,0,.16,1.33,4.61,4.61,0,0,0,4.67,3.48,4.68,4.68,0,0,0,.64,0,4.63,4.63,0,0,0,4.15-4.53c0-.92,0-1.84,0-2.73,0-.38,0-.76,0-1.15s0-.72,0-1.08c0-.87,0-1.76,0-2.65a4.62,4.62,0,0,0-4.84-4.72Z"/><path class="cls-1" d="M136.87,129.32a3.12,3.12,0,0,1-3.33-3.25c0-2.67,0-5.09,0-7.39a3.16,3.16,0,0,1,3.36-3.29H137a3.19,3.19,0,0,1,3.24,3.35V126a3.14,3.14,0,0,1-3.31,3.29Z"/><path class="cls-2" d="M136.9,116.87h0a1.71,1.71,0,0,1,1.78,1.87V126a1.69,1.69,0,0,1-1.83,1.81h0a1.67,1.67,0,0,1-1.85-1.77q0-3.69,0-7.38a1.68,1.68,0,0,1,1.88-1.82m0-3h0a4.62,4.62,0,0,0-4.84,4.76c0,2.28,0,4.71,0,7.41a4.62,4.62,0,0,0,4.81,4.72h0a4.64,4.64,0,0,0,4.78-4.76v-7.31a4.66,4.66,0,0,0-4.71-4.82Z"/><path class="cls-1" d="M89.73,180.15a29.22,29.22,0,1,1,29.21-29.21A29.25,29.25,0,0,1,89.73,180.15Z"/><path class="cls-2" d="M89.73,123a27.95,27.95,0,1,1-27.95,28,27.94,27.94,0,0,1,28-27.95m0-2.54a30.49,30.49,0,1,0,30.48,30.49,30.53,30.53,0,0,0-30.48-30.49Z"/><circle class="cls-2" cx="89.73" cy="150.94" r="2.34"/><path class="cls-2" d="M89.73,176.38a25.45,25.45,0,1,1,25.44-25.44A25.47,25.47,0,0,1,89.73,176.38Zm0-49.64a24.2,24.2,0,1,0,24.2,24.2A24.22,24.22,0,0,0,89.73,126.74Z"/><rect class="cls-2" x="88.95" y="171.08" width="1.87" height="4.68"/><rect class="cls-2" x="110.02" y="150" width="4.68" height="1.87"/><rect class="cls-2" x="65.06" y="150" width="4.68" height="1.87"/><rect class="cls-2" x="108.83" y="159.93" width="0.94" height="4.68" transform="matrix(0.5, -0.86, 0.86, 0.5, -85.95, 174.84)"/><rect class="cls-2" x="70" y="137.26" width="0.94" height="4.68" transform="translate(-85.62 130.07) rotate(-59.72)"/><rect class="cls-2" x="101.5" y="167.55" width="0.94" height="4.68" transform="translate(-75.34 81.44) rotate(-32.51)"/><rect class="cls-2" x="77.33" y="129.64" width="0.94" height="4.68" transform="translate(-58.75 62.51) rotate(-32.51)"/><rect class="cls-2" x="76.21" y="169.88" width="4.68" height="0.94" transform="translate(-108.17 152.31) rotate(-59.73)"/><rect class="cls-2" x="98.88" y="131.05" width="4.68" height="0.94" transform="translate(-63.39 152.64) rotate(-59.73)"/><rect class="cls-2" x="68.58" y="162.55" width="4.68" height="0.94" transform="translate(-76.54 63.72) rotate(-32.53)"/><rect class="cls-2" x="106.5" y="138.38" width="4.68" height="0.94" transform="translate(-57.59 80.32) rotate(-32.53)"/><rect class="cls-2" x="88.95" y="136.42" width="1.87" height="19.05"/><rect class="cls-2" x="91.6" y="144.07" width="1.72" height="13.58" transform="translate(243.32 58.4) rotate(90)"/><path class="cls-1" d="M161,129.32a3.14,3.14,0,0,1-3.37-3.24c0-2.75,0-5.21,0-7.53a3.12,3.12,0,0,1,2.81-3.14l.51,0a3.21,3.21,0,0,1,3.23,2.42,3.9,3.9,0,0,1,.1,1V126a3.15,3.15,0,0,1-3.26,3.29Z"/><path class="cls-2" d="M161,116.86a1.71,1.71,0,0,1,1.79,1.3,2.54,2.54,0,0,1,.06.67v3.55c0,1.22,0,2.43,0,3.65a1.68,1.68,0,0,1-1.79,1.81h0a1.68,1.68,0,0,1-1.89-1.77q0-3.76,0-7.51a1.66,1.66,0,0,1,1.5-1.68l.34,0m0-3h0a5.43,5.43,0,0,0-.69,0,4.62,4.62,0,0,0-4.11,4.6c0,2.33,0,4.79,0,7.54A4.59,4.59,0,0,0,161,130.8h0a4.62,4.62,0,0,0,4.73-4.76v-7.22a5.13,5.13,0,0,0-.15-1.39A4.64,4.64,0,0,0,161,113.9Z"/><rect class="cls-2" x="88.95" y="126.11" width="1.87" height="4.68"/><rect class="cls-2" x="73.06" width="4.68" height="1.87"/><rect class="cls-2" x="82.58" y="5.55" width="4.68" height="0.94" transform="translate(10.09 46.61) rotate(-32.53)"/><circle class="cls-3" cx="133" cy="134.84" r="107.93"/><path class="cls-4" d="M130.38,264.78C58.49,264.78,0,206.29,0,134.4S58.49,4,130.38,4a130.61,130.61,0,0,1,82.73,29.6L202,47.1a112.94,112.94,0,1,0,.77,174L214,234.45A130.54,130.54,0,0,1,130.38,264.78Z"/><circle class="cls-5" cx="133" cy="134.84" r="107.93"/><path class="cls-1" d="M130.38,264.78C58.49,264.78,0,206.29,0,134.4S58.49,4,130.38,4a130.61,130.61,0,0,1,82.73,29.6L202,47.1a112.94,112.94,0,1,0,.77,174L214,234.45A130.54,130.54,0,0,1,130.38,264.78Z"/></g></g></svg>