<?xml version="1.0" encoding="utf-8"?>
<!-- Generator: Adobe Illustrator 23.0.0, SVG Export Plug-In . SVG Version: 6.00 Build 0)  -->
<svg version="1.1" id="Capa_1" xmlns="http://www.w3.org/2000/svg" xmlns:xlink="http://www.w3.org/1999/xlink" x="0px" y="0px"
	 viewBox="0 0 242.4 264.8" style="enable-background:new 0 0 242.4 264.8;" xml:space="preserve">
<style type="text/css">
	.st0{fill:none;}
	.st1{fill:#FFFFFF;}
	.st2{fill:none;stroke:#FFFFFF;stroke-miterlimit:10;}
	.st3{fill:none;stroke:#FFFFFF;stroke-width:2;stroke-miterlimit:10;}
	.st4{fill:none;stroke:#FFFFFF;stroke-width:1.0042;stroke-miterlimit:10;}
	.st5{fill:none;stroke:#FFFFFF;stroke-width:0.9483;stroke-miterlimit:10;}
	.st6{fill:none;stroke:#D8A023;stroke-miterlimit:10;}
	.st7{fill:none;stroke:#FFFFFF;stroke-width:4.9;stroke-miterlimit:10;stroke-dasharray:9.5752,9.5752;}
	.st8{fill:none;stroke:#FFFFFF;stroke-width:5;stroke-miterlimit:10;}
</style>
<title>academia</title>
<g>
	<g id="Capa_1-2">
		<path class="st0" d="M76.6,129.2l-0.2-0.7c-0.1-0.5-0.3-1-0.4-1.6c-0.4-1.8-0.6-3.6-0.5-5.4c0-0.4,0.1-0.8,0.3-1.2l0.1-0.3
			l-0.6-1.8l-0.2-0.7c-0.4-0.8-0.3-1.8,0.3-2.5l-0.7-2.2l-2.8-8.4l-5.5-0.4l-1.4-0.1h-0.3l-2.9-0.4l3.4-3l3-2.7l5.7-5.1l5.6-4.9
			l4.1-3.6l2.7-2.4l2.5-2.2l8.3-7.4c0.4-0.3,0.8-0.5,1.3-0.5h0.2l12.4,1l6,0.5l5.1,0.4l4.4,0.3l16,1.2h0.3l2.8,0.4L129,90.2l-0.8-1
			l-0.4-0.4c-0.2-0.3-0.4-0.5-0.7-0.8c-1.1-1.1-2.4-1.9-3.9-2.4c-2.4-0.8-4.9-1.2-7.4-1.1h-0.7c-3.1,0.1-6.2,0.5-9.3,1.4
			c-3.9,1-7.6,2.5-11,4.5c-2.9,1.6-5.5,3.8-7.7,6.4c-1.1,1.3-2,2.9-2.4,4.6c-0.1,0.6-0.2,1.1-0.2,1.7c0,0.3,0,0.6-0.1,0.9l-0.1,1.2
			l-9.1-0.7l1.9,5.5c0.4,1.3,0.9,2.5,1.3,3.8c0.8,0.2,1.5,0.9,1.7,1.7c0.3,0.9,0.6,1.7,0.9,2.6l0,0l0.4,0.3c0.4,0.2,0.7,0.5,1,0.9
			c1.6,1.9,2.8,4.1,3.6,6.5c0,0.1,0.1,0.2,0.1,0.4l0.2,1.1l-9.4,3.2L76.6,129.2z"/>
		<path class="st1" d="M98.5,72.8L98.5,72.8l18.5,1.4l9.5,0.7l16,1.2c0.1,0,0.2,0,0.4,0c-4.6,4.1-9.2,8.1-13.8,12.2
			c-0.4-0.4-0.7-0.9-1.1-1.3c-1.2-1.2-2.7-2.2-4.4-2.7c-2.5-0.9-5.2-1.3-7.8-1.2h-0.7c-3.2,0.1-6.4,0.5-9.6,1.4
			c-4,1-7.8,2.6-11.3,4.7c-3.1,1.7-5.8,4-8,6.7c-1.3,1.5-2.2,3.2-2.6,5.1c-0.2,0.9-0.2,1.8-0.3,2.8l-9.8-0.7c0,0.1,0.1,0.3,0.1,0.4
			c0.6,2,1.3,3.8,2,5.7l1.8,5.4c0,0.2,0.2,0.4,0.4,0.3c0.6,0,1.1,0.4,1.2,1c0.3,1,0.6,1.9,1,2.8c0.1,0.1,0.2,0.3,0.3,0.4
			c0.4,0.3,0.8,0.6,1.2,1c1.5,1.8,0.8,0.1,1.6,2.3c0,0.1,0,0.2,0,0.3l-6.1,3.1c-0.2-0.8,0,0.7-0.1,0c-0.4-1.7,0-2.6,0.1-4.4
			c0.1-0.5,0.2-1,0.4-1.5c0-0.1,0-0.3,0-0.4c-0.3-0.9-0.6-1.8-0.9-2.6c-0.3-0.6-0.1-1.4,0.5-1.8c0-0.1,0-0.2-0.1-0.3
			c-1.3-3.8-2.6-7.7-3.9-11.5c0-0.2-0.2-0.4-0.5-0.4c-2.4-0.2-4.9-0.4-7.3-0.5h-0.4c0.5-0.4,0.9-0.8,1.3-1.2l8.7-7.7l9.7-8.6L89,81
			l9.1-8C98.2,72.9,98.4,72.8,98.5,72.8 M98.5,70.3c-0.8,0-1.5,0.3-2.1,0.8L88.6,78l-1.3,1.1l-1.6,1.4l-2.9,2.6l-4.1,3.6l-5.5,5
			l-5.9,5.2l-2.8,2.5l-0.9,0.8l-0.4,0.4l-4.1,3.7l5.5,0.7h0.1H65l1.5,0.1l4.6,0.3l2.5,7.4l0.6,1.9c-0.5,1-0.5,2.1-0.1,3.1l0.2,0.7
			c0.2,0.5,0.3,1,0.5,1.5c-0.1,0.5-0.2,0.9-0.3,1.4c-0.1,1.9,0,3.9,0.5,5.8c0.1,0.6-0.1-0.5,0,0.1l0.6-0.7l0.4-0.3l1.7-1.3l2-1.3
			l3-0.7l3-0.3L86,122c-1.8-3.9-0.1,0.3-0.1,0.1c-0.9-2.5-0.7-1.5-2.4-3.5c-0.3-0.4-0.7-0.8-1.2-1.1l-0.1-0.1
			c-0.3-0.7-0.5-1.5-0.8-2.2c-0.3-1-1-1.8-2-2.3l-1.1-3.2l-0.4-1.2l-0.5-1.5c-0.1-0.3-0.2-0.7-0.3-1l2.9,0.2l3.1,0.2l2.4,0.2
			l0.3-2.4l0.1-1c0-0.5,0.1-1,0.2-1.6c0.4-1.5,1.1-2.9,2.2-4.1c2.1-2.5,4.6-4.5,7.4-6.1c3.4-2,7-3.4,10.8-4.4c2.9-0.8,5.9-1.3,9-1.3
			h0.7c2.4-0.1,4.7,0.3,6.9,1.1c1.3,0.4,2.5,1.1,3.4,2.1c0.2,0.2,0.4,0.5,0.6,0.7c0.1,0.1,0.2,0.3,0.4,0.5l1.6,2l2-1.7l11.8-10.5
			l2-1.7l4.1-3.6l-5.4-0.7h-0.1l-0.4-0.1l-7-0.5l-9.1-0.7l-4.4-0.3l-5.2-0.4l-6.1-0.4l-12.4-1L98.5,70.3z"/>
		<path class="st2" d="M88.1,118.7l-0.4-1.3c-0.4-1.1-0.7-2.1-1.1-3.2c-0.8-2.4-1.7-5-2.5-7.4c-0.9-2.5-0.7-5.4,0.7-7.7
			c1.3-2.4,3.2-4.4,5.3-6.1c2.5-2,5.3-3.7,8.2-5c2.8-1.3,5.7-2.2,8.7-2.9c2.9-0.7,5.9-1.1,8.9-1.1c1.3,0,2.7,0.1,4,0.3
			c2.4,0.2,4.7,1,6.7,2.3c1.6,1,2.8,2.6,3.4,4.4c1,2.9,2,5.8,2.9,8.6l1.3,3.8l1.2,2.9l-2.9-1.3c-15.6-7-33.9-0.8-42,14.3l-1.3,2.4
			L88.1,118.7z"/>
		<path class="st2" d="M115.9,82.5c-3.1,0-6.2,0.4-9.2,1.1c-3.1,0.7-6,1.7-8.9,3c-3,1.3-5.9,3.1-8.4,5.1c-2.3,1.8-4.2,4-5.6,6.5
			c-1.5,2.7-1.8,5.9-0.8,8.7c0.9,2.5,1.7,5,2.5,7.4l1.1,3.2l0.1,0.4L87,119v0.1l0,0l0.1,0.3l2.3,2.4l2.2-2
			C99.4,105.2,117,99.3,132,106l3.7,0.5l-0.3-3.6v-0.1l-0.1-0.2l-1.2-3.4c-1-2.8-2-5.7-2.9-8.6c-0.7-2.1-2.1-3.9-3.9-5
			c-2.2-1.4-4.7-2.2-7.3-2.5C118.6,82.7,117.3,82.6,115.9,82.5L115.9,82.5z"/>
		<path class="st0" d="M180.5,96.9c-0.7,0-1.2-0.6-1.2-1.2l0,0V87c0-0.5,0.3-0.9,0.7-1.1c0.2-0.1,0.3-0.1,0.5-0.1
			c0.3,0,0.6,0.1,0.8,0.3l9.8,8.7c0.5,0.5,0.6,1.2,0.1,1.8c-0.2,0.3-0.6,0.4-0.9,0.4L180.5,96.9z"/>
		<path class="st1" d="M181.1,87l8.7,7.5h-8.7V87 M181.1,84.9c-1.2,0-2.2,0.9-2.2,2.1l0,0v7.5c0,1.2,1,2.1,2.2,2.1h8.7
			c1.2,0,2.2-0.9,2.2-2.1c0-0.6-0.3-1.2-0.8-1.6l-8.7-7.5C182.2,85,181.6,84.9,181.1,84.9L181.1,84.9z"/>
		<path class="st0" d="M170.6,120.7c-0.7,0-30,0.7-30,0l1-4l-1.5-31.6c0-0.7,0.6-1.2,1.2-1.2l0,0h36.3c0.7,0,1.2,0.6,1.2,1.2l0,0
			v11.5h13.1c0.7,0,1.2,0.6,1.2,1.2l0,0v56.1c0,0.7-0.5,1.2-1.2,1.2l0,0L170.6,120.7z"/>
		<path class="st3" d="M176.6,87.9v10.7c0,0.6,0.6,1.2,1.2,1.2l0,0h13c0,0,0.2,0.5,0.2,0.6l0.6,54.3c0,0.1,0.5-0.1-18.1-0.2v-33.8
			c0-3.7-0.1-4.3-0.9-4.4c-5.1-0.6-29.2-0.3-32.1-0.3l-0.1-28c0,0,0-0.1,0.1-0.1L176.6,87.9 M176.4,86h-36c-1.4,0-2.5,1-2.5,2.3
			l-0.2,27.2c0.1,0,2,0,0.1,0c-1.6,0,31.6-0.1,32.5,0.9c0.3,0.4,0.6,0.2,0.6,0.3v40.9l-0.1-0.6c2.5,0.2,20.4,0.4,21.9,0.6
			c0.7,0.1,0.5-2.6,0.5-2.6l-0.1-54.8c0-1.3-1.1-2.3-2.5-2.3H179c0,0-0.1,0-0.1-0.1v-9.4C179,87.1,177.8,86,176.4,86L176.4,86z"/>
		<path class="st1" d="M158.6,103c0.3-2.2,0.5-3.9,0.7-5.7c0-0.3-0.1-0.7-0.3-1c-0.1-0.2-0.3-0.4-0.2-0.6c0-0.2,0.3-0.6,0.5-0.6
			c0.7,0.1,1.1-1.3,1.9-0.5c0.1,0.1,0.3,0.3,0.4,0.3c3,0.8,4,3.1,4.4,5.8c0.4,2.4-0.4,4.9-2,6.7c-1.6,1.7-3.5,1.4-4.4-0.7
			C159.2,105.5,158.8,104.2,158.6,103z M161,96.3c-0.8,2.8-1,5.8-0.6,8.7c0.1,0.3,0.1,0.6,0.3,0.9c0.6,1.5,1.4,1.7,2.5,0.4
			c1.8-2.4,2-5.5,0.6-8.1C163.2,97.2,162.2,96.5,161,96.3L161,96.3z"/>
		<path class="st1" d="M157.4,102.8v6.2c0,0.5,0,1-0.7,1s-0.7-0.6-0.7-1.1c0-3.7,0-7.3-0.1-11c-0.1-0.5-0.1-1.1-0.1-1.6
			c0-0.4,0.3-0.9,0.6-1c0.6-0.2,0.8,0.4,0.8,0.9v6.5L157.4,102.8z"/>
		<path class="st1" d="M159.4,113c0.8,0,1.6-0.1,2.5-0.2c1.2-0.2,2.4-0.6,3.5-1.1c0.9-0.4,1.7-0.9,2.4-1.6c0.9-0.8,1.6-1.8,2.2-2.9
			c0.4-0.8,0.8-1.6,1-2.5c0.3-1.1,0.4-2.2,0.4-3.4c0-0.7-0.1-1.5-0.3-2.2c-0.2-0.9-0.6-1.7-1.1-2.5c-0.5-0.7-1.1-1.4-1.7-2
			c-0.7-0.7-1.6-1.2-2.5-1.6c-1.3-0.6-2.7-0.8-4.1-0.7l0,0c-0.1,0-0.2,0-0.2,0c0-0.1,0-0.1,0-0.2c0.1-0.2,0.3-0.4,0.5-0.5
			c0.4-0.2,0.8-0.4,1.2-0.3c1.3-0.1,2.5,0.2,3.7,0.7c0.9,0.4,1.7,0.8,2.4,1.4c1.1,0.9,2.1,2.1,2.7,3.4c0.3,0.6,0.5,1.1,0.6,1.7
			c0.3,1.1,0.4,2.3,0.3,3.5c-0.1,1.4-0.5,2.8-1.1,4.1c-0.7,1.5-1.7,2.8-3,3.9c-1.9,1.6-4.1,2.8-6.4,3.4c-1.1,0.3-2.3,0.5-3.5,0.5
			c-0.5,0-1.1,0-1.6,0c-1.1,0-2.1-0.2-3.1-0.5c-1.1-0.3-2.1-0.8-3-1.4c-0.9-0.7-1.6-1.5-2.2-2.5c-0.4-0.7-0.7-1.3-0.9-2.1
			c-0.1-0.4-0.2-0.9-0.3-1.3c-0.1-0.6-0.2-1.3-0.1-2c0-0.9,0.1-1.8,0.3-2.6c0.2-1,0.5-1.9,1-2.8c0.4-0.9,1-1.7,1.6-2.5
			c0.5-0.6,1.1-1.2,1.7-1.8c0.8-0.7,1.6-1.3,2.5-1.8c0.8-0.5,1.7-0.9,2.6-1.2c0.9-0.3,1.9-0.5,2.9-0.6c0.1,0,0.2,0,0.2,0.1
			s0,0.2-0.1,0.2c-0.3,0.4-0.7,0.6-1.1,0.7c-0.3,0.1-0.6,0.1-1,0.1c-0.9,0.2-1.8,0.4-2.6,0.8c-0.6,0.3-1.2,0.6-1.7,1s-1,0.8-1.4,1.2
			c-1.4,1.5-2.5,3.4-3,5.4c-0.4,1.5-0.5,3.1-0.3,4.6c0.2,1.3,0.6,2.6,1.3,3.8c0.7,1.2,1.8,2.2,3,2.8c0.9,0.4,1.8,0.7,2.7,1
			C157.5,113,158.4,113.1,159.4,113z"/>
		<path class="st0" d="M119.8,174.1c-4.7,0-8.6-3.8-8.6-8.6c0-12.3,0-24.5,0-36.8l-0.1-8.5h9.1v2.8c0,0.7,0,1.5,0,2.2
			c0,0.4,0.2,0.8,0.6,1c0.3,0.2,0.6,0.3,1,0.3s0.8-0.1,1.1-0.4c0.3-0.2,0.5-0.5,0.5-0.9c0-0.8,0-1.6,0-2.5v-0.8c0-0.1,0-0.3,0-0.4
			l0.1-1.5h4.6v4.8c0,1,0.4,1.4,1.4,1.5h0.3c0.4,0,0.7-0.1,1-0.3c0.3-0.2,0.5-0.5,0.5-0.9v-5.2h4.6l0.1,1.5c0,0.1,0,0.3,0,0.4
			c0,0.7,0,2.9,0,2.9c-0.1,0.8,0.4,1.5,1.2,1.6c0.1,0,0.2,0,0.3,0s0.2,0,0.4,0c1-0.1,1.3-0.6,1.3-1.5V120h4.7v2.6c0,0.2,0,0.4,0,0.7
			c0,0.6,0,1.1,0,1.7c-0.1,0.4,0,0.7,0.3,1s0.8,0.5,1.3,0.5h0.2c0.4-0.1,0.8-0.2,1.2-0.5c0.1-0.1,0.3-0.2,0.3-0.7c0-0.8,0-1.5,0-2.3
			v-2.9h4.5l0.1,1.5c0,0.1,0,0.3,0,0.4v2.9c-0.1,0.8,0.5,1.5,1.3,1.6c0.1,0,0.2,0,0.3,0h0.3c0.4,0,0.8-0.2,1.1-0.4
			c0.2-0.2,0.4-0.5,0.4-0.8c0-0.9,0-1.7,0-2.6v-2.5h4.6l0.1,1.5c0,0.1,0,0.3,0,0.4v2.9c-0.1,0.7,0.4,1.4,1.1,1.5c0.1,0,0.1,0,0.2,0
			h0.4c0.4,0,0.8-0.1,1.1-0.4c0.3-0.2,0.5-0.5,0.5-0.8c0-0.8,0-1.7,0-2.5v-2.6h9.1l-0.1,8.5c0,12.2,0,24.5,0,36.7
			c0,4.7-3.9,8.6-8.6,8.6L119.8,174.1L119.8,174.1z"/>
		<path class="st3" d="M127.4,121.8v3.3c-0.1,1.5,0.8,3.1,2.3,3.2h0.2c0.2,0,0.6,0.1,0.8,0.1c0.7,0,1.2,0,1.8-0.4
			c1-0.9,1.5-1.7,1.4-2.6l-0.1-3.6l1.4-0.1c0,0.1,0,0.3,0,0.5c0,1,0,1.9,0,2.9c-0.1,1.6,1,3.2,2.6,3.3c0.1,0,0.3,0,0.4,0
			c0.2,0,0.5,0,0.7,0c1.5-0.1,3.1-1.5,3-3v-0.3v-3.3h1.2v1.2c0,0.7,0.1,1.5,0,2.2c-0.1,1.6,1.1,2.9,2.6,3c0.1,0,0.2,0,0.3,0
			s0.3,0,0.4,0c0.6-0.1,1.2-0.3,1.7-0.7c0.7-0.4,1.4-1.2,1.4-2c0-1.1,0-2.1,0-3.1v-0.6h1.5c0,0.1,0,0.3,0,0.5v3
			c-0.1,1.6,1,2.8,2.6,3.1c0.1,0,0.2,0,0.3,0h0.4c0.7-0.1,1.5-0.3,2-0.8c0.6-0.5,1.2-1.2,1.2-1.9c0-1.2,0-2.7,0-4h1.4
			c0,0.2,0,0.5,0,0.6c0,1-0.1,1.7-0.1,2.6c-0.1,1.5,0.9,3.1,2.3,3.4c0,0.1,0.6,0.1,0.3,0c-0.4-0.1,0.2,0.2,0.4,0.2
			c0.7,0,1.5-0.3,2.1-0.8c0.7-0.5,1.3-1.4,1.3-2.3c0-1.2,0.1-2.4,0.1-3.7h5.6v7.1c0,12.2,0,24.5,0,36.7c-0.1,3.8-3.2,6.9-7,7
			l-53.1,0.5c-3.4,0.6,1.1-1,4.7-6.7c5.1-10.1,9.6-26.1-3.1-37l0.1-7.9l7,0.2v0.5c0,1,0,2.1,0,3.1c-0.1,1,0.5,1.9,1.4,2.3
			c0.5,0.3,1.1,0.5,1.7,0.5c0.7,0,1.3-0.2,1.9-0.6c0.7-0.9,1-1.5,0.9-2.3c0-1.1,0-2.1,0-3.1c0-0.2,0.1,0,0.1-0.1L127.4,121.8
			 M129.8,118.7h-7.4l-0.1,2.8v0.1c0,0.2,0,0.3,0,0.5v0.8c0,0.7,0,1.5,0,2.2h-0.1c-0.1,0-0.1,0-0.2,0c0-0.7,0-1.4,0-2v-4.3h-12.1
			v2.9v5.4c15.5,14.4,9.7,30,9.4,29.7c-0.6,6.6-14.2,20.2-13.9,19.1l58.1-0.5c5.5,0,10-4.5,10.1-10c0-13.3,0-26.6,0-36.7v-7.1v-2.9
			h-11.9v6.4h-0.3v-3c0-0.2,0-0.4,0-0.5v-0.1l-0.1-2.7h-7.4v6.4h-0.1h-0.2v-0.1V122c0-0.2,0-0.4,0-0.5v-0.1l-0.1-2.7h-7.4v4.4
			c0,0.7,0,1.3,0,2l-0.2,0.1h-0.1c0-0.6,0-1.1,0-1.7c0-0.2,0-0.4,0-0.6v-4.1H138v6.4h-0.1h-0.2c0-0.1,0-0.1,0-0.2v-1
			c0-0.7,0-1.3,0-2c0-0.2,0-0.4,0-0.5v-0.1l-0.1-2.7h-7.4v6.4H130h-0.1h-0.1L129.8,118.7L129.8,118.7z"/>
		<path class="st2" d="M116.4,136.3l3.7,9.4c1.4,8.9-4.6,21.4-4,21.3c1.3,1.1,2.1,1.2,2.7,1.2c14.9,0,29.8,0,44.7,0h0.7
			c1.6,0.1,2.9-1.2,2.9-2.7c0-0.1,0-0.1,0-0.2c0-9.4,0-18.9,0-28.3v-0.6L116.4,136.3z"/>
		<polygon class="st2" points="119,138.5 126.2,138.5 126.2,145.4 119.6,145.4 		"/>
		<rect x="128.4" y="138.5" class="st2" width="7.2" height="6.9"/>
		<rect x="137.8" y="138.5" class="st2" width="7.2" height="6.9"/>
		<rect x="147.3" y="138.5" class="st2" width="7.2" height="6.9"/>
		<rect x="156.7" y="138.5" class="st2" width="7.2" height="6.9"/>
		<polygon class="st2" points="120,148.9 126.2,148.9 126.2,155.8 119,155.8 		"/>
		<rect x="128.4" y="148.9" class="st2" width="7.2" height="6.9"/>
		<rect x="137.8" y="148.9" class="st2" width="7.2" height="6.9"/>
		<rect x="147.3" y="148.9" class="st2" width="7.2" height="6.9"/>
		<rect x="156.7" y="148.9" class="st2" width="7.2" height="6.9"/>
		<rect x="119" y="159" class="st2" width="7.2" height="6.9"/>
		<rect x="128.4" y="159" class="st2" width="7.2" height="6.9"/>
		<rect x="137.8" y="159" class="st2" width="7.2" height="6.9"/>
		<path class="st4" d="M130.7,128.5c-1.7,0.1-3.2-1.2-3.3-3c0-0.1,0-0.2,0-0.4v-7.2c0-1.8,1.5-3.3,3.3-3.3s3.3,1.5,3.3,3.3v7.2
			c0.1,1.7-1.2,3.2-2.9,3.3C130.9,128.6,130.8,128.6,130.7,128.5L130.7,128.5z"/>
		<path class="st1" d="M130.6,116.2L130.6,116.2c0.9-0.1,1.8,0.6,1.8,1.5c0,0.1,0,0.2,0,0.3v3.5c0,1.2,0,2.4,0,3.6
			c0.1,0.9-0.6,1.7-1.5,1.8c-0.1,0-0.2,0-0.3,0l0,0c-0.9,0.1-1.7-0.6-1.8-1.5c0-0.1,0-0.2,0-0.3V118c-0.1-0.9,0.6-1.7,1.5-1.8
			C130.5,116.3,130.6,116.3,130.6,116.2"/>
		<path class="st2" d="M154.3,128.4c-1.7,0.1-3.2-1.3-3.2-3c0-0.1,0-0.2,0-0.4v-7c0-1.8,1.5-3.3,3.3-3.3s3.3,1.5,3.3,3.3v7
			c0.1,1.7-1.2,3.2-2.9,3.3C154.5,128.4,154.4,128.4,154.3,128.4L154.3,128.4z"/>
		<path class="st5" d="M122.3,128.1c-1.6,0-2.9-1.3-2.9-3V125v-7.1c-0.1-1.7,1.2-3.1,2.7-3.1c0.1,0,0.1,0,0.2,0h0.1
			c1.6-0.1,2.9,1.1,3,2.8c0,0.1,0,0.2,0,0.3c0,2.5,0,4.9,0,7.2c0,1.7-1.2,3-2.8,3.1C122.5,128.1,122.4,128.1,122.3,128.1
			L122.3,128.1z"/>
		<path class="st1" d="M122.3,116.3c0.9-0.1,1.7,0.5,1.8,1.4c0,0.1,0,0.2,0,0.3c0,2.5,0,4.9,0,7.4c0,0.9-0.7,1.7-1.6,1.7
			c-0.1,0-0.2,0-0.3,0l0,0c-0.9,0-1.7-0.6-1.7-1.5c0-0.1,0-0.1,0-0.2c0-1.2,0-2.4,0-3.7v-3.6c-0.1-0.9,0.6-1.7,1.6-1.8
			C122.1,116.3,122.2,116.3,122.3,116.3L122.3,116.3"/>
		<path class="st2" d="M146.4,128.1c-1.5,0.1-2.8-0.9-3.2-2.3c-0.1-0.3-0.1-0.7-0.1-1v-7.1c-0.1-1.7,1.2-3.2,3-3.3
			c0.1,0,0.1,0,0.2,0h0.1c1.7-0.1,3.2,1.1,3.3,2.8c0,0.1,0,0.2,0,0.4c0,0.9,0,1.7,0,2.6v1.1c0,0.4,0,0.8,0,1.1c0,0.9,0,1.8,0,2.6
			c0,1.6-1.2,2.9-2.8,3L146.4,128.1z"/>
		<path class="st1" d="M146.2,116.5c0.9-0.1,1.7,0.5,1.8,1.4c0,0.1,0,0.2,0,0.3c0,1.2,0,2.4,0,3.6s0,2.5,0,3.7
			c0,0.8-0.6,1.5-1.5,1.6h-0.3c-0.8,0.1-1.6-0.4-1.8-1.2c0-0.2-0.1-0.4,0-0.6c0-2.4,0-4.8,0-7.1c-0.1-0.9,0.6-1.7,1.5-1.8
			C146,116.5,146.1,116.5,146.2,116.5L146.2,116.5"/>
		<path class="st2" d="M138.5,128.4c-1.7,0.1-3.1-1.2-3.3-2.8c0-0.1,0-0.2,0-0.3c0-2.6,0-5,0-7.2c-0.1-1.7,1.3-3.2,3-3.2
			c0.1,0,0.2,0,0.3,0h0.1c1.7,0,3.1,1.3,3.2,3.1c0,0.1,0,0.1,0,0.2v7.1c0.1,1.7-1.2,3.1-2.9,3.2
			C138.8,128.4,138.7,128.4,138.5,128.4L138.5,128.4z"/>
		<path class="st6" d="M91.3,178.2c-15.8,0-28.6-12.8-28.6-28.6S75.5,121,91.3,121s28.6,12.8,28.6,28.6l0,0
			C119.9,165.4,107.1,178.2,91.3,178.2z"/>
		<path class="st1" d="M91.5,122.1c15.1,0,27.4,12.3,27.4,27.4s-12.3,27.4-27.4,27.4s-27.4-12.2-27.4-27.3
			C64.1,134.4,76.3,122.1,91.5,122.1L91.5,122.1 M91.5,119.6c-16.5,0-29.9,13.4-29.9,29.9s13.4,29.9,29.9,29.9
			c16.4,0.5,29.8-13.1,29.9-29.9l0,0C121.4,133,108,119.7,91.5,119.6z"/>
		<circle class="st1" cx="91.3" cy="149.6" r="2.3"/>
		<path class="st3" d="M91.1,174.5c-13.7,0-24.7-11.2-24.8-24.9c0-13.8,11.1-24.9,24.7-25c13.7,0,24.7,11.2,24.8,24.9l0,0
			C115.8,163.4,104.7,174.5,91.1,174.5z M91.1,125.9c-13,0-23.5,10.6-23.5,23.7s10.5,23.7,23.5,23.7s23.5-10.6,23.5-23.7
			C114.5,136.5,104,125.9,91.1,125.9z"/>
		<rect x="90.6" y="169.3" class="st1" width="1.8" height="4.6"/>
		<rect x="111.2" y="148.7" class="st1" width="4.6" height="1.8"/>
		<rect x="67.2" y="148.7" class="st1" width="4.6" height="1.8"/>
		
			<rect x="109" y="158.2" transform="matrix(0.5026 -0.8645 0.8645 0.5026 -84.273 174.4729)" class="st1" width="0.9" height="4.6"/>
		
			<rect x="72" y="136.2" transform="matrix(0.5042 -0.8636 0.8636 0.5042 -83.6986 131.2424)" class="st1" width="0.9" height="4.6"/>
		
			<rect x="102.9" y="165.9" transform="matrix(0.8433 -0.5374 0.5374 0.8433 -74.1961 81.8934)" class="st1" width="0.9" height="4.6"/>
		
			<rect x="79.2" y="128.7" transform="matrix(0.8433 -0.5374 0.5374 0.8433 -57.9145 63.321)" class="st1" width="0.9" height="4.6"/>
		
			<rect x="78.1" y="168.2" transform="matrix(0.5041 -0.8637 0.8637 0.5041 -105.7734 153.1207)" class="st1" width="4.6" height="0.9"/>
		
			<rect x="100.3" y="130.1" transform="matrix(0.5041 -0.8637 0.8637 0.5041 -61.8729 153.344)" class="st1" width="4.6" height="0.9"/>
		<rect x="70.6" y="161" transform="matrix(0.8431 -0.5377 0.5377 0.8431 -75.376 64.521)" class="st1" width="4.6" height="0.9"/>
		
			<rect x="107.8" y="137.3" transform="matrix(0.8431 -0.5377 0.5377 0.8431 -56.7913 80.8078)" class="st1" width="4.6" height="0.9"/>
		<rect x="90.6" y="135.4" class="st1" width="1.8" height="18.7"/>
		<rect x="87.4" y="148.7" class="st1" width="13.3" height="1.7"/>
		<path class="st2" d="M162.2,128.4c-1.7,0.1-3.2-1.1-3.3-2.8c0-0.1,0-0.2,0-0.3c0-2.7,0-5.1,0-7.4c0-1.6,1.2-2.9,2.8-3.1h0.5
			c1.5-0.1,2.8,0.9,3.2,2.4c0.1,0.3,0.1,0.7,0.1,1v7c0.1,1.7-1.2,3.1-2.9,3.2C162.4,128.4,162.3,128.4,162.2,128.4L162.2,128.4z"/>
		<path class="st1" d="M162,116.8c0.8-0.1,1.6,0.5,1.8,1.3c0,0.2,0.1,0.4,0.1,0.7v3.5c0,1.2,0,2.4,0,3.6c0.1,0.9-0.6,1.7-1.5,1.8
			c-0.1,0-0.2,0-0.2,0l0,0c-0.9,0.1-1.7-0.5-1.8-1.4c0-0.1,0-0.2,0-0.3c0-2.5,0-4.9,0-7.4c0-0.8,0.6-1.6,1.5-1.6L162,116.8"/>
		<rect x="90.6" y="125.3" class="st1" width="1.8" height="4.6"/>
		<circle class="st7" cx="132.6" cy="133.1" r="103.7"/>
		<path class="st8" d="M133.7,261C63.3,261,5.9,203.7,5.9,133.3S63.3,5.5,133.7,5.5c29.6,0,58.2,10.3,81.1,29l-10.9,13.2
			C156.6,8.9,86.9,15.8,48.1,63.1s-31.9,117,15.4,155.8c41.1,33.7,100.4,33.5,141.1-0.6l11,13.1C192.7,250.5,163.7,261,133.7,261z"
			/>
		<path class="st1" d="M138.3,116.4L138.3,116.4c0.9-0.1,1.8,0.6,1.8,1.5c0,0.1,0,0.2,0,0.3v3.5c0,1.2,0,2.4,0,3.6
			c0.1,0.9-0.6,1.7-1.5,1.8c-0.1,0-0.2,0-0.3,0l0,0c-0.9,0.1-1.7-0.6-1.8-1.5c0-0.1,0-0.2,0-0.3v-7.1c-0.1-0.9,0.6-1.7,1.5-1.8
			C138.1,116.5,138.2,116.5,138.3,116.4"/>
		<path class="st1" d="M154.2,116.6L154.2,116.6c0.9-0.1,1.8,0.6,1.8,1.5c0,0.1,0,0.2,0,0.3v3.5c0,1.2,0,2.4,0,3.6
			c0.1,0.9-0.6,1.7-1.5,1.8c-0.1,0-0.2,0-0.3,0l0,0c-0.9,0.1-1.7-0.6-1.8-1.5c0-0.1,0-0.2,0-0.3v-7.1c-0.1-0.9,0.6-1.7,1.5-1.8
			C154,116.6,154.1,116.6,154.2,116.6"/>
	</g>
</g>
</svg>
