<?xml version="1.0" encoding="utf-8"?>
<!-- Generator: Adobe Illustrator 23.0.0, SVG Export Plug-In . SVG Version: 6.00 Build 0)  -->
<svg version="1.1" id="Capa_1" xmlns="http://www.w3.org/2000/svg" xmlns:xlink="http://www.w3.org/1999/xlink" x="0px" y="0px"
	 viewBox="0 0 253.9 343.8" style="enable-background:new 0 0 253.9 343.8;" xml:space="preserve">
<style type="text/css">
	.st0{fill:#3B2754;stroke:#FFFFFF;stroke-width:6;stroke-linecap:round;stroke-linejoin:round;}
	.st1{fill:#3B2754;stroke:#FFFFFF;stroke-width:3;stroke-miterlimit:10;}
	.st2{fill:#3B2754;stroke:#FFFFFF;stroke-miterlimit:10;}
	.st3{fill:#FFFFFF;}
	.st4{fill:#3B2754;stroke:#FFFFFF;stroke-width:1.17;stroke-miterlimit:10;}
	.st5{fill:none;stroke:#A6A6A6;stroke-width:3;stroke-miterlimit:10;stroke-dasharray:9.97,9.97;}
	.st6{fill:#3B2754;stroke:#FFFFFF;stroke-width:1.38;stroke-miterlimit:10;}
	.st7{fill:#3B2754;stroke:#A1A1A1;stroke-miterlimit:10;}
</style>
<title>alumnos_padres</title>
<g>
	<g id="Capa_1-2">
		<polygon class="st0" points="115,98.3 90.3,91 115,83.4 140.4,91.7 		"/>
		<path class="st0" d="M114.8,125.3c-1.4,0.1-2.8-0.2-4.1-1c-6.9-3.5-8.3-11.1-8.3-11.1c-3-9.3,1.6-15.4,1.6-15.4h21.5
			c0,0,4.6,6.1,1.6,15.4c0,0-1.4,7.6-8.3,11.1C117.7,125.1,116.3,125.4,114.8,125.3"/>
		<path class="st0" d="M125.2,122.7c-2.4,3.4-6.2,5.4-10.3,5.5c-4,0-7.8-2-10.2-5.3c0,0-16.9,12.7-16.8,24.6h53.7
			C141.7,147.5,138.7,130.9,125.2,122.7"/>
		<rect x="101.9" y="93" class="st1" width="25.8" height="7.9"/>
		<path class="st2" d="M114.8,125.3c-1.4,0.1-2.8-0.2-4.1-1c-6.9-3.5-8.3-11.1-8.3-11.1c-3-9.3,1.6-15.4,1.6-15.4h21.5
			c0,0,4.6,6.1,1.6,15.4c0,0-1.4,7.6-8.3,11.1C117.7,125.1,116.3,125.4,114.8,125.3"/>
		<path class="st2" d="M125.2,122.7c-2.4,3.4-6.2,5.4-10.3,5.5c-4,0-7.8-2-10.2-5.3c0,0-16.9,12.7-16.8,24.6h53.7
			C141.7,147.5,138.7,130.9,125.2,122.7"/>
		<path class="st2" d="M115,99.1c-0.1,0-0.2,0-0.2,0L90,91.8c-0.3-0.1-0.6-0.4-0.6-0.8c0-0.4,0.2-0.7,0.6-0.8l24.8-7.7
			c0.1,0,0.2,0,0.2,0c0.1,0,0.2,0,0.2,0l25.4,8.3c0.4,0.1,0.7,0.6,0.5,1c-0.1,0.3-0.3,0.5-0.5,0.5l-25.4,6.7L115,99.1z"/>
		<path class="st2" d="M115,83.4l25.4,8.3L115,98.3L90.3,91L115,83.4 M115,81.8c-0.2,0-0.3,0-0.5,0.1l-24.7,7.6
			c-0.8,0.2-1.3,1.1-1.1,2c0.2,0.5,0.6,0.9,1.1,1.1l24.7,7.3c0.2,0,0.3,0.1,0.5,0.1c0.1,0,0.3,0,0.4,0l25.4-6.7
			c0.9-0.2,1.4-1.1,1.1-2c-0.1-0.5-0.5-0.9-1-1.1l-25.4-8.3C115.3,81.8,115.2,81.8,115,81.8L115,81.8z"/>
		<path class="st2" d="M123.4,114.7V54.1c0.7-2.9,2.8-4.2,6-4.2c14.3,0.1,28.5,0,42.8,0c1.6,0,3.2,0.6,4.3,1.8
			c4.7,4.7,9.4,9.4,14.1,14.1c1.2,1.1,1.8,2.7,1.8,4.3c0,11.7,0,23.3,0,35c0,3,0,5.9,0,8.9c0,1.9-1.1,3.7-2.8,4.4
			c-0.4,0.2-0.9,0.3-1.3,0.5h-60.6c-1.1-0.2-2.1-0.8-2.8-1.6C124.2,116.5,123.7,115.6,123.4,114.7z M140.6,104.1h34.5
			c0-1.5,0-3,0-4.5c0.1-2.4-1-4.7-2.8-6.2c-2.2-1.7-4.8-2.9-7.6-3.3c-2-0.4-4-0.6-5.7-0.8c5.4-0.5,9.4-5.3,8.9-10.7
			s-5.3-9.4-10.7-8.9c-5.4,0.5-9.4,5.3-8.9,10.7c0.4,4.7,4.2,8.4,8.9,8.9c-0.9,0.1-1.8,0.1-2.6,0.2c-3.1,0.2-6.1,1-8.9,2.3
			c-2.7,1.4-4.7,3.4-5,6.6C140.5,100.3,140.6,102.2,140.6,104.1z M172.6,55.1c0,0.1,0,0.3,0,0.4c0,3.1,0,6.2,0,9.4
			c0,2.7,2.1,4.8,4.8,4.9c0.1,0,0.1,0,0.2,0c3.1,0,6.1,0,9.2,0c0.2,0,0.3,0,0.5-0.1L172.6,55.1z"/>
		<path class="st3" d="M140.6,104.1c0-1.9-0.1-3.8,0-5.6c0.3-3.2,2.3-5.2,5-6.6c2.8-1.3,5.8-2.1,8.9-2.3c0.8-0.1,1.6-0.1,2.6-0.2
			c-5.4-0.5-9.4-5.3-8.9-10.8c0.5-5.4,5.3-9.4,10.8-8.9c5.4,0.5,9.4,5.3,8.9,10.8c-0.4,4.7-4.2,8.5-8.9,8.9c1.7,0.2,3.7,0.4,5.7,0.8
			c2.8,0.4,5.4,1.5,7.6,3.3c1.9,1.5,2.9,3.8,2.8,6.2c0,1.5,0,3,0,4.5L140.6,104.1z"/>
		<path class="st3" d="M95,189.6c-9.8,0.1-19.7,0.1-29.5,0.3c-3.3,0-6.1-2.7-6.1-6c0-14.2-0.2-28.4-0.3-42.6c0-3.8,2.2-6.1,6-6.2
			l59.1-0.5c3.7,0,6,2.3,6.1,6c0.1,14.3,0.3,28.5,0.4,42.8c0,3.7-2.2,6-5.9,6L95,189.6z M65.6,139.3c0.4,0.5,0.7,0.8,1,1.1
			c6.6,7,13.2,14,19.9,20.9c4.9,5.1,11.9,5,16.7-0.2c6.5-7,12.9-14.1,19.4-21.2c0.3-0.3,0.6-0.6,1-1.1L65.6,139.3z M66.2,185.6
			l57.5-0.5l-16.1-22.5c-3.3,4.1-7.3,6.6-12.5,6.7s-9.3-2.2-12.7-6.1L66.2,185.6z M63.4,143.1l0.3,38.7L79.4,160L63.4,143.1z
			 M126.3,181.5l-0.4-39l-15.5,16.9L126.3,181.5z"/>
		<path class="st2" d="M65.6,139.3l57.9-0.5c-0.4,0.5-0.7,0.8-1,1.1c-6.5,7.1-12.9,14.1-19.4,21.2c-4.8,5.3-11.8,5.4-16.7,0.2
			c-6.6-7-13.3-14-19.9-20.9C66.3,140.1,66.1,139.8,65.6,139.3z"/>
		<path class="st2" d="M66.2,185.6l16.2-22.5c3.4,3.9,7.5,6.2,12.7,6.1s9.2-2.6,12.5-6.7l16.1,22.5L66.2,185.6z"/>
		<path class="st2" d="M63.4,143.1l16,16.9l-15.7,21.8L63.4,143.1z"/>
		<path class="st2" d="M126.3,181.5l-15.8-22.1l15.5-16.9L126.3,181.5z"/>
		<path class="st3" d="M127.9,142.1c0.1-2.3,0.1-4.6,0.4-6.9c0.5-3.6,2.9-5.6,6.7-5.9c7.8-0.5,15.5-2.7,22.4-6.5
			c1.3-0.7,2.6-1.6,3.9-2.3c1-0.6,2-1.1,3.1-1.5c2.4-0.8,5-0.4,7.1,1c2,1.2,3.9,2.5,6,3.7c5.9,3.2,12.4,5,19.1,5.4
			c1.3,0.1,2.5,0.3,3.7,0.7c2.9,0.8,4.5,2.7,4.6,5.6c0.1,3.7,0.1,7.5-0.2,11.2c-0.6,7.8-2.5,15.5-5.5,22.8
			c-4.5,11.1-12,20.8-21.6,28c-2,1.5-4.1,2.8-6.3,4c-3,1.8-6.8,1.9-9.9,0.1c-2.8-1.5-5.6-3.2-8.2-5.1c-7.2-5-13.1-11.6-17.3-19.3
			c-3.1-5.8-5.3-12-6.5-18.5C128.5,153.1,128,147.6,127.9,142.1z M135.2,142.9c0,6.3,0.9,12.5,2.5,18.6c3.9,14.5,12.5,25.6,26.3,33
			c1.6,1,3.6,0.9,5.2-0.2c8.7-5.4,15.8-13,20.7-22c3.5-6.6,5.9-13.7,7.1-21.1c0.8-4.5,1.2-9.1,1.1-13.6c0-0.9-0.1-1.1-1.1-1.1
			l-2.4-0.3c-9.6-1-18.8-4.4-26.7-9.9c-1-0.7-1.1-0.7-2.1,0l-0.4,0.3c-4.6,3-9.5,5.4-14.8,7.1c-4.5,1.3-9.1,2.2-13.7,2.7
			c-1.3,0.2-1.6,0.5-1.6,1.7C135.2,139.6,135.2,141.3,135.2,142.9z"/>
		<path class="st4" d="M135.2,142.9c0-1.6,0-3.2,0-4.8c0-1.2,0.4-1.6,1.6-1.7c4.6-0.5,9.2-1.4,13.7-2.7c5.2-1.7,10.2-4.1,14.8-7.1
			l0.4-0.3c1.1-0.7,1.2-0.7,2.1,0c7.9,5.5,17.1,8.9,26.7,9.9l2.4,0.3c0.9,0.1,1.1,0.2,1.1,1.1c0,4.6-0.3,9.1-1.1,13.6
			c-1.2,7.4-3.6,14.5-7.1,21.1c-4.9,9-12,16.6-20.7,22c-1.5,1.1-3.6,1.2-5.2,0.2c-13.8-7.4-22.4-18.4-26.3-33
			C136,155.3,135.2,149.1,135.2,142.9z M192.3,145.4c0-1.2,0-2.2,0-3.1s-0.5-1.5-1.5-1.5c-8.3-0.5-16.2-3.3-23-8.1
			c-0.6-0.4-1.3-0.5-1.9-0.1c-0.3,0.2-0.6,0.4-0.9,0.6c-3.8,2.6-8,4.5-12.5,5.8c-3.3,0.8-6.8,1.3-10.1,1.9c-1,0.2-1.4,0.6-1.5,1.4
			c-0.3,6,0.2,12.1,1.6,17.9c3,12.4,10,21.9,21.7,28.2c1.5,0.9,3.3,0.9,4.7-0.1c6-3.7,11.2-8.7,15.1-14.7
			C189.4,164.8,191.7,155.2,192.3,145.4z"/>
		<path class="st4" d="M192.3,145.4c-0.6,9.8-2.9,19.4-8.4,28.1c-3.9,6-9,11-15.1,14.7c-1.4,1-3.3,1-4.7,0.1
			c-11.7-6.3-18.7-15.8-21.7-28.2c-1.4-5.9-1.9-11.9-1.6-17.9c0-0.9,0.5-1.3,1.5-1.4c3.4-0.6,6.8-1.1,10.1-1.9
			c4.5-1.2,8.7-3.2,12.5-5.8c0.3-0.2,0.6-0.4,0.9-0.6c0.6-0.4,1.4-0.3,1.9,0.1c6.8,4.8,14.7,7.6,23,8.1c1,0.1,1.5,0.5,1.5,1.5
			S192.3,144.2,192.3,145.4z M162.2,162.4l-0.5-0.4c-1.7-1.6-3.4-3.3-5.1-4.9c-0.5-0.7-1.6-0.9-2.3-0.3c-0.1,0.1-0.2,0.2-0.3,0.3
			c-1.2,1.1-2.3,2.2-3.4,3.3c-0.8,0.8-0.8,1.5,0.1,2.3l9.6,9.2c1.8,1.7,2.1,1.7,3.9,0l18.2-17.4c1.1-1,1.1-1.6,0-2.7l-3-2.9
			c-1.2-1.2-1.9-1.2-3.1,0l-9.4,8.9L162.2,162.4z"/>
		<path class="st3" d="M162.2,162.4l4.7-4.5l9.4-8.9c1.2-1.1,1.9-1.1,3.1,0l3,2.9c1.1,1,1.1,1.6,0,2.7l-18.2,17.4
			c-1.8,1.7-2.1,1.7-3.9,0l-9.6-9.2c-0.9-0.8-0.9-1.5-0.1-2.3c1.1-1.1,2.3-2.2,3.4-3.3c0.5-0.7,1.6-0.9,2.3-0.3
			c0.1,0.1,0.2,0.2,0.3,0.3c1.7,1.6,3.4,3.2,5.1,4.9L162.2,162.4z"/>
		<circle class="st5" cx="140.5" cy="131.3" r="107.9"/>
		<path class="st2" d="M137.9,261.3C66,261.3,7.5,202.8,7.5,130.9S66,0.5,137.9,0.5c30.2,0,59.4,10.5,82.7,29.6l-11.1,13.5
			C161.3,4,90.1,11,50.6,59.3S18,178.7,66.3,218.2c41.9,34.4,102.4,34.1,144-0.6l11.2,13.4C198,250.5,168.4,261.3,137.9,261.3z"/>
		<path class="st6" d="M199.3,97.6c-0.5-0.7-1.2-1-2-1l-13.1,0.9c-0.9,0.1-1.7,0.7-2,1.6c-0.4,0.9-0.2,1.9,0.3,2.7l2.7,3.6
			L165,121.2l-7.2-9c-0.9-1.2-2.6-1.4-3.8-0.5c0,0,0,0,0,0l-42.7,32.4l-11.1-8.9c-1-0.9-2.5-0.9-3.5,0L64.1,163
			c-1.3,1.1-1.5,3-0.5,4.4c0.5,0.7,1.3,1.2,2.2,1.2c0.7,0,1.3-0.2,1.8-0.7l31-26.4l11,8.9c1,0.8,2.4,0.8,3.3,0l42.2-32l7.2,9
			c0.9,1.2,2.6,1.4,3.8,0.5c0,0,0,0,0.1,0l22.6-17.7l3,4c0.4,0.6,1.1,1,1.8,1c0.2,0,0.3,0,0.5,0c0.9-0.2,1.6-0.9,1.8-1.8l3.8-13.4
			C199.9,99.2,199.8,98.3,199.3,97.6z"/>
	</g>
</g>
<path class="st7" d="M182.3,263.4c-16.1,6.9-33.8,10.5-52.4,9.9c-19-0.6-36.8-5.3-52.7-13.4l0.2,0.5l50,79.6L182.3,263.4
	L182.3,263.4z"/>
</svg>
