<svg xmlns="http://www.w3.org/2000/svg" viewBox="0 0 242.93 261.76"><defs><style>.cls-1,.cls-2,.cls-3,.cls-5,.cls-7{fill:#3b2754;stroke:#fff;}.cls-1{stroke-linecap:round;stroke-linejoin:round;stroke-width:6px;}.cls-2,.cls-3,.cls-5,.cls-6,.cls-7{stroke-miterlimit:10;}.cls-2,.cls-6{stroke-width:3px;}.cls-4{fill:#fff;}.cls-5{stroke-width:1.17px;}.cls-6{fill:none;stroke:#a6a6a6;stroke-dasharray:9.97 9.97;}.cls-7{stroke-width:1.38px;}</style></defs><title>alumnos_padres</title><g id="Capa_2" data-name="Capa 2"><g id="Capa_1-2" data-name="Capa 1"><polygon class="cls-1" points="107.99 98.32 83.26 91.01 108.01 83.36 133.41 91.67 107.99 98.32"/><path class="cls-1" d="M107.78,125.31a6.73,6.73,0,0,1-4.06-1c-6.9-3.52-8.25-11.09-8.25-11.09-3-9.34,1.62-15.42,1.62-15.42h21.45s4.6,6.08,1.63,15.42c0,0-1.36,7.57-8.25,11.09a6.73,6.73,0,0,1-4.06,1"/><path class="cls-1" d="M118.19,122.74a12.84,12.84,0,0,1-10.28,5.47,12.36,12.36,0,0,1-10.15-5.29S80.86,135.59,81,147.49H134.7s-3-16.64-16.51-24.75"/><rect class="cls-2" x="94.93" y="93.02" width="25.8" height="7.87"/><path class="cls-3" d="M107.78,125.31a6.73,6.73,0,0,1-4.06-1c-6.9-3.52-8.25-11.09-8.25-11.09-3-9.34,1.62-15.42,1.62-15.42h21.45s4.6,6.08,1.63,15.42c0,0-1.36,7.57-8.25,11.09a6.73,6.73,0,0,1-4.06,1"/><path class="cls-3" d="M118.19,122.74a12.84,12.84,0,0,1-10.28,5.47,12.36,12.36,0,0,1-10.15-5.29S80.86,135.59,81,147.49H134.7s-3-16.64-16.51-24.75"/><path class="cls-3" d="M108,99.12a.85.85,0,0,1-.23,0L83,91.77a.78.78,0,0,1-.57-.75.8.8,0,0,1,.56-.77l24.75-7.65a.67.67,0,0,1,.24,0,1,1,0,0,1,.24,0l25.41,8.31a.8.8,0,0,1,0,1.53l-25.42,6.65Z"/><path class="cls-3" d="M108,83.36l25.4,8.31L108,98.32,83.26,91,108,83.36m0-1.59a1.49,1.49,0,0,0-.47.07L82.79,89.49a1.59,1.59,0,0,0,0,3.05l24.72,7.31a1.76,1.76,0,0,0,.46.06,1.83,1.83,0,0,0,.4,0l25.42-6.65a1.6,1.6,0,0,0,.1-3.06l-25.41-8.3a1.4,1.4,0,0,0-.49-.08Z"/><path class="cls-3" d="M116.36,114.72V54.09c.69-2.9,2.85-4.23,6-4.21,14.26.08,28.52,0,42.78,0a5.76,5.76,0,0,1,4.32,1.79q7,7.08,14.1,14.1a5.72,5.72,0,0,1,1.79,4.33q0,17.49,0,35c0,3,0,5.92,0,8.89a4.77,4.77,0,0,1-2.84,4.45,10,10,0,0,1-1.33.47H120.54a4.79,4.79,0,0,1-2.84-1.61A20.15,20.15,0,0,1,116.36,114.72Zm17.29-10.67H168.1c0-1.53,0-3,0-4.49a7.74,7.74,0,0,0-2.82-6.21,15.54,15.54,0,0,0-7.57-3.26c-2-.39-4-.57-5.7-.8a9.83,9.83,0,1,0-1.87,0c-.93.07-1.76.11-2.57.19a24.76,24.76,0,0,0-8.87,2.3c-2.72,1.38-4.72,3.43-5,6.6C133.5,100.27,133.65,102.15,133.65,104.05Zm32-49c0,.14,0,.25,0,.36,0,3.12,0,6.24,0,9.36a4.83,4.83,0,0,0,5,4.87c3.06,0,6.11,0,9.16,0a3.55,3.55,0,0,0,.47-.06Z"/><path class="cls-4" d="M133.65,104.05c0-1.9-.15-3.78,0-5.62.31-3.17,2.31-5.22,5-6.6a24.76,24.76,0,0,1,8.87-2.3c.81-.08,1.64-.12,2.57-.19a9.9,9.9,0,1,1,1.87,0c1.69.23,3.71.41,5.7.8a15.54,15.54,0,0,1,7.57,3.26,7.74,7.74,0,0,1,2.82,6.21c0,1.48,0,3,0,4.49Z"/><path class="cls-4" d="M88,189.55c-9.85.09-19.7.08-29.54.33a6.1,6.1,0,0,1-6.12-6c0-14.2-.2-28.41-.33-42.62,0-3.84,2.21-6.14,6-6.18l59.08-.53c3.72,0,6,2.26,6.07,6q.19,21.38.38,42.76c0,3.66-2.23,6-5.91,6ZM58.63,139.34c.44.49.7.8,1,1.09,6.62,7,13.23,14,19.87,20.93,4.9,5.14,11.89,5,16.72-.22q9.72-10.57,19.39-21.19c.29-.32.56-.65,1-1.13Zm.52,46.25,57.5-.52-16.11-22.5c-3.26,4.07-7.29,6.57-12.48,6.68s-9.33-2.19-12.71-6.12Zm-2.78-42.48.35,38.69L72.42,160Zm62.9,38.42-.36-39-15.47,16.91Z"/><path class="cls-3" d="M58.63,139.34l57.92-.52c-.41.48-.68.81-1,1.13q-9.69,10.61-19.39,21.19c-4.83,5.26-11.82,5.36-16.72.22-6.64-7-13.25-14-19.87-20.93C59.33,140.14,59.07,139.83,58.63,139.34Z"/><path class="cls-3" d="M59.15,185.59l16.2-22.46c3.38,3.93,7.53,6.23,12.71,6.12s9.22-2.61,12.48-6.68l16.11,22.5Z"/><path class="cls-3" d="M56.37,143.11,72.42,160,56.72,181.8Z"/><path class="cls-3" d="M119.27,181.53l-15.83-22.1,15.47-16.91Z"/><path class="cls-4" d="M120.86,142.1c.13-2.3.1-4.62.42-6.9.49-3.61,2.87-5.62,6.71-5.88a52.93,52.93,0,0,0,22.35-6.48c1.32-.73,2.58-1.58,3.91-2.31a22.84,22.84,0,0,1,3.08-1.46,8,8,0,0,1,7.12,1c2,1.2,3.94,2.53,6,3.65a45.42,45.42,0,0,0,19.13,5.38,18,18,0,0,1,3.73.66c2.88.83,4.53,2.69,4.6,5.56.09,3.72.09,7.46-.19,11.16a73.1,73.1,0,0,1-5.53,22.76,66.17,66.17,0,0,1-21.62,28,62.79,62.79,0,0,1-6.25,4,9.64,9.64,0,0,1-9.85.12,77,77,0,0,1-8.17-5.09A57.52,57.52,0,0,1,129,177a64.16,64.16,0,0,1-6.46-18.47A103.41,103.41,0,0,1,120.86,142.1Zm7.31.76a73.24,73.24,0,0,0,2.47,18.59c3.87,14.53,12.52,25.6,26.28,33a4.64,4.64,0,0,0,5.16-.18,59.52,59.52,0,0,0,20.73-22,69,69,0,0,0,7.06-21.08A76.48,76.48,0,0,0,191,137.57c0-.92-.15-1.06-1.1-1.15l-2.36-.25a56.41,56.41,0,0,1-26.69-9.88c-1-.7-1.1-.7-2.15,0l-.42.26a59.91,59.91,0,0,1-14.77,7.11,80.71,80.71,0,0,1-13.71,2.7c-1.27.16-1.61.49-1.62,1.72C128.16,139.65,128.17,141.25,128.17,142.86Z"/><path class="cls-5" d="M128.17,142.86c0-1.61,0-3.21,0-4.81,0-1.23.35-1.56,1.62-1.72a80.71,80.71,0,0,0,13.71-2.7,59.91,59.91,0,0,0,14.77-7.11l.42-.26c1.05-.67,1.16-.67,2.15,0a56.41,56.41,0,0,0,26.69,9.88l2.36.25c.95.09,1.09.23,1.1,1.15a76.48,76.48,0,0,1-1.13,13.59,69,69,0,0,1-7.06,21.08,59.52,59.52,0,0,1-20.73,22,4.64,4.64,0,0,1-5.16.18c-13.76-7.36-22.41-18.43-26.28-33A73.24,73.24,0,0,1,128.17,142.86Zm57.13,2.53c0-1.21,0-2.17,0-3.13s-.46-1.46-1.5-1.54a44.63,44.63,0,0,1-23-8.1,1.69,1.69,0,0,0-1.94-.12c-.31.18-.61.37-.91.56a41.46,41.46,0,0,1-12.5,5.76c-3.33.8-6.75,1.29-10.14,1.89-1,.17-1.45.56-1.48,1.45a65.14,65.14,0,0,0,1.58,17.93c3,12.37,10,21.91,21.7,28.17a4.34,4.34,0,0,0,4.72-.09,47.84,47.84,0,0,0,15.06-14.7C182.42,164.78,184.72,155.2,185.3,145.39Z"/><path class="cls-5" d="M185.3,145.39c-.58,9.81-2.88,19.39-8.44,28.08a47.84,47.84,0,0,1-15.06,14.7,4.34,4.34,0,0,1-4.72.09c-11.71-6.26-18.72-15.8-21.7-28.17a65.14,65.14,0,0,1-1.58-17.93c0-.89.49-1.28,1.48-1.45,3.39-.6,6.81-1.09,10.14-1.89a41.46,41.46,0,0,0,12.5-5.76c.3-.19.6-.38.91-.56a1.69,1.69,0,0,1,1.94.12,44.63,44.63,0,0,0,23,8.1c1,.08,1.49.54,1.5,1.54S185.3,144.18,185.3,145.39Zm-30.14,17-.5-.45c-1.69-1.62-3.38-3.25-5.09-4.85a1.64,1.64,0,0,0-2.62,0c-1.16,1.08-2.31,2.19-3.43,3.32-.83.83-.79,1.5.06,2.31l9.61,9.16c1.8,1.71,2.14,1.7,3.94,0l18.17-17.37c1.07-1,1.08-1.63,0-2.66l-3-2.87c-1.21-1.16-1.88-1.17-3.08,0l-9.35,8.93Z"/><path class="cls-4" d="M155.16,162.38l4.74-4.53,9.35-8.93c1.2-1.15,1.87-1.14,3.08,0l3,2.87c1.07,1,1.06,1.64,0,2.66l-18.17,17.37c-1.8,1.72-2.14,1.73-3.94,0l-9.61-9.16c-.85-.81-.89-1.48-.06-2.31,1.12-1.13,2.27-2.24,3.43-3.32a1.64,1.64,0,0,1,2.62,0c1.71,1.6,3.4,3.23,5.09,4.85Z"/><circle class="cls-6" cx="133.5" cy="131.32" r="107.93"/><path class="cls-3" d="M130.88,261.26C59,261.26.5,202.77.5,130.88S59,.5,130.88.5a130.61,130.61,0,0,1,82.73,29.6L202.53,43.58a112.94,112.94,0,1,0,.77,174l11.19,13.38A130.54,130.54,0,0,1,130.88,261.26Z"/><path class="cls-7" d="M192.3,97.56a2.33,2.33,0,0,0-2-1l-13.13.92a2.42,2.42,0,0,0-2,1.57,2.79,2.79,0,0,0,.33,2.71l2.69,3.64-20.21,15.8-7.17-9a2.7,2.7,0,0,0-3.81-.51L104.3,144.07l-11.07-8.95a2.67,2.67,0,0,0-3.47,0L57.05,163a3.36,3.36,0,0,0-.51,4.43,2.8,2.8,0,0,0,2.2,1.21,2.75,2.75,0,0,0,1.83-.67l31-26.4,11,8.88a2.68,2.68,0,0,0,3.35,0l42.19-32,7.19,9a2.7,2.7,0,0,0,3.84.48l22.63-17.7,3,4a2.31,2.31,0,0,0,1.8,1,2.19,2.19,0,0,0,.51,0,2.5,2.5,0,0,0,1.84-1.81L192.69,100A2.82,2.82,0,0,0,192.3,97.56Z"/></g></g></svg>