<?xml version="1.0" encoding="utf-8"?>
<!-- Generator: Adobe Illustrator 23.0.0, SVG Export Plug-In . SVG Version: 6.00 Build 0)  -->
<svg version="1.1" id="Capa_1" xmlns="http://www.w3.org/2000/svg" xmlns:xlink="http://www.w3.org/1999/xlink" x="0px" y="0px"
	 viewBox="0 0 242.9 261.8" style="enable-background:new 0 0 242.9 261.8;" xml:space="preserve">
<style type="text/css">
	.st0{fill:none;stroke:#FFFFFF;stroke-width:2;stroke-linecap:round;stroke-linejoin:round;}
	.st1{fill:none;stroke:#FFFFFF;stroke-width:3;stroke-linecap:round;stroke-linejoin:round;}
	.st2{fill:none;stroke:#FFFFFF;stroke-width:2;stroke-miterlimit:10;}
	.st3{fill:none;}
	.st4{fill:none;stroke:#FFFFFF;stroke-width:4;stroke-miterlimit:10;}
	.st5{fill:none;stroke:#FFFFFF;stroke-width:3;stroke-miterlimit:10;}
	.st6{fill:none;stroke:#FFFFFF;stroke-width:4.9;stroke-miterlimit:10;stroke-dasharray:9.6684,9.6684;}
	.st7{fill:none;stroke:#FFFFFF;stroke-width:4.9;stroke-miterlimit:10;}
</style>
<title>alumnos_padres</title>
<g>
	<g id="Capa_1-2">
		<polygon class="st0" points="109.1,98 84.6,90.8 109.1,83.2 134.2,91.4 		"/>
		<path class="st0" d="M108.9,124.7c-1.4,0.1-2.8-0.2-4-1c-6.8-3.5-8.2-11-8.2-11c-3-9.2,1.6-15.3,1.6-15.3h21.2c0,0,4.6,6,1.6,15.3
			c0,0-1.3,7.5-8.2,11C111.8,124.5,110.4,124.8,108.9,124.7"/>
		<path class="st0" d="M125.8,124.6c-1.8-0.9-4-1.7-6.6-2.4"/>
		<path class="st0" d="M129.4,133.4l-0.8-0.3l1.4,0.2h5.6c0,0-0.5-1.3-2.1-3.1c-0.3-0.4,0.2,0.1-0.2-0.3c-0.1-0.1,0.5,0.3-0.1-0.1
			c-0.2-0.1,0.6,0.6,0.4,0.4"/>
		<path class="st0" d="M98,133.4l15.8-0.1"/>
		<path class="st1" d="M119.2,122.2c-2.3,1.5-6.1,2.4-10.2,2.5c-4,0-7.8-0.9-10-2.4c0,0-16.7,5.7-16.6,11.1l5.1,0.4"/>
		<rect x="96.2" y="92.8" class="st2" width="25.5" height="7.8"/>
		<path class="st3" d="M109.1,124.7c-1.4,0.1-2.8-0.2-4-1c-6.7-3.5-8.1-11-8.1-11c-3-9.2,1.6-15.3,1.6-15.3h20.9c0,0,4.5,6,1.6,15.3
			c0,0-1.3,7.5-8.1,11C111.9,124.5,110.5,124.8,109.1,124.7"/>
		<path class="st4" d="M134.6,118.4h-13c-1.1-0.2-2.1-0.7-2.8-1.6c-0.5-0.8-0.9-1.7-1.3-2.6v-60c0.7-2.9,2.8-4.2,5.9-4.2
			c14.1,0.1,28.2,0,42.4,0c1.6,0,3.2,0.6,4.3,1.8c4.6,4.7,9.3,9.3,14,14c1.2,1.1,1.8,2.7,1.8,4.3c0,7.3,0,14.6,0,22
			c0,4.2,0.1-1.4,0.1,2.8 M185.7,113.5c0,1.9-1.1,3.6-2.8,4.4c-0.4,0.2-12.8,0.3-13.2,0.4 M134.5,103.7h34.1c0-1.5,0-3,0-4.4
			c0.1-2.4-1-4.6-2.8-6.1c-2.2-1.7-4.8-2.8-7.5-3.2c-2-0.4-4-0.6-5.6-0.8c5.4-0.5,9.3-5.3,8.8-10.6c-0.5-5.4-5.3-9.3-10.6-8.8
			c-5.4,0.5-9.3,5.3-8.8,10.6c0.4,4.6,4.1,8.3,8.8,8.8c-0.9,0.1-1.7,0.1-2.5,0.2c-3,0.2-6,1-8.8,2.3c-2.7,1.4-4.7,3.4-5,6.5
			C134.3,99.9,134.5,101.8,134.5,103.7z M166.2,55.2c0,0.1,0,0.2,0,0.4c0,3.1,0,6.2,0,9.3c0,2.6,2.1,4.8,4.7,4.8c0.1,0,0.1,0,0.2,0
			c3,0,6,0,9.1,0c0.2,0,0.3,0,0.5-0.1L166.2,55.2z"/>
		<path class="st2" d="M134.5,103.7c0-1.9-0.1-3.7,0-5.6c0.3-3.1,2.3-5.2,4.9-6.5c2.8-1.3,5.7-2.1,8.8-2.3c0.8-0.1,1.6-0.1,2.5-0.2
			c-5.4-0.5-9.3-5.3-8.8-10.7c0.5-5.4,5.3-9.3,10.7-8.8s9.3,5.3,8.8,10.7c-0.4,4.7-4.2,8.4-8.8,8.8c1.7,0.2,3.7,0.4,5.6,0.8
			c2.7,0.4,5.3,1.5,7.5,3.2c1.8,1.5,2.9,3.8,2.8,6.1c0,1.5,0,3,0,4.4L134.5,103.7z"/>
		<path class="st5" d="M98,133.7h17.6 M122.4,135.3c0.1,0.1,0.3,0.1,0.4,0.2c1.1,1,1.3,2.5,1.4,4.3c0.1,14.1,0.3,28.2,0.4,42.3
			c0,3.6-2.2,5.9-5.9,5.9l-29.3,0.2c-9.8,0.1-19.5,0.1-29.2,0.3c-3.3,0-6-2.6-6.1-5.9c0-14.1-0.2-28.1-0.3-42.2
			c0-3.8,2.2-6.1,5.9-6.1l28.2-0.3 M83.4,138.4l-23.2,0.2c0.4,0.5,0.7,0.8,1,1.1 M109.2,138.4l-7.4-0.1 M60.7,184.4l56.9-0.5
			l-15.9-22.3c-3.2,4-7.2,6.5-12.4,6.6c-5.1,0.1-9.2-2.2-12.6-6.1L60.7,184.4z M120.3,180.4l-0.4-38.6l-15.3,16.7L120.3,180.4z"/>
		<path class="st2" d="M70.5,149.6c-3.1-3.3-6.3-6.6-9.4-9.9c-0.2-0.3-0.5-0.6-0.9-1.1l22.9-0.2"/>
		<path class="st2" d="M119.4,138c-1.9,1.3-0.9,1.3-1.6,1.5c-6.4,7-14,13.7-20.4,20.6c-4.8,5.2-11.7,5.3-16.6,0.2
			c-2.1-2.2-4.2-4.4-6.3-6.7"/>
		<path class="st2" d="M102,138.2l7.7,0.1"/>
		<path class="st2" d="M60.7,184.4l16-22.2c3.3,3.9,7.5,6.2,12.6,6.1c5.1-0.1,9.1-2.6,12.4-6.6l15.9,22.3L60.7,184.4z"/>
		<path class="st2" d="M58.1,160.6L58,142.3l9.2,9.7"/>
		<path class="st2" d="M71.5,156.6l2.3,2.4l-15.5,21.6v-16"/>
		<path class="st2" d="M120.3,180.4l-15.7-21.9l15.3-16.7L120.3,180.4z"/>
		<path class="st2" d="M129.1,142.1c0,6.2,0.8,12.4,2.4,18.4c3.8,14.4,12.4,25.3,26,32.7c1.6,1,3.6,0.9,5.1-0.2
			c8.6-5.4,15.7-12.9,20.5-21.8c3.4-6.5,5.8-13.6,7-20.9c0.8-4.5,1.1-9,1.1-13.5c0-0.9-0.1-1-1.1-1.1l-2.3-0.2
			c-9.5-0.9-18.6-4.3-26.4-9.8c-1-0.7-1.1-0.7-2.1,0l-0.4,0.3c-4.5,3-9.4,5.4-14.6,7c-4.4,1.3-9,2.2-13.6,2.7
			c-1.3,0.2-1.6,0.5-1.6,1.7C129.1,138.9,129.1,140.5,129.1,142.1z"/>
		<path class="st5" d="M129.1,142.1c0-1.6,0-3.2,0-4.8c0-1.2,0.3-1.5,1.6-1.7c4.6-0.5,9.1-1.4,13.6-2.7c5.2-1.7,10.1-4,14.6-7
			l0.4-0.3c1-0.7,1.1-0.7,2.1,0c7.8,5.5,16.9,8.8,26.4,9.8l2.3,0.2c0.9,0.1,1.1,0.2,1.1,1.1c0,4.5-0.3,9-1.1,13.4
			c-1.2,7.3-3.5,14.3-7,20.8c-4.9,8.9-11.9,16.4-20.5,21.8c-1.5,1.1-3.5,1.2-5.1,0.2c-13.6-7.3-22.2-18.2-26-32.6
			C129.9,154.4,129.1,148.3,129.1,142.1z M185.6,144.6c0-1.2,0-2.1,0-3.1s-0.5-1.4-1.5-1.5c-8.2-0.5-16.1-3.3-22.8-8
			c-0.6-0.4-1.3-0.5-1.9-0.1c-0.3,0.2-0.6,0.4-0.9,0.6c-3.8,2.6-8,4.5-12.4,5.7c-3.3,0.8-6.7,1.3-10,1.9c-1,0.2-1.4,0.6-1.5,1.4
			c-0.3,6,0.2,11.9,1.6,17.7c3,12.2,9.9,21.7,21.5,27.9c1.4,0.9,3.3,0.9,4.7-0.1c6-3.7,11.1-8.6,14.9-14.5
			C182.8,163.7,185,154.3,185.6,144.6z"/>
		<path class="st3" d="M185.6,144.6c-0.6,9.7-2.9,19.2-8.4,27.8c-3.8,5.9-8.9,10.9-14.9,14.6c-1.4,0.9-3.2,1-4.7,0.1
			c-11.6-6.2-18.5-15.6-21.5-27.9c-1.3-5.8-1.9-11.8-1.6-17.8c0-0.9,0.5-1.3,1.5-1.4c3.4-0.6,6.7-1.1,10-1.9
			c4.4-1.2,8.6-3.1,12.4-5.7c0.3-0.2,0.6-0.4,0.9-0.6c0.6-0.4,1.4-0.3,1.9,0.1c6.7,4.7,14.6,7.5,22.8,8c1,0.1,1.5,0.5,1.5,1.5
			C185.6,142.5,185.6,143.4,185.6,144.6z M155.8,161.4l-0.5-0.4c-1.7-1.6-3.3-3.2-5-4.8c-0.5-0.7-1.6-0.9-2.3-0.3
			c-0.1,0.1-0.2,0.2-0.3,0.3c-1.1,1.1-2.3,2.2-3.4,3.3c-0.8,0.8-0.8,1.5,0.1,2.3l9.5,9.1c1.8,1.7,2.1,1.7,3.9,0l18-17.2
			c1.1-1,1.1-1.6,0-2.6l-3-2.8c-1.2-1.1-1.9-1.2-3,0l-9.3,8.8L155.8,161.4z"/>
		<path class="st2" d="M155.8,161.4l4.7-4.5l9.3-8.8c1.2-1.1,1.9-1.1,3,0l3,2.8c1.1,1,1,1.6,0,2.6l-18,17.2c-1.8,1.7-2.1,1.7-3.9,0
			l-9.5-9.1c-0.8-0.8-0.9-1.5-0.1-2.3c1.1-1.1,2.2-2.2,3.4-3.3c0.5-0.7,1.6-0.9,2.3-0.3c0.1,0.1,0.2,0.2,0.3,0.3
			c1.7,1.6,3.4,3.2,5,4.8L155.8,161.4z"/>
		<ellipse class="st6" cx="134" cy="130.7" rx="104.7" ry="104.8"/>
		<path class="st7" d="M131.5,256.7C61.7,256.7,5,200,5,130.2S61.8,3.8,131.5,3.8c29.3,0,57.6,10.2,80.3,28.7l-10.8,13
			C154.2,7.1,85.2,14,46.8,60.7S15.3,176.6,62.1,215c40.7,33.4,99.4,33.1,139.7-0.6l10.9,12.9C189.9,246.3,161.2,256.7,131.5,256.7z
			"/>
		<path class="st5" d="M192.6,95.3c-0.4-0.6-1.2-1-2-1l-13,0.9c-0.9,0.1-1.7,0.7-2,1.6c-0.4,0.9-0.2,1.9,0.3,2.7l2.7,3.6l-20,15.6
			l-7.1-8.9c-0.9-1.2-2.6-1.4-3.7-0.5l0,0l-42.3,32.1l-11-8.9c-1-0.8-2.4-0.8-3.4,0l-32.4,27.6c-1.3,1.1-1.5,3-0.5,4.4
			c0.5,0.7,1.3,1.2,2.2,1.2c0.7,0,1.3-0.2,1.8-0.7l30.7-26.1l10.9,8.8c1,0.8,2.3,0.8,3.3,0l41.8-31.7l7.1,8.9
			c0.9,1.2,2.6,1.4,3.7,0.5c0,0,0,0,0.1,0l22.4-17.5l3,4c0.4,0.6,1.1,1,1.8,1c0.2,0,0.3,0,0.5,0c0.9-0.2,1.6-0.9,1.8-1.8l3.7-13.3
			C193.2,96.9,193,96,192.6,95.3z"/>
	</g>
</g>
</svg>
