<svg xmlns="http://www.w3.org/2000/svg" xmlns:xlink="http://www.w3.org/1999/xlink" viewBox="0 0 35 35"><defs><style>.cls-1{fill:url(#Degradado_sin_nombre_6);}.cls-2{fill:#fff;}</style><linearGradient id="Degradado_sin_nombre_6" x1="1287.15" y1="1284.65" x2="1322.15" y2="1284.65" gradientTransform="translate(1302.15 -1287.15) rotate(90)" gradientUnits="userSpaceOnUse"><stop offset="0" stop-color="#c20506"/><stop offset="0.1" stop-color="#b9090d"/><stop offset="0.28" stop-color="#9f1420"/><stop offset="0.5" stop-color="#76273f"/><stop offset="0.75" stop-color="#3d406a"/><stop offset="0.99" stop-color="#005b97"/></linearGradient></defs><title>Recurso 2</title><g id="Capa_2" data-name="Capa 2"><g id="Capa_1-2" data-name="Capa 1"><circle class="cls-1" cx="17.5" cy="17.5" r="17.5"/><path class="cls-2" d="M21.23,9.31a.38.38,0,0,1,.2.38c0,.68,0,1.37,0,2.05,0,.28-.1.37-.38.38h-.78a1.63,1.63,0,0,0-1.64,1.57c0,.63,0,1.26,0,1.88a.41.41,0,0,0,0,.07h2.11c.31,0,.39.08.39.38v2c0,.3-.09.39-.39.39H18.62v6.74c0,.36-.07.43-.42.43h-2c-.32,0-.41-.08-.41-.4V18.45H14.35a.28.28,0,0,1-.32-.31c0-.73,0-1.46,0-2.2,0-.2.1-.3.32-.3h1.46v-.21a20.63,20.63,0,0,1,0-2.08,4.3,4.3,0,0,1,2.83-3.74A7.7,7.7,0,0,1,20,9.31Z"/><path class="cls-2" d="M17.4,32.35h0V32h0c.41,0,.83,0,1.25-.05l0,.39C18.25,32.34,17.82,32.35,17.4,32.35ZM16,32.29q-.66-.06-1.32-.18l.08-.39c.42.08.85.14,1.28.18Zm4-.17-.07-.39c.42-.07.85-.17,1.26-.28l.11.38C20.87,31.94,20.43,32,20,32.12Zm-6.59-.32q-.64-.18-1.26-.42l.14-.36a12.62,12.62,0,0,0,1.23.4Zm9.15-.38-.14-.37a12.7,12.7,0,0,0,1.2-.51l.17.36C23.39,31.09,23,31.26,22.56,31.42ZM11.33,31a12,12,0,0,1-1.19-.6l.19-.34c.38.21.77.41,1.16.58ZM25,30.27l-.2-.34c.37-.22.73-.46,1.08-.71l.23.32C25.71,29.8,25.34,30,25,30.27ZM9,29.74c-.36-.25-.72-.52-1.06-.81l.25-.3a11.28,11.28,0,0,0,1,.78Zm18.1-1-.26-.3c.32-.28.64-.58.94-.89l.28.27C27.77,28.11,27.44,28.42,27.11,28.71ZM7,28c-.31-.31-.61-.64-.9-1l.31-.26q.41.49.87,1Zm22-1.25-.3-.25c.26-.33.52-.69.76-1.05l.32.22Q29.36,26.26,28.94,26.79ZM5.27,26c-.25-.37-.49-.75-.71-1.13l.35-.19c.21.37.44.74.68,1.09ZM30.4,24.57l-.34-.19a12.47,12.47,0,0,0,.55-1.17l.37.16C30.8,23.77,30.61,24.18,30.4,24.57ZM4,23.68a13.12,13.12,0,0,1-.49-1.23l.37-.13a12.5,12.5,0,0,0,.48,1.2Zm27.48-1.56L31.07,22c.13-.41.24-.83.34-1.25l.38.09A11.55,11.55,0,0,1,31.44,22.12ZM3.08,21.17c-.1-.42-.19-.86-.26-1.3l.39-.06c.07.42.15.85.26,1.27Zm29-1.64-.39-.06c.05-.42.09-.86.11-1.29l.39,0C32.12,18.64,32.09,19.09,32,19.53Zm-29.36-1c0-.32,0-.64,0-.95,0-.13,0-.26,0-.38H3v.37c0,.3,0,.61,0,.92Zm29.07-1.66q0-.64-.12-1.29l.39,0c.06.43.1.88.13,1.32Zm-28.61-1-.39,0c0-.44.13-.88.22-1.31l.38.08C3.25,15.08,3.18,15.51,3.13,15.94Zm28.25-1.61c-.1-.42-.22-.84-.35-1.25L31.4,13c.14.42.26.85.36,1.28ZM3.67,13.4l-.38-.11c.1-.32.2-.64.32-.94L3.73,12l.37.14L4,12.49C3.87,12.79,3.76,13.1,3.67,13.4Zm26.9-1.53c-.18-.39-.37-.78-.57-1.16l.34-.19c.21.39.41.79.59,1.19ZM4.64,11l-.35-.18c.2-.4.43-.78.66-1.16l.33.22C5.05,10.25,4.84,10.63,4.64,11ZM29.33,9.6c-.24-.35-.5-.71-.77-1l.3-.25c.28.35.55.71.79,1.07ZM6,8.83l-.31-.25a11.64,11.64,0,0,1,.85-1l.29.27A11.44,11.44,0,0,0,6,8.83ZM27.7,7.59c-.3-.31-.62-.61-.94-.89L27,6.41a10.44,10.44,0,0,1,1,.91ZM7.79,6.93l-.27-.29c.33-.3.68-.58,1-.85l.24.32A11.49,11.49,0,0,0,7.79,6.93Zm18-1c-.35-.25-.72-.49-1.09-.71l.2-.34c.38.23.76.47,1.12.72ZM9.86,5.38,9.65,5c.37-.23.77-.44,1.16-.64l.18.35A11.27,11.27,0,0,0,9.86,5.38ZM23.5,4.6q-.48-.22-1-.42l-.2-.07.13-.37.21.07c.35.13.69.28,1,.44ZM12.17,4.23,12,3.86c.41-.16.83-.31,1.26-.43l.11.38A12.71,12.71,0,0,0,12.17,4.23Zm8.9-.51c-.41-.11-.84-.21-1.26-.28l.06-.39c.44.08.88.17,1.3.29ZM14.66,3.5l-.08-.38a11.67,11.67,0,0,1,1.32-.2l0,.39C15.51,3.36,15.08,3.42,14.66,3.5Zm3.86-.22c-.43,0-.86,0-1.29,0v-.4c.45,0,.89,0,1.33.05Z"/></g></g></svg>