<svg xmlns="http://www.w3.org/2000/svg" xmlns:xlink="http://www.w3.org/1999/xlink" viewBox="0 0 242.43 264.78"><defs><style>.cls-1{fill:#4a546b;}.cls-2{fill:#0558a3;}.cls-3{fill:#cbefef;}.cls-4{fill:#cbd8e8;}.cls-5{fill:#f2f2f2;}.cls-6,.cls-8{fill:#fff;}.cls-7{fill:#8fd0d6;}.cls-8{opacity:0.5;}.cls-11,.cls-9{fill:none;stroke-miterlimit:10;stroke-width:3px;stroke-dasharray:9.97 9.97;}.cls-9{stroke:#023165;}.cls-10{fill:url(#Degradado_sin_nombre_52);}.cls-11{stroke:#a6a6a6;}</style><linearGradient id="Degradado_sin_nombre_52" x1="213.99" y1="134.4" x2="0" y2="134.4" gradientUnits="userSpaceOnUse"><stop offset="0.07" stop-color="#fff"/><stop offset="0.51" stop-color="#c20506"/><stop offset="0.56" stop-color="#b9090d"/><stop offset="0.65" stop-color="#9f1420"/><stop offset="0.75" stop-color="#76273f"/><stop offset="0.88" stop-color="#3d406a"/><stop offset="1" stop-color="#005b97"/></linearGradient></defs><title>finanzas</title><g id="Capa_2" data-name="Capa 2"><g id="Capa_1-2" data-name="Capa 1"><polygon class="cls-1" points="167.88 121.73 185.28 115.18 194.78 140.95 182.79 140.95 177.82 133.03 164.71 128.06 167.88 121.73"/><path class="cls-1" d="M147.17,138.62h48.31a3.91,3.91,0,0,1,3.89,3.95v35.34a3.92,3.92,0,0,1-3.89,4H129.9a3.92,3.92,0,0,1-3.89-4V142.57a3.91,3.91,0,0,1,3.89-3.95h17.27"/><path class="cls-2" d="M162.45,73.13s-2-4.07,1.81-4.07l9.27.23s3.58.6,1.79,4.37S162.45,73.13,162.45,73.13Z"/><path class="cls-1" d="M68.19,108.85s-1.59-3.62.9-5.65L93.5,88.05s3.62-2.26,5.88,0l6.56,6.1L137.81,77s3.73-2.6,6.67-.11l3.84,5.65,15.37-8.36,2.72,3.62L148.32,88.16,141.77,80,105.15,99.92,96.1,91.55Z"/><polygon class="cls-1" points="140.97 92.57 144.59 92.35 176.01 109.53 167.42 124.44 161.75 126.86 164.26 110.2 140.75 95.96 140.97 92.57"/><path class="cls-1" d="M111.84,113.82h3.37a4.74,4.74,0,0,1,4.74,4.74V176a5,5,0,0,1-4.94,5H74.71A4.94,4.94,0,0,1,69.77,176V118.87a5,5,0,0,1,5-5.05h37"/><path class="cls-1" d="M175.36,71.7a1.83,1.83,0,0,0-1.46-.85l-10-.43a1.82,1.82,0,0,0-1.6,2.81L164.11,76l-16.34,9.24L143,78.42a2.18,2.18,0,0,0-2.83-.65L105.79,96.59l-7.7-7.06a2.2,2.2,0,0,0-2.63-.25L68.85,105.81a2.18,2.18,0,0,0,2.3,3.71L96.36,93.86l7.63,7a2.18,2.18,0,0,0,2.52.31l34.05-18.63,4.78,6.78a2.17,2.17,0,0,0,2.85.65L166.5,79.61l1.94,3a1.83,1.83,0,0,0,1.29.82,1.7,1.7,0,0,0,.39,0,1.78,1.78,0,0,0,1.51-1.09l3.86-8.94A1.81,1.81,0,0,0,175.36,71.7Z"/><path class="cls-3" d="M128,152.38a2,2,0,1,0,.75,2.71A2,2,0,0,0,128,152.38Z"/><path class="cls-3" d="M126.67,162.64a2,2,0,1,0-2,2A2,2,0,0,0,126.67,162.64Z"/><path class="cls-1" d="M85.45,115.49h28.69a4.23,4.23,0,0,1,4.23,4.23v57.17a4.23,4.23,0,0,1-4.23,4.23H73.75a4.23,4.23,0,0,1-4.23-4.23V119.72a4.23,4.23,0,0,1,4.23-4.23h11.7"/><rect class="cls-4" x="71.24" y="121.4" width="45.41" height="52.28"/><rect class="cls-5" x="71.43" y="121.98" width="44.64" height="51.51"/><path class="cls-6" d="M98.91,119.22H89a.58.58,0,0,1-.57-.57.57.57,0,0,1,.57-.57h9.93a.57.57,0,0,1,.57.57A.58.58,0,0,1,98.91,119.22Z"/><path class="cls-6" d="M116.84,173.87H71.05V121.21h45.79Zm-45.41-.38h45v-51.9h-45Z"/><rect class="cls-1" x="102.9" y="114.63" width="72.28" height="36.73" transform="translate(-45.28 188.19) rotate(-60.4)"/><path class="cls-6" d="M170.19,111.82,136.8,170.6l-28.91-16.42,33.4-58.78ZM136,167.62l31.23-55-25.1-14.26-31.24,55Z"/><ellipse class="cls-6" cx="139.1" cy="133" rx="13.64" ry="14.98" transform="translate(-45.26 188.24) rotate(-60.4)"/><path class="cls-1" d="M136.23,128.73A2.56,2.56,0,0,0,134,129a1.81,1.81,0,0,0,.25.2c1.12.65,2.24,1.28,3.35,1.93a.41.41,0,0,0,.59-.07,16.65,16.65,0,0,1,1.52-1.26,4.37,4.37,0,0,1,5.53.17,5,5,0,0,1,1.9,6,.58.58,0,0,0,.36.85,9.73,9.73,0,0,1,.86.49l-.83,1.44-1.29-.75a5.4,5.4,0,0,1-6.87,1.67l1.19-2.75a4,4,0,0,0,3.2-.33l-1.69-1c-.73-.42-1.47-.83-2.19-1.27a.49.49,0,0,0-.68.06,6.36,6.36,0,0,1-2.58,1.54,4.92,4.92,0,0,1-5.09-1.55,4.33,4.33,0,0,1-.87-4.71,3.59,3.59,0,0,0,.12-.35,1.08,1.08,0,0,0,0-.17l-1.09-.62c.29-.49.55-1,.84-1.47.26.15.53.29.78.46s.42.11.61-.12a4.51,4.51,0,0,1,3.28-1.8,4.7,4.7,0,0,1,2.16.37C137,126.91,136.61,127.8,136.23,128.73Zm4.54,4.21,3.87,2.23a2.25,2.25,0,0,0-3.87-2.23ZM133,130.52a2.2,2.2,0,0,0,1,2.3,2.11,2.11,0,0,0,2.39-.34Z"/><path class="cls-6" d="M152.13,110a2,2,0,1,0,.75,2.72A2,2,0,0,0,152.13,110Z"/><rect class="cls-1" x="120.32" y="129.11" width="72.28" height="36.73" transform="translate(-41.47 63.49) rotate(-20.31)"/><path class="cls-6" d="M193.92,151.33l-63.39,23.46L119,143.62l63.39-23.47ZM131.82,172l59.3-22-10-27.08-59.29,22Z"/><ellipse class="cls-6" cx="156.5" cy="147.51" rx="13.64" ry="14.98" transform="translate(-41.48 63.51) rotate(-20.31)"/><path class="cls-6" d="M157.05,142.39a2.52,2.52,0,0,0-1.91-1.25,2.14,2.14,0,0,0,.06.31c.44,1.21.89,2.42,1.32,3.63.09.27.22.33.5.32.65,0,1.31,0,2,0a4.37,4.37,0,0,1,4.12,3.7,4.92,4.92,0,0,1-2.42,5.81.6.6,0,0,0-.27.89,8.85,8.85,0,0,1,.35.92l-1.56.57c-.18-.47-.35-.94-.52-1.4a5.38,5.38,0,0,1-6.32-3.15l2.68-1.33a4,4,0,0,0,2.66,1.8c-.24-.67-.46-1.25-.67-1.83-.29-.79-.59-1.58-.86-2.38a.48.48,0,0,0-.55-.39,6.42,6.42,0,0,1-3-.48,4.93,4.93,0,0,1-2.9-4.47,4.34,4.34,0,0,1,2.37-4.16l.32-.19a.79.79,0,0,0,.14-.11c-.14-.37-.28-.75-.43-1.17l1.58-.58c.1.28.23.56.31.85s.24.35.54.3a4.49,4.49,0,0,1,3.67.74,4.87,4.87,0,0,1,1.41,1.66Zm.76,6.15c.52,1.43,1,2.81,1.53,4.2a2.25,2.25,0,0,0-1.53-4.2Zm-4.34-6.83a2.18,2.18,0,0,0-.7,2.42,2.12,2.12,0,0,0,2,1.29C154.38,144.2,153.93,143,153.47,141.71Z"/><path class="cls-3" d="M135.55,155.21a2,2,0,1,0-1.17,2.56A2,2,0,0,0,135.55,155.21Z"/><path class="cls-7" d="M151.27,158a2.57,2.57,0,0,0-1.36-1.84,1.58,1.58,0,0,0-.06.32c0,1.29,0,2.58,0,3.86,0,.29.09.39.36.48a16.19,16.19,0,0,1,1.84.69,4.37,4.37,0,0,1,2.61,4.89,5,5,0,0,1-4.28,4.63c-.46.1-.6.3-.56.73s0,.64,0,1h-1.66v-1.49a5.4,5.4,0,0,1-4.86-5.14l3-.32a4,4,0,0,0,1.88,2.6v-1.95c0-.84,0-1.68,0-2.53a.48.48,0,0,0-.39-.56,6.27,6.27,0,0,1-2.61-1.47,4.91,4.91,0,0,1-1.19-5.19,4.33,4.33,0,0,1,3.66-3.09l.36-.07.17-.06v-1.24h1.69c0,.3,0,.6,0,.9s.11.42.4.47a4.53,4.53,0,0,1,3.2,1.95,4.9,4.9,0,0,1,.75,2.06Zm-1.4,6c0,1.51,0,3,0,4.46a2.25,2.25,0,0,0,0-4.46Zm-1.73-7.91a2.17,2.17,0,0,0-1.49,2,2.1,2.1,0,0,0,1.48,1.91C148.13,158.79,148.14,157.49,148.14,156.14Z"/><path class="cls-6" d="M145.14,140.65h48.31a3.92,3.92,0,0,1,3.89,3.95V180a3.92,3.92,0,0,1-3.89,4H127.87a3.93,3.93,0,0,1-3.9-4V144.6a3.93,3.93,0,0,1,3.9-3.95h17.27"/><path class="cls-1" d="M146.92,142.59h44.86a3.59,3.59,0,0,1,3.62,3.55v31.69a3.59,3.59,0,0,1-3.62,3.55H130.89a3.59,3.59,0,0,1-3.62-3.55V146.14a3.59,3.59,0,0,1,3.62-3.55h16"/><rect class="cls-6" x="127.27" y="148.91" width="68.13" height="6.31"/><ellipse class="cls-8" cx="184.81" cy="171.91" rx="5.06" ry="4.96"/><ellipse class="cls-8" cx="178.37" cy="171.91" rx="5.06" ry="4.96"/><circle class="cls-6" cx="128.65" cy="157.37" r="23.94" transform="translate(-74.07 172.25) rotate(-54.93)"/><circle class="cls-1" cx="128.65" cy="157.37" r="21.53" transform="translate(-47.64 56.19) rotate(-20.88)"/><path class="cls-6" d="M128.86,177.53a20.16,20.16,0,1,1,19.94-20.38A20.19,20.19,0,0,1,128.86,177.53ZM128.44,138a19.42,19.42,0,1,0,19.62,19.21A19.44,19.44,0,0,0,128.44,138Z"/><path class="cls-6" d="M131.93,151a3.57,3.57,0,0,0-2-2.56,3.13,3.13,0,0,0-.07.45c0,1.81.05,3.62.05,5.43,0,.39.14.54.51.65.89.28,1.76.59,2.6.95,3,1.29,4.06,3.81,3.75,6.82-.39,3.63-2.35,5.74-5.93,6.58-.65.15-.83.43-.77,1a12.7,12.7,0,0,1,0,1.39l-2.33,0c0-.7,0-1.41,0-2.09a7.57,7.57,0,0,1-6.91-7.13l4.17-.51a5.6,5.6,0,0,0,2.69,3.63c0-1,0-1.87,0-2.74,0-1.19,0-2.37,0-3.55a.68.68,0,0,0-.56-.78,9.15,9.15,0,0,1-3.7-2,6.9,6.9,0,0,1-1.76-7.26,6.09,6.09,0,0,1,5.09-4.41l.51-.1a1,1,0,0,0,.23-.09c0-.55,0-1.13,0-1.75l2.37,0c0,.41,0,.84,0,1.26s.16.58.57.65a6.32,6.32,0,0,1,4.52,2.69A6.66,6.66,0,0,1,136,150.4Zm-1.87,8.51c0,2.13.05,4.2.07,6.27a3.21,3.21,0,0,0,2.71-3C133,161.21,131.91,159.94,130.06,159.5Zm-2.57-11.09a3.1,3.1,0,0,0-2,2.89,3,3,0,0,0,2.11,2.66C127.53,152.14,127.51,150.32,127.49,148.41Z"/><path class="cls-6" d="M180,136.66a2,2,0,1,0,.75,2.72A2,2,0,0,0,180,136.66Z"/><rect class="cls-6" x="73.06" width="4.68" height="1.87"/><rect class="cls-6" x="82.58" y="5.55" width="4.68" height="0.94" transform="translate(10.09 46.61) rotate(-32.53)"/><circle class="cls-9" cx="133" cy="134.84" r="107.93"/><path class="cls-10" d="M130.38,264.78C58.49,264.78,0,206.29,0,134.4S58.49,4,130.38,4a130.61,130.61,0,0,1,82.73,29.6L202,47.1a112.94,112.94,0,1,0,.77,174L214,234.45A130.54,130.54,0,0,1,130.38,264.78Z"/><circle class="cls-11" cx="133" cy="134.84" r="107.93"/><path class="cls-1" d="M130.38,264.78C58.49,264.78,0,206.29,0,134.4S58.49,4,130.38,4a130.61,130.61,0,0,1,82.73,29.6L202,47.1a112.94,112.94,0,1,0,.77,174L214,234.45A130.54,130.54,0,0,1,130.38,264.78Z"/></g></g></svg>