<?xml version="1.0" encoding="utf-8"?>
<!-- Generator: Adobe Illustrator 23.0.0, SVG Export Plug-In . SVG Version: 6.00 Build 0)  -->
<svg version="1.1" id="Capa_1" xmlns="http://www.w3.org/2000/svg" xmlns:xlink="http://www.w3.org/1999/xlink" x="0px" y="0px"
	 viewBox="0 0 242.4 264.8" style="enable-background:new 0 0 242.4 264.8;" xml:space="preserve">
<style type="text/css">
	.st0{fill:none;stroke:#FFFFFF;stroke-width:0.993;stroke-miterlimit:10;}
	.st1{fill:none;stroke:#FFFFFF;stroke-width:2;stroke-miterlimit:10;}
	.st2{fill:none;stroke:#FFFFFF;stroke-miterlimit:10;}
	.st3{fill:#FFFFFF;}
	.st4{fill:none;stroke:#FFFFFF;stroke-width:3;stroke-miterlimit:10;}
	.st5{fill:none;}
	.st6{fill:#CBEFEF;}
	.st7{fill:none;stroke:#FFFFFF;stroke-width:1.9726;stroke-miterlimit:10;}
	.st8{opacity:0.5;fill:none;stroke:#FFFFFF;stroke-miterlimit:10;enable-background:new    ;}
	.st9{fill:none;stroke:#FFFFFF;stroke-width:4.8025;stroke-miterlimit:10;stroke-dasharray:9.4804,9.4804;}
	.st10{fill:none;stroke:#FFFFFF;stroke-width:4.9;stroke-miterlimit:10;}
	.st11{fill:#4A546B;}
</style>
<title>finanzas</title>
<g>
	<g id="Capa_1-2">
		<line class="st0" x1="120.2" y1="119" x2="120.2" y2="135.2"/>
		<path class="st1" d="M173.3,119.2l15.4-5.9c0.7-0.2,1.4,0.1,1.6,0.7l7.7,20.4c-0.4,0.2,0.1-0.1-0.9-0.2l-0.9,0.2
			c-0.5-0.1-0.9,0.2-1.1-0.2l-5.3-15.3c-0.2-0.7-0.9-1-1.6-0.8l-15.3,5.2c-1.1,0.4-2.1-0.9-1.5-1.9l1.2-1.8
			C172.8,119.4,173,119.2,173.3,119.2z"/>
		<path class="st2" d="M145.8,134.6l6.3,0.1"/>
		<path class="st2" d="M157.4,157.1"/>
		<path class="st2" d="M153.7,167.9"/>
		<path class="st1" d="M146.6,134.6h54.7c2.2,0,3.9,1.8,3.9,3.9l0,0v35.3c0,2.2-1.7,4-3.8,4c0,0,0,0-0.1,0l-59.1-0.3"/>
		<path class="st3" d="M73.4,105.3c0,0-1.6-3.6,0.9-5.7l24.4-15.1c0,0,3.6-2.3,5.9,0l6.6,6.1l31.9-17.2c0,0,3.7-2.6,6.7-0.1l3.8,5.7
			l15.4-8.4l2.7,3.6l-18.1,10.4l-6.6-8.2l-36.6,19.9l-9.1-8.4L73.4,105.3z"/>
		<path class="st1" d="M144.8,90.1l3.8-0.2l31.5,17.2l-8.9,14.5l-5.7,1.5c1.5-3.2,2.9-5.7,6.8-13c0,0,0,0-3.9-2.3
			c-7.8-4.8-14.6-9.4-22.4-14.1L144.8,90.1z"/>
		<path class="st4" d="M123,177c-0.4,0.4-1.4,1.3-3.5,1.5H79.2c-2.7,0-4.9-2.2-4.9-4.9c0,0,0,0,0-0.1v-57.1c0-2.8,2.2-5,4.9-5
			c0,0,0,0,0.1,0h37"/>
		<path class="st4" d="M116.1,111.4h3.8c2.6,0,4.4,1.5,4.4,4.1c0,7,0,10.3,0,17.3"/>
		<path class="st1" d="M180.2,67.4c-0.3-0.5-0.9-0.8-1.5-0.8l-10-0.4c-1,0-1.9,0.7-1.9,1.7c0,0.4,0.1,0.7,0.3,1.1l1.8,2.8L152.6,81
			l-4.8-6.8c-0.6-0.9-1.9-1.2-2.8-0.7l-34.3,18.8l-7.7-7.1c-0.7-0.7-1.8-0.8-2.6-0.3l-26.6,16.5c-1,0.6-1.3,2-0.7,3
			c0.6,1,2,1.3,3,0.7l25.2-15.7l7.6,7c0.7,0.6,1.7,0.8,2.5,0.3l34.1-18.6l4.8,6.8c0.6,0.9,1.9,1.2,2.9,0.7l18.2-10.3l1.9,3
			c0.3,0.4,0.8,0.7,1.3,0.8c0.1,0,0.3,0,0.4,0c0.7-0.1,1.3-0.5,1.5-1.1l3.9-8.9C180.6,68.5,180.6,67.9,180.2,67.4z"/>
		<path class="st5" d="M90.6,119.6h25.5c2.1,0,3.8,1.5,3.8,3.3l0,0v44.4c0,1.8-1.7,3.3-3.8,3.3H80.2c-2.1,0-3.8-1.5-3.8-3.3v-44.4
			c0-1.8,1.7-3.3,3.8-3.3l0,0H90.6"/>
		<rect x="75.9" y="119.6" class="st5" width="44.6" height="51.5"/>
		<path class="st2" d="M103.4,116.8h-9.9c-0.3,0-0.6-0.3-0.6-0.6c0-0.3,0.3-0.6,0.6-0.6h9.9c0.3,0,0.6,0.3,0.6,0.6
			C103.9,116.6,103.7,116.8,103.4,116.8L103.4,116.8z"/>
		<path class="st4" d="M120.5,119.5c-14.8,0-29.8-0.3-44.6-0.3v51.9c12.9,0,25.8,0,38.9,0c0.9,0.1-1.9-0.1,0-0.1"/>
		<path class="st2" d="M134.8,131.6"/>
		<path class="st1" d="M124.5,125.9l19.8-35.6l31.9,18.1l-7.1,14.1c-8.7,3-16.4,5.6-28.3,9.4"/>
		<path class="st3" d="M173.6,108.6l-8.8,15.7c-8.9,2.6-17.6,7-25.8,7.5c-5.5-1.2-10.1-0.6-15.9,2c11.1-19.6,11.4-21.1,22.6-40.7
			L173.6,108.6z M164,124.6l7.7-14.4l-25.1-14.3l-20.5,36.3c7.9-2.9,13.5,0.7,16.2-0.1C146.6,130.7,160.6,125.9,164,124.6z"/>
		<path class="st2" d="M141.5,132.7c-1.9-4.1-2-9,0-13c3.3-6.7,11.1-8.7,17.4-4.5c3,2,5.2,5,6.3,8.4"/>
		<path class="st3" d="M154.6,127.9c-0.6-0.5-1.4-1-2-1.6c-0.2-0.2-0.5-0.2-0.7,0c-0.8,0.6-1.8,0.9-2.8,1.1c-2,0.2-3.7-0.7-4.8-2.4
			c-1-1.5-1.1-3.3-0.2-4.8c0-0.1,0.1-0.2,0.2-0.4c0-0.1,0-0.1,0-0.2l-1-0.8c0.4-0.4,0.7-0.9,1-1.4c0.3,0.2,0.4,0.4,0.7,0.6
			s0.4,0.2,0.6,0c0.9-0.9,2.2-1.4,3.5-1.3c0.7,0.1,1.5,0.3,2.1,0.7c-0.5,1-1,1.9-1.5,2.7c-0.6-0.4-1.6-0.4-2.2,0
			c0.1,0.1,0.2,0.1,0.3,0.2c1,0.8,2,1.6,3.1,2.4c0.2,0.1,0.4,0.2,0.6,0l0,0c0.6-0.3,1.1-0.7,1.7-1.1c1.8-1,4.1-0.6,5.4,1
			c0.9,0.8,1.4,1.8,1.6,2.9 M156.3,127.2l0.6-0.3c0.9-0.5,0.6-1.5-0.5-2.1c-0.9-0.5-2.1-0.4-2.8,0.3L156.3,127.2 M146.4,121.5
			c-0.3,0.9-0.1,1.8,0.6,2.4c0.7,0.5,1.6,0.6,2.4,0.1L146.4,121.5z"/>
		<path class="st3" d="M156.6,107.6c-1-0.5-2.2-0.2-2.7,0.7c-0.5,1-0.2,2.2,0.7,2.7c1,0.5,2.2,0.2,2.7-0.7l0,0
			C157.9,109.3,157.5,108.1,156.6,107.6z"/>
		<path class="st3" d="M154.9,140.1c0.2-5.6,4.4-10,9.5-9.8c5,0.1,8.9,4.8,8.7,10.3"/>
		<path class="st6" d="M138.8,155.4L138.8,155.4"/>
		<path class="st6" d="M137.4,151.6"/>
		<path class="st2" d="M150.6,138.3"/>
		<path class="st2" d="M156.4,160.8"/>
		<path class="st2" d="M149.1,172.9"/>
		<path class="st2" d="M145.3,175.4"/>
		<path class="st2" d="M150.6,138.3h48.3c2.2,0,3.9,1.8,3.9,3.9l0,0v35.4c0,2.2-1.7,4-3.8,4c0,0,0,0-0.1,0l-60.1-0.2
			c-0.8-0.1-1-0.6-0.8-3"/>
		<path class="st1" d="M152,140.6c14.7,0,29.3,0.1,44,0.1c2,0,3.6,1.6,3.6,3.6V176c0,2-1.6,3.6-3.6,3.6c-13.1-0.1-58-0.3-58.4-0.1"
			/>
		<polyline class="st7" points="155.8,146.5 198.2,146.4 198.2,152.8 156.8,152.7 		"/>
		<ellipse class="st8" cx="189.3" cy="169.5" rx="5.1" ry="5"/>
		<ellipse class="st8" cx="182.8" cy="169.5" rx="5.1" ry="5"/>
		<circle class="st1" cx="133.1" cy="155" r="23.9"/>
		<circle class="st2" cx="133.1" cy="155" r="21.5"/>
		<path class="st2" d="M133.3,175.1c-11.1,0.1-20.3-8.8-20.4-19.9c-0.1-11.1,8.8-20.3,19.9-20.4c11.1-0.1,20.3,8.8,20.4,19.9
			C153.4,165.9,144.4,175,133.3,175.1z M132.9,135.6c-10.7,0.1-19.3,8.9-19.2,19.6c0.1,10.7,8.9,19.3,19.6,19.2s19.3-8.9,19.2-19.6
			l0,0C152.4,144.1,143.6,135.5,132.9,135.6z"/>
		<path class="st1" d="M136.4,148.6c-0.2-1.1-1-2.1-2-2.6c0,0.1-0.1,0.3-0.1,0.4c0,1.8,0.1,3.6,0.1,5.4c0,0.4,0.1,0.5,0.5,0.6
			c0.9,0.3,1.8,0.6,2.6,0.9c3,1.3,4.1,3.8,3.8,6.8c-0.4,3.6-2.4,5.7-5.9,6.6c-0.6,0.1-0.8,0.4-0.8,1c0,0.5,0,0.9,0,1.4h-2.3
			c0-0.7,0-1.4,0-2.1c-3.8-0.3-6.7-3.4-6.9-7.1l4.2-0.5c0.3,1.5,1.3,2.9,2.7,3.6c0-1,0-1.9,0-2.7c0-1.2,0-2.4,0-3.6
			c0.1-0.4-0.2-0.7-0.6-0.8c-1.4-0.4-2.6-1.1-3.7-2c-2-1.9-2.6-4.7-1.8-7.3c0.7-2.4,2.7-4.1,5.1-4.4l0.5-0.1c0.1,0,0.2-0.1,0.2-0.1
			c0-0.6,0-1.1,0-1.8h2.4c0,0.4,0,0.8,0,1.3s0.2,0.6,0.6,0.6c1.8,0.2,3.5,1.2,4.5,2.7c0.6,0.9,0.9,1.8,1,2.9L136.4,148.6z
			 M134.5,157.1c0,2.1,0.1,4.2,0.1,6.3c1.5-0.2,2.6-1.5,2.7-3C137.5,158.8,136.4,157.5,134.5,157.1L134.5,157.1z M131.9,146
			c-1.2,0.5-2,1.6-2,2.9c0.1,1.2,0.9,2.3,2.1,2.7C132,149.7,132,147.9,131.9,146L131.9,146z"/>
		<path class="st3" d="M184.5,134.2c-1-0.5-2.2-0.2-2.7,0.7s-0.2,2.2,0.7,2.7s2.2,0.2,2.7-0.7l0,0
			C185.7,136,185.4,134.8,184.5,134.2z"/>
		<circle class="st9" cx="133.3" cy="132.4" r="102.6"/>
		<path class="st10" d="M132.6,260.8C62.1,260.8,4.9,203.5,4.9,133S62.1,5.2,132.6,5.2c29.6,0,58.2,10.3,81,29l-10.9,13.2
			C155.5,8.6,85.8,15.5,47,62.8s-31.9,117,15.4,155.7c41.1,33.7,100.4,33.4,141.1-0.6l11,13C191.6,250.2,162.6,260.8,132.6,260.8z"
			/>
		<path class="st11" d="M168,173.5"/>
	</g>
</g>
</svg>
