<?xml version="1.0" encoding="utf-8"?>
<!-- Generator: Adobe Illustrator 23.0.0, SVG Export Plug-In . SVG Version: 6.00 Build 0)  -->
<svg version="1.1" id="Capa_1" xmlns="http://www.w3.org/2000/svg" xmlns:xlink="http://www.w3.org/1999/xlink" x="0px" y="0px"
	 viewBox="0 0 252.4 355.8" style="enable-background:new 0 0 252.4 355.8;" xml:space="preserve">
<style type="text/css">
	.st0{fill:#4A546B;}
	.st1{fill:#0558A3;}
	.st2{fill:#CBEFEF;}
	.st3{fill:#CBD8E8;}
	.st4{fill:#F2F2F2;}
	.st5{fill:#FFFFFF;}
	.st6{fill:#8FD0D6;}
	.st7{opacity:0.5;fill:#FFFFFF;enable-background:new    ;}
	.st8{fill:none;stroke:#023165;stroke-width:3;stroke-miterlimit:10;stroke-dasharray:9.97,9.97;}
	.st9{fill:url(#SVGID_1_);}
	.st10{fill:none;stroke:#A6A6A6;stroke-width:3;stroke-miterlimit:10;stroke-dasharray:9.97,9.97;}
	.st11{fill:#4A546B;stroke:#A1A1A1;stroke-miterlimit:10;}
</style>
<title>finanzas</title>
<g>
	<g id="Capa_1-2">
		<polygon class="st0" points="172.9,121.7 190.3,115.2 199.8,140.9 187.8,140.9 182.8,133 169.7,128.1 		"/>
		<path class="st0" d="M152.2,138.6h48.3c2.2,0,3.9,1.8,3.9,3.9c0,0,0,0,0,0v35.3c0,2.2-1.7,4-3.8,4c0,0,0,0-0.1,0h-65.6
			c-2.2,0-3.9-1.8-3.9-3.9c0,0,0,0,0-0.1v-35.3c0-2.2,1.7-3.9,3.9-3.9c0,0,0,0,0,0L152.2,138.6"/>
		<path class="st1" d="M167.4,73.1c0,0-2-4.1,1.8-4.1l9.3,0.2c0,0,3.6,0.6,1.8,4.4S167.4,73.1,167.4,73.1z"/>
		<path class="st0" d="M73.2,108.8c0,0-1.6-3.6,0.9-5.7l24.4-15.1c0,0,3.6-2.3,5.9,0l6.6,6.1L142.8,77c0,0,3.7-2.6,6.7-0.1l3.8,5.7
			l15.4-8.4l2.7,3.6l-18.1,10.4l-6.6-8.2l-36.6,19.9l-9.1-8.4L73.2,108.8z"/>
		<polygon class="st0" points="146,92.6 149.6,92.3 181,109.5 172.4,124.4 166.8,126.9 169.3,110.2 145.8,96 		"/>
		<path class="st0" d="M116.8,113.8h3.4c2.6,0,4.7,2.1,4.7,4.7V176c0,2.7-2.2,5-4.9,5H79.7c-2.7,0-4.9-2.2-4.9-4.9c0,0,0,0,0-0.1
			v-57.1c0-2.8,2.2-5,4.9-5c0,0,0,0,0.1,0H116.8"/>
		<path class="st0" d="M180.4,71.7c-0.3-0.5-0.9-0.8-1.5-0.8l-10-0.4c-1,0-1.9,0.7-1.9,1.7c0,0.4,0.1,0.7,0.3,1.1l1.8,2.8l-16.3,9.2
			l-4.8-6.8c-0.6-0.9-1.9-1.2-2.8-0.7l-34.4,18.8l-7.7-7.1c-0.7-0.7-1.8-0.8-2.6-0.3l-26.6,16.5c-1,0.6-1.3,2-0.7,3
			c0.6,1,2,1.3,3,0.7l25.2-15.7l7.6,7c0.7,0.6,1.7,0.8,2.5,0.3l34.1-18.6l4.8,6.8c0.6,0.9,1.9,1.2,2.9,0.7l18.3-10.4l1.9,3
			c0.3,0.4,0.8,0.7,1.3,0.8c0.1,0,0.3,0,0.4,0c0.7-0.1,1.3-0.5,1.5-1.1l3.9-8.9C180.7,72.8,180.7,72.2,180.4,71.7z"/>
		<path class="st2" d="M133,152.4c-1-0.6-2.2-0.2-2.7,0.7s-0.2,2.2,0.7,2.7c1,0.6,2.2,0.2,2.7-0.7c0,0,0,0,0,0
			C134.3,154.1,133.9,152.9,133,152.4z"/>
		<path class="st2" d="M131.7,162.6c0-1.1-0.9-2-2-2s-2,0.9-2,2s0.9,2,2,2S131.7,163.7,131.7,162.6z"/>
		<path class="st0" d="M90.4,115.5h28.7c2.3,0,4.2,1.9,4.2,4.2v0v57.2c0,2.3-1.9,4.2-4.2,4.2H78.8c-2.3,0-4.2-1.9-4.2-4.2v-57.2
			c0-2.3,1.9-4.2,4.2-4.2h0H90.4"/>
		<rect x="76.2" y="121.4" class="st3" width="45.4" height="52.3"/>
		<rect x="76.4" y="122" class="st4" width="44.6" height="51.5"/>
		<path class="st5" d="M103.9,119.2H94c-0.3,0-0.6-0.3-0.6-0.6c0-0.3,0.3-0.6,0.6-0.6h9.9c0.3,0,0.6,0.3,0.6,0.6
			C104.5,119,104.2,119.2,103.9,119.2C103.9,119.2,103.9,119.2,103.9,119.2z"/>
		<path class="st5" d="M121.8,173.9H76.1v-52.7h45.8L121.8,173.9z M76.4,173.5h45v-51.9h-45V173.5z"/>
		
			<rect x="107.9" y="114.6" transform="matrix(0.4939 -0.8695 0.8695 0.4939 -42.7411 192.538)" class="st0" width="72.3" height="36.7"/>
		<path class="st5" d="M175.2,111.8l-33.4,58.8l-28.9-16.4l33.4-58.8L175.2,111.8z M141,167.6l31.2-55l-25.1-14.3l-31.2,55
			L141,167.6z"/>
		<ellipse transform="matrix(0.4939 -0.8695 0.8695 0.4939 -42.714 192.5851)" class="st5" cx="144.1" cy="133" rx="13.6" ry="15"/>
		<path class="st0" d="M141.2,128.7c-0.7-0.3-1.6-0.2-2.2,0.3c0.1,0.1,0.2,0.1,0.3,0.2c1.1,0.6,2.2,1.3,3.4,1.9
			c0.2,0.1,0.4,0.1,0.6-0.1c0,0,0,0,0,0c0.5-0.4,1-0.9,1.5-1.3c1.6-1.3,4-1.2,5.5,0.2c2,1.3,2.8,3.8,1.9,6c-0.2,0.3-0.1,0.6,0.2,0.8
			c0,0,0.1,0,0.1,0.1c0.3,0.1,0.6,0.3,0.9,0.5l-0.8,1.4l-1.3-0.8c-1.6,2.2-4.5,2.9-6.9,1.7l1.2-2.8c1.1,0.3,2.2,0.2,3.2-0.3l-1.7-1
			c-0.7-0.4-1.5-0.8-2.2-1.3c-0.2-0.2-0.5-0.1-0.7,0.1c-0.7,0.7-1.6,1.2-2.6,1.5c-1.9,0.5-3.8-0.1-5.1-1.6c-1.2-1.3-1.6-3.1-0.9-4.7
			c0-0.1,0.1-0.2,0.1-0.4c0-0.1,0-0.1,0-0.2l-1.1-0.6c0.3-0.5,0.6-1,0.8-1.5c0.3,0.2,0.5,0.3,0.8,0.5s0.4,0.1,0.6-0.1
			c0.8-1,2-1.7,3.3-1.8c0.7,0,1.5,0.1,2.2,0.4C142,126.9,141.6,127.8,141.2,128.7z M145.8,132.9l3.9,2.2c0.5-1.1,0-2.5-1.2-2.9
			C147.5,131.8,146.4,132.1,145.8,132.9z M138,130.5c-0.2,0.9,0.2,1.8,1,2.3c0.8,0.4,1.7,0.3,2.4-0.3L138,130.5z"/>
		<path class="st5" d="M157.1,110c-1-0.5-2.2-0.2-2.7,0.7c-0.5,1-0.2,2.2,0.7,2.7c1,0.5,2.2,0.2,2.7-0.7c0,0,0,0,0,0
			C158.4,111.8,158.1,110.5,157.1,110z"/>
		
			<rect x="125.3" y="129.1" transform="matrix(0.9378 -0.3471 0.3471 0.9378 -41.1557 65.2092)" class="st0" width="72.3" height="36.7"/>
		<path class="st5" d="M198.9,151.3l-63.4,23.5L124,143.6l63.4-23.5L198.9,151.3z M136.8,172l59.3-22l-10-27.1l-59.3,22L136.8,172z"
			/>
		
			<ellipse transform="matrix(0.9378 -0.3471 0.3471 0.9378 -41.1667 65.2254)" class="st5" cx="161.5" cy="147.5" rx="13.6" ry="15"/>
		<path class="st5" d="M162.1,142.4c-0.4-0.7-1.1-1.2-1.9-1.3c0,0.1,0,0.2,0.1,0.3c0.4,1.2,0.9,2.4,1.3,3.6c0.1,0.3,0.2,0.3,0.5,0.3
			c0.6,0,1.3,0,2,0c2.1,0.1,3.8,1.6,4.1,3.7c0.7,2.3-0.3,4.7-2.4,5.8c-0.3,0.1-0.5,0.5-0.3,0.8c0,0,0,0.1,0.1,0.1
			c0.1,0.3,0.3,0.6,0.4,0.9l-1.6,0.6c-0.2-0.5-0.4-0.9-0.5-1.4c-2.6,0.7-5.3-0.7-6.3-3.1l2.7-1.3c0.6,0.9,1.6,1.6,2.7,1.8
			c-0.2-0.7-0.5-1.3-0.7-1.8c-0.3-0.8-0.6-1.6-0.9-2.4c0-0.3-0.3-0.4-0.6-0.4c-1,0.1-2.1-0.1-3-0.5c-1.8-0.8-2.9-2.5-2.9-4.5
			c-0.1-1.7,0.8-3.4,2.4-4.2l0.3-0.2c0.1,0,0.1-0.1,0.1-0.1c-0.1-0.4-0.3-0.8-0.4-1.2l1.6-0.6c0.1,0.3,0.2,0.6,0.3,0.9
			s0.2,0.4,0.5,0.3c1.3-0.3,2.6,0,3.7,0.7c0.6,0.4,1.1,1,1.4,1.7L162.1,142.4z M162.8,148.5c0.5,1.4,1,2.8,1.5,4.2
			c1.1-0.6,1.6-1.9,1-3C164.9,148.8,163.8,148.3,162.8,148.5z M158.5,141.7c-0.7,0.6-1,1.5-0.7,2.4c0.3,0.8,1.1,1.3,2,1.3
			C159.4,144.2,158.9,143,158.5,141.7L158.5,141.7z"/>
		<path class="st2" d="M140.6,155.2c-0.4-1-1.5-1.6-2.6-1.2c-1,0.4-1.6,1.5-1.2,2.6c0.4,1,1.5,1.6,2.6,1.2c0,0,0,0,0,0
			C140.4,157.4,140.9,156.2,140.6,155.2z"/>
		<path class="st6" d="M156.3,158c-0.1-0.8-0.6-1.5-1.4-1.8c0,0.1-0.1,0.2-0.1,0.3c0,1.3,0,2.6,0,3.9c0,0.3,0.1,0.4,0.4,0.5
			c0.6,0.2,1.2,0.4,1.8,0.7c1.9,0.8,3,2.8,2.6,4.9c-0.2,2.4-1.9,4.3-4.3,4.6c-0.5,0.1-0.6,0.3-0.6,0.7s0,0.6,0,1h-1.7v-1.5
			c-2.7-0.3-4.7-2.5-4.9-5.1l3-0.3c0.2,1.1,0.9,2,1.9,2.6v-1.9c0-0.8,0-1.7,0-2.5c0-0.3-0.1-0.5-0.4-0.6c0,0,0,0,0,0
			c-1-0.3-1.9-0.8-2.6-1.5c-1.4-1.3-1.8-3.4-1.2-5.2c0.5-1.7,1.9-2.9,3.7-3.1l0.4-0.1l0.2-0.1v-1.2h1.7c0,0.3,0,0.6,0,0.9
			s0.1,0.4,0.4,0.5c1.3,0.2,2.5,0.9,3.2,1.9c0.4,0.6,0.7,1.3,0.8,2.1L156.3,158z M154.9,164c0,1.5,0,3,0,4.5
			c1.2-0.2,2.1-1.3,1.9-2.5C156.7,164.9,155.9,164.1,154.9,164z M153.1,156.1c-0.9,0.3-1.5,1.1-1.5,2c0,0.9,0.6,1.6,1.5,1.9
			C153.1,158.8,153.1,157.5,153.1,156.1L153.1,156.1z"/>
		<path class="st5" d="M150.1,140.6h48.3c2.2,0,3.9,1.8,3.9,3.9c0,0,0,0,0,0V180c0,2.2-1.7,4-3.8,4c0,0,0,0-0.1,0h-65.6
			c-2.2,0-3.9-1.8-3.9-4c0,0,0,0,0,0v-35.4c0-2.2,1.7-3.9,3.9-3.9L150.1,140.6"/>
		<path class="st0" d="M151.9,142.6h44.9c2,0,3.6,1.6,3.6,3.6v31.7c0,2-1.6,3.6-3.6,3.6h-60.9c-2,0-3.6-1.6-3.6-3.6v-31.7
			c0-2,1.6-3.6,3.6-3.6H151.9"/>
		<rect x="132.3" y="148.9" class="st5" width="68.1" height="6.3"/>
		<ellipse class="st7" cx="189.8" cy="171.9" rx="5.1" ry="5"/>
		<ellipse class="st7" cx="183.4" cy="171.9" rx="5.1" ry="5"/>
		<circle class="st5" cx="133.6" cy="157.4" r="23.9"/>
		<circle class="st0" cx="133.6" cy="157.4" r="21.5"/>
		<path class="st5" d="M133.9,177.5c-11.1,0.1-20.3-8.8-20.4-19.9c-0.1-11.1,8.8-20.3,19.9-20.4c11.1-0.1,20.3,8.8,20.4,19.9
			C153.9,168.3,145,177.4,133.9,177.5z M133.4,138c-10.7,0.1-19.3,8.9-19.2,19.6c0.1,10.7,8.9,19.3,19.6,19.2
			c10.7-0.1,19.3-8.9,19.2-19.6c0,0,0,0,0,0C152.9,146.5,144.2,137.9,133.4,138z"/>
		<path class="st5" d="M136.9,151c-0.2-1.1-1-2.1-2-2.6c0,0.1-0.1,0.3-0.1,0.4c0,1.8,0.1,3.6,0.1,5.4c0,0.4,0.1,0.5,0.5,0.6
			c0.9,0.3,1.8,0.6,2.6,0.9c3,1.3,4.1,3.8,3.8,6.8c-0.4,3.6-2.4,5.7-5.9,6.6c-0.6,0.1-0.8,0.4-0.8,1c0,0.5,0,0.9,0,1.4h-2.3
			c0-0.7,0-1.4,0-2.1c-3.8-0.3-6.7-3.4-6.9-7.1l4.2-0.5c0.3,1.5,1.3,2.9,2.7,3.6c0-1,0-1.9,0-2.7c0-1.2,0-2.4,0-3.6
			c0.1-0.4-0.2-0.7-0.6-0.8c-1.4-0.4-2.6-1.1-3.7-2c-2-1.9-2.6-4.7-1.8-7.3c0.7-2.4,2.7-4.1,5.1-4.4l0.5-0.1c0.1,0,0.2-0.1,0.2-0.1
			c0-0.6,0-1.1,0-1.8h2.4c0,0.4,0,0.8,0,1.3s0.2,0.6,0.6,0.6c1.8,0.2,3.5,1.2,4.5,2.7c0.6,0.9,0.9,1.8,1,2.9L136.9,151z
			 M135.1,159.5c0,2.1,0.1,4.2,0.1,6.3c1.5-0.2,2.6-1.5,2.7-3C138,161.2,136.9,159.9,135.1,159.5L135.1,159.5z M132.5,148.4
			c-1.2,0.5-2,1.6-2,2.9c0.1,1.2,0.9,2.3,2.1,2.7C132.5,152.1,132.5,150.3,132.5,148.4L132.5,148.4z"/>
		<path class="st5" d="M185,136.7c-1-0.5-2.2-0.2-2.7,0.7s-0.2,2.2,0.7,2.7s2.2,0.2,2.7-0.7c0,0,0,0,0,0
			C186.3,138.4,186,137.2,185,136.7z"/>
		<rect x="78.1" class="st5" width="4.7" height="1.9"/>
		<rect x="87.6" y="5.6" transform="matrix(0.8431 -0.5377 0.5377 0.8431 10.8707 49.3005)" class="st5" width="4.7" height="0.9"/>
		<circle class="st8" cx="138" cy="134.8" r="107.9"/>
		
			<linearGradient id="SVGID_1_" gradientUnits="userSpaceOnUse" x1="219" y1="131.61" x2="5" y2="131.61" gradientTransform="matrix(1 0 0 -1 0 266)">
			<stop  offset="7.000000e-02" style="stop-color:#FFFFFF"/>
			<stop  offset="0.51" style="stop-color:#C20506"/>
			<stop  offset="0.56" style="stop-color:#B9090D"/>
			<stop  offset="0.65" style="stop-color:#9F1420"/>
			<stop  offset="0.75" style="stop-color:#76273F"/>
			<stop  offset="0.88" style="stop-color:#3D406A"/>
			<stop  offset="1" style="stop-color:#005B97"/>
		</linearGradient>
		<path class="st9" d="M135.4,264.8C63.5,264.8,5,206.3,5,134.4S63.5,4,135.4,4c30.2,0,59.4,10.5,82.7,29.6L207,47.1
			C158.8,7.5,87.6,14.6,48.1,62.8S15.5,182.2,63.7,221.7c41.9,34.4,102.4,34.1,144-0.6l11.2,13.3C195.5,254,165.9,264.8,135.4,264.8
			z"/>
		<circle class="st10" cx="138" cy="134.8" r="107.9"/>
		<path class="st0" d="M135.4,264.8C63.5,264.8,5,206.3,5,134.4S63.5,4,135.4,4c30.2,0,59.4,10.5,82.7,29.6L207,47.1
			C158.8,7.5,87.6,14.6,48.1,62.8S15.5,182.2,63.7,221.7c41.9,34.4,102.4,34.1,144-0.6l11.2,13.3C195.5,254,165.9,264.8,135.4,264.8
			z"/>
	</g>
</g>
<path class="st11" d="M179.2,266.9c-15.9,7.3-33.5,11.4-52.1,11.4c-19,0-36.9-4.3-53-11.9l0.2,0.5l52.3,78.1L179.2,266.9
	L179.2,266.9z"/>
</svg>
