<svg id="Capa_1" data-name="Capa 1" xmlns="http://www.w3.org/2000/svg" viewBox="0 0 180.54 250"><defs><style>.cls-1{fill:#fff;}</style></defs><title>icon_blanco_financiero</title><path class="cls-1" d="M118,125V109.82c-8.69-.15-17.69-2.85-22.94-6.6l3.61-10a39.92,39.92,0,0,0,21.59,6.44c10.64,0,17.83-6.14,17.83-14.69,0-8.24-5.85-13.34-16.94-17.83-15.28-6-24.73-12.89-24.73-25.93,0-12.45,8.84-21.89,22.63-24.14V1.9h9.3V16.43c9,.3,15.13,2.7,19.48,5.25L144,31.57a36.22,36.22,0,0,0-18.88-5.09c-11.55,0-15.89,6.89-15.89,12.89,0,7.79,5.54,11.69,18.59,17.08,15.43,6.3,23.22,14.09,23.22,27.43,0,11.85-8.24,22.94-23.68,25.49V125Z" transform="translate(-32.15 -1.9)"/><rect class="cls-1" x="173.2" y="136.24" width="39.49" height="115.66" transform="translate(353.75 386.24) rotate(180)"/><rect class="cls-1" x="102.68" y="164.45" width="39.49" height="87.45" transform="translate(212.7 414.45) rotate(180)"/><rect class="cls-1" x="32.15" y="195.48" width="39.49" height="56.42" transform="translate(71.65 445.48) rotate(180)"/></svg>