<svg id="Capa_1" data-name="Capa 1" xmlns="http://www.w3.org/2000/svg" viewBox="0 0 189.82 250"><defs><style>.cls-1{fill:#c20506;}</style></defs><title>icon_rojo_servicios_academicos</title><path class="cls-1" d="M197.29,248.9H42.14A17.36,17.36,0,0,1,24.8,231.56V16.23A17.35,17.35,0,0,1,42.14-1.1h102a3.8,3.8,0,0,1,0,7.59h-102a9.75,9.75,0,0,0-9.74,9.74V231.56a9.75,9.75,0,0,0,9.74,9.74H197.29a9.75,9.75,0,0,0,9.74-9.74V57.47a3.8,3.8,0,1,1,7.59,0V231.56A17.35,17.35,0,0,1,197.29,248.9Z" transform="translate(-24.8 1.1)"/><path class="cls-1" d="M210.83,57.47H157.66a13.54,13.54,0,0,1-13.54-13.54V2.69Z" transform="translate(-24.8 1.1)"/><path class="cls-1" d="M210.83,61.26H157.66a17.35,17.35,0,0,1-17.34-17.33V2.69a3.8,3.8,0,0,1,6.21-2.93l66.71,54.77a3.8,3.8,0,0,1-2.41,6.73ZM147.91,10.72V43.93a9.76,9.76,0,0,0,9.75,9.74h42.56Z" transform="translate(-24.8 1.1)"/><path class="cls-1" d="M68.58,124.05V103.69H83v3.82H72.91v4.3h9.86v3.81H72.91v4.61H83v3.82Z" transform="translate(-24.8 1.1)"/><path class="cls-1" d="M85,122.13l1.68-2.72a8.41,8.41,0,0,0,5.1,2c1.68,0,2.47-.67,2.47-1.58,0-2.44-8.76-.46-8.76-6.26,0-2.47,2.17-4.64,6-4.64a9.46,9.46,0,0,1,6,2l-1.55,2.66a6.23,6.23,0,0,0-4.37-1.71c-1.4,0-2.32.64-2.32,1.47,0,2.19,8.73.36,8.73,6.31,0,2.69-2.29,4.73-6.38,4.73A10,10,0,0,1,85,122.13Z" transform="translate(-24.8 1.1)"/><path class="cls-1" d="M104.72,122.16v7.5h-3.88V109.31h3.87v1.86a5.69,5.69,0,0,1,4.55-2.23c3.78,0,6.53,2.81,6.53,7.72s-2.75,7.75-6.53,7.75A5.64,5.64,0,0,1,104.72,122.16Zm7-5.5c0-2.53-1.49-4.27-3.72-4.27a4.34,4.34,0,0,0-3.33,1.68v5.22a4.47,4.47,0,0,0,3.33,1.68C110.28,121,111.77,119.23,111.77,116.66Z" transform="translate(-24.8 1.1)"/><path class="cls-1" d="M127.49,124.05v-1.53a6.08,6.08,0,0,1-4.67,1.89,4.91,4.91,0,0,1-5.12-4.88c0-3.45,2.78-4.76,5.12-4.76a6,6,0,0,1,4.67,1.8v-2c0-1.5-1.28-2.48-3.23-2.48a6.19,6.19,0,0,0-4.3,1.74l-1.47-2.59a9.65,9.65,0,0,1,6.44-2.32c3.36,0,6.44,1.34,6.44,5.59v9.52Zm0-3.54v-1.83a3.85,3.85,0,0,0-3.11-1.28c-1.52,0-2.78.79-2.78,2.22s1.26,2.17,2.78,2.17A3.88,3.88,0,0,0,127.49,120.51Z" transform="translate(-24.8 1.1)"/><path class="cls-1" d="M145.17,124.05v-8.91c0-2-1.07-2.75-2.71-2.75a4.18,4.18,0,0,0-3.36,1.74v9.92h-3.88V109.31h3.88v1.92a6.74,6.74,0,0,1,5.16-2.29c3.23,0,4.79,1.83,4.79,4.7v10.41Zm-4.85-19c-.61,0-1.1.58-1.1,1.9h-2c0-2.6,1.15-4.09,3.29-4.09s2.38,2,3.54,2c.61,0,1.1-.58,1.1-1.86h2c0,2.59-1.13,4.09-3.27,4.09S141.48,105.06,140.32,105.06Z" transform="translate(-24.8 1.1)"/><path class="cls-1" d="M152,116.66a7.8,7.8,0,1,1,7.79,7.75A7.47,7.47,0,0,1,152,116.66Zm11.57,0c0-2.29-1.37-4.27-3.78-4.27s-3.76,2-3.76,4.27,1.34,4.31,3.76,4.31S163.52,119,163.52,116.66Z" transform="translate(-24.8 1.1)"/><path class="cls-1" d="M170.42,124.05V103.69h3.88v20.36Z" transform="translate(-24.8 1.1)"/><path class="cls-1" d="M42.09,85.41c0-6.25,4.73-10.53,10.83-10.53a9.33,9.33,0,0,1,8.52,5l-3.72,1.83a5.53,5.53,0,0,0-4.8-3,6.69,6.69,0,0,0,0,13.37,5.47,5.47,0,0,0,4.8-3l3.72,1.8a9.39,9.39,0,0,1-8.52,5C46.82,95.94,42.09,91.67,42.09,85.41Z" transform="translate(-24.8 1.1)"/><path class="cls-1" d="M72.8,95.58V94.05a6.11,6.11,0,0,1-4.67,1.89A4.91,4.91,0,0,1,63,91.06c0-3.45,2.78-4.76,5.13-4.76a6.07,6.07,0,0,1,4.67,1.8v-2c0-1.5-1.28-2.48-3.24-2.48a6.2,6.2,0,0,0-4.3,1.74L63.8,82.79a9.65,9.65,0,0,1,6.44-2.32c3.36,0,6.44,1.34,6.44,5.59v9.52Zm0-3.54V90.21a3.85,3.85,0,0,0-3.11-1.28c-1.53,0-2.78.79-2.78,2.22s1.25,2.17,2.78,2.17A3.88,3.88,0,0,0,72.8,92Z" transform="translate(-24.8 1.1)"/><path class="cls-1" d="M80.53,95.58V75.22H84.4V95.58Z" transform="translate(-24.8 1.1)"/><path class="cls-1" d="M87.86,76.93a2.32,2.32,0,1,1,2.31,2.32A2.33,2.33,0,0,1,87.86,76.93Zm.39,18.65V80.84h3.88V95.58Z" transform="translate(-24.8 1.1)"/><path class="cls-1" d="M96.83,95.58V84.22H94.39V80.84h2.44V80a4.75,4.75,0,0,1,5-5.12,6.22,6.22,0,0,1,2.81.61l-.79,2.8a2.2,2.2,0,0,0-1.25-.36c-1.1,0-1.83.73-1.83,2.07v.8h3v3.38h-3V95.58Zm8.73-18.65a2.32,2.32,0,1,1,2.32,2.32A2.34,2.34,0,0,1,105.56,76.93Zm.4,18.65V80.84h3.87V95.58Z" transform="translate(-24.8 1.1)"/><path class="cls-1" d="M112.74,88.19a7.47,7.47,0,0,1,7.81-7.72,6.85,6.85,0,0,1,5.83,2.66l-2.53,2.38a3.59,3.59,0,0,0-3.12-1.59,3.93,3.93,0,0,0-4,4.27c0,2.57,1.64,4.31,4,4.31a3.73,3.73,0,0,0,3.12-1.59l2.53,2.35a6.81,6.81,0,0,1-5.83,2.68A7.48,7.48,0,0,1,112.74,88.19Z" transform="translate(-24.8 1.1)"/><path class="cls-1" d="M137.77,95.58V94.05a6.11,6.11,0,0,1-4.67,1.89A4.91,4.91,0,0,1,128,91.06c0-3.45,2.78-4.76,5.13-4.76a6.07,6.07,0,0,1,4.67,1.8v-2c0-1.5-1.28-2.48-3.24-2.48a6.2,6.2,0,0,0-4.3,1.74l-1.47-2.59a9.68,9.68,0,0,1,6.45-2.32c3.35,0,6.43,1.34,6.43,5.59v9.52Zm0-3.54V90.21a3.85,3.85,0,0,0-3.11-1.28c-1.53,0-2.78.79-2.78,2.22s1.25,2.17,2.78,2.17A3.88,3.88,0,0,0,137.77,92Z" transform="translate(-24.8 1.1)"/><path class="cls-1" d="M144.55,88.19a7.48,7.48,0,0,1,7.81-7.72,6.82,6.82,0,0,1,5.83,2.66l-2.53,2.38a3.57,3.57,0,0,0-3.11-1.59,4.3,4.3,0,0,0,0,8.58,3.71,3.71,0,0,0,3.11-1.59l2.53,2.35a6.78,6.78,0,0,1-5.83,2.68A7.48,7.48,0,0,1,144.55,88.19Z" transform="translate(-24.8 1.1)"/><path class="cls-1" d="M160.33,76.93a2.32,2.32,0,0,1,2.32-2.29A2.29,2.29,0,0,1,165,76.93a2.32,2.32,0,0,1-2.32,2.32A2.34,2.34,0,0,1,160.33,76.93Zm.4,18.65V80.84h3.88V95.58Z" transform="translate(-24.8 1.1)"/><path class="cls-1" d="M167.51,88.19a7.8,7.8,0,1,1,7.78,7.75A7.46,7.46,0,0,1,167.51,88.19Zm11.57,0c0-2.29-1.38-4.27-3.79-4.27s-3.75,2-3.75,4.27,1.34,4.31,3.75,4.31S179.08,90.51,179.08,88.19Zm-3-9.58h-2.71l4.09-4.4H181Z" transform="translate(-24.8 1.1)"/><path class="cls-1" d="M195.93,95.58V86.67c0-2-1.07-2.75-2.72-2.75a4.18,4.18,0,0,0-3.36,1.74v9.92H186V80.84h3.87v1.92A6.76,6.76,0,0,1,195,80.47c3.24,0,4.79,1.83,4.79,4.7V95.58Z" transform="translate(-24.8 1.1)"/><path class="cls-1" d="M99.2,209.19a43.17,43.17,0,0,0,7.6,0c5.3-.35,10.72-1.85,14.75-4.61A23.26,23.26,0,0,0,131,190.75l-.35-.11c-3.34,3.45-8.17,5.41-15,5.41-12.68,0-23.39-8.87-23.39-23.38s11.75-27,28.22-27c19.24,0,28.35,14.75,28.35,32.27,0,15.55-5,27-13.14,34.44-7.14,6.45-16.93,10-28.57,10.49a63.29,63.29,0,0,1-8,0Zm10.6-37.56c0,6.45,3.46,12,10.6,12a11.05,11.05,0,0,0,9.68-5,8.32,8.32,0,0,0,.92-4.38c0-7.94-3-15.78-10.94-15.78C114.06,158.5,109.68,163.8,109.8,171.63Z" transform="translate(-24.8 1.1)"/></svg>