<svg id="Capa_1" data-name="Capa 1" xmlns="http://www.w3.org/2000/svg" viewBox="0 0 304.07 250"><defs><style>.cls-1{fill:#023165;}</style></defs><title>icon_azul_alumnos_padres</title><path class="cls-1" d="M54.32,167.7a4,4,0,0,1,2.14-3.57l3.73-2V151.87c-19.51-4.72-33.84-22.35-33.89-42.37L25.21,90.29a16.52,16.52,0,0,1-1.75-31l-.38-6.86a1.85,1.85,0,0,1,0-.23V26.45c0-12.75,19.22-22.73,43.76-22.73h35.3c24.53,0,43.76,10,43.76,22.73V52.21c0,.08,0,.15,0,.23l-.42,7.32A16.51,16.51,0,0,1,143.7,90l-1.13,19.53a43.83,43.83,0,0,1-33.26,42.22V162l4,2.13a4,4,0,0,1,2.13,3.57,30.54,30.54,0,0,1-61.08,0Zm49,.29a4,4,0,0,1-2.13-3.57v-16a4,4,0,0,1,3.34-4,35.82,35.82,0,0,0,29.92-35.09,1.85,1.85,0,0,1,0-.23l1.31-22.59a4.06,4.06,0,0,1,3.64-3.79,8.42,8.42,0,0,0,1-16.34,4,4,0,0,1-3.25-4.2l.59-10.14V26.45c0-6.91-15.25-14.63-35.66-14.63H66.83c-20.41,0-35.66,7.72-35.66,14.63V52.09l.55,9.81v.21a4,4,0,0,1-3.3,4.09,8.42,8.42,0,0,0,.95,16.68,4,4,0,0,1,3.76,4l1.26,22.27v.22c0,17.28,13.11,32.41,30.49,35.18a4.05,4.05,0,0,1,3.41,4v16a4.05,4.05,0,0,1-2.14,3.57l-3.61,1.93a22.44,22.44,0,0,0,44.64,0Z" transform="translate(26.27 1.1)"/><path class="cls-1" d="M123.46,241l.09-.23-141.13,0A205.39,205.39,0,0,1-6,198.43c3.2-3,20.69-18.47,49.63-24.17l11.23-1.72a30.59,30.59,0,0,0,60.45,0l10.51,1.7a108.63,108.63,0,0,1,38.84,15.81,4.78,4.78,0,0,1,3-1h9.37a114.2,114.2,0,0,0-49.8-22.8l-15-2.43a4.1,4.1,0,0,0-3.27.92,4,4,0,0,0-1.42,3.08,22.49,22.49,0,0,1-45,0,4,4,0,0,0-4.66-4l-15.62,2.4-.17,0c-34.66,6.8-53.71,26.19-54.5,27a3.85,3.85,0,0,0-.85,1.3c-10.7,26.75-13,48.86-13.09,49.78a4,4,0,0,0,1,3.12,4.06,4.06,0,0,0,3,1.34l144.36,0A28.52,28.52,0,0,1,123.46,241Z" transform="translate(26.27 1.1)"/><path class="cls-1" d="M83.87,28.59C60.83,47,34.48,40.4,34.48,40.4L33.7,75.45H23.22L21.8,51h0V23.16C21.8,12,41.14,3,64.77,3H103c23.63,0,43,9.09,43,20.21V51h0l-1.41,24.42H134l-.78-35.05S108.28,48,83.87,28.59Z" transform="translate(26.27 1.1)"/><path class="cls-1" d="M19.18,75.68,17.76,51.27V23.16c0-13.61,20.65-24.26,47-24.26H103c26.36,0,47,10.65,47,24.26V51.27l-1.42,24.41a4.05,4.05,0,0,1-4,3.82H134a4,4,0,0,1-4-4l-.67-30.2A62.08,62.08,0,0,1,83.87,33.67c-17.8,12.84-36.71,12.55-45.45,11.5l-.67,30.36a4.06,4.06,0,0,1-4,4H23.22A4.05,4.05,0,0,1,19.18,75.68ZM30.43,40.31a4.06,4.06,0,0,1,5-3.84c.25.06,24.78,5.81,45.89-11a4.06,4.06,0,0,1,5,0c22.34,17.73,44.77,11.39,45.7,11.11a4.05,4.05,0,0,1,5.22,3.79L138,71.4h2.7l1.18-20.49V23.16C141.88,15.53,125.24,7,103,7H64.77C42.5,7,25.85,15.53,25.85,23.16V50.91L27,71.4h2.7Z" transform="translate(26.27 1.1)"/><path class="cls-1" d="M123.64,248.87a4.08,4.08,0,0,1-3-1.33,4,4,0,0,1-1-3.12,142.59,142.59,0,0,1,9.26-35.26,4.22,4.22,0,0,1,.85-1.31c.57-.59,14.19-14.46,38.88-19.3l.16,0,11-1.68a4.06,4.06,0,0,1,4.67,4,14.57,14.57,0,1,0,29.13,0,4.05,4.05,0,0,1,4.7-4l10.55,1.71c24.68,4.84,38.31,18.71,38.88,19.3a4,4,0,0,1,.84,1.31,143.14,143.14,0,0,1,9.28,35.29,4.05,4.05,0,0,1-4,4.45Zm103.71-52.35-6.21-1a22.67,22.67,0,0,1-44.36,0l-6.69,1a72.29,72.29,0,0,0-34,16.46,144.05,144.05,0,0,0-7.76,27.8l140.75,0A144.46,144.46,0,0,0,261.3,213C258.72,210.56,246.87,200.35,227.35,196.52Z" transform="translate(26.27 1.1)"/><path class="cls-1" d="M176.88,190.92a4,4,0,0,1,2.14-3.57l1.88-1v-5.25a31.59,31.59,0,0,1-23.18-29.93L157,138.93A12.58,12.58,0,0,1,155.74,116l-.22-3.83V94.34c0-9.59,13.41-16.82,31.2-16.82h24.13c17.79,0,31.2,7.23,31.2,16.82V112a1.93,1.93,0,0,1,0,.24l-.24,4.19a12.57,12.57,0,0,1-1.29,22.26l-.73,12.53A31.21,31.21,0,0,1,217,181v5.28l2,1.1a4,4,0,0,1,2.14,3.57,22.17,22.17,0,0,1-44.33,0Zm34.19,1.32a4,4,0,0,1-2.13-3.56V177.76a4,4,0,0,1,3.35-4,23.19,23.19,0,0,0,19.39-22.72c0-.08,0-.16,0-.24l.9-15.44a4,4,0,0,1,3.57-3.79,4.48,4.48,0,0,0,.58-8.66,4,4,0,0,1-3.19-4.19l.4-6.89V94.34c0-3.47-9.21-8.72-23.1-8.72H186.72c-13.89,0-23.1,5.25-23.1,8.72v17.5l.37,6.59v.26a4,4,0,0,1-3.3,4.09,4.47,4.47,0,0,0,.5,8.86,4.05,4.05,0,0,1,3.77,4l.85,15.2a1.69,1.69,0,0,1,0,.23,23.43,23.43,0,0,0,19.76,22.78,4.05,4.05,0,0,1,3.42,4v10.93a4.05,4.05,0,0,1-2.14,3.57l-1.69.91a14.07,14.07,0,0,0,27.75,0Z" transform="translate(26.27 1.1)"/><path class="cls-1" d="M198.7,97.76c-18.45-9.56-34.66,3-34.66,3l-.54,24.59h-7.36l-1-17.13h0V88.69c0-7.8,13.57-14.18,30.15-14.18h26.79c16.59,0,30.15,6.38,30.15,14.18v19.56h0l-1,17.13h-7.36l-.54-24.59S220.53,89.36,198.7,97.76Z" transform="translate(26.27 1.1)"/><path class="cls-1" d="M152.1,125.61l-1-17.13a1.77,1.77,0,0,1,0-.23V88.69c0-10.39,14.7-18.23,34.2-18.23h26.79c19.5,0,34.2,7.84,34.2,18.23v19.56a1.77,1.77,0,0,1,0,.23l-1,17.13a4.05,4.05,0,0,1-4,3.82h-7.36a4,4,0,0,1-4-4l-.5-22.61c-3.5-2.28-13.68-7.29-29.2-1.33a4.05,4.05,0,0,1-3.32-.18c-13-6.74-24.7-.92-28.79,1.61l-.49,22.51a4.05,4.05,0,0,1-4.05,4h-7.36A4.06,4.06,0,0,1,152.1,125.61Zm86.09-36.92c0-4.13-10.16-10.13-26.1-10.13H185.3c-15.94,0-26.1,6-26.1,10.13v19.44l.46,7.86L160,100.7a4.08,4.08,0,0,1,1.57-3.11c.72-.56,17.55-13.35,37.36-4.23,22.87-8,36.54,3.88,37.13,4.4a4.12,4.12,0,0,1,1.35,2.94l.34,15.3.45-7.87Z" transform="translate(26.27 1.1)"/></svg>