<svg id="Capa_1" data-name="Capa 1" xmlns="http://www.w3.org/2000/svg" viewBox="0 0 215.39 250"><defs><style>.cls-1{fill:#fff;}</style></defs><title>icon_blanco_servicios_escolares</title><path class="cls-1" d="M186.36,40.31l5,115.21a33.85,33.85,0,0,1,6.66,7.29L192.69,40.17c0-22.48-19-40.77-42.29-40.77H104.75C81.42-.6,62.45,17.69,62.45,40L57.16,160.47a32.44,32.44,0,0,1,6.57-5.37L68.79,40.17c0-19,16.13-34.44,36-34.44H150.4C170.22,5.73,186.36,21.18,186.36,40.31Z" transform="translate(-18.93 0.6)"/><path class="cls-1" d="M44.21,202.25a169.61,169.61,0,0,1,9.26-33c2.52-2.4,16.34-14.7,39.5-19.6l33.11,23.65a3.19,3.19,0,0,0,3.68,0l33.11-23.65c23.06,4.88,37,17.21,39.5,19.61a169.72,169.72,0,0,1,9.24,32.86,42.35,42.35,0,0,1,6.54.66A173.35,173.35,0,0,0,208,166.32a3.14,3.14,0,0,0-.66-1c-.65-.67-16.24-16.54-44.59-22.1a3.22,3.22,0,0,0-2.45.53l-32.39,23.14L95.53,143.73a3.22,3.22,0,0,0-2.45-.53c-28.36,5.56-43.94,21.43-44.59,22.1a3.14,3.14,0,0,0-.66,1,172.16,172.16,0,0,0-10.3,37.51A37.27,37.27,0,0,1,44.21,202.25Z" transform="translate(-18.93 0.6)"/><circle class="cls-1" cx="108.98" cy="188.1" r="6.27"/><path class="cls-1" d="M230.72,249.4H33.35A14.44,14.44,0,0,1,18.93,235V216.12a14.43,14.43,0,0,1,14.42-14.41H230.72a3.6,3.6,0,1,1,0,7.2H33.35a7.23,7.23,0,0,0-7.21,7.21V235a7.22,7.22,0,0,0,7.21,7.21H230.72a3.61,3.61,0,1,1,0,7.21Z" transform="translate(-18.93 0.6)"/><path class="cls-1" d="M177.42,54.88l.08-1.48a32.4,32.4,0,0,1-5.93,5.51,3,3,0,0,0,2,1.38,7,7,0,0,1-.79,13.87,3.18,3.18,0,0,0-2.93,3l-1,18.27v.17c0,14.16-10.74,26.55-25,28.83a3.16,3.16,0,0,0-2.67,3.12v13a3.16,3.16,0,0,0,1.68,2.79l4.78,2.56a3.2,3.2,0,0,0,.7.28l7.18,1.86L129,167.07,100.34,148l6.37-1.73a2.7,2.7,0,0,0,.66-.27l5-2.66a3.18,3.18,0,0,0,1.67-2.8v-13a3.16,3.16,0,0,0-2.61-3.12A29.33,29.33,0,0,1,86.89,95.64c0-.06,0-.12,0-.18L85.81,77a3.17,3.17,0,0,0-2.85-3,7,7,0,0,1-.85-13.59,3.09,3.09,0,0,0,2.09-1.55,32.68,32.68,0,0,1-6-4l0,.33a13.33,13.33,0,0,0,1.42,24.46l.93,16a35.61,35.61,0,0,0,27.13,34.33v8.57l-3,1.6L92,143.71A3.16,3.16,0,0,0,91,149.4l36.23,24.15a3.18,3.18,0,0,0,3.6-.06l33.81-24.15a3.16,3.16,0,0,0-1-5.64l-13.37-3.47-2.78-1.49v-8.55c15.91-3.8,27.6-18.15,27.64-34.45L176,80a13.33,13.33,0,0,0,1.42-25.09Z" transform="translate(-18.93 0.6)"/><path class="cls-1" d="M141.82,67.58H112.39c-17.47,0-36.28-4.22-36.28-13.48l0-15.1a3.17,3.17,0,0,1,3.16-3.17h0A3.16,3.16,0,0,1,82.42,39l0,15.1c0,1.84,10.29,7.15,29.94,7.15h29.43c19.64,0,29.94-5.31,29.94-7.14v-.2l1-15.1a3.17,3.17,0,0,1,6.33.4l-.95,15C177.94,63.39,159.22,67.58,141.82,67.58Z" transform="translate(-18.93 0.6)"/><line class="cls-1" x1="70.81" y1="231.48" x2="194.38" y2="231.48"/><path class="cls-1" d="M213.32,234.05H89.74a3.17,3.17,0,0,1,0-6.34H213.32a3.17,3.17,0,1,1,0,6.34Z" transform="translate(-18.93 0.6)"/><line class="cls-1" x1="89.8" y1="64.02" x2="89.8" y2="41.03"/><path class="cls-1" d="M108.74,66.58a3.17,3.17,0,0,1-3.17-3.17v-23a3.17,3.17,0,1,1,6.34,0v23A3.17,3.17,0,0,1,108.74,66.58Z" transform="translate(-18.93 0.6)"/><line class="cls-1" x1="123.07" y1="64.02" x2="123.07" y2="41.03"/><path class="cls-1" d="M142,66.58a3.17,3.17,0,0,1-3.17-3.17v-23a3.17,3.17,0,1,1,6.34,0v23A3.17,3.17,0,0,1,142,66.58Z" transform="translate(-18.93 0.6)"/><line class="cls-1" x1="21.29" y1="222.01" x2="44.27" y2="222.01"/><path class="cls-1" d="M63.21,224.57h-23a3.17,3.17,0,1,1,0-6.33h23a3.17,3.17,0,1,1,0,6.33Z" transform="translate(-18.93 0.6)"/></svg>