<?xml version="1.0" encoding="utf-8"?>
<!-- Generator: Adobe Illustrator 23.0.0, SVG Export Plug-In . SVG Version: 6.00 Build 0)  -->
<svg version="1.1" id="Capa_1" xmlns="http://www.w3.org/2000/svg" xmlns:xlink="http://www.w3.org/1999/xlink" x="0px" y="0px"
	 viewBox="0 0 242.4 374.8" style="enable-background:new 0 0 242.4 374.8;" xml:space="preserve">
<style type="text/css">
	.st0{fill:#FFFFFF;}
	.st1{fill:none;stroke:#023165;stroke-width:3;stroke-miterlimit:10;stroke-dasharray:9.97,9.97;}
	.st2{fill:url(#SVGID_1_);}
	.st3{fill:none;stroke:#A6A6A6;stroke-width:3;stroke-miterlimit:10;stroke-dasharray:9.97,9.97;}
	.st4{fill:#C70000;}
	.st5{fill:#C20506;}
	.st6{fill:#023165;}
	.st7{fill:none;}
	.st8{fill:#C70000;stroke:#A1A1A1;stroke-miterlimit:10;}
</style>
<title>marketing</title>
<g>
	<g id="Modo_de_aislamiento">
		<rect x="78" y="-0.8" transform="matrix(0.5042 -0.8636 0.8636 0.5042 37.5326 68.5412)" class="st0" width="0.9" height="4.7"/>
		<rect x="73.1" y="12" class="st0" width="4.7" height="1.9"/>
		<rect x="82.6" y="17.5" transform="matrix(0.8431 -0.5377 0.5377 0.8431 3.6389 48.4913)" class="st0" width="4.7" height="0.9"/>
		<circle class="st1" cx="133" cy="146.8" r="107.9"/>
		
			<linearGradient id="SVGID_1_" gradientUnits="userSpaceOnUse" x1="214" y1="131.62" x2="1.818989e-12" y2="131.62" gradientTransform="matrix(1 0 0 -1 0 278)">
			<stop  offset="7.000000e-02" style="stop-color:#FFFFFF"/>
			<stop  offset="0.51" style="stop-color:#C20506"/>
			<stop  offset="0.56" style="stop-color:#B9090D"/>
			<stop  offset="0.65" style="stop-color:#9F1420"/>
			<stop  offset="0.75" style="stop-color:#76273F"/>
			<stop  offset="0.88" style="stop-color:#3D406A"/>
			<stop  offset="1" style="stop-color:#005B97"/>
		</linearGradient>
		<path class="st2" d="M130.4,276.8C58.5,276.8,0,218.3,0,146.4S58.5,16,130.4,16c30.2,0,59.4,10.5,82.7,29.6L202,59.1
			C153.8,19.5,82.6,26.5,43.1,74.8S10.5,194.2,58.7,233.7c41.9,34.4,102.4,34.1,144-0.6l11.2,13.3
			C190.5,266,160.9,276.8,130.4,276.8z"/>
		<circle class="st3" cx="133" cy="146.8" r="107.9"/>
		<path class="st4" d="M130.4,276.8C58.5,276.8,0,218.3,0,146.4S58.5,16,130.4,16c30.2,0,59.4,10.5,82.7,29.6L202,59.1
			C153.8,19.5,82.6,26.5,43.1,74.8S10.5,194.2,58.7,233.7c41.9,34.4,102.4,34.1,144-0.6l11.2,13.3
			C190.5,266,160.9,276.8,130.4,276.8z"/>
		<path class="st5" d="M150.7,86h7.6c0.4,0.1,0.8,0.2,1.3,0.3c21.1,2.8,35.3,14.3,42.4,34.3c1.3,3.7,1.7,7.7,2.6,11.6v7.6
			c-0.1,0.5-0.3,1-0.4,1.5c-2.6,19.8-13.1,33.7-31.6,41.2c-4.5,1.8-9.5,2.4-14.3,3.6h-7.6c-0.4-0.1-0.8-0.3-1.3-0.3
			c-21-2.8-35.2-14.2-42.3-34.1c-1.4-3.8-1.8-7.9-2.6-11.8v-7.6c0.1-0.5,0.3-1,0.3-1.5c2.9-21,14.3-35.1,34.3-42.2
			C142.8,87.3,146.8,86.9,150.7,86z M196.8,136.2c0.1-23.4-18.8-42.4-42.1-42.5c-23.4-0.1-42.4,18.8-42.5,42.1
			c-0.1,23.4,18.8,42.4,42.1,42.5c0,0,0,0,0.1,0C177.7,178.2,196.6,159.5,196.8,136.2L196.8,136.2z"/>
		<path class="st5" d="M159,158.5c2.7,5.1,5.5,5.6,9.2,1.8l1.9,1.8c-10.9,7.1-28.4,6.1-39.1-6.7c-10.7-13-8.8-32.3,4.2-43
			c11.2-9.2,27.4-9.3,38.7-0.1c12,9.9,14.9,27.4,6.4,40l-1.8-1.9c3.9-3.4,3.6-6-0.6-8.8c-0.6-0.6-0.8-1.4-0.7-2.2
			c1.9-12.5-6.6-24.1-19.1-26c-12.5-1.9-24.1,6.6-26,19.1c-1.9,12.3,6.5,23.9,18.8,26c1.4,0.2,2.8,0.4,4.2,0.4
			C156.2,158.9,157.5,158.7,159,158.5z"/>
		<path class="st5" d="M178.2,146.3l-5.9,2.5l-0.6,0.8c2.5,2.2,5,4.4,7.5,6.6c1.1,1,1.1,1.7,0,2.7s-2.3,2.2-3.7,3.6
			c-1.5-1.6-2.9-3.1-4.3-4.5s-2.8-2.6-4.2-4l-2.6,5.9c-0.7-1.2-1.1-1.8-1.4-2.4c-2.8-6.7-5.5-13.4-8.3-20.1
			c-0.1-0.5-0.2-1.1-0.2-1.6c0.5-0.1,1.1,0,1.6,0.1c6.8,3.1,13.6,6.1,20.4,9.3C177.1,145.4,177.7,145.8,178.2,146.3z"/>
		<path class="st5" d="M153.6,145.1c-5.6-1.2-8.6-5.1-8.2-10.1c0.5-4.4,4.1-7.9,8.5-8.2c5-0.3,8.6,2.7,9.7,8.3
			c-2.2-1-4.1-1.9-6.1-2.7c-2.6-1.2-4.4-1-5.9,0.5c-1.7,1.7-1.6,3.7-0.6,5.7S152.6,142.8,153.6,145.1z"/>
		<polygon class="st6" points="127.6,188.7 81.9,188.7 81.9,120.7 127.6,109.9 		"/>
		<path class="st0" d="M127.6,191.1H81.9c-1.3,0-2.4-1.1-2.4-2.4c0,0,0,0,0,0v-68c0-1.1,0.8-2.1,1.8-2.3l45.7-10.8
			c1.3-0.3,2.6,0.5,2.9,1.8c0,0.2,0.1,0.4,0.1,0.6v78.8C130,190,129,191.1,127.6,191.1C127.6,191.1,127.6,191.1,127.6,191.1z
			 M84.3,186.3h40.9v-73.4l-40.9,9.7V186.3z"/>
		<rect x="63.7" y="152.8" class="st6" width="18.2" height="35.9"/>
		<path class="st0" d="M81.9,191.1H63.7c-1.3,0-2.4-1.1-2.4-2.4c0,0,0,0,0,0v-35.9c0-1.3,1.1-2.4,2.4-2.4h18.2
			c1.3,0,2.4,1.1,2.4,2.4v35.9C84.3,190,83.3,191.1,81.9,191.1z M66.1,186.3h13.4v-31.2H66.1V186.3z"/>
		<polygon class="st6" points="148.2,188.7 127.4,188.7 127.4,144.1 148.2,155.8 		"/>
		<path class="st0" d="M148.2,191.1h-20.8c-1.3,0-2.4-1.1-2.4-2.4c0,0,0,0,0,0v-44.6c0-1.3,1.1-2.4,2.4-2.4c0.4,0,0.8,0.1,1.2,0.3
			l20.8,11.7c0.8,0.4,1.2,1.2,1.2,2.1v32.9C150.6,190,149.5,191.1,148.2,191.1C148.2,191.1,148.2,191.1,148.2,191.1z M129.8,186.3
			h16v-29.1l-16-9V186.3z"/>
		<rect x="61.1" y="188.3" class="st6" width="89.2" height="4.3"/>
		<path class="st0" d="M61.1,185.9h89.2c1.3,0,2.4,1.1,2.4,2.4v4.3c0,1.3-1.1,2.4-2.4,2.4H61.1c-1.3,0-2.4-1.1-2.4-2.4v-4.3
			C58.8,186.9,59.8,185.9,61.1,185.9z"/>
		<rect x="57.9" y="192.6" class="st6" width="95.7" height="4.3"/>
		<path class="st0" d="M57.9,190.2h95.7c1.3,0,2.4,1.1,2.4,2.4v4.3c0,1.3-1.1,2.4-2.4,2.4H57.9c-1.3,0-2.4-1.1-2.4-2.4v-4.3
			C55.5,191.3,56.6,190.2,57.9,190.2z"/>
		<line class="st7" x1="127.6" y1="188.7" x2="81.9" y2="188.7"/>
		<rect x="81.9" y="187.5" class="st0" width="45.7" height="2.4"/>
		<polyline class="st5" points="81.9,188.7 81.9,120.7 127.6,109.9 127.6,188.7 		"/>
		<polygon class="st0" points="128.8,188.7 126.4,188.7 126.4,111.4 83.1,121.6 83.1,188.7 80.7,188.7 80.7,119.7 128.8,108.3 		"/>
		<rect x="63.7" y="152.8" class="st5" width="18.2" height="35.9"/>
		<polygon class="st5" points="148.2,188.7 127.4,188.7 127.4,144.1 148.2,155.8 		"/>
		<rect x="61.1" y="188.3" class="st5" width="89.2" height="4.3"/>
		<rect x="57.9" y="192.6" class="st5" width="95.7" height="4.3"/>
		<rect x="67.3" y="158.9" class="st0" width="4.3" height="4.3"/>
		<rect x="74.6" y="158.9" class="st0" width="4.3" height="4.3"/>
		<rect x="67.3" y="168.3" class="st0" width="4.3" height="4.3"/>
		<rect x="74.6" y="168.3" class="st0" width="4.3" height="4.3"/>
		<rect x="87.4" y="141.8" class="st0" width="8.3" height="8.3"/>
		<rect x="101.5" y="141.8" class="st0" width="8.3" height="8.3"/>
		<rect x="87.4" y="155.8" class="st0" width="8.3" height="8.3"/>
		<rect x="101.5" y="155.8" class="st0" width="8.3" height="8.3"/>
		<rect x="115.2" y="141.8" class="st0" width="8.3" height="8.3"/>
		<rect x="115.2" y="155.8" class="st0" width="8.3" height="8.3"/>
		<rect x="67.3" y="177.6" class="st0" width="4.3" height="4.3"/>
		<rect x="74.6" y="177.6" class="st0" width="4.3" height="4.3"/>
		<rect x="131.4" y="158.9" class="st0" width="4.3" height="4.3"/>
		<rect x="138.7" y="158.9" class="st0" width="4.3" height="4.3"/>
		<rect x="131.4" y="168.3" class="st0" width="4.3" height="4.3"/>
		<rect x="138.7" y="168.3" class="st0" width="4.3" height="4.3"/>
		<rect x="131.4" y="177.6" class="st0" width="4.3" height="4.3"/>
		<rect x="138.7" y="177.6" class="st0" width="4.3" height="4.3"/>
		<polyline class="st0" points="111.2,188.6 111.2,172 103.8,172 96.4,172 96.4,188.6 		"/>
		<rect x="103.1" y="170.6" class="st5" width="1.6" height="18.1"/>
		<circle class="st0" cx="104.2" cy="128.3" r="7.1"/>
		<path class="st5" d="M107,129.6h-2.9c-0.3,0-0.6-0.3-0.6-0.6l0,0v-5.2c0-0.3,0.3-0.6,0.7-0.5c0.3,0,0.5,0.2,0.5,0.5v4.6h2.4
			c0.3,0,0.6,0.2,0.7,0.5s-0.2,0.6-0.5,0.7C107.1,129.6,107.1,129.6,107,129.6z"/>
	</g>
</g>
<path class="st8" d="M186.9,275.1c-18.8,9.2-39.8,14.6-62.1,15.1c-22.7,0.5-44.4-4.1-63.8-12.8l0.3,0.6l64.7,92L186.9,275.1
	L186.9,275.1z"/>
</svg>
