<svg xmlns="http://www.w3.org/2000/svg" xmlns:xlink="http://www.w3.org/1999/xlink" viewBox="0 0 242.43 276.76"><defs><style>.cls-1{fill:#fff;}.cls-2,.cls-4{fill:none;stroke-miterlimit:10;stroke-width:3px;stroke-dasharray:9.97 9.97;}.cls-2{stroke:#023165;}.cls-3{fill:url(#Degradado_sin_nombre_52);}.cls-4{stroke:#a6a6a6;}.cls-5{fill:#c70000;}.cls-6{fill:#c20506;}.cls-7{fill:#023165;}</style><linearGradient id="Degradado_sin_nombre_52" x1="213.99" y1="146.38" x2="0" y2="146.38" gradientUnits="userSpaceOnUse"><stop offset="0.07" stop-color="#fff"/><stop offset="0.51" stop-color="#c20506"/><stop offset="0.56" stop-color="#b9090d"/><stop offset="0.65" stop-color="#9f1420"/><stop offset="0.75" stop-color="#76273f"/><stop offset="0.88" stop-color="#3d406a"/><stop offset="1" stop-color="#005b97"/></linearGradient></defs><title>marketing</title><g id="Capa_2" data-name="Capa 2"><g id="Modo_de_aislamiento" data-name="Modo de aislamiento"><rect class="cls-1" x="78" y="-0.76" width="0.94" height="4.68" transform="translate(37.53 68.55) rotate(-59.72)"/><rect class="cls-1" x="73.06" y="11.98" width="4.68" height="1.87"/><rect class="cls-1" x="82.58" y="17.54" width="4.68" height="0.94" transform="translate(3.64 48.49) rotate(-32.53)"/><circle class="cls-2" cx="133" cy="146.82" r="107.93"/><path class="cls-3" d="M130.38,276.76C58.49,276.76,0,218.27,0,146.38S58.49,16,130.38,16a130.61,130.61,0,0,1,82.73,29.6L202,59.08a112.94,112.94,0,1,0,.77,174L214,246.43A130.54,130.54,0,0,1,130.38,276.76Z"/><circle class="cls-4" cx="133" cy="146.82" r="107.93"/><path class="cls-5" d="M130.38,276.76C58.49,276.76,0,218.27,0,146.38S58.49,16,130.38,16a130.61,130.61,0,0,1,82.73,29.6L202,59.08a112.94,112.94,0,1,0,.77,174L214,246.43A130.54,130.54,0,0,1,130.38,276.76Z"/><path class="cls-6" d="M150.71,86h7.56a9.61,9.61,0,0,0,1.25.33c21.12,2.81,35.26,14.31,42.42,34.29,1.33,3.7,1.73,7.73,2.56,11.6v7.56a13.38,13.38,0,0,0-.35,1.49C201.51,161.09,191,175,172.56,182.49c-4.49,1.84-9.51,2.41-14.29,3.56h-7.56a8.87,8.87,0,0,0-1.25-.34c-21-2.78-35.15-14.2-42.34-34.07-1.36-3.77-1.78-7.87-2.63-11.82v-7.56a14.67,14.67,0,0,0,.35-1.49q4.35-31.49,34.27-42.18C142.81,87.27,146.84,86.87,150.71,86Zm46.08,50.16a42.3,42.3,0,1,0-42.4,42.14A42.53,42.53,0,0,0,196.79,136.2Z"/><path class="cls-6" d="M159,158.53c2.69,5.05,5.53,5.65,9.17,1.78l1.89,1.84c-10.89,7.08-28.42,6.12-39.13-6.7a30.54,30.54,0,0,1,42.85-43.1c12,9.88,14.89,27.42,6.45,40l-1.83-1.92c3.86-3.39,3.6-6-.62-8.81a2.65,2.65,0,0,1-.69-2.19,22.84,22.84,0,1,0-26.38,19.06,29.39,29.39,0,0,0,4.18.38C156.18,158.88,157.5,158.66,159,158.53Z"/><path class="cls-6" d="M178.2,146.29l-5.91,2.47-.6.79c2.49,2.2,5,4.42,7.48,6.59,1.1,1,1.1,1.73,0,2.69s-2.33,2.22-3.7,3.55c-1.54-1.62-2.87-3.09-4.27-4.49s-2.75-2.62-4.22-4l-2.61,5.93c-.7-1.23-1.11-1.8-1.37-2.43q-4.17-10-8.28-20.06a5.79,5.79,0,0,1-.18-1.63,4.72,4.72,0,0,1,1.61.11q10.19,4.59,20.35,9.27A14.32,14.32,0,0,1,178.2,146.29Z"/><path class="cls-6" d="M153.56,145.15c-5.61-1.19-8.62-5.06-8.18-10.05a9.15,9.15,0,0,1,8.53-8.18c5-.25,8.62,2.75,9.69,8.32-2.19-1-4.15-1.85-6.1-2.74-2.61-1.17-4.44-1-5.93.51-1.67,1.74-1.55,3.67-.61,5.74S152.62,142.81,153.56,145.15Z"/><polygon class="cls-7" points="127.63 188.69 81.93 188.69 81.93 120.69 127.63 109.86 127.63 188.69"/><path class="cls-1" d="M127.63,191.09H81.93a2.39,2.39,0,0,1-2.39-2.4v-68a2.4,2.4,0,0,1,1.84-2.33l45.7-10.83a2.39,2.39,0,0,1,2.94,2.33v78.83A2.39,2.39,0,0,1,127.63,191.09Zm-43.3-4.79h40.91V112.89l-40.91,9.69Z"/><rect class="cls-7" x="63.74" y="152.74" width="18.19" height="35.95" transform="translate(145.67 341.44) rotate(180)"/><path class="cls-1" d="M81.93,191.09H63.74a2.39,2.39,0,0,1-2.39-2.4V152.74a2.39,2.39,0,0,1,2.39-2.39H81.93a2.4,2.4,0,0,1,2.4,2.39v35.95A2.4,2.4,0,0,1,81.93,191.09Zm-15.8-4.79H79.54V155.14H66.13Z"/><polygon class="cls-7" points="148.21 188.69 127.41 188.69 127.41 144.08 148.21 155.78 148.21 188.69"/><path class="cls-1" d="M148.2,191.09H127.41a2.39,2.39,0,0,1-2.39-2.4V144.08a2.4,2.4,0,0,1,3.57-2.09l20.79,11.7a2.39,2.39,0,0,1,1.22,2.08v32.92A2.39,2.39,0,0,1,148.2,191.09Zm-18.39-4.79h16V157.17l-16-9Z"/><rect class="cls-7" x="61.14" y="188.26" width="89.23" height="4.33"/><rect class="cls-1" x="58.75" y="185.87" width="94.02" height="9.12" rx="2.39"/><rect class="cls-7" x="57.89" y="192.59" width="95.73" height="4.33"/><rect class="cls-1" x="55.5" y="190.2" width="100.51" height="9.12" rx="2.39"/><line class="cls-7" x1="127.63" y1="188.69" x2="81.93" y2="188.69"/><rect class="cls-1" x="81.93" y="187.5" width="45.7" height="2.39"/><polyline class="cls-6" points="81.93 188.69 81.93 120.69 127.63 109.86 127.63 188.69"/><polygon class="cls-1" points="128.83 188.69 126.43 188.69 126.43 111.38 83.13 121.64 83.13 188.69 80.74 188.69 80.74 119.74 128.83 108.35 128.83 188.69"/><rect class="cls-6" x="63.74" y="152.74" width="18.19" height="35.95" transform="translate(145.67 341.44) rotate(180)"/><polygon class="cls-6" points="148.21 188.69 127.41 188.69 127.41 144.08 148.21 155.78 148.21 188.69"/><rect class="cls-6" x="61.14" y="188.26" width="89.23" height="4.33"/><rect class="cls-6" x="57.89" y="192.59" width="95.73" height="4.33"/><rect class="cls-1" x="67.31" y="158.92" width="4.31" height="4.31"/><rect class="cls-1" x="74.59" y="158.92" width="4.31" height="4.31"/><rect class="cls-1" x="67.31" y="168.3" width="4.31" height="4.31"/><rect class="cls-1" x="74.59" y="168.3" width="4.31" height="4.31"/><rect class="cls-1" x="87.45" y="141.81" width="8.34" height="8.34"/><rect class="cls-1" x="101.53" y="141.81" width="8.34" height="8.34"/><rect class="cls-1" x="87.45" y="155.76" width="8.34" height="8.34"/><rect class="cls-1" x="101.53" y="155.76" width="8.34" height="8.34"/><rect class="cls-1" x="115.18" y="141.81" width="8.34" height="8.34"/><rect class="cls-1" x="115.18" y="155.76" width="8.34" height="8.34"/><rect class="cls-1" x="67.31" y="177.55" width="4.31" height="4.31"/><rect class="cls-1" x="74.59" y="177.55" width="4.31" height="4.31"/><rect class="cls-1" x="131.42" y="158.92" width="4.31" height="4.31"/><rect class="cls-1" x="138.7" y="158.92" width="4.31" height="4.31"/><rect class="cls-1" x="131.42" y="168.3" width="4.31" height="4.31"/><rect class="cls-1" x="138.7" y="168.3" width="4.31" height="4.31"/><rect class="cls-1" x="131.42" y="177.55" width="4.31" height="4.31"/><rect class="cls-1" x="138.7" y="177.55" width="4.31" height="4.31"/><polyline class="cls-1" points="111.16 188.62 111.16 172.01 103.77 172.01 96.45 172.01 96.45 188.62"/><rect class="cls-6" x="103.05" y="170.6" width="1.55" height="18.12"/><circle class="cls-1" cx="104.17" cy="128.25" r="7.13"/><path class="cls-6" d="M107,129.64h-2.94a.58.58,0,0,1-.58-.58v-5.15a.59.59,0,0,1,1.17,0v4.56H107a.59.59,0,1,1,0,1.17Z"/></g></g></svg>