<?xml version="1.0" encoding="utf-8"?>
<!-- Generator: Adobe Illustrator 23.0.0, SVG Export Plug-In . SVG Version: 6.00 Build 0)  -->
<svg version="1.1" id="Capa_1" xmlns="http://www.w3.org/2000/svg" xmlns:xlink="http://www.w3.org/1999/xlink" x="0px" y="0px"
	 viewBox="0 0 243.4 277.8" style="enable-background:new 0 0 243.4 277.8;" xml:space="preserve">
<style type="text/css">
	.st0{fill:none;stroke:#FFFFFF;stroke-width:4.803;stroke-miterlimit:10;stroke-dasharray:9.5771,9.5771;}
	.st1{fill:none;stroke:#FFFFFF;stroke-width:4.95;stroke-miterlimit:10;}
	.st2{fill:none;stroke:#FFFFFF;stroke-width:3;stroke-miterlimit:10;}
	.st3{fill:none;stroke:#FFFFFF;stroke-width:2.5;stroke-miterlimit:10;}
	.st4{fill:none;stroke:#FFFFFF;stroke-width:2;stroke-miterlimit:10;}
	.st5{fill:none;}
	.st6{fill:none;stroke:#FFFFFF;stroke-miterlimit:10;}
	.st7{fill:none;stroke:#FFFFFF;stroke-width:1.5;stroke-miterlimit:10;}
</style>
<g>
	<title>marketing_blanco</title>
	<circle class="st0" cx="133.9" cy="146.8" r="103.6"/>
	<path class="st1" d="M161.8,20.8c19.1,4.5,37,13.3,52.4,25.8l-11,13.4C155.5,20.8,85,27.7,45.9,75.5S13.6,193.7,61.3,232.8
		c41.5,34.1,101.4,33.8,142.6-0.6l11.1,13.2c-23.2,19.4-52.5,30.1-82.7,30.1c-71.2,0-129.1-57.9-129.1-129.1S61.1,17.3,132.3,17.3
		C142.3,17.3,152.2,18.5,161.8,20.8"/>
	<path class="st2" d="M162,153.1c-8.2,1.8-18-0.5-24.5-8.3c-8.7-10.5-7.1-26,3.4-34.6c9.1-7.4,22.2-7.5,31.3-0.1
		c9.7,8,12.1,22.1,5.2,32.2l-1.5-1.5c3.2-2.7,2.9-4.8-0.5-7.1c-0.4-0.5-0.6-1.1-0.6-1.8c1.5-9.6-4.7-18.5-14.1-20.7"/>
	<path class="st2" d="M160.8,111.2c-0.5-0.1-0.9-0.2-1.4-0.3c-10.1-1.5-19.5,5.3-21.1,15.4c-1.5,9.9,5.3,19.2,15.2,20.9
		c1.1,0.2,2.3,0.3,3.4,0.3c0.9,0,1.9-0.2,3.2-0.3c2.2,4.1,4.5,4.5,7.5,1.4l1.5,1.4c-2.1,1.4-4.5,2.4-7.1,2.9"/>
	<path class="st3" d="M175.7,137.4l-4.8,2l-0.5,0.6c2,1.8,4,3.5,6.1,5.3c0.9,0.8,0.9,1.4,0,2.2s-1.9,1.8-3,2.9
		c-1.2-1.3-2.3-2.5-3.5-3.6c-1.1-1.1-2.3-2.1-3.4-3.2l-2.1,4.8c-0.6-1-0.9-1.4-1.1-1.9c-2.3-5.4-4.5-10.8-6.7-16.2
		c-0.1-0.4-0.2-0.9-0.2-1.3c0.4-0.1,0.9,0,1.3,0.1c5.5,2.5,11,4.9,16.5,7.5C174.8,136.7,175.3,137,175.7,137.4z"/>
	<path class="st4" d="M153.5,122.3c0.8-0.4,1.6-0.6,2.5-0.6c4-0.2,7,2.2,7.9,6.7c-1.8-0.8-3.3-1.5-4.9-2.2c-2.1-1-3.6-0.8-4.8,0.4
		c-1.4,1.4-1.3,3-0.5,4.6s1.3,3.4,2.1,5.2c-4.5-1-7-4.1-6.6-8.1C149.4,125.6,151.2,123.4,153.5,122.3"/>
	<polygon class="st5" points="128.6,188.7 82.9,188.7 82.9,120.7 128.6,109.9 	"/>
	<rect x="64.7" y="152.8" class="st5" width="18.2" height="35.9"/>
	<polygon class="st5" points="149.2,188.7 128.4,188.7 128.4,144.1 149.2,155.8 	"/>
	<rect x="62.1" y="188.3" class="st4" width="89.2" height="4.3"/>
	<rect x="58.9" y="192.6" class="st4" width="95.7" height="4.3"/>
	<line class="st5" x1="128.6" y1="188.7" x2="82.9" y2="188.7"/>
	<path class="st6" d="M128.6,188.7"/>
	<path class="st6" d="M128.6,109.9"/>
	<path class="st6" d="M82.9,120.7"/>
	<path class="st6" d="M82.9,188.7"/>
	<polygon class="st2" points="129.8,188.7 127.4,188.7 127.4,111.4 84.1,121.6 84.1,188.7 81.7,188.7 81.7,119.7 129.8,108.3 	"/>
	<rect x="64.7" y="152.8" class="st3" width="16.9" height="35.9"/>
	<polygon class="st3" points="149.2,188.7 129.8,188.7 129.8,144.1 149.2,155.8 	"/>
	<rect x="62.1" y="188.3" class="st6" width="89.2" height="4.3"/>
	<rect x="58.9" y="192.6" class="st3" width="95.7" height="4.3"/>
	<rect x="68.3" y="158.9" class="st7" width="4.3" height="4.3"/>
	<rect x="75.6" y="158.9" class="st7" width="4.3" height="4.3"/>
	<rect x="68.3" y="168.3" class="st7" width="4.3" height="4.3"/>
	<rect x="75.6" y="168.3" class="st7" width="4.3" height="4.3"/>
	<rect x="88.4" y="141.8" class="st3" width="8.3" height="8.3"/>
	<rect x="102.5" y="141.8" class="st3" width="8.3" height="8.3"/>
	<rect x="88.4" y="155.8" class="st3" width="8.3" height="8.3"/>
	<rect x="102.5" y="155.8" class="st3" width="8.3" height="8.3"/>
	<rect x="116.2" y="141.8" class="st3" width="8.3" height="8.3"/>
	<rect x="116.2" y="155.8" class="st3" width="8.3" height="8.3"/>
	<rect x="68.3" y="177.6" class="st7" width="4.3" height="4.3"/>
	<rect x="75.6" y="177.6" class="st7" width="4.3" height="4.3"/>
	<rect x="132.4" y="158.9" class="st7" width="4.3" height="4.3"/>
	<rect x="139.7" y="158.9" class="st7" width="4.3" height="4.3"/>
	<rect x="132.4" y="168.3" class="st7" width="4.3" height="4.3"/>
	<rect x="139.7" y="168.3" class="st7" width="4.3" height="4.3"/>
	<rect x="132.4" y="177.6" class="st7" width="4.3" height="4.3"/>
	<rect x="139.7" y="177.6" class="st7" width="4.3" height="4.3"/>
	<polyline class="st7" points="112.2,188.6 112.2,172 104.8,172 97.4,172 97.4,188.6 	"/>
	<polygon class="st6" points="104.1,172 105.6,172 105.7,188.7 104.1,188.7 	"/>
	<circle class="st3" cx="105.2" cy="128.3" r="7.1"/>
	<path class="st6" d="M108,129.6h-2.9c-0.3,0-0.6-0.3-0.6-0.6l0,0l0,0v-5.2c0-0.3,0.3-0.6,0.7-0.5c0.3,0,0.5,0.2,0.5,0.5v4.6h2.3
		c0.3,0,0.6,0.2,0.7,0.5c0,0.3-0.2,0.6-0.5,0.7C108.1,129.6,108,129.6,108,129.6z"/>
</g>
</svg>
