<svg xmlns="http://www.w3.org/2000/svg" xmlns:xlink="http://www.w3.org/1999/xlink" viewBox="0 0 35 35"><defs><style>.cls-1{fill:url(#Degradado_sin_nombre_6);}.cls-2{fill:#f8fafb;}.cls-3{fill:#fff;}</style><linearGradient id="Degradado_sin_nombre_6" x1="1380.47" y1="1267.97" x2="1415.47" y2="1267.97" gradientTransform="translate(1285.47 -1380.47) rotate(90)" gradientUnits="userSpaceOnUse"><stop offset="0" stop-color="#c20506"/><stop offset="0.1" stop-color="#b9090d"/><stop offset="0.28" stop-color="#9f1420"/><stop offset="0.5" stop-color="#76273f"/><stop offset="0.75" stop-color="#3d406a"/><stop offset="0.99" stop-color="#005b97"/></linearGradient></defs><title>Recurso 3</title><g id="Capa_2" data-name="Capa 2"><g id="Capa_1-2" data-name="Capa 1"><circle class="cls-1" cx="17.5" cy="17.5" r="17.5"/><path class="cls-2" d="M10.74,9.66l3.64,3.7-.38.36a.62.62,0,0,0-.09.87c.15.23.33.44.49.66a21.7,21.7,0,0,0,5.08,4.95.69.69,0,0,0,1-.09l.33-.35,3.63,3.7a2.43,2.43,0,0,1-2,1,7.89,7.89,0,0,1-3.68-.94,16.8,16.8,0,0,1-3.69-2.64,23.33,23.33,0,0,1-3.58-4,10.21,10.21,0,0,1-1.68-3.76,5.74,5.74,0,0,1-.09-1.8A2.46,2.46,0,0,1,10.74,9.66Z"/><path class="cls-2" d="M21.23,19.37l.47-.45a.82.82,0,0,1,1.23,0l2,2c.12.13.24.24.35.37a.92.92,0,0,1,0,1.32c-.14.16-.3.29-.46.45Z"/><path class="cls-2" d="M14.76,13,11.12,9.25c.17-.16.32-.32.5-.46a.86.86,0,0,1,1.13,0A1.78,1.78,0,0,1,13,9c.73.74,1.46,1.47,2.2,2.2a.85.85,0,0,1,0,1.33Z"/><path class="cls-3" d="M17.55,32.35h0V32h0c.42,0,.84,0,1.25-.05l0,.39C18.41,32.34,18,32.35,17.55,32.35Zm-1.37-.06q-.66-.06-1.32-.18l.07-.39q.64.12,1.29.18Zm4-.17-.07-.39c.42-.07.84-.17,1.26-.28l.1.38C21,31.94,20.59,32,20.16,32.12Zm-6.59-.32c-.43-.12-.85-.26-1.27-.42l.14-.36c.41.15.82.29,1.23.4Zm9.15-.38-.14-.37a12.52,12.52,0,0,0,1.19-.51l.17.36C23.55,31.09,23.13,31.26,22.72,31.42ZM11.48,31a13.07,13.07,0,0,1-1.18-.6l.19-.34a11.41,11.41,0,0,0,1.16.58Zm13.64-.77-.21-.34c.37-.22.74-.46,1.08-.71l.24.32C25.87,29.8,25.49,30,25.12,30.27ZM9.17,29.74a11.87,11.87,0,0,1-1.06-.81l.25-.3a12.66,12.66,0,0,0,1,.78Zm18.1-1-.26-.3c.32-.28.64-.58.93-.89l.29.27C27.92,28.11,27.6,28.42,27.27,28.71ZM7.13,28a11.87,11.87,0,0,1-.9-1l.3-.26c.28.33.57.65.88,1Zm22-1.25-.31-.25a11.21,11.21,0,0,0,.76-1.05l.33.22Q29.52,26.26,29.1,26.79ZM5.43,26c-.26-.37-.49-.75-.71-1.13l.34-.19c.21.37.45.74.69,1.09Zm25.13-1.43-.35-.19a12.55,12.55,0,0,0,.56-1.17l.36.16C31,23.77,30.77,24.18,30.56,24.57ZM4.12,23.68a13.19,13.19,0,0,1-.5-1.23L4,22.32a12.5,12.5,0,0,0,.48,1.2ZM31.6,22.12,31.22,22c.14-.41.25-.83.35-1.25l.38.09C31.85,21.27,31.74,21.7,31.6,22.12ZM3.24,21.17c-.11-.42-.19-.86-.26-1.3l.39-.06c.06.42.15.85.25,1.27Zm28.95-1.64-.4-.06c.06-.42.1-.86.12-1.29l.39,0C32.28,18.64,32.24,19.09,32.19,19.53Zm-29.36-1c0-.32,0-.64,0-.95v-.38h.4c0,.12,0,.24,0,.37,0,.3,0,.61,0,.92ZM31.9,16.89q0-.64-.12-1.29l.39,0c.06.43.1.88.12,1.32Zm-28.61-1-.39,0c.05-.44.12-.88.21-1.31l.39.08C3.41,15.08,3.34,15.51,3.29,15.94Zm28.25-1.61c-.1-.42-.22-.84-.35-1.25l.37-.12c.14.42.26.85.36,1.28ZM3.82,13.4l-.37-.11a9.44,9.44,0,0,1,.32-.94L3.89,12l.37.14-.12.31C4,12.79,3.92,13.1,3.82,13.4Zm26.9-1.53c-.17-.39-.36-.78-.57-1.16l.35-.19c.21.39.41.79.58,1.19ZM4.8,11l-.35-.18a13.3,13.3,0,0,1,.66-1.16l.33.22C5.21,10.25,5,10.63,4.8,11ZM29.48,9.6c-.24-.35-.49-.71-.76-1l.3-.25c.28.35.55.71.79,1.07ZM6.19,8.83l-.32-.25c.27-.35.56-.69.86-1L7,7.84A11.44,11.44,0,0,0,6.19,8.83ZM27.86,7.59c-.3-.31-.62-.61-.94-.89l.25-.29a11.87,11.87,0,0,1,1,.91ZM7.94,6.93l-.26-.29c.33-.3.67-.58,1-.85l.23.32C8.6,6.37,8.26,6.64,7.94,6.93Zm18-1c-.35-.25-.72-.49-1.09-.71l.2-.34c.38.23.76.47,1.11.72ZM10,5.38,9.81,5c.37-.23.76-.44,1.16-.64l.17.35C10.76,4.94,10.38,5.15,10,5.38ZM23.66,4.6c-.32-.15-.66-.29-1-.42l-.2-.07.13-.37.21.07c.34.13.69.28,1,.44ZM12.33,4.23l-.15-.37c.42-.16.84-.31,1.26-.43l.11.38C13.14,3.93,12.73,4.07,12.33,4.23Zm8.9-.51c-.42-.11-.84-.21-1.26-.28L20,3.05c.44.08.87.17,1.3.29ZM14.81,3.5l-.07-.38a11.5,11.5,0,0,1,1.31-.2l0,.39C15.66,3.36,15.23,3.42,14.81,3.5Zm3.87-.22c-.43,0-.86,0-1.29,0v-.4c.44,0,.89,0,1.33.05Z"/></g></g></svg>