<?xml version="1.0" encoding="utf-8"?>
<!-- Generator: Adobe Illustrator 23.0.0, SVG Export Plug-In . SVG Version: 6.00 Build 0)  -->
<svg version="1.1" id="Capa_1" xmlns="http://www.w3.org/2000/svg" xmlns:xlink="http://www.w3.org/1999/xlink" x="0px" y="0px"
	 viewBox="0 0 242.4 359.8" style="enable-background:new 0 0 242.4 359.8;" xml:space="preserve">
<style type="text/css">
	.st0{fill:#FFFFFF;}
	.st1{fill:#3F6952;}
	.st2{fill:none;stroke:#A6A6A6;stroke-width:2.8812;stroke-miterlimit:10;stroke-dasharray:9.5752,9.5752;}
	.st3{fill:#356952;}
	.st4{fill:none;stroke:#356952;stroke-miterlimit:10;}
	.st5{fill:#3F6952;stroke:#A6A6A6;stroke-miterlimit:10;}
</style>
<title>portal_soluciones</title>
<g>
	<g id="Capa_1-2">
		<rect x="73.1" class="st0" width="4.7" height="1.9"/>
		<rect x="82.6" y="5.6" transform="matrix(0.8431 -0.5377 0.5377 0.8431 10.0831 46.6314)" class="st0" width="4.7" height="0.9"/>
		<path class="st1" d="M130.4,261C61.2,261,4.8,204.5,4.8,135.1S61.1,9.2,130.4,9.2c29.1,0,57.2,10.2,79.8,28.6l-10.7,13.1
			C153,12.6,84.4,19.5,46.2,66S14.9,181.3,61.4,219.5c40.4,33.2,98.6,33,138.8-0.6l10.8,12.9C188.4,250.6,159.8,261,130.4,261z"/>
		<circle class="st2" cx="132.5" cy="134.8" r="103.7"/>
		<path class="st1" d="M85.8,89.2H134c3.3,0,5.9,2.7,5.9,5.9V158c0,3.3-2.7,5.9-5.9,5.9H56.4c-3.3,0-5.9-2.7-5.9-5.9V95.2
			c0-3.3,2.7-5.9,5.9-5.9L85.8,89.2"/>
		<path class="st0" d="M103.6,180.8H67c-3.2,0.2-6.1-1.9-6.8-5c-0.2-0.8-0.3-1.6-0.3-2.4c0-22,0-44,0-66c0-3.7,1.8-6.3,5.1-7.2
			c0.8-0.2,1.6-0.3,2.3-0.3h72.8c4.7,0,7.4,2.8,7.4,7.4v66c0,4.6-2.8,7.4-7.4,7.4L103.6,180.8z M103.6,177.5H140
			c2.8,0,4.1-1.3,4.1-4.1v-65.9c0-2.9-1.2-4.1-4.1-4.1c-24.2,0-48.5,0-72.7,0c-2.9,0-4.1,1.2-4.1,4.1v65.9c0,2.9,1.3,4.1,4.1,4.1
			H103.6z"/>
		<path class="st3" d="M103.6,177.5H67.3c-2.8,0-4.1-1.3-4.1-4.1v-65.9c0-2.8,1.2-4.1,4.1-4.1c24.2,0,48.5,0,72.7,0
			c2.8,0,4.1,1.2,4.1,4.1v65.9c0,2.9-1.3,4.1-4.1,4.1H103.6z M97,126.3c-0.9,0.4-1.7,0.7-2.6,1.1c-0.4,0.3-0.9,0.2-1.2-0.2
			c-0.8-0.8-1.6-1.6-2.4-2.4c-0.6-0.8-1.7-1-2.4-0.4c-0.1,0.1-0.3,0.2-0.4,0.4c-2.2,2.2-4.5,4.5-6.7,6.7c-0.8,0.6-1,1.7-0.4,2.4
			c0.1,0.2,0.2,0.3,0.4,0.4c0.8,0.8,1.6,1.6,2.4,2.4c0.2,0.2,0.4,0.5,0.4,0.6c-0.3,1-0.7,1.9-1.2,2.8c-0.1,0.1-0.4,0.2-0.7,0.2
			c-1.1,0-2.2,0-3.3,0c-1.6,0-2.2,0.6-2.2,2.2c0,3,0,6.1,0,9.1c0,1.7,0.6,2.2,2.3,2.2c1.1-0.1,2.2-0.1,3.3,0c1.4,0.2,1,1.8,1.6,2.6
			c0.1,0.2,0,0.6-0.1,0.9c0,0.1-0.2,0.2-0.3,0.4c-0.8,0.7-1.5,1.5-2.2,2.2c-0.8,0.5-0.9,1.6-0.4,2.3c0.1,0.1,0.2,0.2,0.3,0.3
			c2.3,2.3,4.6,4.6,6.9,6.9c0.6,0.7,1.7,0.8,2.4,0.2c0.1-0.1,0.1-0.1,0.2-0.2c0.6-0.5,1.1-1.1,1.7-1.7c1.3-1.3,1.3-1.3,2.9-0.6
			c0.3,0.2,0.7,0.3,1,0.4c0.5,0.1,0.6,0.4,0.6,0.9c0,1.2,0,2.4,0,3.6c-0.1,0.9,0.6,1.8,1.5,1.9c0.1,0,0.2,0,0.3,0c3.3,0,6.5,0,9.8,0
			c0.9,0.1,1.8-0.6,1.8-1.5c0-0.1,0-0.2,0-0.3c0-1.1,0-2.2,0-3.3c0-0.4,0.1-1,0.3-1.1c1-0.4,2-0.8,3-1.1c0.1,0,0.3,0.3,0.4,0.4
			c0.7,0.7,1.5,1.5,2.2,2.2c1.2,1.1,2,1.1,3.1,0c1.9-1.9,3.8-3.8,5.7-5.6c2.2-2.2,2.2-2.4,0-4.7c-0.7-0.6-1.7-1.2-1.8-2
			s0.6-1.7,0.9-2.5c0.1-0.5,0.5-0.8,1-0.7c1.2,0,2.3,0,3.4,0c1,0.1,1.9-0.5,2-1.5c0-0.2,0-0.4,0-0.5c0-3.2,0-6.4,0-9.6
			c0-1.3-0.7-1.9-2-1.9c-0.8,0-1.5,0-2.3,0c-1.8,0-1.8,0-2.5-1.6c-0.1-0.3-0.2-0.6-0.4-0.8c-0.3-0.4-0.3-0.9,0.1-1.3l0.1-0.1
			c0.9-0.8,1.7-1.6,2.5-2.5c0.7-0.6,0.8-1.6,0.2-2.3c-0.1-0.1-0.1-0.1-0.2-0.2c-2.3-2.4-4.7-4.7-7-7.1c-0.6-0.7-1.6-0.8-2.3-0.2
			c-0.1,0.1-0.1,0.1-0.2,0.2c-0.6,0.6-1.2,1.2-1.8,1.7c-1.3,1.3-1.3,1.3-3,0.6c-0.3-0.1-0.5-0.2-0.8-0.3c-0.6-0.1-0.8-0.4-0.8-1
			c0-1.1,0-2.2,0-3.3c0-1.4-0.6-2-2-2c-3.2,0-6.3,0-9.5,0c-1.4,0-2,0.6-2,2S97,124.9,97,126.3z M66.7,116.7h74v-3.2h-74V116.7z
			 M80.1,121.8c-4.4,0-8.7,0-12.9,0c-0.2,0-0.4,0.2-0.5,0.4c0,0.9,0,1.9,0,2.9h13.4V121.8z M66.7,128.7c0,1,0,1.9,0,2.8
			c0.1,0.3,0.3,0.5,0.6,0.5c3,0,5.9,0,8.9,0c0.3-0.1,0.5-0.2,0.6-0.5c0.1-0.9,0-1.8,0-2.8H66.7z M140.8,170.8h-10v3.2h10V170.8z
			 M66.7,106.8v3.2H70v-3.2H66.7z M73.5,106.8v3.2h3.2v-3.2H73.5z M83.5,110.1v-3.3h-3.3v3.2L83.5,110.1z"/>
		<path class="st1" d="M97,126.3c0-1.4,0-2.7,0-4.1s0.6-2,2-2c3.2,0,6.3,0,9.5,0c1.4,0,2,0.6,2,2c0,1.1,0,2.2,0,3.3
			c0,0.6,0.2,0.9,0.8,1c0.3,0.1,0.6,0.2,0.8,0.3c1.7,0.7,1.7,0.7,3-0.6c0.6-0.6,1.1-1.2,1.8-1.7c0.6-0.7,1.6-0.8,2.3-0.2
			c0.1,0.1,0.1,0.1,0.2,0.2c2.4,2.3,4.7,4.7,7,7.1c0.7,0.6,0.8,1.6,0.2,2.3c-0.1,0.1-0.1,0.1-0.2,0.2c-0.8,0.9-1.6,1.7-2.5,2.5
			c-0.4,0.3-0.6,0.8-0.3,1.2l0.1,0.1c0.2,0.3,0.3,0.5,0.4,0.8c0.7,1.6,0.7,1.6,2.5,1.6c0.8,0,1.5,0,2.3,0c1.3,0.1,2,0.6,2,1.9
			c0,3.2,0,6.4,0,9.6c0.1,1-0.5,1.9-1.5,2c-0.2,0-0.4,0-0.5,0c-1.1,0-2.3,0-3.4,0c-0.5-0.1-0.9,0.2-1,0.7c-0.3,0.9-1,1.8-0.9,2.5
			s1.2,1.4,1.8,2c2.2,2.2,2.2,2.4,0,4.7c-1.9,1.9-3.8,3.8-5.7,5.6c-1.1,1.1-2,1.1-3.1,0c-0.8-0.7-1.5-1.5-2.2-2.2
			c-0.1-0.1-0.3-0.4-0.4-0.4c-1,0.3-2,0.7-3,1.1c-0.2,0.1-0.3,0.7-0.3,1.1c0,1.1,0,2.2,0,3.3c0.1,0.9-0.6,1.7-1.5,1.8
			c-0.1,0-0.2,0-0.3,0c-3.3,0-6.5,0-9.8,0c-0.9,0.1-1.7-0.6-1.8-1.6c0-0.1,0-0.2,0-0.3c0-1.2,0-2.4,0-3.6c0-0.5-0.1-0.8-0.6-0.9
			c-0.3-0.1-0.7-0.2-1-0.4c-1.6-0.7-1.6-0.7-2.9,0.6c-0.6,0.6-1.1,1.1-1.7,1.7c-0.6,0.7-1.7,0.8-2.4,0.2c-0.1-0.1-0.1-0.1-0.2-0.2
			c-2.3-2.3-4.6-4.6-6.9-6.9c-0.7-0.6-0.8-1.6-0.3-2.4c0.1-0.1,0.2-0.2,0.3-0.3c0.7-0.8,1.5-1.5,2.2-2.2c0.1-0.1,0.3-0.2,0.3-0.4
			c0.1-0.3,0.2-0.8,0.1-0.9c-0.7-0.8-0.2-2.4-1.6-2.6c-1.1-0.1-2.2-0.1-3.3,0c-1.7,0-2.3-0.6-2.3-2.2c0-3,0-6.1,0-9.1
			c0-1.6,0.6-2.2,2.2-2.2c1.1,0,2.2,0,3.3,0c0.2,0,0.6-0.1,0.7-0.2c0.4-0.9,0.8-1.9,1.2-2.8c0-0.1-0.2-0.5-0.4-0.6
			c-0.8-0.8-1.6-1.6-2.4-2.4c-0.8-0.6-1-1.7-0.4-2.4c0.1-0.2,0.2-0.3,0.4-0.4c2.2-2.2,4.5-4.5,6.7-6.7c0.6-0.8,1.7-1,2.4-0.4
			c0.1,0.1,0.3,0.2,0.4,0.4c0.8,0.8,1.6,1.6,2.4,2.4c0.3,0.4,0.8,0.5,1.2,0.2C95.2,127,96.1,126.6,97,126.3z M89.7,128.2l-4.9,4.8
			c0,0,0,0,0,0.1l2,2c1.3,1.3,1.3,1.7,0.6,3.3c-0.6,1.2-1.1,2.4-1.5,3.6c-0.5,1.5-0.8,1.8-2.4,1.8h-3.3v6.8h3.7c0.9,0,1.7,0.6,2,1.4
			c0.6,1.5,1.2,2.9,1.8,4.4c0.6,0.8,0.4,2-0.4,2.6c-0.8,0.8-1.7,1.6-2.5,2.4l4.9,4.9c0.7-0.8,1.5-1.7,2.4-2.5c0.6-0.8,1.7-1,2.6-0.5
			l0,0c1.4,0.6,2.9,1.3,4.4,1.8c0.9,0.2,1.5,1.1,1.5,2.1c0,1.2,0,2.4,0,3.6h6.7c0-1.2,0-2.4,0-3.5c-0.1-1,0.5-1.9,1.5-2.1
			c1.5-0.6,2.9-1.1,4.4-1.8c0.8-0.5,1.9-0.3,2.5,0.4l2.4,2.5c1.7-1.6,3.2-3.2,4.9-4.9c-0.8-0.7-1.7-1.5-2.5-2.4
			c-0.8-0.6-1-1.7-0.4-2.6c0.6-1.4,1.2-2.8,1.7-4.2s0.9-1.6,2.3-1.6h3.5v-6.8h-3.5c-1.3,0-1.7-0.3-2.2-1.5c-0.6-1.4-1.1-2.8-1.7-4.2
			c-0.5-1.2-0.5-1.7,0.4-2.6s1.7-1.6,2.6-2.3l-4.9-4.9c-0.8,0.8-1.6,1.7-2.4,2.5c-0.6,0.8-1.7,1-2.6,0.4c-1.3-0.6-2.7-1.2-4.1-1.7
			s-1.7-0.9-1.7-2.5v-3.3h-6.7c0,1.2,0,2.4,0,3.6c0.1,0.9-0.5,1.8-1.4,2.1c-1.5,0.6-3,1.2-4.5,1.8c-0.8,0.5-1.8,0.3-2.4-0.4
			L89.7,128.2z"/>
		<path class="st0" d="M66.7,116.7v-3.2h74v3.2H66.7z"/>
		<path class="st0" d="M80.1,121.8v3.3H66.6c0-1,0-1.9,0-2.9c0.1-0.2,0.3-0.4,0.5-0.4C71.4,121.8,75.7,121.8,80.1,121.8z"/>
		<path class="st0" d="M66.6,128.7h10.1c0,1,0,1.9,0,2.8c-0.1,0.3-0.3,0.5-0.6,0.5c-2.9,0-5.9,0-8.9,0c-0.3-0.1-0.5-0.2-0.6-0.5
			C66.6,130.6,66.6,129.6,66.6,128.7z"/>
		<path class="st0" d="M140.8,170.8v3.2h-10v-3.2H140.8z"/>
		<path class="st4" d="M66.7,106.8h3.2v3.2h-3.2V106.8z"/>
		<path class="st4" d="M73.4,106.8h3.2v3.2h-3.2V106.8z"/>
		<path class="st4" d="M83.4,110h-3.2v-3.3h3.2V110z"/>
		<path class="st0" d="M123.2,106.8h3.2v3.2h-3.2V106.8z"/>
		<path class="st0" d="M130,106.8h3.2v3.2H130V106.8z"/>
		<path class="st0" d="M140,110h-3.2v-3.3h3.2V110z"/>
		<path class="st0" d="M116.1,93.3h3.3v3.2h-3.3V93.3z"/>
		<path class="st0" d="M122.8,93.3h3.2v3.2h-3.2V93.3z"/>
		<path class="st0" d="M132.8,96.5h-3.2v-3.3h3.2V96.5z"/>
		<path class="st0" d="M89.6,128.2l2.4,2.5c0.6,0.7,1.6,0.9,2.4,0.4c1.5-0.7,3-1.3,4.5-1.8c0.9-0.3,1.5-1.2,1.4-2.1
			c0-1.2,0-2.3,0-3.6h6.7v3.3c0,1.6,0.3,1.9,1.7,2.5s2.7,1.1,4.1,1.7c0.8,0.6,2,0.4,2.6-0.4c0.8-0.8,1.6-1.7,2.4-2.5l4.9,4.9
			c-0.8,0.7-1.7,1.5-2.6,2.3s-1,1.4-0.4,2.6c0.6,1.4,1.2,2.8,1.7,4.2c0.5,1.2,0.8,1.5,2.2,1.5h3.5v6.8h-3.5c-1.4,0-1.8,0.4-2.3,1.6
			s-1.1,2.8-1.7,4.2c-0.6,0.8-0.4,2,0.4,2.6c0.8,0.8,1.7,1.6,2.5,2.4c-1.7,1.7-3.3,3.3-4.9,4.9l-2.4-2.5c-0.6-0.7-1.7-0.9-2.5-0.4
			c-1.4,0.7-2.9,1.2-4.4,1.8c-1,0.2-1.6,1.2-1.5,2.1c0,1.1,0,2.3,0,3.5h-6.7c0-1.2,0-2.4,0-3.6c0.1-0.9-0.5-1.8-1.4-2
			c-1.5-0.6-2.9-1.2-4.4-1.8c-0.8-0.6-2-0.4-2.6,0.5l0,0c-0.8,0.8-1.6,1.7-2.4,2.5l-4.9-4.9c0.8-0.8,1.7-1.6,2.5-2.4
			c0.8-0.6,1-1.7,0.4-2.6c-0.6-1.4-1.2-2.9-1.8-4.4c-0.3-0.9-1.1-1.5-2-1.4h-3.7v-6.8h3.3c1.6,0,1.9-0.3,2.4-1.8
			c0.4-1.2,0.9-2.4,1.5-3.6c0.8-1.6,0.7-2-0.6-3.3l-2-2c0,0-0.1-0.1,0-0.1L89.6,128.2z M103.6,135.4c-6.5,0-11.7,5.4-11.7,11.9
			s5.4,11.7,11.9,11.7s11.7-5.3,11.7-11.8C115.5,140.6,110.2,135.4,103.6,135.4C103.7,135.4,103.7,135.4,103.6,135.4z"/>
		<path class="st1" d="M103.6,135.4c6.5,0,11.8,5.2,11.8,11.7s-5.2,11.8-11.7,11.8s-11.8-5.2-11.8-11.7l0,0
			C91.9,140.7,97.2,135.4,103.6,135.4z M95.3,146.7c-0.2,4.6,3.4,8.5,8.1,8.7c4.6,0.2,8.5-3.4,8.7-8.1s-3.4-8.5-8.1-8.7
			C99.4,138.5,95.5,142.1,95.3,146.7L95.3,146.7z"/>
		<path class="st1" d="M95.3,146.7c0.2-4.6,4.2-8.2,8.8-7.9c4.6,0.2,8.2,4.2,7.9,8.8s-4.2,8.2-8.8,7.9h-0.1
			C98.6,155.3,95.1,151.4,95.3,146.7C95.3,146.8,95.3,146.7,95.3,146.7z"/>
		<path class="st0" d="M66.2,106.8h3.2v3.2h-3.2V106.8z"/>
		<path class="st0" d="M73,106.8h3.2v3.2H73V106.8z"/>
		<path class="st0" d="M83,110h-3.2v-3.3H83V110z"/>
		<path class="st3" d="M169.4,115.9v-8.7h-18.8v-2.9h18.8v-8.7h39.1v0.5c0,6.5,0,12.9,0,19.3c0,0.4-0.1,0.5-0.5,0.5h-38.2
			L169.4,115.9z M172.3,112.9h33.2V98.5h-33.2V112.9z"/>
		<path class="st3" d="M176.7,104.2v-2.9h24.2c0.3,0,0.4,0.1,0.4,0.4c0,0.8,0,1.7,0,2.5H176.7z"/>
		<path class="st3" d="M178.1,107.2h11.5v2.9h-11.5V107.2z"/>
		<path class="st3" d="M201.2,107.2v2.9h-8.6v-2.9H201.2z"/>
		<path class="st3" d="M169.4,147.9v-8.7h-18.8v-2.9h18.8v-8.7h39.1v0.5c0,6.4,0,12.9,0,19.4c0,0.4-0.1,0.5-0.5,0.5h-38.2
			L169.4,147.9z M172.3,144.9h33.2v-14.5h-33.2V144.9z"/>
		<path class="st3" d="M176.7,136.2v-2.9h24.2c0.3,0,0.4,0.1,0.4,0.4c0,0.8,0,1.7,0,2.5H176.7z"/>
		<path class="st3" d="M178.1,139.2h11.5v2.9h-11.5V139.2z"/>
		<path class="st3" d="M201.2,139.2v2.9h-8.6v-2.9H201.2z"/>
		<path class="st3" d="M169.4,178.9v-8.7h-18.8v-2.9h18.8v-8.7h39.1v0.5c0,6.4,0,12.9,0,19.4c0,0.4-0.1,0.5-0.5,0.5h-38.2
			L169.4,178.9z M172.3,175.9h33.2v-14.5h-33.2V175.9z"/>
		<path class="st3" d="M176.7,167.2v-2.9h24.2c0.3,0,0.4,0.1,0.4,0.4c0,0.8,0,1.7,0,2.5H176.7z"/>
		<path class="st3" d="M178.1,170.2h11.5v2.9h-11.5V170.2z"/>
		<path class="st3" d="M201.2,170.2v2.9h-8.6v-2.9H201.2z"/>
	</g>
</g>
<path class="st5" d="M195.9,257.1c-18.8,9.2-39.8,14.6-62.1,15.1c-22.7,0.5-44.4-4.1-63.8-12.8l0.3,0.6l64.7,92L195.9,257.1
	L195.9,257.1z"/>
</svg>
