<?xml version="1.0" encoding="utf-8"?>
<!-- Generator: Adobe Illustrator 23.0.0, SVG Export Plug-In . SVG Version: 6.00 Build 0)  -->
<svg version="1.1" id="Capa_1" xmlns="http://www.w3.org/2000/svg" xmlns:xlink="http://www.w3.org/1999/xlink" x="0px" y="0px"
	 viewBox="0 0 250.4 345.8" style="enable-background:new 0 0 250.4 345.8;" xml:space="preserve">
<style type="text/css">
	.st0{fill:#023165;}
	.st1{fill:#FFFFFF;}
	.st2{fill:#0085B8;}
	.st3{fill:none;stroke:#023165;stroke-width:3;stroke-miterlimit:10;stroke-dasharray:9.97,9.97;}
	.st4{fill:url(#SVGID_1_);}
	.st5{fill:none;stroke:#A6A6A6;stroke-width:3;stroke-miterlimit:10;stroke-dasharray:9.97,9.97;}
	.st6{fill:#0085B8;stroke:#A1A1A1;stroke-miterlimit:10;}
</style>
<title>servicios_escolares</title>
<g>
	<g id="Capa_1-2">
		<path class="st0" d="M176.1,142.7h-23.5c-2.5,0-4.5-2-4.5-4.5v0v-34.7c0-2.5,2-4.5,4.4-4.5c0,0,0,0,0,0l46.9-0.1
			c2.5,0,4.5,2,4.5,4.5v34.7c0,2.5-2,4.5-4.5,4.5h0L176.1,142.7"/>
		<path class="st1" d="M199.4,144.5l-46.9,0.1c-3.5,0-6.3-2.8-6.3-6.3l-0.1-34.7c0-3.5,2.8-6.3,6.3-6.3l46.9-0.1
			c3.5,0,6.3,2.8,6.3,6.3l0.1,34.7C205.8,141.7,202.9,144.5,199.4,144.5z M152.5,100.9c-1.5,0-2.7,1.2-2.7,2.7v34.7
			c0,1.5,1.2,2.7,2.7,2.7l46.8-0.1c1.5,0,2.7-1.2,2.7-2.7l-0.1-34.7c0-1.5-1.2-2.7-2.7-2.7L152.5,100.9z"/>
		<path class="st0" d="M176.1,147.7h-11.8c-1.6,0-2.9,1.3-2.9,2.9c0,0,0,0,0,0v1.2h29v-1.2c0-1.6-1.3-2.9-2.9-2.9c0,0,0,0,0,0
			L176.1,147.7"/>
		<path class="st1" d="M190.4,153.7h-29c-1,0-1.8-0.8-1.8-1.8v-1.2c0-2.6,2.1-4.7,4.7-4.7h23.2c2.6,0,4.7,2.1,4.7,4.7v1.2
			C192.3,152.8,191.5,153.7,190.4,153.7C190.5,153.7,190.4,153.7,190.4,153.7z M163.4,150.1h25.1c-0.2-0.3-0.6-0.5-0.9-0.5h-23.2
			C164,149.6,163.6,149.8,163.4,150.1L163.4,150.1z"/>
		<path class="st0" d="M185.8,147.9c-5.9-1.6-4.8-7.9-4.8-7.9h-9.7c0,0,1.2,6.3-4.8,7.9H185.8z"/>
		<path class="st1" d="M185.8,149.7h-19.3c-1,0-1.8-0.8-1.8-1.8c0-0.8,0.5-1.6,1.3-1.8c4.2-1.1,3.6-5.4,3.5-5.8
			c-0.1-0.5,0.1-1.1,0.4-1.5c0.3-0.4,0.9-0.6,1.4-0.6h9.7c0.5,0,1,0.2,1.4,0.6c0.3,0.4,0.5,1,0.4,1.5c-0.1,0.5-0.7,4.7,3.5,5.8
			c1,0.3,1.5,1.2,1.3,2.2C187.3,149.2,186.6,149.7,185.8,149.7L185.8,149.7z M171.9,146.1h8.4c-0.8-1.3-1.2-2.8-1.3-4.3h-5.9
			C173.1,143.4,172.7,144.8,171.9,146.1z"/>
		<path class="st2" d="M176.1,147.7h-11.8c-1.6,0-2.9,1.3-2.9,2.9c0,0,0,0,0,0v1.2h29v-1.2c0-1.6-1.3-2.9-2.9-2.9c0,0,0,0,0,0
			L176.1,147.7"/>
		<path class="st2" d="M185.8,147.9c-5.9-1.6-4.8-7.9-4.8-7.9h-9.7c0,0,1.2,6.3-4.8,7.9H185.8z"/>
		<path class="st2" d="M176.1,142.7h-23.5c-2.5,0-4.5-2-4.5-4.5v0v-34.7c0-2.5,2-4.5,4.4-4.5c0,0,0,0,0,0l46.9-0.1
			c2.5,0,4.5,2,4.5,4.5v34.7c0,2.5-2,4.5-4.5,4.5h0L176.1,142.7"/>
		<path class="st1" d="M199.4,143.6l-46.9,0.1c-3,0-5.4-2.4-5.4-5.4c0,0,0,0,0,0l-0.1-34.7c0-3,2.4-5.4,5.4-5.4l46.9-0.1
			c3,0,5.4,2.4,5.4,5.4c0,0,0,0,0,0l0.1,34.7C204.8,141.2,202.4,143.6,199.4,143.6z M152.5,100c-2,0-3.6,1.6-3.6,3.6l0.1,34.7
			c0,2,1.6,3.6,3.6,3.6l46.9-0.1c2,0,3.6-1.6,3.6-3.6c0,0,0,0,0,0v-34.7c0-2-1.6-3.6-3.6-3.6L152.5,100z"/>
		<circle class="st1" cx="176.5" cy="138.2" r="1.6"/>
		<rect x="152" y="103" transform="matrix(1 -1.396262e-03 1.396262e-03 1 -0.1653 0.2457)" class="st1" width="47.8" height="31"/>
		<path class="st2" d="M126,80.8c0.6,0.2,1.2,0.3,1.8,0.5c5.8,1.7,9.1,7.8,7.3,13.6c-1.7,5.8-7.8,9.1-13.6,7.3
			c-5.8-1.7-9.1-7.8-7.3-13.6c1.2-4,4.5-6.9,8.6-7.6c0.2,0,0.4-0.1,0.6-0.2H126z"/>
		<path class="st2" d="M124.7,136.2h-16.7c-3.1,0-4.6-1.6-4.6-4.6c0-4.7,0-9.5,0-14.2c0-4.3,2.3-7.8,6.2-9.2c2.1-0.6,4.2-1,6.4-1.2
			c0.8-0.1,1,0.6,1.3,1.2l4.6,12.5c0.5,1.4,1,2.9,1.6,4.3c0.2,0.7,0.5,1.3,1.3,1.3s1.1-0.7,1.3-1.4c2-5.6,4-11.2,6.1-16.8
			c0.4-1.2,0.7-1.4,1.9-1.2c1.9,0.2,3.7,0.5,5.6,1c4,1.3,6.3,4.9,6.4,9.3c0,4.8,0,9.5,0,14.3c0,2.8-1.6,4.4-4.4,4.4
			C135.9,136.2,130.3,136.2,124.7,136.2z"/>
		<path class="st2" d="M57,149.5c0.4-0.5,0.8-1,1.3-1.5c0.6-0.5,1.4-0.8,2.1-1.3c1-0.6,1.3-1.8,0.7-2.7c-0.2-0.3-0.4-0.6-0.7-0.7
			c-0.7-0.4-1.4-0.8-2.1-1.2c-1-0.5-1.4-1.7-1-2.7c0-0.1,0.1-0.2,0.2-0.3c1.4-2.5,2.8-5,4.3-7.4c0.5-0.9,1.6-1.3,2.6-0.8
			c0,0,0.1,0.1,0.1,0.1c0.8,0.4,1.5,0.9,2.2,1.2c1,0.6,2.2,0.2,2.7-0.7c0.2-0.3,0.3-0.7,0.3-1c0-0.8,0-1.5,0-2.3
			c-0.1-1.2,0.7-2.2,1.9-2.3c0.2,0,0.3,0,0.5,0c2.7,0,5.4,0,8.1,0c1.1-0.2,2.2,0.6,2.3,1.8c0,0.2,0,0.3,0,0.5c0,0.8,0,1.6,0,2.3
			c0,1.1,0.9,2,2,2c0.4,0,0.7-0.1,1.1-0.3c0.7-0.4,1.3-0.8,2-1.2c0.9-0.6,2.2-0.4,2.8,0.5c0.1,0.1,0.1,0.2,0.2,0.3
			c1.4,2.4,2.8,4.8,4.2,7.3c0.7,0.9,0.5,2.1-0.4,2.8c-0.1,0.1-0.2,0.1-0.4,0.2c-0.7,0.4-1.4,0.8-2.1,1.3c-0.9,0.5-1.3,1.7-0.8,2.6
			c0.2,0.3,0.4,0.6,0.8,0.8c0.7,0.4,1.3,0.8,2,1.2c1.3,0.8,1.6,1.8,0.9,3.1c-1.3,2.4-2.7,4.8-4.2,7.2c-0.5,1-1.7,1.4-2.7,1
			c-0.1-0.1-0.2-0.1-0.3-0.2c-0.7-0.4-1.3-0.8-2-1.2c-0.9-0.6-2.1-0.3-2.7,0.6c-0.2,0.3-0.3,0.7-0.3,1c-0.1,0.8,0,1.7-0.1,2.5
			c0.1,1.1-0.7,2.1-1.8,2.2c-0.1,0-0.2,0-0.3,0c-2.8,0.1-5.7,0.1-8.5,0c-1.1,0.1-2.1-0.8-2.1-1.9c0-0.1,0-0.2,0-0.3
			c0-0.8,0-1.6,0-2.4c0-1.1-0.8-2-1.9-2c-0.4,0-0.7,0.1-1,0.3c-0.8,0.4-1.5,0.9-2.2,1.3c-0.9,0.6-2.2,0.3-2.8-0.6
			c0-0.1-0.1-0.1-0.1-0.2c-1.5-2.4-2.9-4.9-4.3-7.4C57.2,150.5,57.1,150,57,149.5z M76.1,139.2c-3.2,0-5.8,2.6-5.8,5.9
			c0,3.2,2.6,5.8,5.9,5.8s5.8-2.6,5.8-5.9C82,141.7,79.3,139.1,76.1,139.2z"/>
		<path class="st2" d="M116.8,171.5c1.7,1.6,3.1,3.1,4.6,4.5c0.4,0.4,0.8,0.9,1,1.5c0.4,1.4-0.4,2.9-1.8,3.3c-0.9,0.3-1.9,0-2.6-0.6
			c-1.5-1.4-2.9-2.8-4.3-4.3c-1.6-1.6-3.3-3.3-4.9-4.9c-1.5-1.5-1.5-3,0-4.4c3-3,6-6,9-9c0.9-1,2.3-1.3,3.5-0.6c1,0.6,1.5,1.8,1.2,3
			c-0.2,0.5-0.5,1-0.9,1.5c-1.4,1.4-2.8,2.8-4.2,4.2l0.1,0.3c0.9-0.1,1.8-0.1,2.7-0.3c12.4-2.5,20.5-9.8,24.2-21.9
			c0.5-1.8,0.9-3.1,3-3.5c1.6-0.3,2.7-1.7,3.3-3.4c1.3,5.4-4.1,17.9-9.9,23.8C134.3,167.1,125.8,171,116.8,171.5z"/>
		<path class="st2" d="M91,103c-4.2,0.2-8.2,1.4-11.9,3.3c-7.6,3.9-13.1,10.8-15.3,19c-0.2,0.6-0.4,0.9-1.1,0.9
			c-1.8,0.1-3.5,1.1-4.5,2.6l-0.5,0.7c0,0-0.1,0-0.2,0.1c1.8-17.6,16.2-31.2,33.9-32.1c-1.2-1.1-2.2-2.1-3.1-3
			c-0.6-0.6-1.2-1.1-1.7-1.7c-1.1-1-1.1-2.7-0.1-3.8s2.7-1.1,3.8-0.1c0,0,0.1,0.1,0.1,0.1c0.7,0.7,1.4,1.4,2.1,2.1l6.9,6.9
			c1.5,1.5,1.5,3,0,4.5c-3,3-6,6-9,9c-0.8,1-2.2,1.2-3.3,0.6c-1-0.5-1.6-1.6-1.4-2.8c0.2-0.7,0.5-1.3,1-1.8c1.2-1.3,2.4-2.5,3.6-3.7
			C90.5,103.6,90.7,103.3,91,103z"/>
		<path class="st2" d="M122.8,116.4c0.2-1.7,0.3-3.1,0.5-4.4c0.2-0.9,0-1.9-0.6-2.6c-0.3-0.3-0.5-0.7-0.7-1.1
			c-0.4-0.6-0.2-1.3,0.3-1.7c0.2-0.1,0.4-0.2,0.7-0.2c1-0.1,2-0.1,3,0c1,0.1,1.6,1.1,1,1.8c-2.2,2.4-0.8,5-0.9,7.6
			c-0.2,1.5-0.7,2.9-1.3,4.3c0,0-0.6,0-0.7-0.1C123.7,118.8,123.2,117.4,122.8,116.4z"/>
		<path class="st1" d="M166.9,153.7h29.7c3.8-0.2,7,2.7,7.2,6.5c0,0.2,0,0.5,0,0.7c0,12.2,0,24.4,0,36.6c0.1,3.8-2.9,7-6.7,7.1
			c-0.1,0-0.3,0-0.4,0h-58.3c-0.9,0-1.8,0-2.6-0.1c-3.4-0.5-5.9-3.4-5.9-6.8c0-10.2,0-20.3,0-30.5c0-2.1,0-4.3,0-6.4
			c-0.1-3.8,2.9-7,6.7-7.1c0.1,0,0.2,0,0.3,0L166.9,153.7z M166.9,158.3h-29.5c-2.1,0-2.9,0.8-2.9,2.9c0,11.9,0,23.8,0,35.8
			c0,2.1,0.8,2.9,3,2.9h25.3h33.6c1.4,0.2,2.6-0.7,2.9-2c0.1-0.3,0-0.6,0-1c0-11.9,0-23.7-0.1-35.6c0-2.3-0.7-3-3-3H166.9z"/>
		<path class="st2" d="M166.8,158.3h29.3c2.3,0,3,0.8,3,3c0,11.9,0,23.7,0.1,35.6c0.3,1.3-0.5,2.7-1.9,3c-0.3,0.1-0.6,0.1-1,0h-33.6
			h-25.3c-2.2,0-3-0.8-3-2.9c0-11.9,0-23.8,0-35.8c0-2.1,0.8-2.9,2.9-2.9H166.8z M150.1,193h9c0.9,0.2,1.8-0.5,2-1.4
			c0-0.2,0-0.3,0-0.5c0-0.9,0-1.7,0-2.6c0.1-2.3-1-4.5-2.9-5.7c-4.4-3.3-11.9-3.3-16.3,0.1c-1.8,1.2-2.9,3.4-2.8,5.6
			c0.1,0.9,0,1.8,0,2.7c-0.1,0.9,0.6,1.8,1.6,1.8c0.1,0,0.2,0,0.3,0H150.1z M180.1,181.4h9.7c0.9,0.1,1.8-0.5,2.2-1.3
			c0.6-1.1,0.1-2.5-1.1-3.1c-0.4-0.2-0.8-0.3-1.2-0.2h-19.1c-1.3-0.2-2.4,0.7-2.6,2c-0.2,1.3,0.7,2.4,2,2.6c0.2,0,0.4,0,0.6,0
			L180.1,181.4z M180,186h-9.5c-1.3-0.1-2.4,0.8-2.6,2.1c-0.1,1.3,0.8,2.4,2.1,2.6c0.2,0,0.4,0,0.5,0h19.1c1.3,0.1,2.4-0.8,2.6-2.1
			c0.1-1.3-0.8-2.4-2.1-2.6c-0.2,0-0.4,0-0.5,0H180z M180,172.1h9.8c1,0.1,1.9-0.5,2.2-1.4c0.5-1.2,0-2.5-1.2-3
			c-0.4-0.2-0.7-0.2-1.1-0.2c-2.7,0-5.4,0.1-8.2,0.1c-3.7,0-7.4,0-11.1,0c-1.3-0.1-2.4,0.9-2.5,2.2c-0.1,1.3,0.9,2.4,2.2,2.5
			c0.1,0,0.2,0,0.3,0L180,172.1z M155.6,170.9c0-3.1-2.5-5.6-5.7-5.6c-3.1,0-5.6,2.5-5.6,5.7s2.5,5.6,5.7,5.6c0,0,0,0,0,0
			c3.1,0,5.6-2.5,5.7-5.6C155.7,171,155.7,171,155.6,170.9L155.6,170.9z"/>
		<path class="st1" d="M150.1,193H141c-0.9,0.1-1.8-0.6-1.9-1.5c0-0.1,0-0.2,0-0.3c0-0.9,0-1.8,0-2.7c-0.1-2.2,0.9-4.4,2.8-5.6
			c4.4-3.4,11.9-3.4,16.3-0.1c1.9,1.3,3,3.4,2.9,5.7c-0.1,0.9,0,1.7,0,2.6c0.1,0.9-0.6,1.8-1.5,1.9c-0.2,0-0.3,0-0.5,0L150.1,193z"
			/>
		<path class="st1" d="M180.2,181.4h-9.5c-1.3,0.2-2.4-0.7-2.6-2c-0.2-1.3,0.7-2.4,2-2.6c0.2,0,0.4,0,0.6,0h19.1
			c1.3-0.1,2.4,0.8,2.5,2.1c0,0.4,0,0.9-0.2,1.2c-0.4,0.9-1.3,1.4-2.2,1.3L180.2,181.4z"/>
		<path class="st1" d="M180.1,186h9.6c1.3-0.1,2.4,0.8,2.6,2.1c0.1,1.3-0.8,2.4-2.1,2.6c-0.2,0-0.4,0-0.5,0h-19.1
			c-1.3,0.1-2.4-0.8-2.6-2.1c-0.1-1.3,0.8-2.4,2.1-2.6c0.2,0,0.4,0,0.5,0H180.1z"/>
		<path class="st1" d="M180.1,172.2h-9.6c-1.3,0.1-2.4-0.9-2.5-2.2c-0.1-1.3,0.9-2.4,2.2-2.5c0.1,0,0.2,0,0.3,0c3.7,0,7.4,0,11.1,0
			c2.7,0,5.5-0.1,8.2-0.1c1.3-0.1,2.4,0.8,2.5,2.1c0,0.4,0,0.8-0.2,1.1c-0.3,0.9-1.2,1.5-2.2,1.4L180.1,172.2z"/>
		<path class="st1" d="M155.7,170.9c0,3.1-2.5,5.7-5.6,5.7s-5.7-2.5-5.7-5.6s2.5-5.7,5.6-5.7c0,0,0,0,0,0
			C153.2,165.3,155.7,167.8,155.7,170.9z"/>
		<rect x="78.1" class="st1" width="4.7" height="1.9"/>
		<rect x="87.6" y="5.6" transform="matrix(0.8431 -0.5377 0.5377 0.8431 10.8707 49.3005)" class="st1" width="4.7" height="0.9"/>
		<circle class="st3" cx="138" cy="134.8" r="107.9"/>
		
			<linearGradient id="SVGID_1_" gradientUnits="userSpaceOnUse" x1="219" y1="131.61" x2="5" y2="131.61" gradientTransform="matrix(1 0 0 -1 0 266)">
			<stop  offset="7.000000e-02" style="stop-color:#FFFFFF"/>
			<stop  offset="0.51" style="stop-color:#C20506"/>
			<stop  offset="0.56" style="stop-color:#B9090D"/>
			<stop  offset="0.65" style="stop-color:#9F1420"/>
			<stop  offset="0.75" style="stop-color:#76273F"/>
			<stop  offset="0.88" style="stop-color:#3D406A"/>
			<stop  offset="1" style="stop-color:#005B97"/>
		</linearGradient>
		<path class="st4" d="M135.4,264.8C63.5,264.8,5,206.3,5,134.4S63.5,4,135.4,4c30.2,0,59.4,10.5,82.7,29.6L207,47.1
			C158.8,7.5,87.6,14.6,48.1,62.8S15.5,182.2,63.7,221.7c41.9,34.4,102.4,34.1,144-0.6l11.2,13.3C195.5,254,165.9,264.8,135.4,264.8
			z"/>
		<circle class="st5" cx="138" cy="134.8" r="107.9"/>
		<path class="st2" d="M135.4,264.8C63.5,264.8,5,206.3,5,134.4S63.5,4,135.4,4c30.2,0,59.4,10.5,82.7,29.6L207,47.1
			C158.8,7.5,87.6,14.6,48.1,62.8S15.5,182.2,63.7,221.7c41.9,34.4,102.4,34.1,144-0.6l11.2,13.3C195.5,254,165.9,264.8,135.4,264.8
			z"/>
	</g>
</g>
<path class="st6" d="M180.2,266.4c-15.9,7.3-33.5,11.4-52.1,11.4c-19,0-36.9-4.3-53-11.9l0.2,0.5l52.3,78.1L180.2,266.4L180.2,266.4
	z"/>
</svg>
