<?xml version="1.0" encoding="utf-8"?>
<!-- Generator: Adobe Illustrator 23.0.0, SVG Export Plug-In . SVG Version: 6.00 Build 0)  -->
<svg version="1.1" id="Capa_1" xmlns="http://www.w3.org/2000/svg" xmlns:xlink="http://www.w3.org/1999/xlink" x="0px" y="0px"
	 viewBox="0 0 248.4 356.8" style="enable-background:new 0 0 248.4 356.8;" xml:space="preserve">
<style type="text/css">
	.st0{fill:#023165;}
	.st1{fill:none;stroke:#A6A6A6;stroke-width:2.475;stroke-miterlimit:10;stroke-dasharray:9.8703,9.8703;}
	.st2{fill:none;}
	.st3{fill:#023165;stroke:#A1A1A1;stroke-miterlimit:10;}
</style>
<title>academia</title>
<g>
	<g id="Capa_1-2">
		<path class="st0" d="M133.3,262.5c-71.2,0-129.1-57.9-129.1-129.1S62.1,4.3,133.3,4.3c29.9,0,58.8,10.4,81.9,29.3l-11,13.4
			C156.4,7.8,86,14.7,46.8,62.5S14.6,180.7,62.3,219.8c41.5,34.1,101.4,33.8,142.6-0.6l11.1,13.2
			C192.8,251.8,163.5,262.4,133.3,262.5z"/>
		<circle class="st1" cx="132.9" cy="132.8" r="106.9"/>
		<g>
			<g>
				<g>
					<path class="st0" d="M152.3,118.3l-16.3-0.1c-0.5,0-0.9-0.4-0.9-0.9l0.2-24.3c0-0.4,0.3-0.7,0.7-0.8l16.4-3.8
						c0.3-0.1,0.5,0,0.7,0.2s0.3,0.4,0.3,0.7l-0.2,28.2C153.2,117.9,152.8,118.3,152.3,118.3z M136.8,116.4l14.6,0.1l0.2-26.3
						L137,93.7L136.8,116.4z"/>
				</g>
				<g>
					<path class="st0" d="M136,118.1h-6.5c-0.5,0-0.9-0.4-0.9-0.9l0.1-12.9c0-0.5,0.4-0.9,0.9-0.9h6.5c0.5,0,0.9,0.4,0.9,0.9
						l-0.1,12.9C136.8,117.8,136.4,118.2,136,118.1z M130.3,116.4h4.8l0.1-11.1h-4.8L130.3,116.4z"/>
				</g>
				<g>
					<polygon class="st0" points="159.7,117.5 152.2,117.4 152.3,101.4 159.7,105.7 					"/>
				</g>
				<g>
					
						<rect x="143.7" y="102" transform="matrix(6.790911e-03 -1 1 6.790911e-03 25.5227 261.6015)" class="st0" width="1.5" height="31.9"/>
					<path class="st0" d="M160.4,116.4c0.5,0,0.9,0.4,0.9,0.9v1.5c0,0.5-0.4,0.9-0.9,0.9l-31.9-0.2c-0.5,0-0.9-0.4-0.9-0.9v-1.5
						c0-0.5,0.4-0.9,0.9-0.9"/>
				</g>
				<g>
					
						<rect x="143.7" y="102.4" transform="matrix(6.790911e-03 -1 1 6.790911e-03 23.9736 263.0416)" class="st0" width="1.5" height="34.2"/>
					<path class="st0" d="M161.6,121.3l-34.2-0.2c-0.5,0-0.9-0.4-0.9-0.9v-1.5c0-0.5,0.4-0.9,0.9-0.9l34.2,0.2
						c0.5,0,0.9,0.4,0.9,0.9v1.5C162.4,120.9,162,121.3,161.6,121.3z"/>
				</g>
				<g>
					<line class="st2" x1="152.3" y1="117.4" x2="136" y2="117.3"/>
					
						<rect x="143.7" y="109.2" transform="matrix(6.790911e-03 -1 1 6.790911e-03 25.8322 260.6649)" class="st0" width="0.9" height="16.3"/>
				</g>
				<polyline class="st0" points="152.7,117.4 151.9,117.4 152.1,89.7 136.6,93.3 136.4,117.3 135.5,117.3 135.7,92.6 152.9,88.7 
									"/>
				<g>
					
						<rect x="143.7" y="102" transform="matrix(6.790911e-03 -1 1 6.790911e-03 25.5227 261.6015)" class="st0" width="1.5" height="31.9"/>
				</g>
				<g>
					<path class="st0" d="M134.9,106.6"/>
				</g>
				<g>
					
						<rect x="133.4" y="110" transform="matrix(6.790911e-03 -1 1 6.790911e-03 22.4921 244.1504)" class="st0" width="1.5" height="1.5"/>
				</g>
				<g>
					
						<rect x="138" y="100.5" transform="matrix(6.790911e-03 -1 1 6.790911e-03 36.5562 240.8097)" class="st0" width="3" height="3"/>
				</g>
				<g>
					
						<rect x="143.1" y="100.6" transform="matrix(6.790911e-03 -1 1 6.790911e-03 41.5209 246.009)" class="st0" width="3" height="3"/>
				</g>
				<g>
					
						<rect x="138" y="105.5" transform="matrix(6.790911e-03 -1 1 6.790911e-03 31.556 245.776)" class="st0" width="3" height="3"/>
				</g>
				<g>
					
						<rect x="143" y="105.6" transform="matrix(6.790911e-03 -1 1 6.790911e-03 36.4219 250.8745)" class="st0" width="3" height="3"/>
				</g>
				<g>
					
						<rect x="148" y="100.6" transform="matrix(6.790911e-03 -1 1 6.790911e-03 46.3878 250.9093)" class="st0" width="3" height="3"/>
				</g>
				<g>
					
						<rect x="147.9" y="105.6" transform="matrix(6.790911e-03 -1 1 6.790911e-03 41.2889 255.775)" class="st0" width="3" height="3"/>
				</g>
				<g>
					<polyline class="st0" points="134.9,114.8 133.4,114.8 133.4,113.3 					"/>
				</g>
				<g>
					<polyline class="st0" points="155.2,115 153.7,115 153.7,113.4 					"/>
				</g>
				<g>
					<polyline class="st0" points="146.4,117.3 146.5,111.4 143.8,111.4 141.2,111.4 141.2,117.3 					"/>
				</g>
				<g>
					<circle class="st0" cx="144.1" cy="95.7" r="2.6"/>
				</g>
				<g>
					<g>
						<path class="st0" d="M145.1,96.2H144c-0.1,0-0.2-0.1-0.2-0.2v-1.8c0-0.1,0.1-0.2,0.2-0.2c0.1,0,0.2,0.1,0.2,0.2v1.6h0.8
							c0.1,0,0.2,0.1,0.2,0.2C145.3,96.1,145.2,96.2,145.1,96.2z"/>
					</g>
				</g>
			</g>
			<path class="st0" d="M158.7,61.6c2.7,1.1,5.5,2.2,8.2,3.4c2.2,0.9,2.8,2.5,1.9,4.7c-0.7,1.8-1.4,3.5-2.2,5.2
				c-0.3,0.7-0.2,1,0.4,1.4c3.5,2.5,6.6,5.5,9,9.1c0.5,0.7,0.9,0.8,1.7,0.5c1.7-0.7,3.4-1.4,5.1-2.1c2.1-0.8,3.6-0.2,4.5,1.8
				c1.1,2.4,2.1,4.9,3,7.3c0.8,2,0.1,3.5-1.8,4.4c-1.7,0.8-3.5,1.5-5.2,2.1c-0.8,0.3-1.1,0.8-0.9,1.6c0.7,4.2,0.7,8.3-0.1,12.5
				c-0.1,0.7,0,1.2,0.8,1.5c1.7,0.6,3.3,1.3,5,2.1c2.3,1,2.9,2.6,2,4.9s-1.9,4.6-2.9,6.8c-1,2.3-2.5,2.8-4.8,1.9
				c-1.7-0.7-3.3-1.3-5-2.1c-0.8-0.4-1.2-0.3-1.7,0.4c-2.4,3.5-5.4,6.5-9,8.9c-0.7,0.5-0.8,0.9-0.4,1.6c0.8,1.7,1.4,3.4,2.1,5.1
				c0.8,2,0.3,3.6-1.5,4.4c-2.6,1.2-5.2,2.2-7.8,3.2c-1.9,0.7-3.4-0.1-4.2-2c-0.7-1.7-1.4-3.4-2.1-5.1c-0.3-0.8-0.7-1.1-1.6-1
				c-4.2,0.8-8.4,0.7-12.6-0.1c-0.7-0.1-1.1,0-1.4,0.8c-0.6,1.7-1.3,3.3-2.1,5c-1,2.4-2.6,3-5,2c-2.3-0.9-4.6-1.9-6.8-2.9
				c-2.1-0.9-2.7-2.5-1.9-4.6c0.7-1.8,1.5-3.5,2.2-5.3c0.1-0.4,0-1.1-0.3-1.3c-3.6-2.6-6.6-5.7-9.2-9.3c-0.2-0.3-0.9-0.5-1.3-0.3
				c-1.7,0.6-3.4,1.3-5.1,2c-2.3,0.9-3.9,0.3-4.9-2c-0.9-2.2-1.8-4.4-2.7-6.6c-1-2.5-0.4-4,2.1-5c1.6-0.7,3.2-1.3,4.9-2
				c0.7-0.3,1-0.6,0.9-1.5c-0.7-4.3-0.7-8.5,0.1-12.8c0.1-0.7,0-1.1-0.7-1.3c-1.7-0.6-3.4-1.4-5.1-2.1c-2.3-1-2.9-2.5-2-4.8
				c0.9-2.4,1.9-4.7,2.9-7.1c0.9-2,2.5-2.7,4.5-1.9c1.8,0.7,3.6,1.5,5.4,2.2c0.4,0.1,1.1,0,1.3-0.2c2.7-3.8,6-7,10-9.7
				c-0.7-1.6-1.3-3.2-1.9-4.8c-0.2-0.5-0.4-1-0.6-1.5c-0.7-2.1-0.1-3.7,2-4.6c2.8-1.1,5.6-2.2,8.4-3.3c0.2,0,0.4,0,0.5,0
				c1.6,0.4,2.5,1.6,3,3.1c0.5,1.5,1.3,3,1.8,4.5c0.3,0.7,0.6,1,1.4,0.8c4.2-0.7,8.5-0.8,12.7,0.1c0.8,0.2,1.2-0.1,1.5-0.8
				c0.6-1.6,1.4-3.1,2-4.7c0.5-1.4,1.4-2.4,2.8-2.7C158.1,61.6,158.4,61.6,158.7,61.6z M146.2,134.2c15-0.4,27.5-13.6,26-29.8
				c-1.3-13.8-13.7-25.9-29.9-24.4c-13.7,1.3-25.9,13.5-24.3,30C119.4,124.1,131.8,134.8,146.2,134.2z"/>
			<path class="st0" d="M137.7,200.2c-0.7-0.3-1.5-0.5-2.2-0.8c-1.6-0.5-1.9-1.1-1.6-2.7c0.1-0.4,0.2-0.8,0.3-1.2s0.2-0.8,0.3-1
				c-1.8-1.4-3.6-2.7-5.4-4.1c-3.9,1.8-4.1,1.8-5,0c-0.6-1.1-2-2.3-1.3-3.6c0.6-1.1,2-1.7,2.8-2.4c-0.2-2-0.4-3.9-0.5-5.8
				c0-0.8-0.4-0.9-1-1.1c-3.2-0.8-3.4-1.1-2.5-4.4c0.8-2.9,1.1-3,4-2.2c0.4,0.1,0.9,0.2,1.1,0.2c1.4-1.8,2.7-3.5,4.1-5.3
				c-0.3-0.6-0.8-1.4-1.2-2.2c-0.6-1.1-0.3-2,0.7-2.7c0.3-0.2,0.6-0.4,0.9-0.5c3-1.7,3.2-1.7,4.9,1.2c0.4,0.7,0.8,0.9,1.6,0.7
				c1.4-0.3,2.9-0.5,4.4-0.6c0.9,0,1.3-0.2,1.5-1.2c0.7-3,1.2-3.3,4.2-2.5c2.9,0.8,3.1,1.1,2.3,4c-0.1,0.4-0.2,0.8-0.2,1.1
				c1.8,1.4,3.5,2.8,5.3,4.2c3.7-1.9,4-1.9,5.2,0.1c2.4,4,1.5,3.9-1.8,5.8c0.3,2.2,0.5,4.4,0.8,6.7c0.6,0.2,1.4,0.4,2.1,0.6
				c1.4,0.4,1.9,1.2,1.6,2.6c-0.1,0.3-0.2,0.6-0.2,0.9c-0.8,2.9-1,3.7-4.5,2.6c-0.4-0.1-1.1,0-1.3,0.3c-1.2,1.5-2.4,3.2-3.6,4.8
				c2,4,2,4-1.5,5.9c-1.7,0.9-2.3,1.5-4.4-2.5c-2.1,0.2-4.2,0.4-6.3,0.6c-0.3,0-0.6,0.6-0.7,0.9c-0.4,1.1-0.5,2.4-1.7,3.1
				C138.6,200.2,138.1,200.2,137.7,200.2z M142.3,170.9c-4.7,0-8.3,3.5-8.3,8.1c0,4.5,3.4,8,8,8.1s8.2-3.7,8.2-8.4
				C150.3,174.5,146.6,170.9,142.3,170.9z"/>
			<path class="st0" d="M103.3,181.1c-3.2,1.1-6,2.1-8.8,3.1c-0.3,0.1-0.6,0.6-0.6,1c-0.1,1,0,2.1-0.1,3.1c-0.1,1.6-1,2.5-2.5,2.5
				s-3.1,0-4.6,0c-1.4-0.1-2.3-1-2.4-2.4c-0.1-1.1,0.1-2.3,0-3.4c0-0.3-0.4-0.8-0.8-1c-2.7-1.1-5.4-2.1-8.1-3.2
				c0-0.2-0.1-0.4-0.1-0.6c-0.7,0.8-1.4,1.7-2.2,2.5c-1.7,1.7-3,1.6-4.6,0c-0.8-0.8-1.7-1.7-2.5-2.5c-1.2-1.3-1.2-2.7,0-4.1
				c0.9-0.9,1.8-1.8,2.5-2.4c-1.2-3.1-2.4-6-3.7-9.1c-0.9,0-2,0-3.1,0c-2.1-0.1-3.2-1.1-3.2-3.2c0-1.2,0-2.3,0-3.5
				c0.1-2,1.2-3,3.2-3c1.1,0,2.2,0,3.2,0c1.3-3,2.5-5.9,3.9-9.2c-0.6-0.6-1.6-1.3-2.4-2.2c-1.3-1.4-1.3-2.8,0-4.1
				c0.9-0.9,1.8-1.8,2.7-2.7c1.3-1.3,2.7-1.3,4.1,0c0.7,0.7,1.3,1.5,2.1,2.1c0.3,0.2,1,0.3,1.3,0.2c2.5-0.9,4.9-1.9,7.3-2.9
				c0.4-0.2,0.8-0.7,0.8-1.1c0.1-1,0-2,0.1-3c0.1-1.7,0.9-2.6,2.6-2.7c1.5-0.1,3.1,0,4.6,0c1.4,0.1,2.3,1,2.4,2.3
				c0.1,1.2-0.1,2.3,0,3.5c0,0.3,0.4,0.8,0.7,1c2.7,1.1,5.4,2.1,8.6,3.4c0.4-0.4,1.1-1.4,1.9-2.2c1.7-1.6,2.9-1.6,4.5,0.1
				c0.8,0.8,1.7,1.7,2.5,2.5c1.2,1.3,1.2,2.8,0,4.1c-0.9,0.9-1.8,1.7-2.5,2.4c1.3,3.1,2.4,6,3.7,9.2c0.8,0,1.9,0,3.1,0
				c2.2,0.1,3.2,1.1,3.2,3.3c0,1.2,0,2.3,0,3.5c-0.1,1.8-1.1,2.8-2.9,2.9c-1.2,0-2.4,0-3.5,0c-1.3,3-2.5,5.9-4,9.3
				c0.6,0.5,1.6,1.2,2.5,2.1c1.4,1.4,1.4,2.7,0,4.1c-0.9,0.9-1.8,1.8-2.7,2.7c-1.4,1.3-2.7,1.3-4.2,0
				C104.7,182.7,103.9,181.7,103.3,181.1z M101.1,160.4c0.2-6.2-4.7-11.9-11.6-11.9c-6.8,0-11.5,5.1-11.8,11.3s4.6,12,11.4,12.2
				C96.1,172,101.2,166.5,101.1,160.4z"/>
			<path class="st0" d="M86.5,152.3c-0.1-0.3-0.2-0.5-0.4-0.8c0.3,0,0.4,0,0.6,0c0.9,0,1.8,0.1,2.6,0c1.1-0.1,1.9,0.3,2.4,1.2
				c0.1,0.1,0.2,0.2,0.3,0.2c0.8,0.3,1.2,0.8,1.2,1.6c0,0.7-0.1,1.5-0.2,2.2c0,0.2,0.1,0.3,0.1,0.5c0,0.1,0.1,0.3,0.1,0.4
				c-0.2,0.7-0.2,1.6-0.6,2c-0.8,0.8-0.8,1.7-0.9,2.7c0,0.4,0.2,0.6,0.5,0.8c1.4,0.8,2.7,1.6,4.1,2.5c-1.7,2.2-3.8,3.5-6.5,3.9
				c-0.2-0.9-0.4-1.8-0.6-2.7c0-0.1,0.1-0.3,0.2-0.5s0.2-0.3,0.3-0.5c0.2-0.4,0.3-0.8-0.1-1.1s-0.9-0.3-1.3-0.2s-0.6,0.5-0.5,0.9
				c0,0.1,0,0.1,0.1,0.2c0.9,1.3,0.1,2.6-0.1,3.9c-2-0.1-4.7-1.4-6.4-3.8c0.9-0.6,1.8-1.1,2.7-1.7c0.3-0.2,0.6-0.3,0.9-0.5
				s0.8-0.4,0.9-0.6c0.1-0.5,0-1.1-0.1-1.7c0-0.3-0.2-0.6-0.3-1c-0.1-0.2-0.3-0.4-0.4-0.6c-0.2-0.7-0.4-1.4-0.6-2.1
				c0-0.1,0-0.3,0.1-0.3c0.5-0.2,0.3-0.6,0.3-0.9C84.9,154.6,85.1,153.2,86.5,152.3z"/>
		</g>
	</g>
</g>
<path class="st3" d="M193.4,258.7c-18.9,9-40,14.2-62.3,14.5c-22.7,0.3-44.3-4.5-63.7-13.3l0.3,0.6l63.9,92.6L193.4,258.7
	L193.4,258.7z"/>
</svg>
