<svg xmlns="http://www.w3.org/2000/svg" xmlns:xlink="http://www.w3.org/1999/xlink" viewBox="0 0 242.43 264.78"><defs><style>.cls-1{fill:#023165;}.cls-2{fill:#fff;}.cls-3{fill:#0085b8;}.cls-4,.cls-6{fill:none;stroke-miterlimit:10;stroke-width:3px;stroke-dasharray:9.97 9.97;}.cls-4{stroke:#023165;}.cls-5{fill:url(#Degradado_sin_nombre_52);}.cls-6{stroke:#a6a6a6;}</style><linearGradient id="Degradado_sin_nombre_52" x1="213.99" y1="134.4" x2="0" y2="134.4" gradientUnits="userSpaceOnUse"><stop offset="0.07" stop-color="#fff"/><stop offset="0.51" stop-color="#c20506"/><stop offset="0.56" stop-color="#b9090d"/><stop offset="0.65" stop-color="#9f1420"/><stop offset="0.75" stop-color="#76273f"/><stop offset="0.88" stop-color="#3d406a"/><stop offset="1" stop-color="#005b97"/></linearGradient></defs><title>servicios_escolares</title><g id="Capa_2" data-name="Capa 2"><g id="Capa_1-2" data-name="Capa 1"><path class="cls-1" d="M171.09,142.74l-23.5,0a4.49,4.49,0,0,1-4.5-4.48l0-34.67a4.47,4.47,0,0,1,4.48-4.49l46.86-.07a4.5,4.5,0,0,1,4.5,4.49l0,34.66a4.49,4.49,0,0,1-4.48,4.5l-23.36,0"/><path class="cls-2" d="M194.45,144.53l-46.86.06a6.31,6.31,0,0,1-6.31-6.3l-.05-34.66a6.32,6.32,0,0,1,6.3-6.32l46.86-.06a6.31,6.31,0,0,1,6.31,6.3l.05,34.66A6.32,6.32,0,0,1,194.45,144.53Zm-46.92-43.59a2.68,2.68,0,0,0-2.67,2.68l0,34.67a2.68,2.68,0,0,0,2.68,2.67l46.85-.06a2.69,2.69,0,0,0,2.68-2.68l-.05-34.67a2.68,2.68,0,0,0-2.68-2.67Z"/><path class="cls-1" d="M171.07,147.74l-11.77,0a2.9,2.9,0,0,0-2.9,2.91v1.24l29,0v-1.24a2.89,2.89,0,0,0-2.91-2.9H171.07"/><path class="cls-2" d="M185.42,153.68l-29,0a1.81,1.81,0,0,1-1.81-1.81v-1.24a4.74,4.74,0,0,1,4.72-4.73l23.2,0a4.73,4.73,0,0,1,4.73,4.72v1.23A1.81,1.81,0,0,1,185.42,153.68Zm-27-3.59,25.05,0a1.1,1.1,0,0,0-.93-.51l-23.19,0A1.08,1.08,0,0,0,158.38,150.09Z"/><path class="cls-1" d="M180.75,147.93c-5.95-1.62-4.8-7.88-4.8-7.88l-9.69,0s1.16,6.25-4.78,7.88Z"/><path class="cls-2" d="M180.75,149.74l-19.26,0a1.81,1.81,0,0,1-.49-3.56c4.16-1.15,3.56-5.35,3.47-5.82a1.86,1.86,0,0,1,.4-1.49,1.82,1.82,0,0,1,1.39-.65H176a1.81,1.81,0,0,1,1.39.65,1.79,1.79,0,0,1,.39,1.49c-.07.46-.67,4.67,3.49,5.8a1.81,1.81,0,0,1-.47,3.56Zm-13.83-3.61h8.39a9.2,9.2,0,0,1-1.27-4.25h-5.87A9.2,9.2,0,0,1,166.92,146.13Z"/><path class="cls-3" d="M171.07,147.74l-11.77,0a2.9,2.9,0,0,0-2.9,2.91v1.24l29,0v-1.24a2.89,2.89,0,0,0-2.91-2.9H171.07"/><path class="cls-3" d="M180.75,147.93c-5.95-1.62-4.8-7.88-4.8-7.88l-9.69,0s1.16,6.25-4.78,7.88Z"/><path class="cls-3" d="M171.09,142.74l-23.5,0a4.49,4.49,0,0,1-4.5-4.48l0-34.67a4.47,4.47,0,0,1,4.48-4.49l46.86-.07a4.5,4.5,0,0,1,4.5,4.49l0,34.66a4.49,4.49,0,0,1-4.48,4.5l-23.36,0"/><path class="cls-2" d="M194.45,143.62l-46.86.06a5.39,5.39,0,0,1-5.4-5.39l-.05-34.67a5.4,5.4,0,0,1,5.39-5.4l46.86-.06a5.39,5.39,0,0,1,5.4,5.39l.05,34.66A5.42,5.42,0,0,1,194.45,143.62ZM147.53,100a3.6,3.6,0,0,0-3.58,3.59l.05,34.67a3.59,3.59,0,0,0,3.59,3.58l46.86-.07a3.57,3.57,0,0,0,3.57-3.58l0-34.67a3.59,3.59,0,0,0-3.59-3.58Z"/><circle class="cls-2" cx="171.5" cy="138.23" r="1.58"/><rect class="cls-2" x="146.97" y="103" width="47.79" height="30.97" transform="translate(-0.16 0.23) rotate(-0.08)"/><path class="cls-3" d="M121,80.77c.59.15,1.18.3,1.77.47a10.94,10.94,0,1,1-5.06-.29c.19,0,.36-.12.55-.18Z"/><path class="cls-3" d="M119.68,136.2l-16.73,0c-3.06,0-4.62-1.56-4.62-4.63,0-4.73,0-9.46,0-14.19,0-4.29,2.26-7.81,6.18-9.17A35.92,35.92,0,0,1,110.9,107c.84-.13,1,.63,1.27,1.24l4.56,12.47c.52,1.44,1,2.88,1.57,4.31.24.66.47,1.34,1.35,1.33s1.07-.72,1.31-1.37q3-8.39,6.1-16.79c.45-1.24.68-1.38,1.94-1.15a40.71,40.71,0,0,1,5.56,1c4,1.31,6.34,4.89,6.38,9.35q.06,7.14,0,14.29c0,2.8-1.65,4.42-4.45,4.43C130.9,136.2,125.29,136.19,119.68,136.2Z"/><path class="cls-3" d="M52,149.49A9.91,9.91,0,0,1,53.26,148c.63-.5,1.41-.81,2.09-1.26a2,2,0,0,0,0-3.46c-.68-.44-1.42-.8-2.11-1.23a2,2,0,0,1-.8-2.94q2.1-3.75,4.29-7.45a1.91,1.91,0,0,1,2.72-.73c.75.39,1.46.86,2.21,1.24a2,2,0,0,0,3-1.74c0-.75,0-1.51,0-2.25A2.1,2.1,0,0,1,67,125.87c2.71,0,5.41,0,8.12,0a2.06,2.06,0,0,1,2.33,2.27c0,.78,0,1.57,0,2.34a2,2,0,0,0,3.08,1.67c.69-.37,1.35-.8,2-1.17a2,2,0,0,1,2.93.79c1.42,2.41,2.83,4.83,4.2,7.28a2,2,0,0,1-.79,3c-.69.43-1.43.8-2.11,1.25a1.94,1.94,0,0,0,0,3.39c.65.44,1.35.78,2,1.19,1.34.81,1.63,1.78.88,3.12q-2,3.63-4.15,7.21a2,2,0,0,1-3,.76c-.68-.37-1.34-.8-2-1.16a1.94,1.94,0,0,0-3,1.61c-.09.83,0,1.69-.06,2.54a2,2,0,0,1-2.11,2.17c-2.84.06-5.68.07-8.51,0a2,2,0,0,1-2.13-2.18c0-.81,0-1.63,0-2.45a1.94,1.94,0,0,0-2.93-1.7c-.76.38-1.46.86-2.21,1.25a2,2,0,0,1-2.86-.75c-1.45-2.44-2.86-4.9-4.26-7.36A10.17,10.17,0,0,1,52,149.49Zm19.1-10.34a5.86,5.86,0,0,0,.05,11.72,5.86,5.86,0,1,0-.05-11.72Z"/><path class="cls-3" d="M111.8,171.5c1.66,1.64,3.13,3.06,4.55,4.53a4.26,4.26,0,0,1,1,1.52,2.68,2.68,0,0,1-4.42,2.69c-1.47-1.39-2.89-2.84-4.32-4.27q-2.46-2.44-4.91-4.9c-1.48-1.49-1.49-3,0-4.44q4.47-4.51,9-9a2.74,2.74,0,0,1,3.47-.58,2.61,2.61,0,0,1,1.2,3,4,4,0,0,1-.93,1.46c-1.38,1.42-2.8,2.8-4.21,4.2l.09.25c.9-.1,1.82-.13,2.71-.31,12.38-2.53,20.52-9.81,24.21-21.89.54-1.78.88-3.09,3-3.46,1.64-.28,2.72-1.7,3.3-3.37,1.26,5.39-4.07,17.94-9.93,23.76A36.25,36.25,0,0,1,111.8,171.5Z"/><path class="cls-3" d="M86,103a28.77,28.77,0,0,0-11.89,3.32,30,30,0,0,0-15.31,19c-.18.62-.41.89-1.1.94a6.12,6.12,0,0,0-4.52,2.59l-.5.72s-.06,0-.2.05A35.88,35.88,0,0,1,86.37,97.49c-1.19-1.14-2.17-2.08-3.13-3-.59-.57-1.17-1.14-1.73-1.73a2.71,2.71,0,1,1,3.85-3.81c.71.68,1.39,1.38,2.08,2.07l6.93,6.91c1.51,1.52,1.52,3,0,4.5q-4.48,4.51-9,9a2.68,2.68,0,0,1-3.3.61,2.54,2.54,0,0,1-1.39-2.77,4,4,0,0,1,1-1.75c1.16-1.28,2.42-2.47,3.64-3.7C85.53,103.58,85.73,103.34,86,103Z"/><path class="cls-3" d="M117.85,116.43c.2-1.69.3-3.05.53-4.4a2.88,2.88,0,0,0-.59-2.62,5.21,5.21,0,0,1-.69-1.06,1.23,1.23,0,0,1,1-1.93,21.89,21.89,0,0,1,3,0c1,.07,1.64,1.14,1,1.81-2.22,2.37-.77,5-.9,7.57a16.79,16.79,0,0,1-1.3,4.31s-.62,0-.66-.08C118.73,118.75,118.24,117.45,117.85,116.43Z"/><path class="cls-2" d="M161.86,153.71l29.73,0a6.84,6.84,0,0,1,7.18,7.18q0,18.3,0,36.59a6.88,6.88,0,0,1-7.06,7.08l-58.29,0a17.88,17.88,0,0,1-2.64-.08,6.82,6.82,0,0,1-5.92-6.8q0-15.24,0-30.47c0-2.12,0-4.25,0-6.37a6.88,6.88,0,0,1,7-7.1Zm0,4.62-29.46,0c-2.11,0-2.89.79-2.89,2.91q0,17.88,0,35.76c0,2.14.8,2.93,3,2.92l25.25,0,33.6,0a2.49,2.49,0,0,0,2.85-3q0-17.79-.05-35.59c0-2.29-.74-3-3-3Z"/><path class="cls-3" d="M161.84,158.33l29.31,0c2.27,0,3,.75,3,3q0,17.79.05,35.59a2.49,2.49,0,0,1-2.85,3l-33.6,0-25.25,0c-2.17,0-3-.78-3-2.92q0-17.88,0-35.76c0-2.12.78-2.91,2.89-2.91ZM145.11,193l9,0a1.73,1.73,0,0,0,2-1.92c0-.86,0-1.71,0-2.57a6.45,6.45,0,0,0-2.86-5.73c-4.39-3.34-11.95-3.32-16.31.06a6.35,6.35,0,0,0-2.78,5.6c.05.91,0,1.82,0,2.73A1.7,1.7,0,0,0,136,193Zm30-11.61h9.67a2.24,2.24,0,0,0,2.21-1.32,2.3,2.3,0,0,0-2.3-3.3l-19.1,0a2.33,2.33,0,1,0,0,4.62Zm-.08,4.62h-9.51a2.33,2.33,0,1,0,0,4.63l19.1,0a2.33,2.33,0,1,0,0-4.63Zm0-13.87h9.76a2.2,2.2,0,0,0,2.2-1.43,2.29,2.29,0,0,0-2.32-3.18c-2.72,0-5.45.05-8.18.05-3.7,0-7.39,0-11.08,0a2.31,2.31,0,1,0,0,4.61Zm-24.39-1.24a5.65,5.65,0,1,0-5.59,5.67A5.62,5.62,0,0,0,150.73,170.92Z"/><path class="cls-2" d="M145.11,193H136a1.7,1.7,0,0,1-1.86-1.85c0-.91,0-1.82,0-2.73a6.35,6.35,0,0,1,2.78-5.6c4.36-3.38,11.92-3.4,16.31-.06a6.45,6.45,0,0,1,2.86,5.73c-.05.86,0,1.71,0,2.57a1.73,1.73,0,0,1-2,1.92Z"/><path class="cls-2" d="M175.16,181.41h-9.51a2.33,2.33,0,1,1,0-4.62l19.1,0a2.3,2.3,0,0,1,2.3,3.3,2.24,2.24,0,0,1-2.21,1.32Z"/><path class="cls-2" d="M175.08,186h9.6a2.33,2.33,0,1,1,0,4.63l-19.1,0a2.33,2.33,0,1,1,0-4.63Z"/><path class="cls-2" d="M175.12,172.16h-9.6a2.31,2.31,0,1,1,0-4.61c3.69,0,7.38,0,11.08,0,2.73,0,5.46-.06,8.18-.05a2.29,2.29,0,0,1,2.32,3.18,2.2,2.2,0,0,1-2.2,1.43Z"/><path class="cls-2" d="M150.73,170.92a5.65,5.65,0,1,1-5.61-5.64A5.64,5.64,0,0,1,150.73,170.92Z"/><rect class="cls-2" x="73.06" width="4.68" height="1.87"/><rect class="cls-2" x="82.58" y="5.55" width="4.68" height="0.94" transform="translate(10.09 46.61) rotate(-32.53)"/><circle class="cls-4" cx="133" cy="134.84" r="107.93"/><path class="cls-5" d="M130.38,264.78C58.49,264.78,0,206.29,0,134.4S58.49,4,130.38,4a130.61,130.61,0,0,1,82.73,29.6L202,47.1a112.94,112.94,0,1,0,.77,174L214,234.45A130.54,130.54,0,0,1,130.38,264.78Z"/><circle class="cls-6" cx="133" cy="134.84" r="107.93"/><path class="cls-3" d="M130.38,264.78C58.49,264.78,0,206.29,0,134.4S58.49,4,130.38,4a130.61,130.61,0,0,1,82.73,29.6L202,47.1a112.94,112.94,0,1,0,.77,174L214,234.45A130.54,130.54,0,0,1,130.38,264.78Z"/></g></g></svg>