<?xml version="1.0" encoding="utf-8"?>
<!-- Generator: Adobe Illustrator 23.0.0, SVG Export Plug-In . SVG Version: 6.00 Build 0)  -->
<svg version="1.1" id="Capa_1" xmlns="http://www.w3.org/2000/svg" xmlns:xlink="http://www.w3.org/1999/xlink" x="0px" y="0px"
	 viewBox="0 0 242.4 264.8" style="enable-background:new 0 0 242.4 264.8;" xml:space="preserve">
<style type="text/css">
	.st0{fill:none;stroke:#FFFFFF;stroke-width:3;stroke-miterlimit:10;}
	.st1{fill:none;stroke:#FFFFFF;stroke-width:2;stroke-miterlimit:10;}
	.st2{fill:none;stroke:#FFFFFF;stroke-width:0.5916;stroke-miterlimit:10;}
	.st3{fill:#FFFFFF;}
	.st4{fill:none;}
	.st5{fill:none;stroke:#FFFFFF;stroke-width:2.5;stroke-miterlimit:10;}
	.st6{fill:none;stroke:#FFFFFF;stroke-width:4.8515;stroke-miterlimit:10;stroke-dasharray:9.4814,9.4814;}
	.st7{fill:none;stroke:#FFFFFF;stroke-width:4.95;stroke-miterlimit:10;}
</style>
<title>servicios_escolares</title>
<g>
	<g id="Capa_1-2">
		<path class="st0" d="M186.7,140.4l-46.4,0.1c-3.4,0-6.2-2.8-6.2-6.2V100c0-3.4,2.8-6.2,6.2-6.3l46.4-0.1c3.4,0,6.2,2.8,6.2,6.2
			v34.3C192.9,137.6,190.2,140.4,186.7,140.4z M140.3,97.3c-1.5,0-2.6,1.2-2.6,2.7v34.3c0,1.5,1.2,2.6,2.7,2.6l46.4-0.1
			c1.5,0,2.6-1.2,2.7-2.7V99.8c0-1.5-1.2-2.6-2.7-2.6L140.3,97.3z"/>
		<path class="st1" d="M177.8,149.5h-28.7c-1,0-1.8-0.8-1.8-1.8v-1.2c0-2.6,2.1-4.7,4.7-4.7h23c2.6,0,4.7,2.1,4.7,4.7v1.2
			C179.6,148.7,178.8,149.5,177.8,149.5L177.8,149.5z M151,145.9h24.8c-0.2-0.3-0.5-0.5-0.9-0.5h-23
			C151.6,145.4,151.2,145.6,151,145.9L151,145.9z"/>
		<path class="st2" d="M159.5,141.8h8.3c-0.8-0.5-1.2-1-1.3-1.5h-5.8C160.6,140.8,160.2,141.3,159.5,141.8z"/>
		<circle class="st3" cx="164" cy="136.6" r="1.6"/>
		
			<rect x="147.7" y="103.3" transform="matrix(1 -1.396260e-03 1.396260e-03 1 -0.1655 0.2394)" class="st4" width="47.3" height="30.7"/>
		<path class="st0" d="M111,77.3c0.6,0.1,1.2,0.3,1.8,0.5c5.7,1.7,9,7.8,7.3,13.5s-7.8,9-13.5,7.3s-9-7.8-7.3-13.5
			c1.2-3.9,4.4-6.8,8.5-7.6c0.2,0,0.4-0.1,0.5-0.2C108.3,77.3,111,77.3,111,77.3z"/>
		<path class="st0" d="M109.7,132.2H93.1c-3,0-4.6-1.5-4.6-4.6c0-4.7,0-9.4,0-14c0-4.2,2.2-7.7,6.1-9.1c2.1-0.6,4.2-1,6.3-1.2
			c0.8-0.1,1,0.6,1.3,1.2l4.5,12.3c0.5,1.4,1,2.9,1.6,4.3c0.2,0.7,0.5,1.3,1.3,1.3c0.9,0,1.1-0.7,1.3-1.4c2-5.5,4-11.1,6-16.6
			c0.4-1.2,0.7-1.4,1.9-1.1c1.9,0.2,3.7,0.5,5.5,1c4,1.3,6.3,4.8,6.3,9.3c0,4.7,0,9.4,0,14.1c0,2.8-1.6,4.4-4.4,4.4
			C120.8,132.2,115.2,132.2,109.7,132.2z"/>
		<path class="st0" d="M45.7,145.3c0.4-0.5,0.8-1,1.2-1.5c0.6-0.5,1.4-0.8,2.1-1.2c0.9-0.5,1.3-1.8,0.7-2.7
			c-0.2-0.3-0.4-0.5-0.7-0.7c-0.7-0.4-1.4-0.8-2.1-1.2c-1-0.5-1.4-1.6-1-2.6c0-0.1,0.1-0.2,0.2-0.3c1.4-2.5,2.8-4.9,4.2-7.4
			c0.5-0.9,1.6-1.3,2.6-0.8L53,127c0.7,0.4,1.4,0.9,2.2,1.2c0.9,0.5,2.2,0.2,2.7-0.7c0.2-0.3,0.3-0.6,0.3-1c0-0.7,0-1.5,0-2.2
			c-0.1-1.1,0.7-2.2,1.8-2.3c0.2,0,0.3,0,0.5,0c2.7,0,5.4,0,8,0c1.1-0.2,2.1,0.6,2.3,1.7c0,0.2,0,0.3,0,0.5c0,0.8,0,1.6,0,2.3
			c0,1.1,0.9,2,2,2c0.4,0,0.7-0.1,1.1-0.3c0.7-0.4,1.3-0.8,2-1.2c0.9-0.6,2.1-0.4,2.8,0.5c0.1,0.1,0.1,0.2,0.1,0.3
			c1.4,2.4,2.8,4.8,4.2,7.2c0.6,0.9,0.5,2.1-0.4,2.8c-0.1,0.1-0.2,0.1-0.3,0.2c-0.7,0.4-1.4,0.8-2.1,1.2c-0.9,0.5-1.3,1.7-0.7,2.6
			c0.2,0.3,0.4,0.6,0.7,0.7c0.6,0.4,1.3,0.8,2,1.2c1.3,0.8,1.6,1.8,0.9,3.1c-1.3,2.4-2.7,4.8-4.1,7.1c-0.5,1-1.6,1.4-2.6,1
			c-0.1-0.1-0.2-0.1-0.3-0.2c-0.7-0.4-1.3-0.8-2-1.1c-0.9-0.6-2.1-0.3-2.7,0.6c-0.2,0.3-0.3,0.7-0.3,1c-0.1,0.8,0,1.7-0.1,2.5
			c0.1,1.1-0.7,2-1.8,2.1c-0.1,0-0.2,0-0.3,0c-2.8,0.1-5.6,0.1-8.4,0c-1.1,0.1-2-0.7-2.1-1.8c0-0.1,0-0.2,0-0.3c0-0.8,0-1.6,0-2.4
			c0-1.1-0.8-1.9-1.9-2c-0.4,0-0.7,0.1-1,0.3c-0.8,0.4-1.4,0.9-2.2,1.2c-0.9,0.6-2.1,0.3-2.7-0.6c0-0.1-0.1-0.1-0.1-0.2
			c-1.4-2.4-2.8-4.9-4.2-7.3C45.9,146.3,45.8,145.8,45.7,145.3z M64.6,135.1c-3.2,0-5.8,2.6-5.8,5.8s2.6,5.8,5.8,5.8
			c3.2,0,5.8-2.6,5.8-5.8C70.4,137.7,67.8,135.1,64.6,135.1z"/>
		<path class="st0" d="M104.9,167.1c1.6,1.6,3.1,3,4.5,4.5c0.4,0.4,0.8,0.9,1,1.5c0.5,1.6-0.6,3.2-2.3,3.4c-0.8,0.1-1.5-0.2-2.1-0.8
			c-1.4-1.4-2.8-2.8-4.2-4.2c-1.6-1.6-3.2-3.2-4.9-4.9c-1.5-1.5-1.5-3,0-4.4c3-3,5.9-5.9,8.9-8.9c0.9-1,2.3-1.2,3.4-0.6
			c1,0.6,1.5,1.8,1.2,3c-0.2,0.5-0.5,1-0.9,1.4c-1.4,1.4-2.8,2.8-4.2,4.2l0.1,0.2c0.9-0.1,1.8-0.1,2.7-0.3
			c12.3-2.5,20.3-9.7,24-21.7c0.5-1.8,0.6-1.5,2.7-1.9c1.3,0.6,2.2,1.9,2.6,2.1c0.3,0.1,0.2,0.6,0.3,1c0.6,3.9-3.9,10.3-9.2,15.6
			C122.2,162.8,113.8,166.6,104.9,167.1z"/>
		<path class="st0" d="M79.3,99.3c-4.1,0.2-8.1,1.4-11.8,3.3c-7.5,3.8-13,10.7-15.2,18.8c-0.2,0.6-0.4,0.9-1.1,0.9
			c-1.8,0.1-3.4,1.1-4.5,2.6l-0.5,0.7c0,0-0.1,0-0.2,0c1.8-17.4,16.1-30.9,33.6-31.8c-1.2-1.1-2.1-2.1-3.1-3
			c-0.6-0.6-1.2-1.1-1.7-1.7c-1.1-1-1.1-2.7-0.1-3.8s2.7-1.1,3.8-0.1l0.1,0.1c0.7,0.7,1.4,1.4,2.1,2l6.9,6.8c1.5,1.5,1.5,3,0,4.5
			c-3,3-5.9,5.9-8.9,8.9c-0.8,0.9-2.2,1.2-3.3,0.6c-1-0.5-1.6-1.6-1.4-2.7c0.2-0.7,0.5-1.2,1-1.7c1.1-1.3,2.4-2.4,3.6-3.7
			C78.9,99.9,79.1,99.7,79.3,99.3z"/>
		<path class="st1" d="M107.9,112.6c0.2-1.7,0.3-3,0.5-4.4c0.2-0.9,0-1.9-0.6-2.6c-0.3-0.3-0.5-0.7-0.7-1c-0.4-0.6-0.2-1.3,0.3-1.7
			c0.2-0.1,0.4-0.2,0.7-0.2c1-0.1,2-0.1,3,0s1.6,1.1,1,1.8c-2.2,2.3-0.8,5-0.9,7.5c-0.2,1.5-0.7,2.9-1.3,4.3c0,0-0.6,0-0.7-0.1
			C108.7,114.9,108.3,113.6,107.9,112.6z"/>
		<path class="st0" d="M167.3,150.5h29.4c3.7-0.2,6.9,2.7,7.1,6.4c0,0.2,0,0.5,0,0.7c0,12.1,0,24.2,0,36.2c0.1,3.8-2.8,6.9-6.6,7
			c-0.1,0-0.3,0-0.4,0h-57.7c-0.9,0-1.7,0-2.6-0.1c-3.4-0.4-5.9-3.3-5.9-6.7c0-10.1,0-20.1,0-30.2c0-2.1,0-4.2,0-6.3
			c-0.1-3.8,2.8-6.9,6.6-7c0.1,0,0.2,0,0.3,0L167.3,150.5z M167.3,155.1h-29.2c-2.1,0-2.9,0.8-2.9,2.9c0,11.8,0,23.6,0,35.4
			c0,2.1,0.8,2.9,3,2.9h25h33.3c1.3,0.2,2.6-0.7,2.8-2c0.1-0.3,0-0.6,0-1c0-11.7,0-23.5,0-35.2c0-2.3-0.7-3-3-3L167.3,155.1
			L167.3,155.1z"/>
		<path class="st3" d="M150.7,189.4h-9c-0.9,0.1-1.7-0.6-1.8-1.5c0-0.1,0-0.2,0-0.3c0-0.9,0-1.8,0-2.7c-0.1-2.2,0.9-4.3,2.8-5.5
			c4.3-3.3,11.8-3.4,16.1-0.1c1.9,1.3,3,3.4,2.8,5.7c0,0.9,0,1.7,0,2.5c0.1,0.9-0.5,1.8-1.5,1.9c-0.2,0-0.3,0-0.5,0L150.7,189.4z"/>
		<path class="st5" d="M180.5,178.9h-9.4c-1.3,0.2-2.4-0.7-2.6-2c-0.2-1.3,0.7-2.4,2-2.6c0.2,0,0.4,0,0.6,0H190
			c1.3-0.1,2.4,0.8,2.5,2c0,0.4,0,0.9-0.2,1.2c-0.4,0.9-1.3,1.4-2.2,1.3L180.5,178.9z"/>
		<path class="st5" d="M180.4,182.5h9.5c1.3-0.1,2.4,0.8,2.6,2c0.1,1.3-0.8,2.4-2,2.6c-0.2,0-0.3,0-0.5,0h-19
			c-1.3,0.1-2.4-0.8-2.6-2c-0.1-1.3,0.8-2.4,2-2.6c0.2,0,0.3,0,0.5,0H180.4z"/>
		<path class="st5" d="M180.4,169.8h-9.5c-1.3,0.1-2.3-0.9-2.4-2.1c-0.1-1.3,0.9-2.3,2.1-2.4c0.1,0,0.2,0,0.3,0c3.7,0,7.3,0,11,0
			c2.7,0,5.4-0.1,8.1,0c1.2-0.1,2.4,0.8,2.5,2c0,0.4,0,0.8-0.2,1.1c-0.3,0.9-1.2,1.5-2.2,1.4H180.4z"/>
		<path class="st3" d="M156.3,167.5c0,3.1-2.5,5.6-5.6,5.6s-5.6-2.5-5.6-5.6s2.5-5.6,5.6-5.6l0,0C153.8,162,156.3,164.5,156.3,167.5
			z"/>
		<circle class="st6" cx="131.8" cy="134.8" r="102.7"/>
		<path class="st7" d="M131.2,262.2c-70.5,0-127.8-57.3-127.8-127.8S60.7,6.6,131.2,6.6c29.6,0,58.2,10.3,81.1,29l-10.9,13.3
			C154.1,10.1,84.4,17,45.6,64.2S13.7,181.2,61,220c41.1,33.8,100.4,33.5,141.2-0.6l11,13.1C190.1,251.6,161.1,262.2,131.2,262.2z"
			/>
	</g>
</g>
</svg>
