<svg xmlns="http://www.w3.org/2000/svg" viewBox="0 0 154.83 177.16"><defs><style>.cls-1{fill:#c20506;}.cls-2{fill:none;stroke:#c20506;stroke-linecap:round;stroke-linejoin:round;stroke-width:4px;}</style></defs><title>consulta_informacion_academica</title><g id="Capa_2" data-name="Capa 2"><g id="Capa_1-2" data-name="Capa 1"><path class="cls-1" d="M111.35,37.68l-31.67-.16A10.34,10.34,0,0,1,69.41,27.13l.13-24.56a2.24,2.24,0,0,1,1.3-2,2.27,2.27,0,0,1,2.4.3l39.57,32.84a2.29,2.29,0,0,1,.68,2.52A2.26,2.26,0,0,1,111.35,37.68ZM74,7.38l-.11,19.78A5.8,5.8,0,0,0,79.7,33l25.36.14Z"/><line class="cls-1" x1="63.18" y1="50.25" x2="98.29" y2="50.44"/><path class="cls-1" d="M98.28,52.7l-35.11-.18c-.52,0-.94-1-.93-2.27s.43-2.26.95-2.26l35.11.19c.53,0,.94,1,.94,2.27S98.8,52.7,98.28,52.7Z"/><line class="cls-1" x1="63.1" y1="64.95" x2="98.21" y2="65.14"/><path class="cls-1" d="M98.2,67.4l-35.11-.19c-.52,0-.94-1-.93-2.26s.43-2.26,1-2.26l35.11.19c.52,0,.93,1,.93,2.27S98.72,67.4,98.2,67.4Z"/><line class="cls-1" x1="63.03" y1="79.65" x2="98.14" y2="79.84"/><path class="cls-1" d="M98.12,82.1,63,81.91c-.52,0-.94-1-.93-2.26s.44-2.26,1-2.26l35.11.19c.52,0,.94,1,.93,2.26S98.64,82.1,98.12,82.1Z"/><line class="cls-1" x1="16.19" y1="121.64" x2="56.63" y2="121.86"/><path class="cls-1" d="M56.61,124.12l-40.43-.21a2.27,2.27,0,0,1,0-4.53l40.44.22a2.26,2.26,0,1,1,0,4.52Z"/><line class="cls-1" x1="16.25" y1="109.21" x2="56.69" y2="109.42"/><path class="cls-1" d="M56.68,111.68l-40.44-.21a2.27,2.27,0,0,1,0-4.53l40.43.22a2.26,2.26,0,0,1,0,4.52Z"/><line class="cls-1" x1="16.33" y1="95.64" x2="56.77" y2="95.85"/><path class="cls-1" d="M56.75,98.11,16.31,97.9a2.26,2.26,0,1,1,0-4.52l40.44.21a2.26,2.26,0,1,1,0,4.52Z"/><path class="cls-1" d="M89.79,149.34l-79.52-.42A10.34,10.34,0,0,1,0,138.54L.68,10.27A10.34,10.34,0,0,1,11.06,0L71.81.32a2.27,2.27,0,0,1,0,4.53L11,4.52A5.81,5.81,0,0,0,5.21,10.3L4.52,138.56a5.83,5.83,0,0,0,5.78,5.84l79.51.42a2.26,2.26,0,0,1,0,4.52Z"/><path class="cls-1" d="M111.05,94.17a2.26,2.26,0,0,1-2.25-2.27l.3-56.49a2.26,2.26,0,1,1,4.52,0l-.3,56.49A2.25,2.25,0,0,1,111.05,94.17Z"/><path class="cls-1" d="M122.46,141.29c1.65,1.47,3.16,2.92,4.79,4.22.51.4,1.34.38,2,.62A4.76,4.76,0,0,1,131,147q11.82,11.87,23.57,23.81a2,2,0,0,1,.25.5l-6.27,5.9c-6.71-6.84-13.71-13.84-20.52-21-1.6-1.69-3.9-2.76-4-6.05-.07-1.82-3.12-3.52-5-5.44-8.63,6.62-18.19,9-28.72,6.19a30.45,30.45,0,0,1-18.08-13.18,31.61,31.61,0,0,1,47.43-40.95C131.68,107.38,134.39,126.51,122.46,141.29ZM98.37,145A24.67,24.67,0,1,0,74,120.43C74,133.81,85.16,145.09,98.37,145Z"/><circle class="cls-2" cx="34.27" cy="61.8" r="16.32"/><path class="cls-2" d="M25.49,75.07c.8-5.19,4.43-9.1,8.76-9.07s7.83,3.88,8.63,9"/><circle class="cls-2" cx="34.3" cy="56.2" r="5.13"/><path class="cls-1" d="M102.61,101.49a15,15,0,0,1,2.68,1.09,6,6,0,0,1,2.33,6.89,6.07,6.07,0,0,1-11.81-1.61,6.06,6.06,0,0,1,5.15-6.3.84.84,0,0,0,.2-.08Z"/><path class="cls-1" d="M96.58,116a8.93,8.93,0,0,1,4.44,1.06,6.38,6.38,0,0,1,3.09,6.15,12,12,0,0,1-1.42,4.63c-.82,1.58-1.63,3.15-2.4,4.75a7.44,7.44,0,0,0-.59,1.72,1.18,1.18,0,0,0,1.24,1.56,16.2,16.2,0,0,0,2.67-.38,1.34,1.34,0,0,1,1.59.56,1.24,1.24,0,0,1-.44,1.62,11.67,11.67,0,0,1-10.48,2.1c-3.44-1-5-4.11-4.49-7.49.31-2.18,1.44-4,2.38-5.94.57-1.16,1.17-2.3,1.7-3.48a4.19,4.19,0,0,0,.26-1.41,1.08,1.08,0,0,0-.93-1.08,7.06,7.06,0,0,0-3.06.34,1.25,1.25,0,0,1-1.53-.55,1.2,1.2,0,0,1,.41-1.58A12.06,12.06,0,0,1,96.58,116Z"/></g></g></svg>