<svg xmlns="http://www.w3.org/2000/svg" viewBox="0 0 173 177.42"><defs><style>.cls-1{fill:none;stroke:#c20506;stroke-linecap:round;stroke-linejoin:round;stroke-width:4px;}</style></defs><title>evaluacion_catedratiicos</title><g id="Capa_2" data-name="Capa 2"><g id="Capa_1-2" data-name="Capa 1"><path class="cls-1" d="M136.64,27.2v80.11a6.23,6.23,0,0,1-6.23,6.23H59a6.23,6.23,0,0,1-6.23-6.23V8.23A6.23,6.23,0,0,1,59,2h46.92"/><path class="cls-1" d="M136.64,27.2H112.18A6.23,6.23,0,0,1,105.94,21V2Z"/><line class="cls-1" x1="2" y1="126.58" x2="171" y2="126.58"/><rect class="cls-1" x="49.19" y="166.1" width="74.51" height="9.31" rx="4.66"/><path class="cls-1" d="M68,145v10.27s.08,9.15-5.37,10.79"/><path class="cls-1" d="M105.87,145v10.26s-.08,9.16,5.37,10.8"/><line class="cls-1" x1="77.2" y1="134.73" x2="95.59" y2="134.73"/><path class="cls-1" d="M136.91,39.51h23.54a10.34,10.34,0,0,1,10.34,10.34v84.82A10.34,10.34,0,0,1,160.45,145H12.34A10.34,10.34,0,0,1,2,134.67V49.85A10.34,10.34,0,0,1,12.34,39.51h39.8"/><rect class="cls-1" x="65.69" y="23.52" width="20.38" height="20.38"/><polyline class="cls-1" points="73.77 31.01 78.43 36.26 94.57 24.37"/><rect class="cls-1" x="65.69" y="53.24" width="20.38" height="20.38"/><polyline class="cls-1" points="73.77 60.73 78.43 65.98 94.57 54.09"/><rect class="cls-1" x="65.69" y="82.12" width="20.38" height="20.38"/><polyline class="cls-1" points="73.77 89.61 78.43 94.86 94.57 82.97"/><line class="cls-1" x1="97.48" y1="32.25" x2="106.84" y2="32.25"/><line class="cls-1" x1="97.48" y1="41.41" x2="125.76" y2="41.41"/><line class="cls-1" x1="97.48" y1="61.79" x2="125.76" y2="61.79"/><line class="cls-1" x1="97.48" y1="71.13" x2="125.76" y2="71.13"/><line class="cls-1" x1="97.48" y1="91.51" x2="125.76" y2="91.51"/><line class="cls-1" x1="97.48" y1="100.85" x2="125.76" y2="100.85"/><circle class="cls-1" cx="28.75" cy="64.71" r="14.86"/><path class="cls-1" d="M20.82,76.83c.7-4.73,4-8.3,7.93-8.3S35.9,72,36.66,76.67"/><circle class="cls-1" cx="28.75" cy="59.61" r="4.67"/><circle class="cls-1" cx="28.75" cy="102.07" r="14.86"/><path class="cls-1" d="M20.82,114.2c.7-4.73,4-8.3,7.93-8.3s7.15,3.49,7.91,8.13"/><circle class="cls-1" cx="28.75" cy="96.98" r="4.67"/></g></g></svg>