<svg xmlns="http://www.w3.org/2000/svg" viewBox="0 0 165.27 190.15"><defs><style>.cls-1{fill:#023165;}.cls-2{fill:none;stroke:#023165;stroke-linecap:round;stroke-linejoin:round;stroke-width:4px;}</style></defs><title>generacion_ficha_pago</title><g id="Capa_2" data-name="Capa 2"><g id="Capa_1-2" data-name="Capa 1"><path class="cls-1" d="M41.37,59.87V3.59C41.37.43,41.8,0,45,0h75.43c3,0,3.46.48,3.46,3.57v56.3h30.58c6.56,0,10.77,4.17,10.78,10.72q0,39.44,0,78.87c0,4.94-2.14,8.4-6.75,10.18-1.15.45-1.07,1.16-1.09,2a28.89,28.89,0,0,1-57.75.67c-.05-1.93-.79-2.14-2.4-2.14q-42.87.06-85.74,0A17.34,17.34,0,0,1,7.72,160C3,158.87,0,155,0,149.89q0-39.73,0-79.47c0-6.3,4.26-10.52,10.55-10.53,9.44,0,18.88,0,28.31,0ZM45.84,4.45v104H99.7c0-3.2,0-6.22,0-9.25a3,3,0,0,0-2.31-3.32,11.23,11.23,0,0,1-7.2-10.51c0-1.41.64-2.37,2.09-2.5A2.17,2.17,0,0,1,94.86,85a10.08,10.08,0,0,0,.32,2,6.55,6.55,0,0,0,4.38,4.55c0-4.54,0-8.77-.06-13,0-.48-.77-1.16-1.31-1.36-5.15-1.91-8-5.63-8-10.72A11.57,11.57,0,0,1,98,55.32c.95-.35,1.64-.6,1.62-1.87a2,2,0,0,1,2.21-2.13,2,2,0,0,1,2.32,2c0,1.45.87,1.69,1.91,2.11a11.46,11.46,0,0,1,7.54,10.32c.17,1.9-1.1,3.23-2.69,2.93-1.41-.27-1.9-1.26-2-2.63-.34-3.29-2-5.37-4.61-5.86,0,3.93,0,7.83,0,11.73a2,2,0,0,0,1.58,2.31,11.38,11.38,0,0,1,7.73,12.33,2.54,2.54,0,0,0,.57,1.9,9.57,9.57,0,0,1,3.25,7.74c0,3.77,0,7.55,0,11.32a5.24,5.24,0,0,0,.23,1.06l1.75-.16V4.45Zm58.23,125H104c0,10.85-.1,21.7,0,32.55.15,13.27,11.17,23.77,24.67,23.7a24.23,24.23,0,0,0,24.36-23.83c.08-12.4,0-24.8,0-37.2,0-3.12-1.82-5.09-4.54-5s-4.36,2-4.38,5c0,3.3,0,6.6,0,9.9,0,2.15-.74,3.19-2.26,3.1-2.06-.11-2.2-1.57-2.19-3.18,0-3.77,0-7.54,0-11.32,0-3.61-1.69-5.75-4.51-5.72s-4.4,2.11-4.41,5.61c0,3.84,0,7.68,0,11.53,0,1.54-.21,2.9-2.1,3.08-1.5.14-2.27-.94-2.27-3.08,0-4.25,0-8.49,0-12.74a4.31,4.31,0,0,0-3.58-4.28,4.26,4.26,0,0,0-4.74,2.27,7.41,7.41,0,0,0-.56,2.92c-.06,4.18,0,8.36,0,12.54,0,1.44-.71,2.35-2.18,2.36s-2.18-.87-2.22-2.32c0-.47,0-.94,0-1.41V111.06c0-5.19,0-10.38,0-15.57A4.44,4.44,0,0,0,107.42,91c-2.1.51-3.34,2.29-3.35,4.92Q104.06,112.69,104.07,129.48ZM96.31,155.8l-1-1.49c-3.8-5.64-7.67-11.25-11.39-16.94a8.8,8.8,0,0,1,14.39-10.12c.35.45.68.92,1.21,1.65v-7.13H45c-3.19,0-3.61-.42-3.61-3.61V64.39H33.78V155.8ZM29.21,64.24H11C6.52,64.25,4.3,66.48,4.3,71q0,39,0,78.06c0,4.68,2.14,6.85,6.77,6.87,5.46,0,10.92,0,16.38,0,.57,0,1.15-.1,1.76-.16Zm128.23,91.17c2.91-1.53,3.55-3.76,3.54-6.42q0-38.91,0-77.82a12.07,12.07,0,0,0-.19-2.41,5.29,5.29,0,0,0-4.68-4.4c-5.51-.15-11,0-16.61,0a9.3,9.3,0,0,0-.14,1.09q0,23.75,0,47.5a2.52,2.52,0,0,0,.61,1.57c.91,1,1.94,1.8,2.8,2.58,2.85-.46,3.07-2.36,3-4.74-.13-7.41,0-14.82,0-22.23,0-.54-.18-1.23.08-1.58.55-.73,1.33-1.76,2-1.78s1.58.94,2.14,1.66c.3.39.11,1.17.11,1.77V113.6c0,1,0,1.7,1.2,2.17,4.16,1.56,6,4.48,6.07,9q0,11.11.06,22.23C157.44,149.7,157.44,152.39,157.44,155.41ZM123.9,64.31V85.48c0,8.69,0,17.38,0,26.07a2.71,2.71,0,0,0,.81,2,32.57,32.57,0,0,0,3.65,2.14c1.68-.82,3.17-1.91,4.81-2.24S135,112.35,135,111c0-14.82,0-29.64,0-44.46,0-.72-.07-1.43-.11-2.21Zm-78.08,53H99.54v-4.24H45.82Zm53.37,34.94.43-.19c0-4.71,0-9.42,0-14.14A3.81,3.81,0,0,0,99,136q-1.84-2.89-3.83-5.7c-1.6-2.29-4.24-2.9-6.33-1.52s-2.62,4.13-1,6.57c1.74,2.64,3.53,5.25,5.3,7.87Zm.2-79.93V60c-3.06,1.35-4.73,4-4.49,6.88A5.71,5.71,0,0,0,99.39,72.3Zm5,15a32.2,32.2,0,0,0,3.52-.78,1.74,1.74,0,0,0,1-1.17A6.15,6.15,0,0,0,104.38,79Z"/><line class="cls-2" x1="60.02" y1="15.84" x2="105.09" y2="15.84"/><line class="cls-2" x1="60.02" y1="31.67" x2="105.09" y2="31.67"/><line class="cls-2" x1="60.02" y1="80.4" x2="81.95" y2="80.4"/><line class="cls-2" x1="60.02" y1="64.56" x2="81.95" y2="64.56"/><line class="cls-2" x1="60.02" y1="47.51" x2="105.09" y2="47.51"/></g></g></svg>