<svg xmlns="http://www.w3.org/2000/svg" viewBox="0 0 283.5 194.47"><defs><style>.cls-1,.cls-2{fill:none;stroke:#023165;stroke-linecap:round;stroke-linejoin:round;}.cls-1{stroke-width:5px;}.cls-2{stroke-width:4px;}</style></defs><title>Recurso 2</title><g id="Capa_2" data-name="Capa 2"><g id="Capa_1-2" data-name="Capa 1"><polygon class="cls-1" points="144.03 38.47 95.67 71.61 95.67 85.04 104.63 85.04 104.63 77.88 144.03 51.91 181.64 78.77 181.64 87.73 192.39 87.73 192.39 73.4 144.03 38.47"/><polyline class="cls-1" points="104.4 95.92 60.75 95.92 50 122.65 103.73 122.65"/><polyline class="cls-1" points="60.32 124 60.32 191.61 103.73 191.61"/><rect class="cls-1" x="74.18" y="134.29" width="17.91" height="16.12"/><rect class="cls-1" x="125.22" y="112.8" width="35.82" height="20.6"/><rect class="cls-1" x="74.18" y="162.95" width="17.91" height="16.12"/><polyline class="cls-1" points="182 95.92 225.65 95.92 236.4 122.65 182.67 122.65"/><polyline class="cls-1" points="226.08 124 226.08 191.61 182.67 191.61"/><rect class="cls-1" x="194.31" y="134.29" width="17.91" height="16.12" transform="translate(406.53 284.71) rotate(-180)"/><rect class="cls-1" x="194.31" y="162.95" width="17.91" height="16.12" transform="translate(406.53 342.02) rotate(-180)"/><line class="cls-1" x1="143.62" y1="149.04" x2="143.58" y2="191.16"/><line class="cls-1" x1="143.23" y1="112.92" x2="143.23" y2="132.06"/><circle class="cls-1" cx="143.14" cy="85.04" r="14.33"/><polyline class="cls-1" points="144.03 76.08 144.03 85.04 151.19 85.04"/><polyline class="cls-1" points="181.5 84.41 181.5 191.97 105 191.97 105 84.9"/><polyline class="cls-1" points="169 191.97 169 146.97 118 146.97 118 191.97"/><circle class="cls-2" cx="37.19" cy="19.9" r="7.24"/><polyline class="cls-2" points="37.64 15.37 37.64 19.9 41.26 19.9"/><polyline class="cls-2" points="15.4 61.97 2 61.97 2 24.97 15.4 24.97"/><polyline class="cls-2" points="29.91 61.34 29.91 34.54 44.11 34.54 44.11 61.34"/><polyline class="cls-2" points="9.66 17.31 37.09 2 63.89 17.31"/><circle class="cls-2" cx="37.19" cy="19.9" r="7.24"/><polyline class="cls-2" points="37.64 15.37 37.64 19.9 41.26 19.9"/><polygon class="cls-2" points="59.1 14.44 37.19 2 15.72 14.44 15.72 61.65 59.1 61.65 59.1 14.44"/><polyline class="cls-2" points="59.1 61.65 72.5 61.65 72.5 24.65 59.1 24.65"/><polygon class="cls-2" points="59.1 14.44 37.19 2 15.72 14.44 15.72 61.65 59.1 61.65 59.1 14.44"/><polyline class="cls-2" points="59.1 61.65 72.5 61.65 72.5 24.65 59.1 24.65"/><polyline class="cls-2" points="15.4 61.97 2 61.97 2 24.97 15.4 24.97"/><polyline class="cls-2" points="29.91 61.34 29.91 34.54 44.11 34.54 44.11 61.34"/><polyline class="cls-2" points="9.66 17.31 37.09 2 63.89 17.31"/><circle class="cls-2" cx="246.19" cy="19.9" r="7.24"/><polyline class="cls-2" points="246.64 15.37 246.64 19.9 250.26 19.9"/><polyline class="cls-2" points="224.4 61.97 211 61.97 211 24.97 224.4 24.97"/><polyline class="cls-2" points="238.91 61.34 238.91 34.54 253.11 34.54 253.11 61.34"/><polyline class="cls-2" points="218.66 17.31 246.09 2 272.89 17.31"/><circle class="cls-2" cx="246.19" cy="19.9" r="7.24"/><polyline class="cls-2" points="246.64 15.37 246.64 19.9 250.26 19.9"/><polygon class="cls-2" points="268.1 14.44 246.19 2 224.72 14.44 224.72 61.65 268.1 61.65 268.1 14.44"/><polyline class="cls-2" points="268.1 61.65 281.5 61.65 281.5 24.65 268.1 24.65"/><polygon class="cls-2" points="268.1 14.44 246.19 2 224.72 14.44 224.72 61.65 268.1 61.65 268.1 14.44"/><polyline class="cls-2" points="268.1 61.65 281.5 61.65 281.5 24.65 268.1 24.65"/><polyline class="cls-2" points="224.4 61.97 211 61.97 211 24.97 224.4 24.97"/><polyline class="cls-2" points="238.91 61.34 238.91 34.54 253.11 34.54 253.11 61.34"/><polyline class="cls-2" points="218.66 17.31 246.09 2 272.89 17.31"/></g></g></svg>