<svg xmlns="http://www.w3.org/2000/svg" viewBox="0 0 166 183.82"><defs><style>.cls-1{fill:none;}.cls-1,.cls-3{stroke:#c20506;stroke-linecap:round;stroke-linejoin:round;stroke-width:4px;}.cls-2{fill:#c20506;}.cls-3{fill:#fff;}</style></defs><title>administracion_serviciuos_escolares</title><g id="Capa_2" data-name="Capa 2"><g id="Capa_1-2" data-name="Capa 1"><path class="cls-1" d="M18.06,105.81A42.66,42.66,0,1,1,2,139.17a42.51,42.51,0,0,1,16.06-33.36"/><circle class="cls-1" cx="44.66" cy="139.17" r="34.03"/><path class="cls-2" d="M43.05,155.32a18,18,0,0,1-11.69-5.15l3.81-5.36a14.24,14.24,0,0,0,7.88,4.26v-7.82C38,140,32.4,138.08,32.4,131.34c0-5,4-9.26,10.65-10v-4.6h4.71v4.7a17.5,17.5,0,0,1,10.05,4.41L53.9,131a14.07,14.07,0,0,0-6.14-3.22v7c5.1,1.29,10.8,3.27,10.8,10,0,5.5-3.57,9.71-10.8,10.46v4.51H43.05Zm0-21.75v-6c-2.23.29-3.47,1.53-3.47,3.21C39.58,132.18,41,133,43.05,133.57Zm4.71,8.87v6.63c2.42-.49,3.66-1.93,3.66-3.46S49.89,143.13,47.76,142.44Z"/><path class="cls-1" d="M82.94,120.58a42.65,42.65,0,1,1,.29,37.77"/><circle class="cls-1" cx="121.34" cy="139.17" r="34.03"/><circle class="cls-2" cx="121.34" cy="115.2" r="3.36"/><circle class="cls-2" cx="121.34" cy="164.09" r="3.36"/><circle class="cls-2" cx="145.79" cy="139.65" r="3.36"/><circle class="cls-2" cx="96.9" cy="139.65" r="3.36"/><polyline class="cls-1" points="120.86 123.35 120.86 140.6 136.2 140.6"/><path class="cls-1" d="M136.62,99.68V10a8,8,0,0,0-8-8H68"/><line class="cls-3" x1="28.38" y1="34.53" x2="28.38" y2="99.68"/><path class="cls-3" d="M28.38,34.53H60a8,8,0,0,0,8-8V2Z"/><line class="cls-3" x1="122.82" y1="86.38" x2="41" y2="86.38"/><line class="cls-3" x1="122.82" y1="70.6" x2="41" y2="70.6"/><path class="cls-2" d="M85.86,55.14V31.3l-5.47,5.57-4-4.19,10.34-10.4h6.11V55.14Z"/><path class="cls-2" d="M97.78,38.74c0-8.48,4.18-17,13.59-17s13.6,8.47,13.6,17-4.24,17-13.6,17S97.78,47.21,97.78,38.74Zm20,0c0-6.06-1.78-10.74-6.46-10.74s-6.5,4.68-6.5,10.74,1.77,10.78,6.5,10.78S117.83,44.8,117.83,38.74Z"/></g></g></svg>