<svg xmlns="http://www.w3.org/2000/svg" viewBox="0 0 194.5 167.43"><defs><style>.cls-1{fill:none;stroke:#c20506;stroke-linecap:round;stroke-linejoin:round;stroke-width:5px;}</style></defs><title>credito_escolarizado</title><g id="Capa_2" data-name="Capa 2"><g id="Capa_1-2" data-name="Capa 1"><path class="cls-1" d="M79.19,139.93H18.43a4.5,4.5,0,0,1-4.51-4.5V39.51A4.51,4.51,0,0,1,18.43,35h57.4A22.65,22.65,0,0,1,98.48,57.66v96.78S92.91,139,79.19,139.93Z"/><path class="cls-1" d="M115.06,36.22A22.67,22.67,0,0,0,98.79,58"/><path class="cls-1" d="M98.79,154.75s5.58-15.43,19.3-14.51h60.76a4.51,4.51,0,0,0,4.51-4.51V39.82a4.51,4.51,0,0,0-4.51-4.51H131.29"/><path class="cls-1" d="M13.61,50.12H2.5V151.35H80.28s8,13.58,17.9,13.58c0,0,5.55-.61,16-13.58H192V50.12h-8.74"/><rect class="cls-1" x="115.5" y="23.5" width="16" height="79"/><polyline class="cls-1" points="115.5 23.5 123.5 2.5 131.5 23.5"/><line class="cls-1" x1="122.88" y1="23.43" x2="122.88" y2="101.5"/><line class="cls-1" x1="132.5" y1="58.5" x2="170.5" y2="58.5"/><line class="cls-1" x1="132.5" y1="76.5" x2="170.5" y2="76.5"/><line class="cls-1" x1="132.5" y1="92.5" x2="170.5" y2="92.5"/><line class="cls-1" x1="113" y1="111.73" x2="170.5" y2="111.73"/><line class="cls-1" x1="28" y1="58.5" x2="84.5" y2="58.5"/><line class="cls-1" x1="28" y1="76.5" x2="84.5" y2="76.5"/><line class="cls-1" x1="28" y1="92.5" x2="84.5" y2="92.5"/><line class="cls-1" x1="27" y1="111.73" x2="84.5" y2="111.73"/></g></g></svg>