<svg xmlns="http://www.w3.org/2000/svg" viewBox="0 0 242.93 123.67"><defs><style>.cls-1{fill:#c20506;}.cls-2{fill:none;stroke:#c20506;stroke-miterlimit:10;stroke-width:5px;}</style></defs><title>info_compartida_Actualizada</title><g id="Capa_2" data-name="Capa 2"><g id="Capa_1-2" data-name="Capa 1"><path class="cls-1" d="M204.08,123.67a38.85,38.85,0,1,1,38.85-38.85A38.89,38.89,0,0,1,204.08,123.67Zm0-72.47A33.62,33.62,0,1,0,237.7,84.82,33.66,33.66,0,0,0,204.08,51.2Z"/><path class="cls-1" d="M149.16,81.38c.05,2.5,0,5,0,7.49a2.18,2.18,0,0,1,0,.24H151V81.7a16.41,16.41,0,0,0-15.34-16.5c-2.07-.13-4.16,0-6.24,0a1,1,0,0,0-.8.38c-1.57,1.89-3.15,3.78-4.72,5.68l-1.43,1.7-.1,0-3.53-4.23c-.84-1-1.69-2-2.52-3a1.11,1.11,0,0,0-1-.44c-.85,0-1.7,0-2.55,0a43.24,43.24,0,0,0-4.56.15,16,16,0,0,0-11.62,7.17,15.65,15.65,0,0,0-2.75,8.78c0,2.5,0,5,0,7.5v.43h-.1l2.07,0v-.06h-.19V81.42a14.62,14.62,0,0,1,10.87-14c1-.24,1.93-.36,2.92-.54.26,1.15.49,2.21.72,3.27.72,3.26,1.43,6.52,2.15,9.77a.9.9,0,0,0,1.47.63l8.29-5a.59.59,0,0,1,.72,0L131,80.53c.79.47,1.36.22,1.56-.68q1.36-6.28,2.75-12.56c0-.09.05-.18.1-.38a27.22,27.22,0,0,1,2.75.49,14.39,14.39,0,0,1,10.69,11A13.71,13.71,0,0,1,149.16,81.38Zm-35.39-2.91-2.54-11.54h.42c1,0,2.07,0,3.1,0a.74.74,0,0,1,.48.22c.58.65,1.13,1.34,1.69,2,.41.48.85.94,1.25,1.43,1,1.16,1.88,2.33,2.85,3.53Zm17.25,0-7.28-4.36,1.15-1.38,4.65-5.57a.62.62,0,0,1,.38-.22c1.16,0,2.32,0,3.47,0a.85.85,0,0,1,.15,0C132.7,70.8,131.86,74.61,131,78.47Z"/><path class="cls-1" d="M148.09,90.22l.08-1.35V86.76c0-1.79,0-3.58,0-5.36a12.26,12.26,0,0,0-.31-2.71,13.3,13.3,0,0,0-10-10.33,13.69,13.69,0,0,0-1.71-.32l-2.64,12a1.9,1.9,0,0,1-3,1.32l-.74-.44-7.34-4.41-7.17,4.31-1,.57a1.87,1.87,0,0,1-3-1.26q-.84-3.8-1.67-7.59l-1-4.53h0c-.66.11-1.29.22-1.9.37a13.59,13.59,0,0,0-10.11,13v6.72h.22l0,2-1,0-2.06,0h-.87l-.25-2h.23V86.44c0-1.73,0-3.47,0-5.21a16.6,16.6,0,0,1,2.92-9.33,17,17,0,0,1,12.32-7.6,30.16,30.16,0,0,1,3.4-.15h3.84A2.13,2.13,0,0,1,117,65l1.78,2.13,3.57,4.29,1.5-1.79,3.91-4.7a2,2,0,0,1,1.57-.74c.12,0,.23,0,.35,0h1.55c1.44,0,2.93,0,4.4.07A17.39,17.39,0,0,1,152,81.7v8.4h-2.7ZM112.48,67.93l2,9,5.07-3.05-.17-.21c-.65-.82-1.3-1.62-1.95-2.42l-.68-.78-.56-.63-.68-.81c-.29-.36-.59-.71-.89-1.06Zm12.78,5.92,5.08,3.05,2-9H130.2l-3.8,4.54Zm-3.15,0,.26.31.09-.11Zm-7.38-6Zm18.66,0Zm.87-1.78.27.08,0-.08Z"/><path class="cls-1" d="M107.66,42.75v-.41c0-2.31,0-4.61,0-6.92a9.48,9.48,0,0,1,8-9.11,12.47,12.47,0,0,1,1.73-.12H127.6a9.49,9.49,0,0,1,9.26,7.32,11.11,11.11,0,0,1,.24,2.23c0,2.22,0,4.45,0,6.67v.39h.38c.7,0,1.4,0,2.11,0a1.74,1.74,0,0,1,1.74,1.76q0,1.77,0,3.54a3.45,3.45,0,0,1-3.42,3.41c-.32,0-.65,0-1,0a14.66,14.66,0,0,1-6.26,9.86,14.21,14.21,0,0,1-9.24,2.54,14.76,14.76,0,0,1-13.59-12.4h-.93a3.26,3.26,0,0,1-2.36-.91A3.48,3.48,0,0,1,103.43,48c0-1.12,0-2.25,0-3.37a1.75,1.75,0,0,1,1.84-1.87h2.28S107.6,42.77,107.66,42.75Zm19.39-6.47-.1,0A19.35,19.35,0,0,1,118,39a19.74,19.74,0,0,0-3.35.26,7.6,7.6,0,0,0-5.06,3.55,1.19,1.19,0,0,0-.18.57c0,2,0,4.11,0,6.16a11.75,11.75,0,0,0,.22,2.13,12.95,12.95,0,0,0,25.65-2.06c0-2.59,0-5.18,0-7.77,0-.23-.09-.31-.29-.37a18.12,18.12,0,0,1-5.44-3C128.74,37.8,127.92,37,127.05,36.28ZM109.42,40.1l.16-.1a10.12,10.12,0,0,1,7.13-2.74,25.23,25.23,0,0,0,2.75-.19,16.74,16.74,0,0,0,7.09-2.61c.69-.45,1-.41,1.55.2a18.74,18.74,0,0,0,6,4.52c.39.19.8.34,1.24.52,0-1.47,0-2.86,0-4.26a7.59,7.59,0,0,0-7.2-7.42c-3.76-.13-7.52-.12-11.28,0a7.56,7.56,0,0,0-7.25,6.16C109.24,36.11,109.53,38.08,109.42,40.1Zm-4.22,4.5V45c0,.91,0,1.81,0,2.72a3,3,0,0,0,.22,1.15,2,2,0,0,0,2.27.82V44.6Zm31.94,5.14h.72A1.7,1.7,0,0,0,139.58,48c0-1,0-2.09,0-3.13a2.64,2.64,0,0,0,0-.28h-2.41Z"/><path class="cls-1" d="M122.43,64.94q-.53,0-1.05,0A15.65,15.65,0,0,1,107,52.51h-.11a4.23,4.23,0,0,1-3-1.2A4.45,4.45,0,0,1,102.43,48V44.67a2.75,2.75,0,0,1,2.83-2.87h1.4v-1.6c0-1.59,0-3.19,0-4.78a10.49,10.49,0,0,1,8.88-10.09,12.86,12.86,0,0,1,1.87-.13h10.19a10.42,10.42,0,0,1,10.22,8.1,11.36,11.36,0,0,1,.27,2.43c0,1.62,0,3.24,0,4.85v1.23h1.51a2.72,2.72,0,0,1,2.72,2.75c0,1.19,0,2.38,0,3.56a4.47,4.47,0,0,1-4.41,4.4h-.19a15.56,15.56,0,0,1-6.5,9.68A15.18,15.18,0,0,1,122.43,64.94Zm4.49-27.44A20.65,20.65,0,0,1,118.1,40l-1,0a10.72,10.72,0,0,0-2.16.19,6.59,6.59,0,0,0-4.42,3.1l0,.32c0,2,0,3.92,0,5.87a11.51,11.51,0,0,0,.2,1.95,11.94,11.94,0,0,0,23.67-1.88c0-1.63,0-3.25,0-4.88,0-.81,0-1.62,0-2.44a19.06,19.06,0,0,1-5.35-3c-.63-.49-1.23-1-1.81-1.55Zm-18.51,13h.1v0Zm-2.22-4.91v.21c0,.63,0,1.25,0,1.87a2,2,0,0,0,.13.75.58.58,0,0,0,.36.26V45.6Zm31.95,0v3.08a.67.67,0,0,0,.44-.67V45.6Zm-29.88-2h.19v-.07Zm-.31,0h0l-.31-.85Zm.71-1.83v.74a1.9,1.9,0,0,1,.11-.21,8.71,8.71,0,0,1,.77-1.08Zm18.65-8.61a2.09,2.09,0,0,1,1.54.84,17.69,17.69,0,0,0,5.49,4.19c0-.92,0-1.82,0-2.72A6.62,6.62,0,0,0,128.1,29c-3.55-.12-7.32-.13-11.22,0a6.51,6.51,0,0,0-6.29,5.35,16.77,16.77,0,0,0-.16,3.43c0,.08,0,.17,0,.26a11.42,11.42,0,0,1,6.25-1.78,23.46,23.46,0,0,0,2.63-.18A15.85,15.85,0,0,0,126,33.63,2.41,2.41,0,0,1,127.31,33.16Z"/><path class="cls-1" d="M142.67,85h-7.35V83.25h7.35Z"/><rect class="cls-1" x="134.32" y="82.25" width="9.35" height="3.74"/><path class="cls-1" d="M150.94,89.67H93.77V87.93h57.17Z"/><rect class="cls-1" x="92.77" y="86.93" width="59.17" height="3.74"/><path class="cls-1" d="M115.52,66.93a1,1,0,0,1-.38-2,5,5,0,0,0,2.51-2.52,1,1,0,1,1,1.92.76,7.09,7.09,0,0,1-3.67,3.67A1,1,0,0,1,115.52,66.93Z"/><path class="cls-1" d="M115.52,67.93a2,2,0,0,1-.76-3.92,4,4,0,0,0,2-2,2,2,0,0,1,3.77,1.53,8.13,8.13,0,0,1-4.23,4.22A2,2,0,0,1,115.52,67.93Zm3.12-5.12a6.75,6.75,0,0,1-3.13,3.06v.06h0A6,6,0,0,0,118.64,62.81Z"/><path class="cls-1" d="M131,66.93a1,1,0,0,0,.38-2,5.1,5.1,0,0,1-2.52-2.52,1,1,0,1,0-1.91.76,7.09,7.09,0,0,0,3.67,3.67A1,1,0,0,0,131,66.93Z"/><path class="cls-1" d="M131,67.93a1.93,1.93,0,0,1-.75-.15A8.2,8.2,0,0,1,126,63.56a2,2,0,1,1,3.77-1.51h0a4.09,4.09,0,0,0,2,2,2,2,0,0,1,1.14,2.64A2,2,0,0,1,131,67.93Zm-3.07-5.15A5.67,5.67,0,0,0,131,65.93h0a0,0,0,0,0,0,0A6.33,6.33,0,0,1,127.92,62.78Z"/><path class="cls-1" d="M189.85,106.79c-.14-.43-.27-.85-.42-1.26-.64-1.77-1.37-3.51-2.12-5.23A50.1,50.1,0,0,0,185,95.64,16,16,0,0,0,183.22,93a7.78,7.78,0,0,0-3-2.2l-.3-.12s0,0,.05,0a15.71,15.71,0,0,1,3-2.48,7.12,7.12,0,0,1,2.34-.95,3,3,0,0,1,1.54,0,3.62,3.62,0,0,1,1.21.75,9.83,9.83,0,0,1,1.63,2A30.75,30.75,0,0,1,191.82,94c.25.57.51,1.14.77,1.71a.48.48,0,0,0,0,.11c0-.06.07-.11.1-.16a79.92,79.92,0,0,1,5.19-7.58q2.83-3.68,6-7.07a100.63,100.63,0,0,1,8.71-8.32,68.85,68.85,0,0,1,8.75-6.34l1.32-.77.11-.06L224,67.1l-.06,0a58.59,58.59,0,0,0-6.52,5.77c-2.37,2.38-4.58,4.9-6.72,7.49-2.51,3.06-4.91,6.2-7.16,9.46a96.09,96.09,0,0,0-6.14,10c-.39.75-.76,1.51-1.15,2.27a.43.43,0,0,1-.14.16c-1.41,1-2.83,1.93-4.23,2.92-.67.47-1.29,1-1.94,1.52Z"/><path class="cls-2" d="M181.87,112.67H82.24A10.29,10.29,0,0,1,72,102.39V18A10.29,10.29,0,0,1,82.24,7.67H195.67A10.29,10.29,0,0,1,206,18V48"/><path class="cls-2" d="M97.94,53.46,81.6,69.77V57.93l-.92.14a29,29,0,0,0-13.09,5.77,26.63,26.63,0,0,0-6.16,7.25,32.75,32.75,0,0,0-4.28,13.26c-.29,2.83-.23,5.7-.25,8.56,0,4.56,0,9.12,0,13.68a5.12,5.12,0,0,1-10.23.13c-.06-1.51,0-3,0-4.53V87.89a44.51,44.51,0,0,1,3-15.77A38.53,38.53,0,0,1,57.7,59.05a36.16,36.16,0,0,1,15.17-9.53,46.7,46.7,0,0,1,8.18-1.9c.16,0,.32-.06.52-.1V37.09Z"/><path class="cls-2" d="M68.16,19.9H56.9V48.14c0,1.23,0,2.47,0,3.7a.88.88,0,0,1-.26.61,31.64,31.64,0,0,0-5.38,5.22s-.1.1,0-.05l-2.64-2.33c-.53-.47-1-1-1.6-1.4a1,1,0,0,1-.39-.86l0-17.38q0-7.6,0-15.2c0-.16,0-.33,0-.56H35.43L51.79,3.53Z"/><path class="cls-2" d="M19.89,57.63v12L3.54,53.3,19.85,37V47.26c1.18.13,2.29.23,3.4.38a42.84,42.84,0,0,1,17.3,5.91,33.92,33.92,0,0,1,8,7,.7.7,0,0,1,.07,1,35,35,0,0,0-4.18,11c0,.17-.08.33-.15.59-.1-.19-.18-.3-.23-.42A23.32,23.32,0,0,0,31.47,60.34a37.66,37.66,0,0,0-11-2.71A5.6,5.6,0,0,0,19.89,57.63Z"/></g></g></svg>