<svg xmlns="http://www.w3.org/2000/svg" viewBox="0 0 111.79 143.84"><defs><style>.cls-1{fill:none;}.cls-1,.cls-2{stroke:#c20506;stroke-linecap:round;stroke-linejoin:round;stroke-width:4px;}.cls-2{fill:#fff;}.cls-3{fill:#c20506;}</style></defs><title>METODO_EVALUACION</title><g id="Capa_2" data-name="Capa 2"><g id="Capa_1-2" data-name="Capa 1"><path class="cls-1" d="M2,30.28v89.87a7,7,0,0,0,7,7H89.08a7,7,0,0,0,7-7V9a7,7,0,0,0-7-7H36.44"/><path class="cls-2" d="M2,30.28H29.45a7,7,0,0,0,7-7V2Z"/><line class="cls-2" x1="84.08" y1="105.44" x2="12.97" y2="105.44"/><line class="cls-2" x1="84.08" y1="91.72" x2="12.97" y2="91.72"/><line class="cls-2" x1="84.08" y1="78" x2="12.97" y2="78"/><path class="cls-1" d="M15.72,127.29v7.56a7,7,0,0,0,7,7H102.8a7,7,0,0,0,7-7V23.69a7,7,0,0,0-7-7H96.24"/><path class="cls-3" d="M45.89,63.14V41.48l-5,5.06-3.63-3.81,9.4-9.44h5.55V63.14Z"/><path class="cls-3" d="M56.72,48.24c0-7.7,3.81-15.4,12.35-15.4s12.36,7.7,12.36,15.4S77.58,63.68,69.07,63.68,56.72,55.94,56.72,48.24Zm18.22,0c0-5.51-1.61-9.76-5.87-9.76s-5.9,4.25-5.9,9.76,1.61,9.8,5.9,9.8S74.94,53.74,74.94,48.24Z"/></g></g></svg>