<svg xmlns="http://www.w3.org/2000/svg" xmlns:xlink="http://www.w3.org/1999/xlink" viewBox="0 0 85.96 141.8"><defs><style>.cls-1{fill:url(#Degradado_sin_nombre_6);}.cls-2{fill:#c20506;}.cls-3{fill:#fff;}</style><linearGradient id="Degradado_sin_nombre_6" x1="72.59" y1="70.9" x2="0" y2="70.9" gradientUnits="userSpaceOnUse"><stop offset="0" stop-color="#c20506"/><stop offset="0.1" stop-color="#b9090d"/><stop offset="0.28" stop-color="#9f1420"/><stop offset="0.5" stop-color="#76273f"/><stop offset="0.75" stop-color="#3d406a"/><stop offset="0.99" stop-color="#005b97"/></linearGradient></defs><title>Recurso 19</title><g id="Capa_2" data-name="Capa 2"><g id="Capa_1-2" data-name="Capa 1"><path class="cls-1" d="M1.7,141.8a1.7,1.7,0,1,1,0-3.39,67.51,67.51,0,0,0,0-135A1.7,1.7,0,1,1,1.7,0a70.9,70.9,0,0,1,0,141.8Z"/><circle class="cls-2" cx="70.9" cy="70.9" r="15.06"/><path class="cls-3" d="M74.25,64.93l-3.51,0a1.15,1.15,0,0,1-1.14-1.15V61a.25.25,0,0,1,.15-.22.26.26,0,0,1,.27,0l4.39,3.65a.23.23,0,0,1,.07.27A.25.25,0,0,1,74.25,64.93Zm-4.14-3.36v2.19a.65.65,0,0,0,.64.65h2.82Z"/><line class="cls-3" x1="68.91" y1="66.32" x2="72.81" y2="66.35"/><path class="cls-3" d="M72.8,66.6l-3.89,0c-.06,0-.11-.12-.11-.26s0-.25.11-.25l3.9,0s.1.12.1.26S72.86,66.6,72.8,66.6Z"/><line class="cls-3" x1="68.9" y1="67.96" x2="72.8" y2="67.98"/><path class="cls-3" d="M72.8,68.23l-3.9,0c-.06,0-.11-.12-.1-.25s0-.26.1-.25l3.9,0c.06,0,.1.11.1.25S72.85,68.23,72.8,68.23Z"/><line class="cls-3" x1="68.89" y1="69.59" x2="72.79" y2="69.61"/><path class="cls-3" d="M72.79,69.86l-3.9,0c-.06,0-.1-.11-.1-.25s0-.25.1-.25l3.9,0c.06,0,.1.11.1.25S72.84,69.86,72.79,69.86Z"/><line class="cls-3" x1="63.69" y1="74.25" x2="68.18" y2="74.27"/><path class="cls-3" d="M68.18,74.52l-4.49,0a.25.25,0,0,1,0-.5l4.49,0a.25.25,0,0,1,0,.5Z"/><line class="cls-3" x1="63.7" y1="72.87" x2="68.19" y2="72.89"/><path class="cls-3" d="M68.19,73.14l-4.49,0a.25.25,0,0,1-.25-.25.25.25,0,0,1,.25-.25l4.49,0a.25.25,0,0,1,0,.5Z"/><line class="cls-3" x1="63.71" y1="71.36" x2="68.2" y2="71.39"/><path class="cls-3" d="M68.2,71.64l-4.49,0a.25.25,0,1,1,0-.5l4.49,0a.26.26,0,0,1,0,.51Z"/><path class="cls-3" d="M71.86,77.32l-8.82,0a1.14,1.14,0,0,1-1.14-1.15L62,61.89a1.15,1.15,0,0,1,1.15-1.14l6.75,0a.26.26,0,0,1,.25.26.26.26,0,0,1-.26.25l-6.74,0a.66.66,0,0,0-.65.64L62.4,76.12a.64.64,0,0,0,.64.65l8.82,0a.25.25,0,1,1,0,.5Z"/><path class="cls-3" d="M74.22,71.2A.25.25,0,0,1,74,71l0-6.27a.26.26,0,0,1,.26-.25.25.25,0,0,1,.25.25l0,6.27A.25.25,0,0,1,74.22,71.2Z"/><path class="cls-3" d="M75.49,76.43l.53.47a.71.71,0,0,0,.22.06.63.63,0,0,1,.2.1c.87.87,1.74,1.76,2.61,2.64,0,0,0,0,0,0l-.7.66c-.74-.76-1.52-1.54-2.27-2.33-.18-.19-.44-.31-.45-.67,0-.21-.35-.39-.56-.61a3.49,3.49,0,0,1-3.18.69,3.39,3.39,0,0,1-2-1.46,3.51,3.51,0,0,1,5.26-4.55A3.55,3.55,0,0,1,75.49,76.43Zm-2.68.41a2.74,2.74,0,1,0-2.71-2.73A2.76,2.76,0,0,0,72.81,76.84Z"/><path class="cls-3" d="M65.7,69.65h0a2,2,0,1,1,0-4.09h0a2.05,2.05,0,0,1,2,2.06h0A2.06,2.06,0,0,1,65.7,69.65Zm0-3.62a1.55,1.55,0,0,0-1.11.46A1.58,1.58,0,1,0,65.71,66Zm1.81,1.59Z"/><path class="cls-3" d="M64.73,69.31h0a.24.24,0,0,1-.2-.27,1.31,1.31,0,0,1,1.2-1.2h0A1.3,1.3,0,0,1,66.89,69a.24.24,0,0,1-.47.08.84.84,0,0,0-.72-.8h0a.85.85,0,0,0-.73.8A.23.23,0,0,1,64.73,69.31Z"/><path class="cls-3" d="M65.7,67.79h0a.81.81,0,0,1,0-1.61.84.84,0,0,1,.57.24.79.79,0,0,1,.23.57.82.82,0,0,1-.24.57A.79.79,0,0,1,65.7,67.79Zm0-1.14a.34.34,0,0,0,0,.67h0a.35.35,0,0,0,.24-.1A.33.33,0,0,0,66,67a.34.34,0,0,0-.33-.34Z"/><path class="cls-3" d="M73.28,72a2.68,2.68,0,0,1,.3.12.67.67,0,0,1-.41,1.22A.67.67,0,0,1,73.1,72h.18Z"/><path class="cls-3" d="M72.62,73.62a1,1,0,0,1,.49.12.7.7,0,0,1,.34.68,1.17,1.17,0,0,1-.16.51c-.09.18-.18.35-.26.53a1.46,1.46,0,0,0-.07.19.14.14,0,0,0,.14.18l.3,0a.15.15,0,0,1,.17.07.14.14,0,0,1,0,.18,1.3,1.3,0,0,1-1.16.23.72.72,0,0,1-.5-.83,2.24,2.24,0,0,1,.27-.66c.06-.13.13-.26.18-.39a.4.4,0,0,0,0-.15.11.11,0,0,0-.1-.12.78.78,0,0,0-.34,0,.13.13,0,0,1-.17-.06.12.12,0,0,1,0-.17A1.32,1.32,0,0,1,72.62,73.62Z"/></g></g></svg>