<svg xmlns="http://www.w3.org/2000/svg" xmlns:xlink="http://www.w3.org/1999/xlink" viewBox="0 0 85.96 141.8"><defs><style>.cls-1{fill:url(#Degradado_sin_nombre_6);}.cls-2{fill:#023165;}.cls-3{fill:#fff;}</style><linearGradient id="Degradado_sin_nombre_6" y1="70.9" x2="72.59" y2="70.9" gradientUnits="userSpaceOnUse"><stop offset="0" stop-color="#c20506"/><stop offset="0.1" stop-color="#b9090d"/><stop offset="0.28" stop-color="#9f1420"/><stop offset="0.5" stop-color="#76273f"/><stop offset="0.75" stop-color="#3d406a"/><stop offset="0.99" stop-color="#005b97"/></linearGradient></defs><title>Recurso 20</title><g id="Capa_2" data-name="Capa 2"><g id="Capa_1-2" data-name="Capa 1"><path class="cls-1" d="M1.7,141.8a1.7,1.7,0,1,1,0-3.39,67.51,67.51,0,0,0,0-135A1.7,1.7,0,1,1,1.7,0a70.9,70.9,0,0,1,0,141.8Z"/><circle class="cls-2" cx="70.9" cy="70.9" r="15.06"/><path class="cls-3" d="M66.32,66.59V60.74c0-.33.05-.37.38-.37h7.84c.31,0,.36.05.36.37v5.85h3.18a1,1,0,0,1,1.12,1.12v8.2A1,1,0,0,1,78.5,77c-.12,0-.11.12-.11.21a3,3,0,0,1-6,.07c0-.2-.08-.22-.25-.22H63.22a1.8,1.8,0,0,1-.4,0,1,1,0,0,1-.8-1V67.69a1,1,0,0,1,1.1-1.1h3.2Zm.47-5.76V71.64h5.6c0-.33,0-.65,0-1a.32.32,0,0,0-.24-.35,1.16,1.16,0,0,1-.75-1.09c0-.15.06-.25.21-.26s.25.07.27.23a1.18,1.18,0,0,0,0,.2.68.68,0,0,0,.45.48c0-.47,0-.91,0-1.35,0-.05-.07-.12-.13-.15a1.13,1.13,0,0,1-.83-1.11,1.18,1.18,0,0,1,.81-1.16c.1,0,.17-.06.17-.19a.22.22,0,0,1,.23-.23.21.21,0,0,1,.24.21c0,.15.09.18.2.22a1.19,1.19,0,0,1,.78,1.07c0,.2-.11.34-.28.31a.25.25,0,0,1-.21-.27.61.61,0,0,0-.48-.61c0,.4,0,.81,0,1.22a.21.21,0,0,0,.16.24,1.19,1.19,0,0,1,.81,1.28.21.21,0,0,0,.06.19,1,1,0,0,1,.33.81v1.18a1,1,0,0,0,0,.11l.18,0V60.83Zm6,13h0c0,1.13,0,2.26,0,3.38a2.55,2.55,0,0,0,5.1,0c0-1.29,0-2.58,0-3.87a.47.47,0,1,0-.93,0v1c0,.22-.08.33-.24.32s-.22-.16-.22-.33V73.17c0-.37-.18-.6-.47-.59s-.46.22-.46.58v1.2c0,.16,0,.3-.22.32s-.23-.1-.23-.32c0-.44,0-.88,0-1.33a.43.43,0,0,0-.37-.44.44.44,0,0,0-.49.23.85.85,0,0,0-.06.31c0,.43,0,.87,0,1.3a.22.22,0,0,1-.23.25.21.21,0,0,1-.23-.24V70.3a.47.47,0,1,0-.93,0ZM72,76.57l-.1-.16c-.4-.59-.8-1.17-1.18-1.76A.91.91,0,0,1,71,73.4a.92.92,0,0,1,1.26.2,1.77,1.77,0,0,1,.13.17V73H66.7c-.33,0-.38,0-.38-.38V67.06h-.79v9.51Zm-7-9.52h-1.9a.61.61,0,0,0-.69.7v8.11c0,.49.22.72.7.72h1.7l.19,0Zm13.33,9.48a.68.68,0,0,0,.37-.67c0-2.7,0-5.4,0-8.09a1,1,0,0,0,0-.25.55.55,0,0,0-.48-.46c-.57,0-1.15,0-1.73,0,0,0,0,.08,0,.12,0,1.64,0,3.29,0,4.94a.25.25,0,0,0,.06.16l.29.27c.3-.05.32-.25.32-.5,0-.77,0-1.54,0-2.31,0,0,0-.12,0-.16s.14-.18.21-.19.17.1.22.18,0,.12,0,.18c0,.81,0,1.63,0,2.44,0,.1,0,.18.13.22a.91.91,0,0,1,.63.94c0,.77,0,1.54,0,2.31ZM74.9,67.05v2.2c0,.91,0,1.81,0,2.72a.28.28,0,0,0,.08.2,3.07,3.07,0,0,0,.38.22,2.23,2.23,0,0,1,.5-.23c.17,0,.19-.11.19-.25,0-1.54,0-3.09,0-4.63a1.93,1.93,0,0,0,0-.23Zm-8.12,5.51h5.59v-.44H66.78Zm5.55,3.63h0c0-.49,0-1,0-1.48a.35.35,0,0,0-.06-.19c-.12-.2-.26-.4-.4-.59a.46.46,0,1,0-.76.52c.18.28.37.55.55.82Zm0-8.3V66.6a.71.71,0,0,0-.46.72A.59.59,0,0,0,72.35,67.89Zm.52,1.55a3,3,0,0,0,.37-.08.2.2,0,0,0,.1-.12.64.64,0,0,0-.47-.66Z"/><path class="cls-3" d="M73,62.24H68.26A.22.22,0,0,1,68,62a.22.22,0,0,1,.22-.22H73a.22.22,0,0,1,.22.22A.22.22,0,0,1,73,62.24Z"/><path class="cls-3" d="M73,63.89H68.26a.22.22,0,0,1-.22-.23.22.22,0,0,1,.22-.22H73a.22.22,0,0,1,.22.22A.22.22,0,0,1,73,63.89Z"/><path class="cls-3" d="M70.54,69H68.26a.22.22,0,0,1-.22-.22.22.22,0,0,1,.22-.23h2.28a.22.22,0,0,1,.22.23A.22.22,0,0,1,70.54,69Z"/><path class="cls-3" d="M70.54,67.3H68.26a.22.22,0,0,1,0-.44h2.28a.22.22,0,0,1,0,.44Z"/><path class="cls-3" d="M73,65.53H68.26a.22.22,0,0,1-.22-.22.22.22,0,0,1,.22-.23H73a.22.22,0,0,1,.22.23A.22.22,0,0,1,73,65.53Z"/></g></g></svg>