<svg xmlns="http://www.w3.org/2000/svg" xmlns:xlink="http://www.w3.org/1999/xlink" viewBox="0 0 85.96 141.8"><defs><style>.cls-1{fill:url(#Degradado_sin_nombre_6);}.cls-2{fill:#c20506;}.cls-3{fill:#fff;}</style><linearGradient id="Degradado_sin_nombre_6" x1="72.59" y1="70.9" x2="0" y2="70.9" gradientUnits="userSpaceOnUse"><stop offset="0" stop-color="#c20506"/><stop offset="0.1" stop-color="#b9090d"/><stop offset="0.28" stop-color="#9f1420"/><stop offset="0.5" stop-color="#76273f"/><stop offset="0.75" stop-color="#3d406a"/><stop offset="0.99" stop-color="#005b97"/></linearGradient></defs><title>Recurso 21</title><g id="Capa_2" data-name="Capa 2"><g id="Capa_1-2" data-name="Capa 1"><path class="cls-1" d="M1.7,141.8a1.7,1.7,0,1,1,0-3.39,67.51,67.51,0,0,0,0-135A1.7,1.7,0,1,1,1.7,0a70.9,70.9,0,0,1,0,141.8Z"/><circle class="cls-2" cx="70.9" cy="70.9" r="15.06"/><path class="cls-3" d="M75.58,73.27H68.49a.82.82,0,0,1-.81-.82V62.61a.82.82,0,0,1,.81-.82h4.67a.2.2,0,0,1,0,.4H68.49a.42.42,0,0,0-.42.42v9.84a.42.42,0,0,0,.42.42h7.09a.42.42,0,0,0,.43-.42v-8a.19.19,0,0,1,.19-.2.2.2,0,0,1,.2.2v8A.82.82,0,0,1,75.58,73.27Z"/><path class="cls-3" d="M76.2,64.69H73.77a.81.81,0,0,1-.81-.82V62a.19.19,0,0,1,.11-.18.2.2,0,0,1,.21,0l3,2.5a.2.2,0,0,1,.06.22A.2.2,0,0,1,76.2,64.69Zm-2.85-2.28v1.46a.42.42,0,0,0,.42.42h1.88Z"/><path class="cls-3" d="M79.62,74.56H62.83a.2.2,0,0,1-.2-.2.19.19,0,0,1,.2-.19H79.62a.19.19,0,0,1,.2.19A.2.2,0,0,1,79.62,74.56Z"/><path class="cls-3" d="M74.46,79.41H68a.66.66,0,1,1,0-1.32h6.48a.66.66,0,0,1,0,1.32ZM68,78.49A.27.27,0,0,0,68,79h6.48a.27.27,0,0,0,0-.53Z"/><path class="cls-3" d="M68.85,78.49a.21.21,0,0,1-.19-.15.19.19,0,0,1,.14-.24c.32-.1.39-.69.39-.88v-1a.2.2,0,0,1,.2-.19.19.19,0,0,1,.19.19v1c0,.05,0,1.06-.67,1.27Z"/><path class="cls-3" d="M73.68,78.48h-.06C73,78.27,73,77.25,73,77.21v-1a.2.2,0,0,1,.4,0v1s0,.77.39.89a.2.2,0,0,1,.13.24A.19.19,0,0,1,73.68,78.48Z"/><path class="cls-3" d="M72.13,75.37H70.3a.2.2,0,0,1,0-.4h1.83a.2.2,0,0,1,0,.4Z"/><path class="cls-3" d="M78.57,76.39H63.86a1.23,1.23,0,0,1-1.23-1.22V66.74a1.23,1.23,0,0,1,1.23-1.22h4a.2.2,0,0,1,.2.2.19.19,0,0,1-.2.19h-4a.83.83,0,0,0-.83.83v8.43a.83.83,0,0,0,.83.83H78.57a.83.83,0,0,0,.83-.83V66.74a.83.83,0,0,0-.83-.83H76.23a.19.19,0,0,1-.2-.19.2.2,0,0,1,.2-.2h2.34a1.22,1.22,0,0,1,1.22,1.22v8.43A1.22,1.22,0,0,1,78.57,76.39Z"/><path class="cls-3" d="M71.18,66.35h-2a.2.2,0,0,1-.2-.2v-2a.2.2,0,0,1,.2-.2h2a.2.2,0,0,1,.2.2v2A.2.2,0,0,1,71.18,66.35ZM69.36,66H71V64.33H69.36Z"/><path class="cls-3" d="M70.42,65.59a.19.19,0,0,1-.15-.07L69.81,65a.2.2,0,1,1,.3-.26l.34.39,1.46-1.08a.22.22,0,0,1,.28,0,.2.2,0,0,1,0,.28l-1.6,1.18A.17.17,0,0,1,70.42,65.59Z"/><path class="cls-3" d="M71.18,69.3h-2a.2.2,0,0,1-.2-.2v-2a.2.2,0,0,1,.2-.2h2a.2.2,0,0,1,.2.2v2A.2.2,0,0,1,71.18,69.3Zm-1.82-.39H71V67.28H69.36Z"/><path class="cls-3" d="M70.42,68.54a.22.22,0,0,1-.15-.06L69.81,68a.22.22,0,0,1,0-.29.2.2,0,0,1,.28,0l.34.39L71.91,67a.21.21,0,0,1,.28,0,.19.19,0,0,1,0,.27l-1.6,1.18A.17.17,0,0,1,70.42,68.54Z"/><path class="cls-3" d="M71.18,72.17h-2A.2.2,0,0,1,69,72V70a.2.2,0,0,1,.2-.2h2a.2.2,0,0,1,.2.2v2A.2.2,0,0,1,71.18,72.17Zm-1.82-.4H71V70.15H69.36Z"/><path class="cls-3" d="M70.42,71.41a.19.19,0,0,1-.15-.07l-.46-.52a.2.2,0,0,1,.3-.26l.34.39,1.46-1.08a.22.22,0,0,1,.28,0,.2.2,0,0,1,0,.28l-1.6,1.18A.17.17,0,0,1,70.42,71.41Z"/><path class="cls-3" d="M73.24,65.19h-.93a.19.19,0,0,1-.19-.19.19.19,0,0,1,.19-.2h.93a.2.2,0,1,1,0,.39Z"/><path class="cls-3" d="M75.12,66.1H72.31a.19.19,0,0,1-.19-.2.18.18,0,0,1,.19-.19h2.81a.19.19,0,0,1,.2.19A.2.2,0,0,1,75.12,66.1Z"/><path class="cls-3" d="M75.12,68.13H72.31a.2.2,0,0,1,0-.4h2.81a.2.2,0,0,1,0,.4Z"/><path class="cls-3" d="M75.12,69.05H72.31a.18.18,0,0,1-.19-.19.19.19,0,0,1,.19-.2h2.81a.2.2,0,0,1,.2.2A.19.19,0,0,1,75.12,69.05Z"/><path class="cls-3" d="M75.12,71.08H72.31a.2.2,0,0,1,0-.4h2.81a.2.2,0,0,1,0,.4Z"/><path class="cls-3" d="M75.12,72H72.31a.2.2,0,0,1,0-.4h2.81a.2.2,0,0,1,0,.4Z"/><path class="cls-3" d="M65.49,69.89a1.68,1.68,0,1,1,1.67-1.67A1.68,1.68,0,0,1,65.49,69.89Zm0-3a1.28,1.28,0,1,0,0,2.56,1.28,1.28,0,0,0,0-2.56Z"/><path class="cls-3" d="M64.7,69.62h0a.21.21,0,0,1-.17-.23,1.08,1.08,0,0,1,1-1,1.07,1.07,0,0,1,1,1,.2.2,0,0,1-.16.23.19.19,0,0,1-.23-.16.68.68,0,0,0-.59-.64.67.67,0,0,0-.59.65A.2.2,0,0,1,64.7,69.62Z"/><path class="cls-3" d="M65.49,68.37a.66.66,0,0,1,0-1.32.66.66,0,0,1,0,1.32Zm0-.92a.27.27,0,1,0,.26.26A.27.27,0,0,0,65.49,67.45Z"/><path class="cls-3" d="M65.49,73.6a1.67,1.67,0,1,1,1.67-1.67A1.68,1.68,0,0,1,65.49,73.6Zm0-2.95a1.28,1.28,0,1,0,1.28,1.28A1.28,1.28,0,0,0,65.49,70.65Z"/><path class="cls-3" d="M64.7,73.33h0a.21.21,0,0,1-.17-.23,1.08,1.08,0,0,1,1-1,1.07,1.07,0,0,1,1,1,.19.19,0,0,1-.16.22.19.19,0,0,1-.23-.16.68.68,0,0,0-.59-.64.67.67,0,0,0-.59.65A.2.2,0,0,1,64.7,73.33Z"/><path class="cls-3" d="M65.49,72.09a.67.67,0,1,1,.66-.67A.66.66,0,0,1,65.49,72.09Zm0-.93a.27.27,0,1,0,.26.26A.27.27,0,0,0,65.49,71.16Z"/></g></g></svg>