<svg xmlns="http://www.w3.org/2000/svg" xmlns:xlink="http://www.w3.org/1999/xlink" viewBox="0 0 373.13 181.23"><defs><style>.cls-1{fill:#023165;}.cls-2{fill:#c20506;}.cls-3{fill:url(#Degradado_sin_nombre_6);}.cls-4{fill:url(#Degradado_sin_nombre_6-2);}.cls-5{fill:url(#Degradado_sin_nombre_6-3);}.cls-6{fill:url(#Degradado_sin_nombre_6-4);}.cls-7{fill:url(#Degradado_sin_nombre_6-5);}.cls-8{fill:url(#Degradado_sin_nombre_6-6);}.cls-9{fill:url(#Degradado_sin_nombre_6-7);}.cls-10{fill:url(#Degradado_sin_nombre_6-8);}.cls-11{fill:url(#Degradado_sin_nombre_6-9);}</style><linearGradient id="Degradado_sin_nombre_6" x1="58.15" y1="180.53" x2="58.15" y2="64.23" gradientUnits="userSpaceOnUse"><stop offset="0" stop-color="#c20506"/><stop offset="0.1" stop-color="#b9090d"/><stop offset="0.28" stop-color="#9f1420"/><stop offset="0.5" stop-color="#76273f"/><stop offset="0.75" stop-color="#3d406a"/><stop offset="0.99" stop-color="#005b97"/></linearGradient><linearGradient id="Degradado_sin_nombre_6-2" x1="68.23" y1="95.19" x2="177.85" y2="95.19" xlink:href="#Degradado_sin_nombre_6"/><linearGradient id="Degradado_sin_nombre_6-3" x1="64.99" y1="30.47" x2="183.77" y2="30.47" xlink:href="#Degradado_sin_nombre_6"/><linearGradient id="Degradado_sin_nombre_6-4" x1="187.86" y1="181.23" x2="187.86" y2="120.3" xlink:href="#Degradado_sin_nombre_6"/><linearGradient id="Degradado_sin_nombre_6-5" x1="186.66" y1="106.67" x2="186.66" y2="64.93" xlink:href="#Degradado_sin_nombre_6"/><linearGradient id="Degradado_sin_nombre_6-6" x1="195.61" y1="97.26" x2="308.04" y2="97.26" xlink:href="#Degradado_sin_nombre_6"/><linearGradient id="Degradado_sin_nombre_6-7" x1="193.83" y1="32.53" x2="310.87" y2="32.53" xlink:href="#Degradado_sin_nombre_6"/><linearGradient id="Degradado_sin_nombre_6-8" x1="315.27" y1="181.23" x2="315.27" y2="125.96" xlink:href="#Degradado_sin_nombre_6"/><linearGradient id="Degradado_sin_nombre_6-9" x1="313.92" y1="107.37" x2="313.92" y2="64.93" xlink:href="#Degradado_sin_nombre_6"/></defs><title>Recurso 23</title><g id="Capa_2" data-name="Capa 2"><g id="Capa_1-2" data-name="Capa 1"><path class="cls-1" d="M304.16,147.24a.55.55,0,0,1-.55-.55v-8.91a.55.55,0,0,1,.55-.55.55.55,0,0,1,.55.55v8.91A.55.55,0,0,1,304.16,147.24Z"/><path class="cls-1" d="M315,130.81a1.11,1.11,0,0,0,1.17.91c.75,0,1.06-.36,1.06-.83s-.26-.79-1.22-1.07c-1.55-.44-2.06-1-2.06-1.92a1.88,1.88,0,0,1,2.11-1.76c1.62,0,2.14.87,2.22,1.67h-1.19a.93.93,0,0,0-1-.77c-.68,0-.9.39-.9.74s.25.69,1.29,1c1.47.41,2,1,2,2,0,1.23-.92,1.86-2.29,1.86s-2.23-.74-2.31-1.8Zm.58-4.27v-1h1v1Zm.05,6.83v-1.32h1v1.32Z"/><path class="cls-1" d="M332.55,132.83H319.93a.56.56,0,0,1,0-1.11H332v-1.27l-15.74-6.91-15.95,6.91v1.27h12.17a.56.56,0,0,1,0,1.11H299.75a.55.55,0,0,1-.55-.55v-2.19a.56.56,0,0,1,.33-.51l16.5-7.15a.56.56,0,0,1,.44,0l16.3,7.15a.56.56,0,0,1,.33.51v2.19A.55.55,0,0,1,332.55,132.83Z"/><path class="cls-1" d="M331.05,135.51H301.34a.56.56,0,0,1-.56-.55v-2.63a.56.56,0,0,1,1.11,0v2.08H330.5v-2.08a.56.56,0,0,1,1.11,0V135A.56.56,0,0,1,331.05,135.51Z"/><path class="cls-1" d="M308,138.29h-4.72a.55.55,0,0,1-.55-.55V135a.55.55,0,0,1,.55-.55.55.55,0,0,1,.55.55v2.23h3.62V135a.55.55,0,0,1,.55-.55.55.55,0,0,1,.55.55v2.73A.55.55,0,0,1,308,138.29Z"/><path class="cls-1" d="M308,150.22a.55.55,0,0,1-.55-.55v-2.23h-3.62v2.18a.55.55,0,0,1-.55.55.55.55,0,0,1-.55-.55v-2.73a.55.55,0,0,1,.55-.55H308a.55.55,0,0,1,.55.55v2.78A.55.55,0,0,1,308,150.22Z"/><path class="cls-1" d="M329.07,138.29h-4.72a.55.55,0,0,1-.55-.55V135a.55.55,0,0,1,.55-.55.55.55,0,0,1,.55.55v2.23h3.62V135a.55.55,0,0,1,.55-.55.55.55,0,0,1,.55.55v2.73A.55.55,0,0,1,329.07,138.29Z"/><path class="cls-1" d="M329.07,150.22a.55.55,0,0,1-.55-.55v-2.23H324.9v2.18a.55.55,0,0,1-.55.55.55.55,0,0,1-.55-.55v-2.73a.55.55,0,0,1,.55-.55h4.72a.55.55,0,0,1,.55.55v2.78A.55.55,0,0,1,329.07,150.22Z"/><path class="cls-1" d="M325.23,147.24a.55.55,0,0,1-.55-.55v-8.91a.55.55,0,0,1,.55-.55.55.55,0,0,1,.55.55v8.91A.55.55,0,0,1,325.23,147.24Z"/><path class="cls-1" d="M328.41,147.24a.55.55,0,0,1-.55-.55v-8.91a.55.55,0,0,1,.55-.55.55.55,0,0,1,.55.55v8.91A.55.55,0,0,1,328.41,147.24Z"/><path class="cls-1" d="M307.14,147.24a.55.55,0,0,1-.55-.55v-8.91a.56.56,0,0,1,1.11,0v8.91A.56.56,0,0,1,307.14,147.24Z"/><path class="cls-1" d="M332.65,156.38h-32.8a.55.55,0,0,1-.55-.55v-3.18a.54.54,0,0,1,.55-.55h32.8a.55.55,0,0,1,.55.55v3.18A.55.55,0,0,1,332.65,156.38Zm-32.25-1.1h31.69V153.2H300.4Z"/><path class="cls-1" d="M331.05,153.18a.55.55,0,0,1-.55-.55v-2.21H301.89v2.16a.56.56,0,0,1-1.11,0v-2.71a.55.55,0,0,1,.56-.55h29.71a.55.55,0,0,1,.56.55v2.76A.55.55,0,0,1,331.05,153.18Z"/><path class="cls-1" d="M319.92,150.41a.55.55,0,0,1-.55-.55v-6.25a3.13,3.13,0,1,0-6.25,0v6.25a.55.55,0,0,1-.55.55.55.55,0,0,1-.55-.55v-6.25a4.23,4.23,0,0,1,8.46,0v6.25A.56.56,0,0,1,319.92,150.41Z"/><path class="cls-1" d="M325.23,147.24a.55.55,0,0,1-.55-.55v-8.91a.55.55,0,0,1,.55-.55.55.55,0,0,1,.55.55v8.91A.55.55,0,0,1,325.23,147.24Z"/><path class="cls-2" d="M116.85,37.15a1,1,0,0,0,1.07.83c.69,0,1-.33,1-.76s-.24-.72-1.12-1c-1.42-.41-1.88-.91-1.88-1.77s.87-1.6,1.93-1.6c1.48,0,2,.79,2,1.52h-1.09a.85.85,0,0,0-1-.7c-.62,0-.83.36-.83.68s.24.63,1.19.89c1.34.38,1.81.91,1.81,1.83,0,1.13-.85,1.7-2.1,1.7s-2-.68-2.12-1.65Zm.53-3.91v-.91h.92v.91Zm.05,6.25v-1.2h.93v1.2Z"/><path class="cls-2" d="M138.72,59.67h-5V40.17h5Zm-4.05-.94h3.1V41.12h-3.1Z"/><path class="cls-2" d="M111.09,60.83h29.22a.61.61,0,1,1,0,1.21H111.09v1.67a.6.6,0,0,1-.4.58.57.57,0,0,1-.69-.23.63.63,0,0,1-.11-.35c0-.55,0-1.09,0-1.66h-1.76a.62.62,0,0,1-.61-.38.54.54,0,0,1,.14-.65.56.56,0,0,1,.36-.17c.52,0,1,0,1.56,0h.31V31.43a.6.6,0,1,1,1.2,0c0,.26,0,.52,0,.78V60.83Z"/><path class="cls-2" d="M127.39,59.68a.57.57,0,0,1-.43-.16.58.58,0,0,1-.17-.43c0-1.37,0-2.74,0-4.12V44.29h5V59.68h-4.41Zm.47-1h3V45.24h-3.12V58.73Z"/><path class="cls-2" d="M135.36,32.65l-2.84,1.17-.31.13a.61.61,0,1,1-.47-1.12l2-.84,2.7-1.11a.76.76,0,0,1,1.09.73c0,1.43,0,2.85,0,4.28,0,.29,0,.57,0,.86a.61.61,0,0,1-.53.61.6.6,0,0,1-.66-.43.86.86,0,0,1,0-.23V33.38l-.06,0c-.13.17-.27.34-.4.52-.5.66-1,1.33-1.49,2-.93,1.22-1.85,2.45-2.78,3.68a.3.3,0,0,1-.2.08h-3.7a.28.28,0,0,0-.28.14l-1.87,2.94c-.28.43-.56.86-.83,1.3a.17.17,0,0,1-.18.09h-3.71a.34.34,0,0,0-.34.18l-1.81,2.9c-.29.46-.57.92-.87,1.38a.23.23,0,0,1-.17.1h-4.22a.61.61,0,0,1-.62-.4.58.58,0,0,1,.55-.8H117a.26.26,0,0,0,.25-.14l2.38-3.81c.11-.17.22-.35.31-.52a.19.19,0,0,1,.19-.1h3.79a.24.24,0,0,0,.24-.14l2.7-4.23a.21.21,0,0,1,.19-.11h3.84c.12,0,.16-.06.22-.13,1-1.27,1.91-2.53,2.86-3.79.46-.62.93-1.23,1.39-1.84Z"/><path class="cls-2" d="M124.9,59.67h-5V47.12h5Zm-4.05-1H124V48.07h-3.1Z"/><path class="cls-2" d="M118,59.68h-5v-9h5Zm-4-1H117V51.62h-3.1Z"/><path class="cls-2" d="M117.9,41.5a5.59,5.59,0,1,1,5.59-5.59A5.6,5.6,0,0,1,117.9,41.5Zm0-10.23a4.64,4.64,0,1,0,4.64,4.64A4.64,4.64,0,0,0,117.9,31.27Z"/><path class="cls-2" d="M243.57,54.63a1.15,1.15,0,0,0,1.22.95c.78,0,1.1-.38,1.1-.87s-.27-.82-1.27-1.11c-1.62-.46-2.15-1-2.15-2a2,2,0,0,1,2.2-1.84c1.69,0,2.24.91,2.31,1.74h-1.24a1,1,0,0,0-1.08-.8c-.71,0-.94.41-.94.77s.27.72,1.35,1c1.53.43,2.07,1,2.07,2.08,0,1.29-1,2-2.4,1.94s-2.32-.77-2.41-1.88Zm.6-4.46v-1h1.05v1Zm.06,7.13V55.93h1.06V57.3Z"/><path class="cls-2" d="M244.76,62.61A9.22,9.22,0,1,1,254,53.39,9.22,9.22,0,0,1,244.76,62.61Zm0-17.51a8.29,8.29,0,1,0,8.29,8.29A8.3,8.3,0,0,0,244.76,45.1Z"/><path class="cls-2" d="M240.45,45.67a11.65,11.65,0,0,1-.3-1.45L239,44V39.71l1.39-.35a12.32,12.32,0,0,1,1.72-3.91l-.78-1.62,3.07-3.07,1.83.83a12.47,12.47,0,0,1,3.33-1.33l.57-1.65h4l.72,1.53a12.24,12.24,0,0,1,4.08,1.58l1.34-.59L263.14,34l-.62,1a12.3,12.3,0,0,1,2,4.21l.95.53v4.11l-.7.32a13.63,13.63,0,0,1-.31,1.44l-.9-.25a12,12,0,0,0,.32-1.56l0-.25.63-.3v-3l-.83-.46,0-.2a11.64,11.64,0,0,0-2.05-4.32l-.19-.25.56-.94L260,32.24l-1.2.53-.21-.13a11.41,11.41,0,0,0-4.2-1.62l-.23,0-.68-1.44h-2.73l-.52,1.52-.26.05a11.47,11.47,0,0,0-3.51,1.4l-.21.13-1.69-.77L242.43,34l.74,1.52-.16.22a11.45,11.45,0,0,0-1.8,4.09l-.06.28-1.24.31v2.79l1.07.21,0,.33a11.47,11.47,0,0,0,.33,1.65Z"/><path class="cls-2" d="M244.76,60.47a7.08,7.08,0,1,1,7.08-7.08A7.09,7.09,0,0,1,244.76,60.47Zm0-13.23a6.15,6.15,0,1,0,6.15,6.15A6.16,6.16,0,0,0,244.76,47.24Z"/><path class="cls-2" d="M260.22,60.47a7.08,7.08,0,1,1,7.08-7.08A7.09,7.09,0,0,1,260.22,60.47Zm0-13.23a6.15,6.15,0,1,0,6.15,6.15A6.16,6.16,0,0,0,260.22,47.24Z"/><path class="cls-2" d="M260.22,62.61a9.22,9.22,0,0,1-8.11-4.82l.82-.44a8.3,8.3,0,1,0,0-7.85l-.83-.43a9.22,9.22,0,1,1,8.15,13.54Z"/><path class="cls-2" d="M260.13,48.73a.46.46,0,0,1-.47-.46V46.78a.47.47,0,1,1,.93,0v1.49A.46.46,0,0,1,260.13,48.73Z"/><path class="cls-2" d="M263.68,50.21a.49.49,0,0,1-.33-.14.47.47,0,0,1,0-.66l1.06-1a.47.47,0,1,1,.66.66l-1.06,1A.47.47,0,0,1,263.68,50.21Z"/><path class="cls-2" d="M255.52,58.37a.46.46,0,0,1-.33-.13.47.47,0,0,1,0-.66l1.05-1a.45.45,0,0,1,.66,0,.46.46,0,0,1,0,.65l-1,1.06A.48.48,0,0,1,255.52,58.37Z"/><path class="cls-2" d="M264.74,58.37a.46.46,0,0,1-.33-.13l-1.06-1.06a.46.46,0,0,1,0-.65.45.45,0,0,1,.66,0l1.06,1a.47.47,0,0,1,0,.66A.46.46,0,0,1,264.74,58.37Z"/><path class="cls-2" d="M256.57,50.21a.47.47,0,0,1-.33-.14l-1.05-1a.47.47,0,1,1,.66-.66l1,1a.47.47,0,0,1-.33.8Z"/><path class="cls-2" d="M266.65,53.76h-1.49a.46.46,0,0,1-.47-.46.47.47,0,0,1,.47-.47h1.49a.47.47,0,0,1,.46.47A.46.46,0,0,1,266.65,53.76Z"/><path class="cls-2" d="M255.1,53.76h-1.49a.46.46,0,0,1-.47-.46.47.47,0,0,1,.47-.47h1.49a.47.47,0,0,1,.46.47A.46.46,0,0,1,255.1,53.76Z"/><path class="cls-2" d="M260.13,55.07a1.77,1.77,0,1,1,1.77-1.77A1.77,1.77,0,0,1,260.13,55.07Zm0-2.61a.84.84,0,1,0,.84.84A.84.84,0,0,0,260.13,52.46Z"/><path class="cls-2" d="M259,52.83a.46.46,0,0,1-.33-.13l-1.49-1.49a.47.47,0,1,1,.66-.66L259.34,52a.47.47,0,0,1,0,.66A.46.46,0,0,1,259,52.83Z"/><path class="cls-2" d="M260.05,56.37a.47.47,0,0,1-.47-.46V54.62a.47.47,0,0,1,.93,0v1.29A.47.47,0,0,1,260.05,56.37Z"/><path class="cls-2" d="M243.25,44.86A9.69,9.69,0,1,1,262,40.23l-.92.14a8.76,8.76,0,0,0-17.42,1.28,8.62,8.62,0,0,0,.49,2.9Z"/><path class="cls-2" d="M245.46,44.85a7.5,7.5,0,0,1-.7-3.2,7.64,7.64,0,0,1,15.14-1.41l-.91.17a6.71,6.71,0,0,0-13.3,1.24,6.61,6.61,0,0,0,.61,2.81Z"/><path class="cls-2" d="M262.64,43.24h-4.28a1,1,0,0,1-1-1v-1.3a1,1,0,0,1,1-1h4.28a1,1,0,0,1,1,1v1.3A1,1,0,0,1,262.64,43.24Zm-4.28-2.42a.1.1,0,0,0-.1.09v1.3a.11.11,0,0,0,.1.1h4.28a.11.11,0,0,0,.1-.1v-1.3a.1.1,0,0,0-.1-.09Z"/><rect class="cls-2" x="258.54" y="42.68" width="0.93" height="1.86"/><rect class="cls-2" x="261.52" y="42.68" width="0.93" height="1.86"/><path class="cls-2" d="M200.5,153.35H172.14c-1.63,0-2.9-.85-2.9-1.94V127.29c0-1.09,1.27-1.94,2.9-1.94H195.5a.43.43,0,1,1,0,.85H172.14c-1.21,0-2,.58-2,1.09v24.12c0,.51.84,1.09,2,1.09H200.5c1.21,0,2.05-.58,2.05-1.09v-19.5a.43.43,0,1,1,.85,0v19.5C203.4,152.5,202.13,153.35,200.5,153.35Z"/><path class="cls-2" d="M203,132.35h-6a1.94,1.94,0,0,1-1.94-1.94v-4.62a.42.42,0,0,1,.24-.39.41.41,0,0,1,.45.06l7.48,6.13a.45.45,0,0,1,.13.47A.43.43,0,0,1,203,132.35Zm-7-5.66v3.72A1.09,1.09,0,0,0,197,131.5h4.77Z"/><line class="cls-2" x1="182.94" y1="135.98" x2="198.48" y2="135.98"/><path class="cls-2" d="M198.48,136.41H182.94a.43.43,0,1,1,0-.85h15.54a.43.43,0,1,1,0,.85Z"/><line class="cls-2" x1="182.94" y1="132.76" x2="191.96" y2="132.76"/><path class="cls-2" d="M192,133.19h-9a.43.43,0,1,1,0-.85h9a.43.43,0,1,1,0,.85Z"/><line class="cls-2" x1="182.94" y1="138.75" x2="198.48" y2="138.75"/><path class="cls-2" d="M198.48,139.17H182.94a.43.43,0,1,1,0-.85h15.54a.43.43,0,1,1,0,.85Z"/><line class="cls-2" x1="173.93" y1="147.11" x2="184.06" y2="147.11"/><path class="cls-2" d="M184.06,147.54H173.93a.43.43,0,1,1,0-.85h10.13a.43.43,0,0,1,0,.85Z"/><line class="cls-2" x1="173.93" y1="144.78" x2="184.06" y2="144.78"/><path class="cls-2" d="M184.06,145.2H173.93a.43.43,0,1,1,0-.85h10.13a.43.43,0,0,1,0,.85Z"/><line class="cls-2" x1="173.68" y1="149.66" x2="198.76" y2="149.66"/><path class="cls-2" d="M198.76,150.09H173.68a.43.43,0,1,1,0-.85h25.08a.43.43,0,1,1,0,.85Z"/><line class="cls-2" x1="173.93" y1="142.22" x2="184.06" y2="142.22"/><path class="cls-2" d="M184.06,142.65H173.93a.43.43,0,1,1,0-.85h10.13a.43.43,0,0,1,0,.85Z"/><line class="cls-2" x1="188.38" y1="147.11" x2="198.48" y2="147.11"/><path class="cls-2" d="M198.48,147.54h-10.1a.43.43,0,1,1,0-.85h10.1a.43.43,0,1,1,0,.85Z"/><line class="cls-2" x1="188.38" y1="144.78" x2="198.48" y2="144.78"/><path class="cls-2" d="M198.48,145.2h-10.1a.43.43,0,1,1,0-.85h10.1a.43.43,0,1,1,0,.85Z"/><line class="cls-2" x1="188.38" y1="142.22" x2="198.48" y2="142.22"/><path class="cls-2" d="M198.48,142.65h-10.1a.43.43,0,1,1,0-.85h10.1a.43.43,0,1,1,0,.85Z"/><path class="cls-2" d="M175.69,136.13a1.12,1.12,0,0,0,1.19.92c.77,0,1.08-.37,1.08-.84s-.27-.81-1.24-1.09c-1.58-.45-2.09-1-2.09-2a1.91,1.91,0,0,1,2.14-1.79c1.65,0,2.18.88,2.25,1.7h-1.2a.94.94,0,0,0-1.06-.78c-.69,0-.92.39-.92.75s.26.7,1.32,1c1.49.42,2,1,2,2,0,1.25-.94,1.89-2.33,1.89s-2.26-.76-2.35-1.83Zm.59-4.35v-1h1v1Zm.06,6.95v-1.34h1v1.34Z"/><path class="cls-1" d="M65.82,126.16H58.94a2.24,2.24,0,0,1-2.24-2.25v-5.34a.47.47,0,0,1,.28-.44.49.49,0,0,1,.52.06l8.64,7.09a.5.5,0,0,1-.32.88Zm-8.14-6.55v4.3a1.25,1.25,0,0,0,1.26,1.26h5.51Z"/><path class="cls-1" d="M65.59,152.08a7.3,7.3,0,1,1,7.3-7.3A7.3,7.3,0,0,1,65.59,152.08Zm0-13.62a6.32,6.32,0,1,0,6.32,6.32A6.33,6.33,0,0,0,65.59,138.46Z"/><path class="cls-1" d="M64.27,146.37a1.31,1.31,0,0,0,1.38,1.07c.88,0,1.24-.43,1.24-1s-.31-.93-1.43-1.25C63.64,144.68,63,144,63,143a2.21,2.21,0,0,1,2.48-2.07c1.9,0,2.52,1,2.61,2h-1.4a1.08,1.08,0,0,0-1.22-.9c-.8,0-1.06.46-1.06.87,0,.56.3.81,1.52,1.15,1.73.48,2.33,1.16,2.33,2.34,0,1.45-1.09,2.19-2.7,2.19s-2.62-.88-2.72-2.12Zm.68-5v-1.16h1.19v1.16Zm.07,8v-1.55h1.19v1.55Z"/><line class="cls-1" x1="45.24" y1="128.94" x2="63.5" y2="128.94"/><path class="cls-1" d="M63.5,129.43H45.24a.49.49,0,0,1,0-1H63.5a.49.49,0,1,1,0,1Z"/><line class="cls-1" x1="45.24" y1="132.14" x2="63.5" y2="132.14"/><path class="cls-1" d="M63.5,132.63H45.24a.49.49,0,0,1,0-1H63.5a.49.49,0,0,1,0,1Z"/><line class="cls-1" x1="45.24" y1="135.33" x2="63.5" y2="135.33"/><path class="cls-1" d="M63.5,135.82H45.24a.49.49,0,1,1,0-1H63.5a.49.49,0,1,1,0,1Z"/><line class="cls-1" x1="45.24" y1="144.51" x2="54.03" y2="144.51"/><path class="cls-1" d="M54,145H45.24a.49.49,0,0,1,0-1H54a.49.49,0,0,1,0,1Z"/><line class="cls-1" x1="45.24" y1="141.81" x2="54.03" y2="141.81"/><path class="cls-1" d="M54,142.3H45.24a.49.49,0,0,1,0-1H54a.49.49,0,1,1,0,1Z"/><line class="cls-1" x1="45.24" y1="138.86" x2="54.03" y2="138.86"/><path class="cls-1" d="M54,139.35H45.24a.49.49,0,1,1,0-1H54a.49.49,0,1,1,0,1Z"/><path class="cls-1" d="M61.27,150.45H44a2.25,2.25,0,0,1-2.24-2.25V120.33A2.25,2.25,0,0,1,44,118.08H57.19a.49.49,0,0,1,0,1H44a1.27,1.27,0,0,0-1.26,1.27V148.2A1.27,1.27,0,0,0,44,149.47H61.27a.49.49,0,1,1,0,1Z"/><path class="cls-1" d="M65.82,138.43a.49.49,0,0,1-.49-.49V125.66a.49.49,0,0,1,1,0v12.28A.49.49,0,0,1,65.82,138.43Z"/><path class="cls-3" d="M113.52,119.6a2.78,2.78,0,0,0-2.78,2.78A52.91,52.91,0,1,1,99.57,90l-4.89.45L110,102.78l-1.83-19.53-3.43,4.27a58.56,58.56,0,0,0-6.5-7.31,58.15,58.15,0,1,0,18.11,42.17A2.78,2.78,0,0,0,113.52,119.6Z"/><path class="cls-4" d="M123.14,116.3A58.29,58.29,0,0,1,68.4,77.8a2.78,2.78,0,1,1,5.24-1.88,52.6,52.6,0,0,0,98.82.53,2.78,2.78,0,0,1,5.22,1.94A58.42,58.42,0,0,1,123.14,116.3Z"/><path class="cls-5" d="M179,42A58.16,58.16,0,0,0,65,58.15a2.79,2.79,0,0,0,5.57,0A52.6,52.6,0,0,1,173.37,42.52l-4.72-1.32,9.86,16.95,5.26-18.9Z"/><path class="cls-6" d="M188,181.23a58.21,58.21,0,0,1-58.15-58.15,2.78,2.78,0,1,1,5.56,0,52.59,52.59,0,0,0,104.9,5.38,2.78,2.78,0,0,1,5.54.56A58.16,58.16,0,0,1,188,181.23Z"/><path class="cls-7" d="M240.3,104.83,239,85.26l-3.54,4.18a58.76,58.76,0,0,0-81.31-14A56.37,56.37,0,0,0,133.18,103a2.79,2.79,0,0,0,1.69,3.55,2.76,2.76,0,0,0,.93.16,2.79,2.79,0,0,0,2.63-1.85A50.79,50.79,0,0,1,157.32,80,53.24,53.24,0,0,1,188,70.49a52.42,52.42,0,0,1,36.21,14.45,53.23,53.23,0,0,1,6.05,6.86l-4.91.31Z"/><path class="cls-8" d="M251.83,120.44a58.26,58.26,0,0,1-56.12-42.85,2.78,2.78,0,0,1,5.37-1.46,52.61,52.61,0,0,0,101.49,0,2.78,2.78,0,0,1,5.37,1.46A58.25,58.25,0,0,1,251.83,120.44Z"/><path class="cls-9" d="M306.35,42A58.16,58.16,0,0,0,193.83,58a2.79,2.79,0,0,0,2.57,3h.21a2.77,2.77,0,0,0,2.77-2.57A52.59,52.59,0,0,1,300.74,43l-4.81-1L307,58.16l3.83-19.24Z"/><path class="cls-10" d="M315.27,181.23A58.16,58.16,0,0,1,257.42,129a2.78,2.78,0,1,1,5.53-.56,52.59,52.59,0,0,0,104.63,0,2.78,2.78,0,0,1,5.54.56,58.16,58.16,0,0,1-57.85,52.21Z"/><path class="cls-11" d="M367.56,104.83l-1.32-19.57-3.54,4.18a58.82,58.82,0,0,0-7.39-8.53,58.17,58.17,0,0,0-94.87,22.74,2.79,2.79,0,0,0,1.69,3.56,3,3,0,0,0,.93.16,2.78,2.78,0,0,0,2.62-1.86A52.6,52.6,0,0,1,357.53,91.8l-4.91.31Z"/></g></g></svg>