<svg id="Capa_1" data-name="Capa 1" xmlns="http://www.w3.org/2000/svg" viewBox="0 0 323.93 155.25"><defs><style>.cls-1{fill:#fff;}</style></defs><title>logo_blanco</title><path class="cls-1" d="M370.34,332.11l3.83.41a8.07,8.07,0,0,1-3.35,4.46,11.4,11.4,0,0,1-6.26,1.58A10.89,10.89,0,0,1,357,336a9,9,0,0,1-2.81-7.09,9.46,9.46,0,0,1,2.84-7.32,10.43,10.43,0,0,1,7.36-2.61,10.17,10.17,0,0,1,7.16,2.55,9.29,9.29,0,0,1,2.77,7.19c0,.19,0,.47,0,.85H358a6.25,6.25,0,0,0,6.59,6.35,6.35,6.35,0,0,0,3.48-.91A6.13,6.13,0,0,0,370.34,332.11ZM358.19,327h12.19a5.82,5.82,0,0,0-1.39-3.54,6.1,6.1,0,0,0-4.59-1.83,6.41,6.41,0,0,0-4.29,1.46A5.47,5.47,0,0,0,358.19,327Z" transform="translate(-350.07 -257.67)"/><path class="cls-1" d="M589.73,337.34v-18.7h3.33v2.83a8,8,0,0,1,2.35-2.62,4.54,4.54,0,0,1,2.38-.64,8.09,8.09,0,0,1,3.8,1l-1.27,2.95a6,6,0,0,0-2.72-.69,4,4,0,0,0-2.18.62,3.44,3.44,0,0,0-1.37,1.74,10.53,10.53,0,0,0-.62,3.7v9.79Z" transform="translate(-350.07 -257.67)"/><path class="cls-1" d="M397.27,331l2.83-.5a4.59,4.59,0,0,0,1.33,2.89,4.33,4.33,0,0,0,3.05,1,4.21,4.21,0,0,0,2.93-.89,2.78,2.78,0,0,0,.95-2.09,2,2,0,0,0-.84-1.69,12,12,0,0,0-2.93-1.08,24.28,24.28,0,0,1-4.37-1.52,4.39,4.39,0,0,1-1.84-1.78,5.06,5.06,0,0,1-.63-2.51,5.15,5.15,0,0,1,.52-2.31,4.9,4.9,0,0,1,1.41-1.77,5.61,5.61,0,0,1,1.82-.93,7.89,7.89,0,0,1,2.47-.38,9,9,0,0,1,3.49.64,4.66,4.66,0,0,1,2.22,1.72,7.06,7.06,0,0,1,1,2.89l-2.8.42a3.51,3.51,0,0,0-1.11-2.25,3.76,3.76,0,0,0-2.58-.81,4.34,4.34,0,0,0-2.82.72,2.18,2.18,0,0,0-.84,1.69,1.81,1.81,0,0,0,.35,1.11,2.48,2.48,0,0,0,1.09.85c.29.12,1.14.39,2.53.81a33,33,0,0,1,4.24,1.47,4.49,4.49,0,0,1,1.89,1.66,5,5,0,0,1,.68,2.72,5.69,5.69,0,0,1-.83,3,5.6,5.6,0,0,1-2.41,2.17,8.07,8.07,0,0,1-3.57.76,7.35,7.35,0,0,1-5-1.51A7.25,7.25,0,0,1,397.27,331Z" transform="translate(-350.07 -257.67)"/><path class="cls-1" d="M447.23,328.9l3.09.4a8.14,8.14,0,0,1-2.59,5.05,7.53,7.53,0,0,1-5.12,1.82,8,8,0,0,1-6.13-2.51q-2.31-2.51-2.31-7.19a13.15,13.15,0,0,1,1-5.3,6.94,6.94,0,0,1,3-3.41,8.88,8.88,0,0,1,4.42-1.14,7.67,7.67,0,0,1,4.94,1.54,7.15,7.15,0,0,1,2.47,4.38L447,323a5.11,5.11,0,0,0-1.55-2.84,3.93,3.93,0,0,0-2.68-.95,4.83,4.83,0,0,0-3.85,1.72q-1.49,1.71-1.49,5.43t1.43,5.48a4.64,4.64,0,0,0,3.74,1.7,4.39,4.39,0,0,0,3.09-1.14A5.67,5.67,0,0,0,447.23,328.9Z" transform="translate(-350.07 -257.67)"/><path class="cls-1" d="M518,336.25V309.79h3.7v26.46Z" transform="translate(-350.07 -257.67)"/><path class="cls-1" d="M560.25,333.71a9.92,9.92,0,0,1-2.88,2.11,7.3,7.3,0,0,1-3,.62,5.23,5.23,0,0,1-4-1.51,5.39,5.39,0,0,1-1.41-3.85,5.94,5.94,0,0,1,.53-2.51,5.07,5.07,0,0,1,1.4-1.82,6.15,6.15,0,0,1,1.94-1,17.22,17.22,0,0,1,2.39-.47,21.32,21.32,0,0,0,4.82-1.1c0-.43,0-.71,0-.82a3.86,3.86,0,0,0-.76-2.73,4.08,4.08,0,0,0-3.08-1.08,4.21,4.21,0,0,0-2.81.79,5,5,0,0,0-1.34,2.77l-2.63-.42a8.44,8.44,0,0,1,1.18-3.22,5.27,5.27,0,0,1,2.38-1.88,9.19,9.19,0,0,1,3.61-.66,8.32,8.32,0,0,1,3.31.56,4.37,4.37,0,0,1,1.88,1.42,5.43,5.43,0,0,1,.84,2.16,21.08,21.08,0,0,1,.13,2.92v4.23a54.45,54.45,0,0,0,.17,5.59,8.14,8.14,0,0,0,.69,2.25h-2.82A7.69,7.69,0,0,1,560.25,333.71Zm-.22-7.08a17.43,17.43,0,0,1-4.41,1.2,8.83,8.83,0,0,0-2.35.63,2.47,2.47,0,0,0-1.07,1,3,3,0,0,0-.37,1.51,2.9,2.9,0,0,0,.82,2.11A3.17,3.17,0,0,0,555,334a4.87,4.87,0,0,0,2.78-.8,4.64,4.64,0,0,0,1.78-2.19,8.84,8.84,0,0,0,.44-3.17Z" transform="translate(-350.07 -257.67)"/><path class="cls-1" d="M353.65,307.26l-3.58-9.7H353l2.13,6.36,1.95-6.36H360l1.89,6.36,2.16-6.36h3l-3.64,9.7h-2.88L358.49,301l-1.92,6.24Z" transform="translate(-350.07 -257.67)"/><path class="cls-1" d="M386.14,304.17l3,.43a4.29,4.29,0,0,1-1.82,2.15,6,6,0,0,1-3.11.73,5.44,5.44,0,0,1-4.37-1.65,5,5,0,0,1-1.12-3.35,4.9,4.9,0,0,1,1.47-3.78,5.25,5.25,0,0,1,3.72-1.36,5.46,5.46,0,0,1,4,1.43,5.68,5.68,0,0,1,1.39,4.38h-7.51a2.37,2.37,0,0,0,.73,1.78,2.45,2.45,0,0,0,1.72.63,2.06,2.06,0,0,0,1.19-.33A1.93,1.93,0,0,0,386.14,304.17Zm.18-2.59a2.16,2.16,0,0,0-2.23-2.28,2.3,2.3,0,0,0-1.63.61,2.19,2.19,0,0,0-.62,1.67Z" transform="translate(-350.07 -257.67)"/><path class="cls-1" d="M402.73,306.74v-13.4h3v4.82a4.55,4.55,0,0,1,3.29-1.35,4.79,4.79,0,0,1,3.42,1.28,4.87,4.87,0,0,1,1.36,3.69,5.09,5.09,0,0,1-1.38,3.83,4.65,4.65,0,0,1-3.36,1.34,4.59,4.59,0,0,1-1.91-.41,4.49,4.49,0,0,1-1.64-1.23v1.43Zm3-5.07a3.64,3.64,0,0,0,.55,2.23,2.49,2.49,0,0,0,2.07,1,2.29,2.29,0,0,0,1.7-.73,3.25,3.25,0,0,0,.69-2.29,3.39,3.39,0,0,0-.7-2.4,2.39,2.39,0,0,0-1.8-.74,2.44,2.44,0,0,0-1.8.72A3,3,0,0,0,405.71,301.67Z" transform="translate(-350.07 -257.67)"/><path class="cls-1" d="M572.37,358.21l1.57.12a2.78,2.78,0,0,1-1.18,1.7,3.9,3.9,0,0,1-2.1.54,3.37,3.37,0,0,1-2.56-.92,3.08,3.08,0,0,1-.9-2.24,2.92,2.92,0,0,1,1-2.27,3.72,3.72,0,0,1,2.62-.9c1.75,0,2.8.7,3.14,2.1l-1.57.16a1.32,1.32,0,0,0-1.48-1.13,1.51,1.51,0,0,0-1.34.61,2.55,2.55,0,0,0-.42,1.48,2.11,2.11,0,0,0,.43,1.42,1.69,1.69,0,0,0,2.81-.67Z" transform="translate(-350.07 -257.67)"/><path class="cls-1" d="M578.49,360.57a3.6,3.6,0,0,1-2.73-1,3.08,3.08,0,0,1-1-2.22,2.82,2.82,0,0,1,1.05-2.24,4.58,4.58,0,0,1,5.41,0,3,3,0,0,1,0,4.59A4.24,4.24,0,0,1,578.49,360.57Zm.06-1.13c1.22,0,1.84-.69,1.84-2.06a2.26,2.26,0,0,0-.44-1.47,1.64,1.64,0,0,0-1.35-.54,1.7,1.7,0,0,0-1.4.55,2.31,2.31,0,0,0-.45,1.48,2.18,2.18,0,0,0,.48,1.52A1.7,1.7,0,0,0,578.55,359.44Z" transform="translate(-350.07 -257.67)"/><path class="cls-1" d="M590.65,360.45h-1.82v-3.8a1.14,1.14,0,0,0-.36-.91,1.37,1.37,0,0,0-.89-.3,1.87,1.87,0,0,0-1.25.47,1.79,1.79,0,0,0-.53,1.41v3.13H584v-6.08h1.66v1.41a2.68,2.68,0,0,1,2.44-1.54,3.17,3.17,0,0,1,1.82.51,2,2,0,0,1,.75,1.77Z" transform="translate(-350.07 -257.67)"/><path class="cls-1" d="M596.57,359.38v1.07a8.08,8.08,0,0,1-1.26.13,3.19,3.19,0,0,1-1.26-.22,1.6,1.6,0,0,1-.77-.6,2.18,2.18,0,0,1-.25-1.18v-3.15h-1v-1.06h1.11l.16-1.58,1.5-.11v1.69h1.62v1.06H594.8v3a.94.94,0,0,0,.27.78,1.84,1.84,0,0,0,1,.21Z" transform="translate(-350.07 -257.67)"/><path class="cls-1" d="M599.92,360.45H598.1v-6.08h1.65v1.45a2.52,2.52,0,0,1,1-1.24,2.33,2.33,0,0,1,1.26-.39h.24v1.48a2.08,2.08,0,0,0-1.84.67,2.29,2.29,0,0,0-.45,1.29Z" transform="translate(-350.07 -257.67)"/><path class="cls-1" d="M606.58,360.57a3.63,3.63,0,0,1-2.73-1,3.07,3.07,0,0,1-.94-2.22,2.81,2.81,0,0,1,1-2.24,4,4,0,0,1,2.75-.9,4,4,0,0,1,2.66.87,2.82,2.82,0,0,1,1,2.27,2.85,2.85,0,0,1-1.08,2.32A4.22,4.22,0,0,1,606.58,360.57Zm.06-1.13c1.23,0,1.84-.69,1.84-2.06a2.26,2.26,0,0,0-.44-1.47,1.63,1.63,0,0,0-1.35-.54,1.71,1.71,0,0,0-1.4.55,2.31,2.31,0,0,0-.45,1.48,2.18,2.18,0,0,0,.48,1.52A1.7,1.7,0,0,0,606.64,359.44Z" transform="translate(-350.07 -257.67)"/><path class="cls-1" d="M613.89,360.45h-1.83v-8.22h1.83Z" transform="translate(-350.07 -257.67)"/><path class="cls-1" d="M625.29,358.51l1.64.17a2.72,2.72,0,0,1-1.25,1.36,4.63,4.63,0,0,1-2.32.53,4.06,4.06,0,0,1-2.7-.85,2.82,2.82,0,0,1-1-2.29,2.92,2.92,0,0,1,1-2.28,4.06,4.06,0,0,1,2.79-.91,3.76,3.76,0,0,1,2.67.89,3,3,0,0,1,.94,2.29v.16h-5.54a2.5,2.5,0,0,0,.16,1,1.42,1.42,0,0,0,.62.65,2.25,2.25,0,0,0,1.15.28A1.83,1.83,0,0,0,625.29,358.51Zm-.12-1.82a1.33,1.33,0,0,0-.52-1.07,1.94,1.94,0,0,0-1.27-.42,2,2,0,0,0-1.26.39,1.6,1.6,0,0,0-.59,1.1Z" transform="translate(-350.07 -257.67)"/><path class="cls-1" d="M635.41,360.45h-1.82v-3.8a1.11,1.11,0,0,0-.37-.91,1.34,1.34,0,0,0-.88-.3,1.85,1.85,0,0,0-1.25.47,1.76,1.76,0,0,0-.54,1.41v3.13h-1.82v-6.08h1.66v1.41a2.69,2.69,0,0,1,2.45-1.54,3.13,3.13,0,0,1,1.81.51,2,2,0,0,1,.76,1.77Z" transform="translate(-350.07 -257.67)"/><path class="cls-1" d="M643.49,360.45h-1.82v-8.22h1.82Z" transform="translate(-350.07 -257.67)"/><path class="cls-1" d="M648.65,351.5l.53.9-3.33,1.06-.34-.64Zm-1.16,8.95h-1.82v-6.08h1.82Z" transform="translate(-350.07 -257.67)"/><path class="cls-1" d="M656.35,360.45h-1.82v-3.8a1.11,1.11,0,0,0-.37-.91,1.34,1.34,0,0,0-.88-.3,1.85,1.85,0,0,0-1.25.47,1.76,1.76,0,0,0-.54,1.41v3.13h-1.82v-6.08h1.66v1.41a2.69,2.69,0,0,1,2.45-1.54,3.13,3.13,0,0,1,1.81.51,2,2,0,0,1,.76,1.77Z" transform="translate(-350.07 -257.67)"/><path class="cls-1" d="M663.65,358.51l1.65.17a2.76,2.76,0,0,1-1.25,1.36,4.63,4.63,0,0,1-2.32.53,4.06,4.06,0,0,1-2.7-.85,2.82,2.82,0,0,1-1-2.29,2.89,2.89,0,0,1,1-2.28,4.06,4.06,0,0,1,2.79-.91,3.76,3.76,0,0,1,2.67.89,3,3,0,0,1,.94,2.29v.16H659.9a2.5,2.5,0,0,0,.16,1,1.44,1.44,0,0,0,.61.65,2.29,2.29,0,0,0,1.16.28A1.81,1.81,0,0,0,663.65,358.51Zm-.11-1.82a1.33,1.33,0,0,0-.52-1.07,1.94,1.94,0,0,0-1.27-.42,2,2,0,0,0-1.26.39,1.6,1.6,0,0,0-.59,1.1Z" transform="translate(-350.07 -257.67)"/><path class="cls-1" d="M674,360.45h-1.73a3.69,3.69,0,0,1-.28-1.23,2.83,2.83,0,0,1-2.73,1.35,3.19,3.19,0,0,1-1.94-.53,1.59,1.59,0,0,1-.73-1.34c0-1.4,1.63-2.09,4.88-2.09H672v-.45c0-.63-.57-1-1.71-1s-1.74.32-1.88,1l-1.55-.18a1.79,1.79,0,0,1,1-1.25,5.72,5.72,0,0,1,2.63-.49,7.84,7.84,0,0,1,1.52.12,2.59,2.59,0,0,1,1,.4,1.57,1.57,0,0,1,.56.6,2.72,2.72,0,0,1,.16,1.12v2.74A3.44,3.44,0,0,0,674,360.45Zm-2-3.1c-2.35,0-3.53.43-3.53,1.27a.79.79,0,0,0,.36.65,1.74,1.74,0,0,0,1.07.27,2.24,2.24,0,0,0,1.57-.5,1.53,1.53,0,0,0,.53-1.13Z" transform="translate(-350.07 -257.67)"/><circle class="cls-1" cx="141.3" cy="63.86" r="4.36"/><path class="cls-1" d="M498.72,320.73a11.12,11.12,0,0,1,1,4.15.5.5,0,0,0,0-.17A8.53,8.53,0,0,0,498.72,320.73Zm0,0a11.12,11.12,0,0,1,1,4.15.5.5,0,0,0,0-.17A8.53,8.53,0,0,0,498.72,320.73Zm0,0a11.12,11.12,0,0,1,1,4.15.5.5,0,0,0,0-.17A8.53,8.53,0,0,0,498.72,320.73Zm0,0a11.12,11.12,0,0,1,1,4.15.5.5,0,0,0,0-.17A8.53,8.53,0,0,0,498.72,320.73Zm0,0a11.12,11.12,0,0,1,1,4.15.5.5,0,0,0,0-.17A8.53,8.53,0,0,0,498.72,320.73Zm0,0a11.12,11.12,0,0,1,1,4.15.5.5,0,0,0,0-.17A8.53,8.53,0,0,0,498.72,320.73Zm0,0a11.12,11.12,0,0,1,1,4.15.5.5,0,0,0,0-.17A8.53,8.53,0,0,0,498.72,320.73Zm0,0a11.12,11.12,0,0,1,1,4.15.5.5,0,0,0,0-.17A8.53,8.53,0,0,0,498.72,320.73Z" transform="translate(-350.07 -257.67)"/><path class="cls-1" d="M498.42,313.23a20.86,20.86,0,0,0-3.89-2.69A23.71,23.71,0,0,0,483,307.65c-12.27,0-22.22,9-22.22,20,0,7.07,4.06,13.29,10.19,16.84a25.29,25.29,0,0,0,2.32,1.19,24,24,0,0,0,9.71,2c12.27,0,22.22-9,22.22-20A19.08,19.08,0,0,0,498.42,313.23Zm-14,29.33a19.11,19.11,0,0,1-8-1.71,15.64,15.64,0,0,1-2.41-1.32,15.44,15.44,0,0,1-7.29-12.84c0-8.76,7.91-15.87,17.67-15.87a19,19,0,0,1,8.27,1.86,13.09,13.09,0,0,1,2.09,1.19h0a15.37,15.37,0,0,1,7.26,12.81C502.09,335.45,494.18,342.56,484.44,342.56Z" transform="translate(-350.07 -257.67)"/><path class="cls-1" d="M585.14,260.33c-17.31-11.5-63.4,15.95-90.61,50.21a20.86,20.86,0,0,1,3.89,2.69c.06-.11.13-.2.14-.22,32.11-34.58,69.89-55.95,85-46.95C601.68,276.86,587,314.61,554,353s-74.39,59.28-89.45,50.68c-12.54-7.16-8.68-30,8.78-58a25.29,25.29,0,0,1-2.32-1.19c-17.51,29.83-21.51,56.62-8.06,65.55,17.87,11.86,61.94-14.85,94.51-53.77C587.13,320.87,603,272.21,585.14,260.33Z" transform="translate(-350.07 -257.67)"/><path class="cls-1" d="M499.71,325.31c0,6.68-6,12.1-13.3,12.1a14.26,14.26,0,0,1-6.5-1.54,11.92,11.92,0,0,1-2.41-1.61,11.56,11.56,0,0,1-4.38-8.95c0-6.7,5.95-12.11,13.29-12.11a13.34,13.34,0,0,1,12.31,7.53,10.25,10.25,0,0,0-3.28-3.67,7.51,7.51,0,0,1,2.68,5.66c0,4.39-4,7.94-8.92,7.94s-8.94-3.55-8.94-7.94c0-4.15,3.61-7.57,8.18-7.9a7,7,0,1,0,3.65.6,12.76,12.76,0,0,0-3.41-.6s0,0-.05,0a.17.17,0,0,0-.14,0h-.05a2.27,2.27,0,0,0-.45,0c-6.46,0-11.69,4.44-11.69,9.92s5.23,9.92,11.69,9.92,11.61-4.35,11.7-9.75A3.17,3.17,0,0,1,499.71,325.31Z" transform="translate(-350.07 -257.67)"/></svg>