<svg id="Capa_1" data-name="Capa 1" xmlns="http://www.w3.org/2000/svg" viewBox="0 0 357.18 171.19"><defs><style>.cls-1{fill:#023165;}.cls-2{fill:#c20506;}.cls-3{fill:#334c82;}</style></defs><title>logo_color</title><path class="cls-1" d="M355.17,331.29l4.22.45a8.81,8.81,0,0,1-3.69,4.91,12.46,12.46,0,0,1-6.9,1.75,12.11,12.11,0,0,1-8.38-2.78,10,10,0,0,1-3.09-7.82q0-5.21,3.13-8.08a11.5,11.5,0,0,1,8.12-2.87,11.24,11.24,0,0,1,7.89,2.81c2,1.88,3,4.52,3,7.93,0,.2,0,.51,0,.93H341.55a7.32,7.32,0,0,0,2.24,5.2,7.24,7.24,0,0,0,5,1.81,7,7,0,0,0,3.84-1A6.79,6.79,0,0,0,355.17,331.29Zm-13.39-5.65h13.44a6.42,6.42,0,0,0-1.54-3.9,6.71,6.71,0,0,0-5.06-2,7.09,7.09,0,0,0-4.72,1.61A6,6,0,0,0,341.78,325.64Z" transform="translate(-332.82 -249.21)"/><path class="cls-1" d="M597.08,337.06V316.43h3.67v3.13a8.9,8.9,0,0,1,2.59-2.89A5.07,5.07,0,0,1,606,316a8.94,8.94,0,0,1,4.2,1.12l-1.41,3.25a6.47,6.47,0,0,0-3-.76,4.32,4.32,0,0,0-2.4.69,3.79,3.79,0,0,0-1.52,1.91,11.88,11.88,0,0,0-.68,4.08v10.8Z" transform="translate(-332.82 -249.21)"/><path class="cls-1" d="M384.87,330l3.12-.54a5,5,0,0,0,1.46,3.18,4.78,4.78,0,0,0,3.36,1.11,4.62,4.62,0,0,0,3.23-1,3.06,3.06,0,0,0,1-2.3,2.21,2.21,0,0,0-.92-1.87,13.1,13.1,0,0,0-3.23-1.18,28,28,0,0,1-4.82-1.68,4.92,4.92,0,0,1-2-2,5.56,5.56,0,0,1-.7-2.77,5.82,5.82,0,0,1,.57-2.56,5.53,5.53,0,0,1,1.56-2,6.32,6.32,0,0,1,2-1,9,9,0,0,1,2.73-.41,10,10,0,0,1,3.85.69,5.25,5.25,0,0,1,2.45,1.9,7.81,7.81,0,0,1,1.09,3.19l-3.09.47a3.9,3.9,0,0,0-1.22-2.49,4.18,4.18,0,0,0-2.85-.89,4.75,4.75,0,0,0-3.1.8,2.4,2.4,0,0,0-.94,1.86,2,2,0,0,0,.39,1.22,2.83,2.83,0,0,0,1.21.94c.32.13,1.25.42,2.79.89a37.09,37.09,0,0,1,4.68,1.62,4.89,4.89,0,0,1,2.08,1.84,5.55,5.55,0,0,1,.75,3,6.37,6.37,0,0,1-.92,3.29,6.14,6.14,0,0,1-2.66,2.39,8.93,8.93,0,0,1-3.93.84A8.14,8.14,0,0,1,387.3,335,7.94,7.94,0,0,1,384.87,330Z" transform="translate(-332.82 -249.21)"/><path class="cls-1" d="M440,327.75l3.41.44a9,9,0,0,1-2.85,5.57,8.31,8.31,0,0,1-5.66,2A8.76,8.76,0,0,1,428.1,333c-1.7-1.84-2.55-4.49-2.55-7.93a14.5,14.5,0,0,1,1.1-5.85,7.67,7.67,0,0,1,3.34-3.75,9.8,9.8,0,0,1,4.88-1.26,8.45,8.45,0,0,1,5.45,1.7,7.85,7.85,0,0,1,2.72,4.83l-3.37.52a5.66,5.66,0,0,0-1.71-3.13,4.41,4.41,0,0,0-2.95-1,5.37,5.37,0,0,0-4.26,1.89q-1.63,1.89-1.63,6c0,2.77.52,4.79,1.57,6a5.12,5.12,0,0,0,4.12,1.88,4.82,4.82,0,0,0,3.41-1.26A6.25,6.25,0,0,0,440,327.75Z" transform="translate(-332.82 -249.21)"/><path class="cls-1" d="M518,335.86V306.68h4.08v29.18Z" transform="translate(-332.82 -249.21)"/><path class="cls-1" d="M564.57,333.05a10.87,10.87,0,0,1-3.18,2.33,8,8,0,0,1-3.28.68,5.77,5.77,0,0,1-4.44-1.66,5.93,5.93,0,0,1-1.56-4.24,6.49,6.49,0,0,1,.59-2.77,5.62,5.62,0,0,1,1.54-2,6.58,6.58,0,0,1,2.14-1.14,17.38,17.38,0,0,1,2.64-.53,24.41,24.41,0,0,0,5.31-1.2c0-.48,0-.79,0-.92a4.32,4.32,0,0,0-.84-3,4.49,4.49,0,0,0-3.39-1.18,4.72,4.72,0,0,0-3.1.86,5.61,5.61,0,0,0-1.47,3.06l-2.91-.46a9.28,9.28,0,0,1,1.3-3.55,5.82,5.82,0,0,1,2.63-2.08,10.21,10.21,0,0,1,4-.72,9,9,0,0,1,3.65.62,4.76,4.76,0,0,1,2.07,1.56,6.05,6.05,0,0,1,.93,2.38,22.91,22.91,0,0,1,.15,3.22V327a61.39,61.39,0,0,0,.18,6.17,9,9,0,0,0,.75,2.48h-3.1A8.53,8.53,0,0,1,564.57,333.05Zm-.24-7.8a19.84,19.84,0,0,1-4.86,1.32,9.67,9.67,0,0,0-2.6.7,2.66,2.66,0,0,0-1.17,1.13,3.43,3.43,0,0,0-.41,1.66,3.22,3.22,0,0,0,.9,2.33,3.5,3.5,0,0,0,2.63.93,5.41,5.41,0,0,0,3.06-.88,5.17,5.17,0,0,0,2-2.42,10,10,0,0,0,.48-3.49Z" transform="translate(-332.82 -249.21)"/><path class="cls-2" d="M336.77,303.89l-3.95-10.7H336l2.34,7,2.15-7h3.19l2.08,7,2.39-7h3.26l-4,10.7h-3.18L342.1,297,340,303.89Z" transform="translate(-332.82 -249.21)"/><path class="cls-2" d="M372.6,300.49l3.29.47a4.75,4.75,0,0,1-2,2.36,6.67,6.67,0,0,1-3.43.81,6,6,0,0,1-4.83-1.82,5.52,5.52,0,0,1-1.23-3.69,5.43,5.43,0,0,1,1.62-4.17,5.81,5.81,0,0,1,4.11-1.5,6,6,0,0,1,4.4,1.57,6.33,6.33,0,0,1,1.54,4.84h-8.29a2.63,2.63,0,0,0,.81,2,2.73,2.73,0,0,0,1.9.7,2,2,0,0,0,2.11-1.53Zm.19-2.87a2.57,2.57,0,0,0-.74-1.87,2.53,2.53,0,0,0-1.72-.64,2.48,2.48,0,0,0-1.79.68,2.33,2.33,0,0,0-.69,1.83Z" transform="translate(-332.82 -249.21)"/><path class="cls-2" d="M390.89,303.31V288.54h3.3v5.32a5,5,0,0,1,3.63-1.49,5.26,5.26,0,0,1,3.77,1.41,5.34,5.34,0,0,1,1.5,4.07,5.6,5.6,0,0,1-1.53,4.22,5.09,5.09,0,0,1-3.7,1.48,5.15,5.15,0,0,1-2.11-.46,4.8,4.8,0,0,1-1.79-1.35v1.57Zm3.28-5.58a4,4,0,0,0,.61,2.46,2.74,2.74,0,0,0,2.28,1.13,2.48,2.48,0,0,0,1.87-.81,3.53,3.53,0,0,0,.77-2.52,3.75,3.75,0,0,0-.78-2.65,2.64,2.64,0,0,0-2-.81,2.68,2.68,0,0,0-2,.79A3.27,3.27,0,0,0,394.17,297.73Z" transform="translate(-332.82 -249.21)"/><path class="cls-1" d="M577.94,360.07l1.72.14a3,3,0,0,1-1.29,1.86,4.29,4.29,0,0,1-2.32.61,3.77,3.77,0,0,1-2.83-1,3.4,3.4,0,0,1-1-2.48,3.26,3.26,0,0,1,1.09-2.5,4.1,4.1,0,0,1,2.88-1c1.94,0,3.09.77,3.46,2.31l-1.72.18a1.45,1.45,0,0,0-1.63-1.25,1.67,1.67,0,0,0-1.48.68,2.8,2.8,0,0,0-.47,1.63,2.29,2.29,0,0,0,.48,1.56,1.87,1.87,0,0,0,3.1-.73Z" transform="translate(-332.82 -249.21)"/><path class="cls-1" d="M584.68,362.68a4,4,0,0,1-3-1.07,3.44,3.44,0,0,1-1-2.45,3.16,3.16,0,0,1,1.15-2.48,5,5,0,0,1,6,0,3.09,3.09,0,0,1,1.15,2.5,3.13,3.13,0,0,1-1.19,2.55A4.7,4.7,0,0,1,584.68,362.68Zm.07-1.25c1.35,0,2-.76,2-2.28a2.5,2.5,0,0,0-.49-1.62,1.79,1.79,0,0,0-1.48-.6,1.86,1.86,0,0,0-1.54.62,2.47,2.47,0,0,0-.51,1.63,2.35,2.35,0,0,0,.54,1.67A1.89,1.89,0,0,0,584.75,361.43Z" transform="translate(-332.82 -249.21)"/><path class="cls-1" d="M598.1,362.54h-2v-4.19a1.22,1.22,0,0,0-.4-1,1.51,1.51,0,0,0-1-.33,2,2,0,0,0-1.37.51,2,2,0,0,0-.59,1.56v3.45h-2v-6.71h1.83v1.56a3,3,0,0,1,2.69-1.7,3.57,3.57,0,0,1,2,.56,2.2,2.2,0,0,1,.83,2Z" transform="translate(-332.82 -249.21)"/><path class="cls-1" d="M604.62,361.35v1.19a10.19,10.19,0,0,1-1.39.14,3.64,3.64,0,0,1-1.39-.24,1.72,1.72,0,0,1-.85-.67,2.43,2.43,0,0,1-.27-1.29V357h-1.11v-1.18h1.23l.18-1.74,1.65-.11v1.85h1.78V357h-1.78v3.27a1,1,0,0,0,.3.86,2.06,2.06,0,0,0,1.15.23Z" transform="translate(-332.82 -249.21)"/><path class="cls-1" d="M608.32,362.54h-2v-6.71h1.81v1.6a2.83,2.83,0,0,1,1.07-1.36,2.53,2.53,0,0,1,1.39-.44h.26v1.63a2.29,2.29,0,0,0-2,.73,2.53,2.53,0,0,0-.5,1.43Z" transform="translate(-332.82 -249.21)"/><path class="cls-1" d="M615.66,362.68a4,4,0,0,1-3-1.07,3.44,3.44,0,0,1-1-2.45,3.13,3.13,0,0,1,1.15-2.48,5,5,0,0,1,6,0,3.3,3.3,0,0,1-.05,5A4.66,4.66,0,0,1,615.66,362.68Zm.07-1.25c1.35,0,2-.76,2-2.28a2.5,2.5,0,0,0-.48-1.62,1.8,1.8,0,0,0-1.49-.6,1.88,1.88,0,0,0-1.54.62,2.52,2.52,0,0,0-.5,1.63,2.39,2.39,0,0,0,.53,1.67A1.91,1.91,0,0,0,615.73,361.43Z" transform="translate(-332.82 -249.21)"/><path class="cls-1" d="M623.72,362.54h-2v-9.06h2Z" transform="translate(-332.82 -249.21)"/><path class="cls-1" d="M636.29,360.4l1.81.19a3,3,0,0,1-1.38,1.49,5,5,0,0,1-2.56.6,4.52,4.52,0,0,1-3-.94,3.13,3.13,0,0,1-1.13-2.54,3.18,3.18,0,0,1,1.14-2.51,4.51,4.51,0,0,1,3.08-1,4.1,4.1,0,0,1,2.94,1,3.31,3.31,0,0,1,1,2.52v.17h-6.1a2.82,2.82,0,0,0,.17,1.1,1.53,1.53,0,0,0,.68.71,2.4,2.4,0,0,0,1.28.31A2,2,0,0,0,636.29,360.4Zm-.13-2a1.46,1.46,0,0,0-.58-1.18,2.16,2.16,0,0,0-1.4-.45,2.22,2.22,0,0,0-1.38.42,1.72,1.72,0,0,0-.65,1.21Z" transform="translate(-332.82 -249.21)"/><path class="cls-1" d="M647.45,362.54h-2v-4.19a1.22,1.22,0,0,0-.4-1,1.51,1.51,0,0,0-1-.33,2.07,2.07,0,0,0-1.38.51,2,2,0,0,0-.59,1.56v3.45h-2v-6.71h1.83v1.56a3,3,0,0,1,2.69-1.7,3.57,3.57,0,0,1,2,.56,2.2,2.2,0,0,1,.83,2Z" transform="translate(-332.82 -249.21)"/><path class="cls-2" d="M656.36,362.54h-2v-9.06h2Z" transform="translate(-332.82 -249.21)"/><path class="cls-2" d="M662.05,352.67l.58,1L659,354.83l-.37-.71Zm-1.28,9.87h-2v-6.71h2Z" transform="translate(-332.82 -249.21)"/><path class="cls-2" d="M670.54,362.54h-2v-4.19a1.22,1.22,0,0,0-.4-1,1.51,1.51,0,0,0-1-.33,2.07,2.07,0,0,0-1.38.51,2,2,0,0,0-.59,1.56v3.45h-2v-6.71H665v1.56a3,3,0,0,1,2.69-1.7,3.51,3.51,0,0,1,2,.56,2.18,2.18,0,0,1,.84,2Z" transform="translate(-332.82 -249.21)"/><path class="cls-2" d="M678.59,360.4l1.82.19a3,3,0,0,1-1.38,1.49,5,5,0,0,1-2.56.6,4.56,4.56,0,0,1-3-.94,3.12,3.12,0,0,1-1.12-2.54,3.21,3.21,0,0,1,1.13-2.51,4.55,4.55,0,0,1,3.08-1,4.13,4.13,0,0,1,2.95,1,3.3,3.3,0,0,1,1,2.52v.17h-6.1a2.8,2.8,0,0,0,.18,1.1,1.53,1.53,0,0,0,.68.71,2.37,2.37,0,0,0,1.27.31A2,2,0,0,0,678.59,360.4Zm-.12-2a1.49,1.49,0,0,0-.58-1.18,2.18,2.18,0,0,0-1.4-.45,2.2,2.2,0,0,0-1.38.42,1.76,1.76,0,0,0-.66,1.21Z" transform="translate(-332.82 -249.21)"/><path class="cls-2" d="M690,362.54h-1.91a4.44,4.44,0,0,1-.31-1.36,3.1,3.1,0,0,1-3,1.5,3.52,3.52,0,0,1-2.13-.59,1.77,1.77,0,0,1-.81-1.48q0-2.31,5.38-2.31h.57v-.51c0-.69-.63-1-1.88-1s-1.92.35-2.08,1l-1.71-.19a2,2,0,0,1,1.15-1.37,6.25,6.25,0,0,1,2.9-.55,9.38,9.38,0,0,1,1.68.13,3.06,3.06,0,0,1,1.1.44,1.75,1.75,0,0,1,.62.67,3,3,0,0,1,.18,1.23v3A3.76,3.76,0,0,0,690,362.54Zm-2.22-3.42c-2.59,0-3.89.47-3.89,1.41a.88.88,0,0,0,.39.71,2,2,0,0,0,1.19.29,2.47,2.47,0,0,0,1.73-.54,1.67,1.67,0,0,0,.58-1.25Z" transform="translate(-332.82 -249.21)"/><circle class="cls-1" cx="155.8" cy="70.41" r="4.81"/><path class="cls-3" d="M496.73,318.74a12.11,12.11,0,0,1,1.07,4.58.62.62,0,0,0,0-.19A9.45,9.45,0,0,0,496.73,318.74Zm0,0a12.11,12.11,0,0,1,1.07,4.58.62.62,0,0,0,0-.19A9.45,9.45,0,0,0,496.73,318.74Zm0,0a12.11,12.11,0,0,1,1.07,4.58.62.62,0,0,0,0-.19A9.45,9.45,0,0,0,496.73,318.74Zm0,0a12.11,12.11,0,0,1,1.07,4.58.62.62,0,0,0,0-.19A9.45,9.45,0,0,0,496.73,318.74Zm0,0a12.11,12.11,0,0,1,1.07,4.58.62.62,0,0,0,0-.19A9.45,9.45,0,0,0,496.73,318.74Zm0,0a12.11,12.11,0,0,1,1.07,4.58.62.62,0,0,0,0-.19A9.45,9.45,0,0,0,496.73,318.74Zm0,0a12.11,12.11,0,0,1,1.07,4.58.62.62,0,0,0,0-.19A9.45,9.45,0,0,0,496.73,318.74Zm0,0a12.11,12.11,0,0,1,1.07,4.58.62.62,0,0,0,0-.19A9.45,9.45,0,0,0,496.73,318.74Z" transform="translate(-332.82 -249.21)"/><path class="cls-1" d="M496.4,310.48a23.11,23.11,0,0,0-4.29-3,26.25,26.25,0,0,0-12.67-3.18c-13.53,0-24.5,9.88-24.5,22.1,0,7.79,4.48,14.65,11.23,18.57.83.47,1.67.91,2.56,1.31a26.6,26.6,0,0,0,10.71,2.21c13.53,0,24.5-9.89,24.5-22.09A21,21,0,0,0,496.4,310.48ZM481,342.82a21.15,21.15,0,0,1-8.79-1.89,19,19,0,0,1-2.66-1.45,17,17,0,0,1-8-14.16c0-9.66,8.72-17.5,19.48-17.5a21,21,0,0,1,9.12,2,15.62,15.62,0,0,1,2.31,1.32h0a17,17,0,0,1,8,14.13C500.44,335,491.73,342.82,481,342.82Z" transform="translate(-332.82 -249.21)"/><path class="cls-1" d="M592,252.15c-19.09-12.69-69.91,17.58-99.91,55.35a23.11,23.11,0,0,1,4.29,3,1.56,1.56,0,0,1,.16-.25c35.4-38.13,77.05-61.69,93.71-51.77,20,11.9,3.84,53.54-32.58,95.87s-82,65.37-98.64,55.88c-13.82-7.89-9.57-33.09,9.68-63.91-.89-.4-1.73-.84-2.56-1.31-19.3,32.88-23.71,62.42-8.89,72.28C477,430.34,525.59,400.89,561.5,358,594.21,318.89,611.73,265.24,592,252.15Z" transform="translate(-332.82 -249.21)"/><path class="cls-1" d="M497.82,323.79c0,7.37-6.57,13.34-14.67,13.34a15.59,15.59,0,0,1-7.16-1.7,13.24,13.24,0,0,1-2.66-1.77,12.74,12.74,0,0,1-4.83-9.87c0-7.38,6.56-13.35,14.65-13.35a14.73,14.73,0,0,1,13.58,8.3,11.36,11.36,0,0,0-3.62-4.05,8.31,8.31,0,0,1,3,6.25c0,4.83-4.41,8.75-9.84,8.75s-9.85-3.92-9.85-8.75c0-4.58,4-8.35,9-8.71a7.67,7.67,0,1,0,4,.66,14.11,14.11,0,0,0-3.77-.66s0,0,0,0a.22.22,0,0,0-.16,0h-.05a2,2,0,0,0-.49,0c-7.12,0-12.9,4.9-12.9,10.94s5.78,10.94,12.9,10.94,12.79-4.8,12.9-10.75A3.77,3.77,0,0,1,497.82,323.79Z" transform="translate(-332.82 -249.21)"/></svg>