<svg xmlns="http://www.w3.org/2000/svg" viewBox="0 0 57.06 38.56"><defs><style>.cls-1{fill:#023165;}.cls-2{fill:#fff;}</style></defs><title>Recurso 10</title><g id="Capa_2" data-name="Capa 2"><g id="Capa_1-2" data-name="Capa 1"><polygon class="cls-1" points="57.06 0 47.78 38.56 0 38.56 9.81 0 57.06 0"/><path class="cls-2" d="M28,27.42H20.44a.36.36,0,0,1-.36-.36V12.11a.36.36,0,0,1,.72,0V26.7H28a.36.36,0,0,1,0,.72Z"/><path class="cls-2" d="M31.4,19.51a.36.36,0,0,1-.36-.36V12.21a.36.36,0,0,1,.36-.36.35.35,0,0,1,.35.36v6.94A.35.35,0,0,1,31.4,19.51Z"/><path class="cls-2" d="M32.94,12.62H31.41a.36.36,0,0,1-.35-.36V11.17l-5-3.58L20.8,11.05v.83a.36.36,0,0,1-.36.35H19.16a.35.35,0,0,1-.35-.35V10A.35.35,0,0,1,19,9.67L25.85,5a.34.34,0,0,1,.41,0l6.89,5a.34.34,0,0,1,.15.29v2A.36.36,0,0,1,32.94,12.62Zm-1.17-.72h.82V10.4L26.05,5.68l-6.53,4.47v1.37h.56v-.66a.35.35,0,0,1,.16-.3l5.62-3.7a.35.35,0,0,1,.4,0l5.36,3.82a.38.38,0,0,1,.15.29Z"/><path class="cls-2" d="M20.31,17.59H12.66a.37.37,0,0,1-.3-.16.35.35,0,0,1,0-.33l1.53-3.81a.35.35,0,0,1,.33-.22h6.22a.36.36,0,0,1,0,.71h-6l-1.25,3.1h7.13a.36.36,0,1,1,0,.71Z"/><path class="cls-2" d="M20.31,27.42H14.13a.36.36,0,0,1-.36-.36V17.43a.36.36,0,1,1,.71,0V26.7h5.83a.36.36,0,1,1,0,.72Z"/><path class="cls-2" d="M18.65,21.55H16.1a.36.36,0,0,1-.35-.36v-2.3a.35.35,0,0,1,.35-.35h2.55a.36.36,0,0,1,.36.35v2.3A.36.36,0,0,1,18.65,21.55Zm-2.19-.72H18.3V19.25H16.46Z"/><path class="cls-2" d="M28.48,19.12H23.37a.35.35,0,0,1-.35-.35V15.83a.35.35,0,0,1,.35-.35h5.11a.34.34,0,0,1,.35.35v2.94A.35.35,0,0,1,28.48,19.12Zm-4.75-.71h4.39V16.19H23.73Z"/><path class="cls-2" d="M18.65,25.63H16.1a.36.36,0,0,1-.35-.36V23a.36.36,0,0,1,.35-.36h2.55A.36.36,0,0,1,19,23v2.29A.36.36,0,0,1,18.65,25.63Zm-2.19-.71H18.3V23.33H16.46Z"/><path class="cls-2" d="M38,19.34a.36.36,0,0,1-.36-.35V17.24a.36.36,0,1,1,.72,0V19A.36.36,0,0,1,38,19.34Z"/><path class="cls-2" d="M22.67,27.29a.36.36,0,0,1-.35-.36V20.87a.35.35,0,0,1,.35-.35h5.51a.35.35,0,0,1,.36.35.36.36,0,0,1-.36.36H23v5.7A.36.36,0,0,1,22.67,27.29Z"/><path class="cls-2" d="M26,27.35a.35.35,0,0,1-.35-.35V21a.36.36,0,1,1,.71,0v6A.36.36,0,0,1,26,27.35Z"/><path class="cls-2" d="M25.94,18.93a.36.36,0,0,1-.36-.36V15.85a.36.36,0,1,1,.72,0v2.72A.36.36,0,0,1,25.94,18.93Z"/><path class="cls-2" d="M25.93,14.27a2.4,2.4,0,1,1,2.39-2.39A2.39,2.39,0,0,1,25.93,14.27Zm0-4.08a1.69,1.69,0,1,0,0,3.37,1.69,1.69,0,0,0,0-3.37Z"/><path class="cls-2" d="M27.08,12.23h-1a.35.35,0,0,1-.35-.35V10.6a.36.36,0,1,1,.71,0v.92h.67a.36.36,0,0,1,0,.71Z"/><path class="cls-2" d="M35.34,31.86H33.88a.94.94,0,0,1-1-.8L32.7,30a6,6,0,0,1-1.8-1l-.92.31-.13,0a.91.91,0,0,1-1.15-.42c-.33-.55-.68-1.16-1.07-1.84a.92.92,0,0,1,.21-1.17l.84-.75a6.48,6.48,0,0,1-.06-1.64c0-.16,0-.31.06-.44l-.84-.74a.93.93,0,0,1-.19-1.2l.7-1.22.34-.58a1,1,0,0,1,.89-.49h.05l.13,0,.29.08.37.13.47.15a6.83,6.83,0,0,1,1.8-1c.08-.35.15-.71.22-1.07a.94.94,0,0,1,1-.79h2a.94.94,0,0,1,1,.81l.06.3.15.75a6.12,6.12,0,0,1,1.8,1l.87-.29.19-.06a.92.92,0,0,1,1.16.44l1,1.78A.93.93,0,0,1,42,22.31l-.83.74a6.37,6.37,0,0,1,.06,1.62,2.34,2.34,0,0,1,0,.26,1.11,1.11,0,0,1,0,.19l.56.5.24.22a.93.93,0,0,1,.21,1.27l-1,1.7a1,1,0,0,1-1.25.47l-.47-.15L38.91,29a6.32,6.32,0,0,1-1.8,1l-.21,1.07a.94.94,0,0,1-1,.8h-.59ZM31,28.21a.47.47,0,0,1,.32.13,5.71,5.71,0,0,0,1.77,1,.54.54,0,0,1,.34.42c.08.38.16.76.23,1.14a.23.23,0,0,0,.27.22h2a.23.23,0,0,0,.27-.22c.08-.38.15-.76.23-1.14a.51.51,0,0,1,.34-.42,5.52,5.52,0,0,0,1.76-1,.5.5,0,0,1,.51-.1l.62.21.48.16c.22.07.28.05.4-.15l1-1.71c.1-.17.09-.25-.06-.38l-.24-.22c-.22-.19-.44-.38-.65-.58a.5.5,0,0,1-.16-.42,2.91,2.91,0,0,1,0-.31l0-.25a5.35,5.35,0,0,0-.07-1.53.51.51,0,0,1,.17-.48l.9-.8a.23.23,0,0,0,.06-.34c-.35-.59-.69-1.18-1-1.77a.22.22,0,0,0-.32-.12l-.19.06-1,.31a.49.49,0,0,1-.51-.09,5.91,5.91,0,0,0-1.75-1,.52.52,0,0,1-.36-.43c-.06-.27-.11-.54-.17-.81l-.06-.31c0-.19-.1-.24-.29-.24h-2a.23.23,0,0,0-.26.22c-.08.4-.16.8-.25,1.2a.51.51,0,0,1-.31.36,6.2,6.2,0,0,0-1.79,1,.51.51,0,0,1-.48.1l-.59-.2-.36-.12-.27-.08h0a.23.23,0,0,0-.22.14l-.34.58-.7,1.22a.21.21,0,0,0,.05.31l.9.8a.48.48,0,0,1,.18.5,4.56,4.56,0,0,0-.07.48,5.87,5.87,0,0,0,.07,1.56.47.47,0,0,1-.17.48l-.92.81a.21.21,0,0,0-.06.28c.39.69.74,1.29,1.06,1.84a.22.22,0,0,0,.31.1l.14,0,1-.34A.57.57,0,0,1,31,28.21Zm10.17-3ZM30.8,19.29Zm.2,0ZM34.9,27A2.9,2.9,0,0,1,32,24.09a2.89,2.89,0,0,1,2.87-2.88h0a2.85,2.85,0,0,1,2,.84A2.87,2.87,0,0,1,35,27Zm0-5h0a2.16,2.16,0,1,0,2.16,2.16h0a2.15,2.15,0,0,0-2.16-2.16Z"/><path class="cls-2" d="M33.2,17.59H31.76a.36.36,0,0,1,0-.71H33.2a.36.36,0,0,1,0,.71Z"/><path class="cls-2" d="M39.42,17.59H36.64a.36.36,0,0,1,0-.71h2.25l-1.24-3.1h-6a.36.36,0,1,1,0-.71h6.22a.37.37,0,0,1,.33.22l1.53,3.81a.35.35,0,0,1,0,.33A.34.34,0,0,1,39.42,17.59Z"/></g></g></svg>