<svg xmlns="http://www.w3.org/2000/svg" viewBox="0 0 57.06 38.56"><defs><style>.cls-1{fill:#c20506;}.cls-2{fill:#fff;}</style></defs><title>Recurso 11</title><g id="Capa_2" data-name="Capa 2"><g id="Capa_1-2" data-name="Capa 1"><polygon class="cls-1" points="57.06 0 47.78 38.56 0 38.56 9.81 0 57.06 0"/><path class="cls-2" d="M32.08,16.57H28.37a.35.35,0,0,1-.35-.35V12.51a.35.35,0,0,1,.35-.35h3.71a.35.35,0,0,1,.35.35v3.71A.34.34,0,0,1,32.08,16.57Zm-3.36-.7h3v-3h-3Z"/><path class="cls-2" d="M30.69,15.18a.34.34,0,0,1-.26-.12l-.85-1a.35.35,0,1,1,.52-.47l.64.72,2.68-2a.35.35,0,0,1,.42.57L30.9,15.11A.33.33,0,0,1,30.69,15.18Z"/><path class="cls-2" d="M32.08,23.4H28.37a.35.35,0,0,1-.35-.35V19.33a.35.35,0,0,1,.35-.35h3.71a.35.35,0,0,1,.35.35v3.72A.35.35,0,0,1,32.08,23.4Zm-3.36-.71h3v-3h-3Z"/><path class="cls-2" d="M30.69,22a.36.36,0,0,1-.26-.11l-.85-1a.35.35,0,0,1,0-.5.36.36,0,0,1,.49,0l.64.72,2.68-2a.35.35,0,0,1,.42.57L30.9,21.94A.39.39,0,0,1,30.69,22Z"/><path class="cls-2" d="M32.08,30.07H28.37a.36.36,0,0,1-.35-.36V26a.35.35,0,0,1,.35-.35h3.71a.35.35,0,0,1,.35.35v3.71A.35.35,0,0,1,32.08,30.07Zm-3.36-.71h3v-3h-3Z"/><path class="cls-2" d="M30.69,28.67a.34.34,0,0,1-.26-.12l-.85-.95a.35.35,0,1,1,.52-.47l.64.72,2.68-2a.35.35,0,0,1,.42.57L30.9,28.6A.33.33,0,0,1,30.69,28.67Z"/><path class="cls-2" d="M22.49,17.27a3.06,3.06,0,1,1,3.06-3.06A3.06,3.06,0,0,1,22.49,17.27Zm0-5.42a2.36,2.36,0,1,0,2.36,2.36A2.36,2.36,0,0,0,22.49,11.85Z"/><path class="cls-2" d="M21.05,16.77H21a.35.35,0,0,1-.3-.4,2,2,0,0,1,1.79-1.81,2,2,0,0,1,1.79,1.78.35.35,0,0,1-.69.11,1.26,1.26,0,0,0-1.1-1.19,1.26,1.26,0,0,0-1.09,1.22A.36.36,0,0,1,21.05,16.77Z"/><path class="cls-2" d="M22.49,14.48a1.2,1.2,0,1,1,1.21-1.2A1.2,1.2,0,0,1,22.49,14.48Zm0-1.7a.5.5,0,0,0-.5.5.51.51,0,0,0,.5.5.5.5,0,0,0,.5-.5A.5.5,0,0,0,22.49,12.78Z"/><path class="cls-2" d="M22.49,24.1A3.06,3.06,0,1,1,25.55,21,3.06,3.06,0,0,1,22.49,24.1Zm0-5.41A2.36,2.36,0,1,0,24.85,21,2.35,2.35,0,0,0,22.49,18.69Z"/><path class="cls-2" d="M21.05,23.6H21a.36.36,0,0,1-.3-.4,2,2,0,0,1,1.79-1.81,2,2,0,0,1,1.79,1.78.35.35,0,0,1-.69.11,1.26,1.26,0,0,0-1.1-1.19A1.26,1.26,0,0,0,21.4,23.3.35.35,0,0,1,21.05,23.6Z"/><path class="cls-2" d="M22.49,21.32a1.21,1.21,0,1,1,1.21-1.2A1.2,1.2,0,0,1,22.49,21.32Zm0-1.7a.5.5,0,0,0-.5.5.51.51,0,0,0,.5.5.5.5,0,0,0,.5-.5A.5.5,0,0,0,22.49,19.62Z"/><path class="cls-2" d="M22.49,30.91a3.06,3.06,0,1,1,3.06-3.06A3.06,3.06,0,0,1,22.49,30.91Zm0-5.41a2.36,2.36,0,1,0,2.36,2.35A2.35,2.35,0,0,0,22.49,25.5Z"/><path class="cls-2" d="M21.05,30.41H21a.36.36,0,0,1-.3-.4,2,2,0,0,1,1.79-1.81A2,2,0,0,1,24.28,30a.35.35,0,0,1-.69.11,1.26,1.26,0,0,0-1.1-1.19,1.26,1.26,0,0,0-1.09,1.21A.35.35,0,0,1,21.05,30.41Z"/><path class="cls-2" d="M22.49,28.13a1.21,1.21,0,1,1,1.21-1.21A1.21,1.21,0,0,1,22.49,28.13Zm0-1.71a.51.51,0,0,0-.5.5.5.5,0,0,0,.5.5.5.5,0,0,0,.5-.5A.5.5,0,0,0,22.49,26.42Z"/><path class="cls-2" d="M32.9,9.77H21.4A.44.44,0,0,1,21,9.33V6.17a.43.43,0,0,1,.43-.43h3.36a2.37,2.37,0,0,1,4.69,0H32.9a.43.43,0,0,1,.43.43V9.33A.44.44,0,0,1,32.9,9.77ZM21.84,8.89H32.46V6.61H29.13a.46.46,0,0,1-.3-.11l-.09-.09a.43.43,0,0,1-.14-.32,1.49,1.49,0,0,0-3,0v.13a.43.43,0,0,1-.43.39H21.84Z"/><path class="cls-2" d="M36.06,33.72H18.16a1.84,1.84,0,0,1-1.84-1.84V9.24A1.84,1.84,0,0,1,18.16,7.4h3.22a.44.44,0,0,1,0,.88H18.16a1,1,0,0,0-1,1V31.88a1,1,0,0,0,1,1h17.9a1,1,0,0,0,1-1V9.24a1,1,0,0,0-1-1H32.93a.44.44,0,0,1,0-.88h3.13A1.85,1.85,0,0,1,37.9,9.24V31.88A1.85,1.85,0,0,1,36.06,33.72Z"/><polygon class="cls-1" points="57.06 0 47.78 38.56 0 38.56 9.81 0 57.06 0"/><path class="cls-2" d="M32.08,16.57H28.37a.35.35,0,0,1-.35-.35V12.51a.35.35,0,0,1,.35-.35h3.71a.35.35,0,0,1,.35.35v3.71A.34.34,0,0,1,32.08,16.57Zm-3.36-.7h3v-3h-3Z"/><path class="cls-2" d="M30.69,15.18a.34.34,0,0,1-.26-.12l-.85-1a.35.35,0,1,1,.52-.47l.64.72,2.68-2a.35.35,0,0,1,.42.57L30.9,15.11A.33.33,0,0,1,30.69,15.18Z"/><path class="cls-2" d="M32.08,23.4H28.37a.35.35,0,0,1-.35-.35V19.33a.35.35,0,0,1,.35-.35h3.71a.35.35,0,0,1,.35.35v3.72A.35.35,0,0,1,32.08,23.4Zm-3.36-.71h3v-3h-3Z"/><path class="cls-2" d="M30.69,22a.36.36,0,0,1-.26-.11l-.85-1a.35.35,0,0,1,0-.5.36.36,0,0,1,.49,0l.64.72,2.68-2a.35.35,0,0,1,.42.57L30.9,21.94A.39.39,0,0,1,30.69,22Z"/><path class="cls-2" d="M32.08,30.07H28.37a.36.36,0,0,1-.35-.36V26a.35.35,0,0,1,.35-.35h3.71a.35.35,0,0,1,.35.35v3.71A.35.35,0,0,1,32.08,30.07Zm-3.36-.71h3v-3h-3Z"/><path class="cls-2" d="M30.69,28.67a.34.34,0,0,1-.26-.12l-.85-.95a.35.35,0,1,1,.52-.47l.64.72,2.68-2a.35.35,0,0,1,.42.57L30.9,28.6A.33.33,0,0,1,30.69,28.67Z"/><path class="cls-2" d="M22.49,17.27a3.06,3.06,0,1,1,3.06-3.06A3.06,3.06,0,0,1,22.49,17.27Zm0-5.42a2.36,2.36,0,1,0,2.36,2.36A2.36,2.36,0,0,0,22.49,11.85Z"/><path class="cls-2" d="M21.05,16.77H21a.35.35,0,0,1-.3-.4,2,2,0,0,1,1.79-1.81,2,2,0,0,1,1.79,1.78.35.35,0,0,1-.69.11,1.26,1.26,0,0,0-1.1-1.19,1.26,1.26,0,0,0-1.09,1.22A.36.36,0,0,1,21.05,16.77Z"/><path class="cls-2" d="M22.49,14.48a1.2,1.2,0,1,1,1.21-1.2A1.2,1.2,0,0,1,22.49,14.48Zm0-1.7a.5.5,0,0,0-.5.5.51.51,0,0,0,.5.5.5.5,0,0,0,.5-.5A.5.5,0,0,0,22.49,12.78Z"/><path class="cls-2" d="M22.49,24.1A3.06,3.06,0,1,1,25.55,21,3.06,3.06,0,0,1,22.49,24.1Zm0-5.41A2.36,2.36,0,1,0,24.85,21,2.35,2.35,0,0,0,22.49,18.69Z"/><path class="cls-2" d="M21.05,23.6H21a.36.36,0,0,1-.3-.4,2,2,0,0,1,1.79-1.81,2,2,0,0,1,1.79,1.78.35.35,0,0,1-.69.11,1.26,1.26,0,0,0-1.1-1.19A1.26,1.26,0,0,0,21.4,23.3.35.35,0,0,1,21.05,23.6Z"/><path class="cls-2" d="M22.49,21.32a1.21,1.21,0,1,1,1.21-1.2A1.2,1.2,0,0,1,22.49,21.32Zm0-1.7a.5.5,0,0,0-.5.5.51.51,0,0,0,.5.5.5.5,0,0,0,.5-.5A.5.5,0,0,0,22.49,19.62Z"/><path class="cls-2" d="M22.49,30.91a3.06,3.06,0,1,1,3.06-3.06A3.06,3.06,0,0,1,22.49,30.91Zm0-5.41a2.36,2.36,0,1,0,2.36,2.35A2.35,2.35,0,0,0,22.49,25.5Z"/><path class="cls-2" d="M21.05,30.41H21a.36.36,0,0,1-.3-.4,2,2,0,0,1,1.79-1.81A2,2,0,0,1,24.28,30a.35.35,0,0,1-.69.11,1.26,1.26,0,0,0-1.1-1.19,1.26,1.26,0,0,0-1.09,1.21A.35.35,0,0,1,21.05,30.41Z"/><path class="cls-2" d="M22.49,28.13a1.21,1.21,0,1,1,1.21-1.21A1.21,1.21,0,0,1,22.49,28.13Zm0-1.71a.51.51,0,0,0-.5.5.5.5,0,0,0,.5.5.5.5,0,0,0,.5-.5A.5.5,0,0,0,22.49,26.42Z"/><path class="cls-2" d="M32.9,9.77H21.4A.44.44,0,0,1,21,9.33V6.17a.43.43,0,0,1,.43-.43h3.36a2.37,2.37,0,0,1,4.69,0H32.9a.43.43,0,0,1,.43.43V9.33A.44.44,0,0,1,32.9,9.77ZM21.84,8.89H32.46V6.61H29.13a.46.46,0,0,1-.3-.11l-.09-.09a.43.43,0,0,1-.14-.32,1.49,1.49,0,0,0-3,0v.13a.43.43,0,0,1-.43.39H21.84Z"/><path class="cls-2" d="M36.06,33.72H18.16a1.84,1.84,0,0,1-1.84-1.84V9.24A1.84,1.84,0,0,1,18.16,7.4h3.22a.44.44,0,0,1,0,.88H18.16a1,1,0,0,0-1,1V31.88a1,1,0,0,0,1,1h17.9a1,1,0,0,0,1-1V9.24a1,1,0,0,0-1-1H32.93a.44.44,0,0,1,0-.88h3.13A1.85,1.85,0,0,1,37.9,9.24V31.88A1.85,1.85,0,0,1,36.06,33.72Z"/></g></g></svg>