<svg xmlns="http://www.w3.org/2000/svg" viewBox="0 0 57.06 38.56"><defs><style>.cls-1{fill:#023165;}.cls-2{fill:#fff;}</style></defs><title>Recurso 12</title><g id="Capa_2" data-name="Capa 2"><g id="Capa_1-2" data-name="Capa 1"><polygon class="cls-1" points="57.06 0 47.78 38.56 0 38.56 9.81 0 57.06 0"/><path class="cls-2" d="M19.1,11.42H15a.29.29,0,0,1-.27-.2.27.27,0,0,1,.09-.32L20,6.65a.29.29,0,0,1,.48.22v3.2A1.34,1.34,0,0,1,19.1,11.42Zm-3.3-.59h3.3a.76.76,0,0,0,.76-.76V7.5Z"/><line class="cls-2" x1="27.31" y1="22.42" x2="16.62" y2="22.42"/><path class="cls-2" d="M27.31,22.72H16.62a.3.3,0,0,1,0-.59H27.31a.3.3,0,1,1,0,.59Z"/><line class="cls-2" x1="27.31" y1="20.36" x2="16.62" y2="20.36"/><path class="cls-2" d="M27.31,20.65H16.62a.29.29,0,1,1,0-.58H27.31a.29.29,0,1,1,0,.58Z"/><line class="cls-2" x1="27.31" y1="18.3" x2="16.62" y2="18.3"/><path class="cls-2" d="M27.31,18.59H16.62a.29.29,0,0,1-.29-.29.3.3,0,0,1,.29-.3H27.31a.31.31,0,0,1,.3.3A.3.3,0,0,1,27.31,18.59Z"/><path class="cls-2" d="M22.48,16V12.86l-.71.72L21.25,13l1.35-1.36h.8V16Z"/><path class="cls-2" d="M24,13.83c0-1.11.55-2.22,1.78-2.22s1.77,1.11,1.77,2.22-.55,2.22-1.77,2.22S24,14.93,24,13.83Zm2.62,0c0-.79-.23-1.41-.84-1.41S25,13,25,13.83s.23,1.41.85,1.41S26.66,14.62,26.66,13.83Z"/><path class="cls-2" d="M25.62,29.65v-.84a.59.59,0,0,1,.6-.61h.13v-.11c0-.65,0-1.3,0-1.95A4.26,4.26,0,0,1,30.09,22c.4-.05.8,0,1.19,0H32a.32.32,0,0,1,.25.12l.65.79.92,1.1,0,0,.37-.45L35.4,22a.26.26,0,0,1,.21-.1c.54,0,1.09,0,1.63,0a4.15,4.15,0,0,1,3.1,1.64,4.2,4.2,0,0,1,.9,2.66V28.2h.14a.58.58,0,0,1,.58.59v.86h.44c.2,0,.28.08.28.27v.84a.23.23,0,0,1-.27.27H36.79a.55.55,0,0,0-.59.46.45.45,0,0,0,0,.11.23.23,0,0,1-.22.22H31.69c-.21,0-.28-.07-.3-.27a.55.55,0,0,0-.56-.52H25.18c-.19,0-.28-.08-.28-.27v-.83c0-.2.09-.28.28-.28ZM37.18,22.4a.84.84,0,0,0,0,.1l-.72,3.28c0,.23-.2.3-.41.17-.71-.43-1.43-.85-2.14-1.29a.17.17,0,0,0-.19,0L31.54,26a.24.24,0,0,1-.39-.16c-.18-.85-.37-1.7-.56-2.55l-.18-.85c-.26.05-.52.08-.77.14a3.82,3.82,0,0,0-2.83,3.65v2h5.5a1.61,1.61,0,0,1,1.3.58c.07.08.12.16.18.24a1.72,1.72,0,0,1,1.55-.83h5.43v-.07c0-.65,0-1.3,0-2a3.29,3.29,0,0,0-.09-.76,3.72,3.72,0,0,0-2.78-2.88A5.71,5.71,0,0,0,37.18,22.4Zm-2.16,8,0,0a1,1,0,0,1,1-.68h5.32c.13,0,.17,0,.17-.17v-.65c0-.13,0-.16-.17-.16h-6A1.24,1.24,0,0,0,34,29.87a.22.22,0,0,1-.22.24.23.23,0,0,1-.24-.24,1.25,1.25,0,0,0-1.28-1.23c-.73,0-1.47,0-2.2,0l-3.84,0c-.12,0-.15,0-.15.15v.63c0,.18,0,.2.19.2h5.34a.94.94,0,0,1,.91.64.09.09,0,0,0,.11.08H35Zm-9.65.2h5.45a1,1,0,0,1,1,.72c0,.05,0,.07.09.07h3.76a.11.11,0,0,0,.12-.09,1,1,0,0,1,1-.7h5.45v-.45H36a.48.48,0,0,0-.51.46c0,.2-.09.26-.3.26H32.42a.22.22,0,0,1-.08,0,.22.22,0,0,1-.22-.22.5.5,0,0,0-.54-.5H25.37Zm8.06-6.29c-.25-.31-.49-.62-.74-.92-.1-.13-.22-.24-.32-.37l-.44-.52a.22.22,0,0,0-.13-.06h-.92l.66,3Zm3.27-1.86h-1a.13.13,0,0,0-.09.06l-1.22,1.45q-.13.18-.3.36L36,25.42Z"/><path class="cls-2" d="M30,16.1V14.19A2.48,2.48,0,0,1,32,11.82a3.44,3.44,0,0,1,.46,0h2.65a2.45,2.45,0,0,1,2.41,1.9,2.87,2.87,0,0,1,.07.58c0,.58,0,1.16,0,1.74v.11h.1c.18,0,.37,0,.55,0a.44.44,0,0,1,.45.46c0,.3,0,.61,0,.92a.9.9,0,0,1-.89.89h-.26A3.83,3.83,0,0,1,36,21a3.68,3.68,0,0,1-2.41.66A3.86,3.86,0,0,1,30,18.39h-.24a.84.84,0,0,1-.62-.24.92.92,0,0,1-.29-.67V16.6a.45.45,0,0,1,.48-.48H30ZM35,14.42h0a5,5,0,0,1-2.32.7,5.21,5.21,0,0,0-.88.06,2,2,0,0,0-1.31.93.27.27,0,0,0,0,.15c0,.53,0,1.07,0,1.6a2.6,2.6,0,0,0,.06.56,3.37,3.37,0,0,0,6.68-.54c0-.67,0-1.35,0-2,0-.06,0-.08-.08-.1A5,5,0,0,1,35.68,15Zm-4.6,1,0,0a2.67,2.67,0,0,1,1.86-.72,5.81,5.81,0,0,0,.72-.05,4.33,4.33,0,0,0,1.85-.68c.17-.11.26-.11.4.06a4.85,4.85,0,0,0,1.56,1.17l.33.14c0-.38,0-.75,0-1.11a2,2,0,0,0-1.87-1.94q-1.47,0-2.94,0a2,2,0,0,0-1.89,1.61A11.22,11.22,0,0,0,30.41,15.41Zm-1.1,1.18v.1c0,.23,0,.47,0,.7a.77.77,0,0,0,.06.3.49.49,0,0,0,.59.22V16.59Zm8.33,1.34h.18a.45.45,0,0,0,.45-.45v-.89h-.63Z"/><path class="cls-2" d="M39.08,27.45H37.16V27h1.92Z"/><path class="cls-2" d="M32,22.41a.27.27,0,0,1-.25-.17.27.27,0,0,1,.15-.35,1.28,1.28,0,0,0,.66-.66.27.27,0,0,1,.35-.15.28.28,0,0,1,.15.35,1.84,1.84,0,0,1-1,1Z"/><path class="cls-2" d="M36,22.41a.27.27,0,0,0,.25-.17.26.26,0,0,0-.15-.35,1.29,1.29,0,0,1-.65-.66.28.28,0,0,0-.35-.15.26.26,0,0,0-.15.35,1.84,1.84,0,0,0,1,1Z"/><path class="cls-2" d="M29.11,22.59a.29.29,0,0,1-.29-.29V7.92a.76.76,0,0,0-.76-.75H20.15a.3.3,0,0,1,0-.59h7.91a1.34,1.34,0,0,1,1.35,1.34V22.3A.29.29,0,0,1,29.11,22.59Z"/><path class="cls-2" d="M26.41,26H16a1.34,1.34,0,0,1-1.34-1.35V11.12a.3.3,0,0,1,.59,0V24.63a.76.76,0,0,0,.75.76H26.41a.3.3,0,1,1,0,.59Z"/><line class="cls-2" x1="27.31" y1="22.42" x2="16.62" y2="22.42"/><path class="cls-2" d="M27.31,22.72H16.62a.3.3,0,0,1,0-.59H27.31a.3.3,0,1,1,0,.59Z"/><line class="cls-2" x1="27.31" y1="20.36" x2="16.62" y2="20.36"/><path class="cls-2" d="M27.31,20.65H16.62a.29.29,0,1,1,0-.58H27.31a.29.29,0,1,1,0,.58Z"/><line class="cls-2" x1="27.31" y1="18.3" x2="16.62" y2="18.3"/><path class="cls-2" d="M27.31,18.59H16.62a.29.29,0,0,1-.29-.29.3.3,0,0,1,.29-.3H27.31a.31.31,0,0,1,.3.3A.3.3,0,0,1,27.31,18.59Z"/><path class="cls-2" d="M31.18,12.47a.29.29,0,0,1-.3-.29v-2a.76.76,0,0,0-.75-.75h-1a.3.3,0,0,1,0-.59h1a1.34,1.34,0,0,1,1.34,1.34v2A.29.29,0,0,1,31.18,12.47Z"/><path class="cls-2" d="M26.45,28.19H18.09a1.34,1.34,0,0,1-1.35-1.35V25.71a.3.3,0,1,1,.59,0v1.13a.76.76,0,0,0,.76.76h8.36a.3.3,0,1,1,0,.59Z"/><path class="cls-2" d="M22.48,16V12.86l-.71.72L21.25,13l1.35-1.36h.8V16Z"/><path class="cls-2" d="M24,13.83c0-1.11.55-2.22,1.78-2.22s1.77,1.11,1.77,2.22-.55,2.22-1.77,2.22S24,14.93,24,13.83Zm2.62,0c0-.79-.23-1.41-.84-1.41S25,13,25,13.83s.23,1.41.85,1.41S26.66,14.62,26.66,13.83Z"/></g></g></svg>