<svg xmlns="http://www.w3.org/2000/svg" viewBox="0 0 57.06 38.56"><defs><style>.cls-1{fill:#c20506;}.cls-2{fill:#fff;}</style></defs><title>Recurso 13</title><g id="Capa_2" data-name="Capa 2"><g id="Capa_1-2" data-name="Capa 1"><polygon class="cls-1" points="57.06 0 47.78 38.56 0 38.56 9.81 0 57.06 0"/><path class="cls-2" d="M39.05,31H15.81c-1.34,0-2.38-.7-2.38-1.6V9.59c0-.89,1-1.59,2.38-1.59H35a.35.35,0,1,1,0,.69H15.81c-1,0-1.68.48-1.68.9V29.35c0,.43.69.9,1.68.9H39.05c1,0,1.68-.47,1.68-.9v-16a.35.35,0,1,1,.7,0v16C41.43,30.25,40.39,31,39.05,31Z"/><path class="cls-2" d="M41.08,13.73H36.2a1.59,1.59,0,0,1-1.59-1.59V8.36a.36.36,0,0,1,.2-.32.34.34,0,0,1,.37.05l6.12,5a.35.35,0,0,1-.22.62ZM35.31,9.09v3.05a.89.89,0,0,0,.89.89h3.91Z"/><path class="cls-2" d="M19.48,16.41a3,3,0,1,1,3-3A3,3,0,0,1,19.48,16.41Zm0-5.3a2.31,2.31,0,1,0,2.3,2.3A2.3,2.3,0,0,0,19.48,11.11Z"/><path class="cls-2" d="M18.06,15.92h0a.35.35,0,0,1-.29-.39,1.92,1.92,0,0,1,1.76-1.78,1.92,1.92,0,0,1,1.75,1.74.35.35,0,0,1-.29.4.35.35,0,0,1-.39-.29,1.24,1.24,0,0,0-1.07-1.16,1.25,1.25,0,0,0-1.08,1.19A.34.34,0,0,1,18.06,15.92Z"/><path class="cls-2" d="M19.48,13.68a1.18,1.18,0,1,1,1.17-1.18A1.18,1.18,0,0,1,19.48,13.68Zm0-1.66a.49.49,0,1,0,.49.48A.48.48,0,0,0,19.48,12Z"/><path class="cls-2" d="M38.34,28.74H16.86a.34.34,0,0,1-.34-.34V18a.35.35,0,0,1,.34-.35H38.34a.35.35,0,0,1,.34.35V28.4A.34.34,0,0,1,38.34,28.74Zm-21.13-.68H38V18.35H17.21Z"/><path class="cls-2" d="M38.17,20.2H17a.35.35,0,0,1-.35-.34.35.35,0,0,1,.35-.35H38.17a.35.35,0,0,1,.34.35A.34.34,0,0,1,38.17,20.2Z"/><path class="cls-2" d="M32.5,11.91H24.25a.34.34,0,0,1-.34-.34.35.35,0,0,1,.34-.35H32.5a.35.35,0,0,1,.34.35A.34.34,0,0,1,32.5,11.91Z"/><path class="cls-2" d="M32.5,13.8H24.25a.34.34,0,0,1-.34-.34.35.35,0,0,1,.34-.35H32.5a.35.35,0,0,1,.34.35A.34.34,0,0,1,32.5,13.8Z"/><path class="cls-2" d="M32.5,15.69H24.25a.35.35,0,0,1,0-.69H32.5a.35.35,0,0,1,0,.69Z"/><path class="cls-2" d="M27.9,28.57a.35.35,0,0,1-.35-.34V19.86a.35.35,0,0,1,.35-.35.35.35,0,0,1,.34.35v8.37A.34.34,0,0,1,27.9,28.57Z"/><path class="cls-2" d="M24.46,28.57a.34.34,0,0,1-.34-.34V19.86a.35.35,0,0,1,.34-.35.35.35,0,0,1,.35.35v8.37A.35.35,0,0,1,24.46,28.57Z"/><path class="cls-2" d="M31.16,28.57a.34.34,0,0,1-.34-.34V19.86a.34.34,0,1,1,.68,0v8.37A.34.34,0,0,1,31.16,28.57Z"/><path class="cls-2" d="M34.6,28.57a.35.35,0,0,1-.35-.34V19.86a.35.35,0,0,1,.35-.35.35.35,0,0,1,.34.35v8.37A.34.34,0,0,1,34.6,28.57Z"/></g></g></svg>