<svg xmlns="http://www.w3.org/2000/svg" viewBox="0 0 57.06 38.56"><defs><style>.cls-1{fill:#023165;}.cls-2{fill:#fff;}</style></defs><title>Recurso 14</title><g id="Capa_2" data-name="Capa 2"><g id="Capa_1-2" data-name="Capa 1"><polygon class="cls-1" points="57.06 0 47.78 38.56 0 38.56 9.81 0 57.06 0"/><path class="cls-2" d="M19.78,25.92V25a.61.61,0,0,1,.63-.64h.13V22.2a4.52,4.52,0,0,1,4-4.41c.41-.05.84,0,1.26,0h.7a.3.3,0,0,1,.26.13l.7.83,1,1.17s0,0,0,0l.4-.47c.43-.53.87-1.05,1.3-1.57a.28.28,0,0,1,.22-.11c.58,0,1.15,0,1.73,0a4.54,4.54,0,0,1,4.24,4.56v2.06h.15a.6.6,0,0,1,.61.62c0,.3,0,.6,0,.91h.47c.21,0,.29.09.29.29v.89c0,.2-.08.29-.28.29h-6a.58.58,0,0,0-.62.48A.49.49,0,0,0,31,28a.26.26,0,0,1-.24.23H26.2c-.22,0-.29-.07-.31-.29a.58.58,0,0,0-.59-.54H23.05l-3.74,0c-.21,0-.3-.09-.3-.3v-.87c0-.21.09-.3.3-.3ZM32,18.24c0,.06,0,.08,0,.1-.25,1.16-.51,2.32-.76,3.48-.06.24-.21.31-.43.18l-2.28-1.36a.15.15,0,0,0-.2,0c-.76.46-1.52.92-2.29,1.37a.24.24,0,0,1-.4-.17l-.6-2.7-.19-.9c-.28.05-.55.08-.81.15a4,4,0,0,0-3,3.86v2.14h5.84a1.75,1.75,0,0,1,1.37.62l.2.25a1.81,1.81,0,0,1,1.63-.87h2.49l3.14,0h.13s0-.06,0-.08c0-.69,0-1.38,0-2.07a3.66,3.66,0,0,0-.09-.81,4,4,0,0,0-3-3.05A6.75,6.75,0,0,0,32,18.24Zm-2.29,8.45,0-.05a1,1,0,0,1,1-.72h5.64c.14,0,.17,0,.17-.18s0-.46,0-.69,0-.17-.17-.17H30a1.3,1.3,0,0,0-1.34,1.29.25.25,0,1,1-.49,0,1.32,1.32,0,0,0-1.36-1.29h-6.4c-.12,0-.16,0-.16.17v.66c0,.19,0,.21.21.21h5.65a1,1,0,0,1,1,.68c0,.07,0,.09.11.09h2.53Zm-10.23.21h5.77a1.07,1.07,0,0,1,1.06.76c0,.05,0,.07.09.07h4c.07,0,.11,0,.13-.09a1.07,1.07,0,0,1,1-.74h5.78v-.48H30.75a.52.52,0,0,0-.54.49c0,.21-.1.28-.31.28h-3a.26.26,0,0,1-.23-.24.52.52,0,0,0-.57-.53H19.51Zm8.55-6.67-.79-1c-.11-.14-.23-.26-.35-.4s-.3-.37-.46-.55a.22.22,0,0,0-.14-.06c-.28,0-.57,0-.85,0h-.12l.7,3.19Zm3.46-2h0c-.33,0-.65,0-1,0a.18.18,0,0,0-.1.06l-1.28,1.54c-.11.12-.21.25-.32.38l2,1.2Z"/><path class="cls-2" d="M24.36,11.56v-.11c0-.64,0-1.27,0-1.91A2.61,2.61,0,0,1,26.58,7l.48,0h2.82a2.61,2.61,0,0,1,2.55,2,2.54,2.54,0,0,1,.07.61c0,.62,0,1.23,0,1.85v.11h.69a.47.47,0,0,1,.48.48c0,.33,0,.66,0,1a1,1,0,0,1-.94,1h-.28a4,4,0,0,1-1.72,2.72,4,4,0,0,1-2.56.7A4.07,4.07,0,0,1,24.42,14h-.26a.91.91,0,0,1-.65-.26.93.93,0,0,1-.31-.7c0-.31,0-.63,0-.94a.48.48,0,0,1,.51-.51h.66Zm5.36-1.78h0a5.35,5.35,0,0,1-2.46.74,5.62,5.62,0,0,0-.92.07,2.12,2.12,0,0,0-1.4,1,.33.33,0,0,0-.05.16c0,.57,0,1.13,0,1.7a2.88,2.88,0,0,0,.06.59A3.58,3.58,0,0,0,32,13.46c0-.72,0-1.43,0-2.15a.09.09,0,0,0-.07-.1,5,5,0,0,1-1.51-.82C30.19,10.2,30,10,29.72,9.78Zm-4.87,1.05,0,0a2.78,2.78,0,0,1,2-.75,6.32,6.32,0,0,0,.76-.06,4.43,4.43,0,0,0,2-.72c.19-.12.28-.11.43.06a5.23,5.23,0,0,0,1.66,1.25l.34.14c0-.4,0-.79,0-1.18a2.1,2.1,0,0,0-2-2q-1.56,0-3.12,0a2.09,2.09,0,0,0-2,1.7A12.73,12.73,0,0,0,24.85,10.83Zm-1.17,1.24a.4.4,0,0,1,0,.11c0,.25,0,.5,0,.75a1.13,1.13,0,0,0,.06.32.55.55,0,0,0,.63.23V12.07Zm8.83,1.42h.2a.46.46,0,0,0,.47-.47v-.95h-.67Z"/><path class="cls-2" d="M34,23.59H32v-.48h2Z"/><path class="cls-2" d="M26.54,18.24a.28.28,0,0,1-.27-.17.28.28,0,0,1,.16-.37,1.54,1.54,0,0,0,.7-.7.28.28,0,0,1,.37-.16.3.3,0,0,1,.16.37,2,2,0,0,1-1,1A.18.18,0,0,1,26.54,18.24Z"/><path class="cls-2" d="M30.81,18.24a.28.28,0,0,0,.11-.54,1.43,1.43,0,0,1-.7-.7.29.29,0,1,0-.53.21,1.94,1.94,0,0,0,1,1A.18.18,0,0,0,30.81,18.24Z"/><path class="cls-2" d="M28.35,32.71a14.22,14.22,0,0,1-12.8-8.12.36.36,0,0,1,.65-.3,13.43,13.43,0,1,0,.16-11.78.36.36,0,0,1-.63-.33A14.15,14.15,0,1,1,28.35,32.71Z"/><path class="cls-2" d="M12.85,23.45a.35.35,0,0,1-.22-.08.36.36,0,0,1-.05-.51l3.66-4.48L12.72,13.9a.35.35,0,0,1,.06-.5.36.36,0,0,1,.5.06L17,18.17a.36.36,0,0,1,0,.44l-3.85,4.71A.37.37,0,0,1,12.85,23.45Z"/></g></g></svg>